<svg width="210" height="648" viewBox="0 0 210 648" fill="none" xmlns="http://www.w3.org/2000/svg">
<g clip-path="url(#clip0_1172_12613)">
<path d="M194 149.635L193.964 149.618L178 155.988V159.909L178.187 160L194 153.691V149.635Z" fill="#A6A6A6"/>
<path d="M194 135.993L193.964 135.975L178 142.345V146.266L178.187 146.357L194 140.048V135.993Z" fill="#A6A6A6"/>
<path d="M194 119.318L193.964 119.3L178 125.67V129.591L178.187 129.682L194 123.373V119.318Z" fill="#A6A6A6"/>
<path d="M194 105.675L193.964 105.658L178 112.027V115.948L178.187 116.04L194 109.73V105.675Z" fill="#A6A6A6"/>
<path d="M194 89.0003L193.964 88.9828L178 95.3524V99.2734L178.187 99.3649L194 93.0558V89.0003Z" fill="#A6A6A6"/>
<path d="M194 73.8415L193.964 73.8241L178 80.1936V84.1146L178.187 84.2061L194 77.8971V73.8415Z" fill="#A6A6A6"/>
<path d="M194 58.6827L193.964 58.6653L178 65.0348V68.9558L178.187 69.0473L194 62.7383V58.6827Z" fill="#A6A6A6"/>
<path d="M194 45.0398L193.964 45.0224L178 51.3919V55.3129L178.187 55.4044L194 49.0954V45.0398Z" fill="#A6A6A6"/>
<path d="M194 29.881L193.964 29.8636L178 36.2331V40.1541L178.187 40.2456L194 33.9366V29.881Z" fill="#A6A6A6"/>
<path d="M194 16.2381L193.964 16.2207L178 22.5902V26.5112L178.187 26.6027L194 20.2937V16.2381Z" fill="#A6A6A6"/>
<path d="M194 3.61903V0H192.826L178 5.91558V9.83658L178.187 9.92805L194 3.61903Z" fill="#A6A6A6"/>
<path d="M32 149.635L31.9643 149.618L16 155.988V159.909L16.1874 160L32 153.691V149.635Z" fill="#A6A6A6"/>
<path d="M32 135.993L31.9643 135.975L16 142.345V146.266L16.1874 146.357L32 140.048V135.993Z" fill="#A6A6A6"/>
<path d="M32 119.318L31.9643 119.3L16 125.67V129.591L16.1874 129.682L32 123.373V119.318Z" fill="#A6A6A6"/>
<path d="M32 105.675L31.9643 105.658L16 112.027V115.948L16.1874 116.04L32 109.73V105.675Z" fill="#A6A6A6"/>
<path d="M32 89.0003L31.9643 88.9828L16 95.3524V99.2734L16.1874 99.3649L32 93.0558V89.0003Z" fill="#A6A6A6"/>
<path d="M32 73.8415L31.9643 73.8241L16 80.1936V84.1146L16.1874 84.2061L32 77.8971V73.8415Z" fill="#A6A6A6"/>
<path d="M32 58.6827L31.9643 58.6653L16 65.0348V68.9558L16.1874 69.0473L32 62.7383V58.6827Z" fill="#A6A6A6"/>
<path d="M32 45.0398L31.9643 45.0224L16 51.3919V55.3129L16.1874 55.4044L32 49.0954V45.0398Z" fill="#A6A6A6"/>
<path d="M32 29.881L31.9643 29.8636L16 36.2331V40.1541L16.1874 40.2456L32 33.9366V29.881Z" fill="#A6A6A6"/>
<path d="M32 16.2381L31.9643 16.2207L16 22.5902V26.5112L16.1874 26.6027L32 20.2937V16.2381Z" fill="#A6A6A6"/>
<path d="M32 3.61903V0H30.8265L16 5.91558V9.83658L16.1874 9.92805L32 3.61903Z" fill="#A6A6A6"/>
<rect x="76" width="58" height="648" fill="#EFEFEF"/>
<rect x="10" width="6" height="40" fill="#9F2D22"/>
<rect x="32" width="6" height="160" fill="#9F2D22"/>
<rect x="50" width="6" height="303" fill="#9F2D22"/>
<rect x="160" width="12" height="47" fill="url(#paint0_linear_1172_12613)"/>
<rect x="38" width="12" height="47" fill="url(#paint1_linear_1172_12613)"/>
<rect x="56" width="20" height="200" fill="url(#paint2_linear_1172_12613)"/>
<rect x="134" width="20" height="200" fill="url(#paint3_linear_1172_12613)"/>
<rect x="96" width="18" height="62" fill="url(#paint4_linear_1172_12613)"/>
<rect x="96" y="108" width="18" height="112" fill="url(#paint5_linear_1172_12613)"/>
<rect x="96" y="266" width="18" height="151" fill="url(#paint6_linear_1172_12613)"/>
<rect x="96" y="451" width="18" height="56" fill="url(#paint7_linear_1172_12613)"/>
<rect x="96" y="62" width="18" height="46" fill="#A6A6A6"/>
<rect x="96" y="220" width="18" height="46" fill="url(#paint8_linear_1172_12613)"/>
<rect x="96" y="507" width="18" height="24" fill="url(#paint9_linear_1172_12613)"/>
<rect x="154" width="6" height="303" fill="#9F2D22"/>
<rect x="172" width="6" height="160" fill="#9F2D22"/>
<rect x="194" width="6" height="40" fill="#9F2D22"/>
<path d="M10 40V30L0 40H10Z" fill="black"/>
<path d="M32 160V150L22 160H32Z" fill="black"/>
<path d="M50 303V293L40 303H50Z" fill="black"/>
<path d="M68 403V393L58 403H68Z" fill="black"/>
<path d="M75 648V638L65 648H75Z" fill="black"/>
<path d="M200 40V30L210 40H200Z" fill="black"/>
<path d="M178 160V150L188 160H178Z" fill="black"/>
<path d="M142 403V393L152 403H142Z" fill="black"/>
<path d="M160 303V293L170 303H160Z" fill="black"/>
<path d="M135 648V638L145 648H135Z" fill="black"/>
<path d="M122 417V420H119.5V424L126 429V438L119.5 444V448H122V451H106H105H89V448H91.5V444L85 438V429L91.5 424V420H89V417H104.5H106.5H122Z" fill="#5170BC"/>
<rect x="85" y="429" width="41" height="9" fill="black"/>
<rect x="69" y="167" width="6" height="150" fill="url(#paint10_linear_1172_12613)"/>
<rect width="1" height="236" transform="matrix(-1 0 0 1 69 167)" fill="#9B2820"/>
<rect width="1" height="340" transform="matrix(-1 0 0 1 76 167)" fill="#9B2820"/>
<rect x="134" y="167" width="1" height="340" fill="#9B2820"/>
<rect width="1" height="15" transform="matrix(-1 0 0 1 76 545)" fill="#9B2820"/>
<rect x="134" y="545" width="1" height="15" fill="#9B2820"/>
<rect width="1" height="15" transform="matrix(-1 0 0 1 76 578)" fill="#9B2820"/>
<rect x="134" y="578" width="1" height="15" fill="#9B2820"/>
<rect width="1" height="37" transform="matrix(-1 0 0 1 76 611)" fill="#9B2820"/>
<rect x="134" y="611" width="1" height="37" fill="#9B2820"/>
<rect x="135" y="167" width="6" height="150" fill="#A6A6A6"/>
<rect width="1" height="236" transform="matrix(-1 0 0 1 142 167)" fill="#9B2820"/>
<rect x="68" y="509" width="8" height="2" fill="#79B987"/>
<rect width="8" height="2" transform="matrix(-1 0 0 1 142 509)" fill="#79B987"/>
<rect x="68" y="513" width="8" height="2" fill="#79B987"/>
<rect width="8" height="2" transform="matrix(-1 0 0 1 142 513)" fill="#79B987"/>
<rect x="68" y="517" width="8" height="2" fill="#79B987"/>
<rect width="8" height="2" transform="matrix(-1 0 0 1 142 517)" fill="#79B987"/>
<rect x="68" y="521" width="8" height="2" fill="#79B987"/>
<rect width="8" height="2" transform="matrix(-1 0 0 1 142 521)" fill="#79B987"/>
<rect x="68" y="525" width="8" height="2" fill="#79B987"/>
<rect width="8" height="2" transform="matrix(-1 0 0 1 142 525)" fill="#79B987"/>
<rect x="68" y="529" width="8" height="2" fill="#79B987"/>
<rect width="8" height="2" transform="matrix(-1 0 0 1 142 529)" fill="#79B987"/>
<rect x="68" y="562" width="8" height="2" fill="#79B987"/>
<rect width="8" height="2" transform="matrix(-1 0 0 1 142 562)" fill="#79B987"/>
<rect x="68" y="595" width="8" height="2" fill="#9B2720"/>
<rect width="8" height="2" transform="matrix(-1 0 0 1 142 595)" fill="#9B2720"/>
<rect x="68" y="533" width="8" height="2" fill="#79B987"/>
<rect width="8" height="2" transform="matrix(-1 0 0 1 142 533)" fill="#79B987"/>
<rect x="68" y="566" width="8" height="2" fill="#79B987"/>
<rect width="8" height="2" transform="matrix(-1 0 0 1 142 566)" fill="#79B987"/>
<rect x="68" y="599" width="8" height="2" fill="#9B2720"/>
<rect width="8" height="2" transform="matrix(-1 0 0 1 142 599)" fill="#9B2720"/>
<rect x="68" y="537" width="8" height="2" fill="#79B987"/>
<rect width="8" height="2" transform="matrix(-1 0 0 1 142 537)" fill="#79B987"/>
<rect x="68" y="570" width="8" height="2" fill="#79B987"/>
<rect width="8" height="2" transform="matrix(-1 0 0 1 142 570)" fill="#79B987"/>
<rect x="68" y="603" width="8" height="2" fill="#9B2720"/>
<rect width="8" height="2" transform="matrix(-1 0 0 1 142 603)" fill="#9B2720"/>
<rect x="68" y="541" width="8" height="2" fill="#79B987"/>
<rect width="8" height="2" transform="matrix(-1 0 0 1 142 541)" fill="#79B987"/>
<rect x="68" y="574" width="8" height="2" fill="#79B987"/>
<rect width="8" height="2" transform="matrix(-1 0 0 1 142 574)" fill="#79B987"/>
<rect x="68" y="607" width="8" height="2" fill="#9B2720"/>
<rect width="8" height="2" transform="matrix(-1 0 0 1 142 607)" fill="#9B2720"/>
<path d="M154 348.174L153.973 348.156L142 354.464V358.346L142.141 358.437L154 352.19V348.174Z" fill="#A6A6A6"/>
<path d="M154 334.664L153.973 334.647L142 340.954V344.837L142.141 344.927L154 338.68V334.664Z" fill="#A6A6A6"/>
<path d="M154 318.152L153.973 318.135L142 324.442V328.325L142.141 328.416L154 322.168V318.152Z" fill="#A6A6A6"/>
<path d="M154 304.643L153.973 304.625L142 310.933V314.815L142.141 314.906L154 308.659V304.643Z" fill="#A6A6A6"/>
<path d="M154 288.131L153.973 288.114L142 294.421V298.304L142.141 298.394L154 292.147V288.131Z" fill="#A6A6A6"/>
<path d="M154 273.12L153.973 273.103L142 279.41V283.293L142.141 283.383L154 277.136V273.12Z" fill="#A6A6A6"/>
<path d="M154 258.109L153.973 258.092L142 264.399V268.282L142.141 268.373L154 262.125V258.109Z" fill="#A6A6A6"/>
<path d="M154 244.6L153.973 244.583L142 250.89V254.773L142.141 254.863L154 248.616V244.6Z" fill="#A6A6A6"/>
<path d="M154 229.589L153.973 229.572L142 235.879V239.762L142.141 239.852L154 233.605V229.589Z" fill="#A6A6A6"/>
<path d="M154 216.079L153.973 216.062L142 222.37V226.252L142.141 226.343L154 220.095V216.079Z" fill="#A6A6A6"/>
<path d="M154 203.584V200H153.12L142 205.858V209.74L142.141 209.831L154 203.584Z" fill="#A6A6A6"/>
<path d="M50 195.174L49.9732 195.156L38 201.464V205.346L38.1406 205.437L50 199.19V195.174Z" fill="#A6A6A6"/>
<path d="M50 181.664L49.9732 181.647L38 187.954V191.837L38.1406 191.927L50 185.68V181.664Z" fill="#A6A6A6"/>
<path d="M50 165.152L49.9732 165.135L38 171.442V175.325L38.1406 175.416L50 169.168V165.152Z" fill="#A6A6A6"/>
<path d="M50 151.643L49.9732 151.625L38 157.933V161.815L38.1406 161.906L50 155.659V151.643Z" fill="#A6A6A6"/>
<path d="M50 135.131L49.9732 135.114L38 141.421V145.304L38.1406 145.394L50 139.147V135.131Z" fill="#A6A6A6"/>
<path d="M50 120.12L49.9732 120.103L38 126.41V130.293L38.1406 130.383L50 124.136V120.12Z" fill="#A6A6A6"/>
<path d="M50 105.109L49.9732 105.092L38 111.399V115.282L38.1406 115.373L50 109.125V105.109Z" fill="#A6A6A6"/>
<path d="M50 91.5998L49.9732 91.5826L38 97.8899V101.773L38.1406 101.863L50 95.6158V91.5998Z" fill="#A6A6A6"/>
<path d="M50 76.5891L49.9732 76.5718L38 82.8792V86.7619L38.1406 86.8524L50 80.6051V76.5891Z" fill="#A6A6A6"/>
<path d="M50 63.0795L49.9732 63.0622L38 69.3695V73.2522L38.1406 73.3428L50 67.0954V63.0795Z" fill="#A6A6A6"/>
<path d="M50 50.5837V47H49.1199L38 52.8578V56.7405L38.1406 56.8311L50 50.5837Z" fill="#A6A6A6"/>
<path d="M68 348.174L67.9732 348.156L56 354.464V358.346L56.1406 358.437L68 352.19V348.174Z" fill="#A6A6A6"/>
<path d="M68 334.664L67.9732 334.647L56 340.954V344.837L56.1406 344.927L68 338.68V334.664Z" fill="#A6A6A6"/>
<path d="M68 318.152L67.9732 318.135L56 324.442V328.325L56.1406 328.416L68 322.168V318.152Z" fill="#A6A6A6"/>
<path d="M68 304.643L67.9732 304.625L56 310.933V314.815L56.1406 314.906L68 308.659V304.643Z" fill="#A6A6A6"/>
<path d="M68 288.131L67.9732 288.114L56 294.421V298.304L56.1406 298.394L68 292.147V288.131Z" fill="#A6A6A6"/>
<path d="M68 273.12L67.9732 273.103L56 279.41V283.293L56.1406 283.383L68 277.136V273.12Z" fill="#A6A6A6"/>
<path d="M68 258.109L67.9732 258.092L56 264.399V268.282L56.1406 268.373L68 262.125V258.109Z" fill="#A6A6A6"/>
<path d="M68 244.6L67.9732 244.583L56 250.89V254.773L56.1406 254.863L68 248.616V244.6Z" fill="#A6A6A6"/>
<path d="M68 229.589L67.9732 229.572L56 235.879V239.762L56.1406 239.852L68 233.605V229.589Z" fill="#A6A6A6"/>
<path d="M68 216.079L67.9732 216.062L56 222.37V226.252L56.1406 226.343L68 220.095V216.079Z" fill="#A6A6A6"/>
<path d="M68 203.584V200H67.1199L56 205.858V209.74L56.1406 209.831L68 203.584Z" fill="#A6A6A6"/>
<path d="M141 470.376L140.987 470.358L135 476.887V480.906L135.07 481L141 474.533V470.376Z" fill="#A6A6A6"/>
<path d="M141 456.392L140.987 456.374L135 462.903V466.922L135.07 467.016L141 460.549V456.392Z" fill="#A6A6A6"/>
<path d="M141 439.301L140.987 439.283L135 445.812V449.831L135.07 449.924L141 443.458V439.301Z" fill="#A6A6A6"/>
<path d="M141 425.317L140.987 425.299L135 431.828V435.847L135.07 435.94L141 429.474V425.317Z" fill="#A6A6A6"/>
<path d="M141 408.225L140.987 408.207L135 414.736V418.755L135.07 418.849L141 412.382V408.225Z" fill="#A6A6A6"/>
<path d="M141 392.688L140.987 392.67L135 399.198V403.217L135.07 403.311L141 396.844V392.688Z" fill="#A6A6A6"/>
<path d="M141 377.15L140.987 377.132L135 383.661V387.68L135.07 387.773L141 381.307V377.15Z" fill="#A6A6A6"/>
<path d="M141 363.166L140.987 363.148L135 369.677V373.696L135.07 373.79L141 367.323V363.166Z" fill="#A6A6A6"/>
<path d="M141 347.628L140.987 347.61L135 354.139V358.158L135.07 358.252L141 351.785V347.628Z" fill="#A6A6A6"/>
<path d="M141 333.644L140.987 333.626L135 340.155V344.174L135.07 344.268L141 337.801V333.644Z" fill="#A6A6A6"/>
<path d="M141 320.71V317H140.56L135 323.063V327.082L135.07 327.176L141 320.71Z" fill="#A6A6A6"/>
<path d="M75 472.376L74.9866 472.358L69 478.887V482.906L69.0703 483L75 476.533V472.376Z" fill="#A6A6A6"/>
<path d="M75 458.392L74.9866 458.374L69 464.903V468.922L69.0703 469.016L75 462.549V458.392Z" fill="#A6A6A6"/>
<path d="M75 441.301L74.9866 441.283L69 447.812V451.831L69.0703 451.924L75 445.458V441.301Z" fill="#A6A6A6"/>
<path d="M75 427.317L74.9866 427.299L69 433.828V437.847L69.0703 437.94L75 431.474V427.317Z" fill="#A6A6A6"/>
<path d="M75 410.225L74.9866 410.207L69 416.736V420.755L69.0703 420.849L75 414.382V410.225Z" fill="#A6A6A6"/>
<path d="M75 394.688L74.9866 394.67L69 401.198V405.217L69.0703 405.311L75 398.844V394.688Z" fill="#A6A6A6"/>
<path d="M75 379.15L74.9866 379.132L69 385.661V389.68L69.0703 389.773L75 383.307V379.15Z" fill="#A6A6A6"/>
<path d="M75 365.166L74.9866 365.148L69 371.677V375.696L69.0703 375.79L75 369.323V365.166Z" fill="#A6A6A6"/>
<path d="M75 349.628L74.9866 349.61L69 356.139V360.158L69.0703 360.252L75 353.785V349.628Z" fill="#A6A6A6"/>
<path d="M75 335.644L74.9866 335.626L69 342.155V346.174L69.0703 346.268L75 339.801V335.644Z" fill="#A6A6A6"/>
<path d="M75 322.71V319H74.5599L69 325.063V329.082L69.0703 329.176L75 322.71Z" fill="#A6A6A6"/>
<path d="M172 195.174L171.973 195.156L160 201.464V205.346L160.141 205.437L172 199.19V195.174Z" fill="#A6A6A6"/>
<path d="M172 181.664L171.973 181.647L160 187.954V191.837L160.141 191.927L172 185.68V181.664Z" fill="#A6A6A6"/>
<path d="M172 165.152L171.973 165.135L160 171.442V175.325L160.141 175.416L172 169.168V165.152Z" fill="#A6A6A6"/>
<path d="M172 151.643L171.973 151.625L160 157.933V161.815L160.141 161.906L172 155.659V151.643Z" fill="#A6A6A6"/>
<path d="M172 135.131L171.973 135.114L160 141.421V145.304L160.141 145.394L172 139.147V135.131Z" fill="#A6A6A6"/>
<path d="M172 120.12L171.973 120.103L160 126.41V130.293L160.141 130.383L172 124.136V120.12Z" fill="#A6A6A6"/>
<path d="M172 105.109L171.973 105.092L160 111.399V115.282L160.141 115.373L172 109.125V105.109Z" fill="#A6A6A6"/>
<path d="M172 91.5998L171.973 91.5826L160 97.8899V101.773L160.141 101.863L172 95.6158V91.5998Z" fill="#A6A6A6"/>
<path d="M172 76.5891L171.973 76.5718L160 82.8792V86.7619L160.141 86.8524L172 80.6051V76.5891Z" fill="#A6A6A6"/>
<path d="M172 63.0795L171.973 63.0622L160 69.3695V73.2522L160.141 73.3428L172 67.0954V63.0795Z" fill="#A6A6A6"/>
<path d="M172 50.5837V47H171.12L160 52.8578V56.7405L160.141 56.8311L172 50.5837Z" fill="#A6A6A6"/>
</g>
<defs>
<linearGradient id="paint0_linear_1172_12613" x1="172" y1="-5.60284e-08" x2="170.136" y2="38.7921" gradientUnits="userSpaceOnUse">
<stop stop-color="#999494"/>
<stop offset="1" stop-color="#D3D3D3"/>
</linearGradient>
<linearGradient id="paint1_linear_1172_12613" x1="38" y1="4" x2="50" y2="40.5" gradientUnits="userSpaceOnUse">
<stop stop-color="#999494"/>
<stop offset="1" stop-color="#D3D3D3"/>
</linearGradient>
<linearGradient id="paint2_linear_1172_12613" x1="56" y1="17.0213" x2="140.752" y2="117.988" gradientUnits="userSpaceOnUse">
<stop stop-color="#999494"/>
<stop offset="1" stop-color="#D3D3D3"/>
</linearGradient>
<linearGradient id="paint3_linear_1172_12613" x1="154" y1="-2.38419e-07" x2="134" y2="163" gradientUnits="userSpaceOnUse">
<stop stop-color="#999494"/>
<stop offset="1" stop-color="#D3D3D3"/>
</linearGradient>
<linearGradient id="paint4_linear_1172_12613" x1="96" y1="31" x2="114" y2="31" gradientUnits="userSpaceOnUse">
<stop stop-color="#A5B2DC"/>
<stop offset="0.390625" stop-color="#C9D3F1"/>
<stop offset="0.619792" stop-color="#CAD4F2"/>
<stop offset="1" stop-color="#A5B2DC"/>
</linearGradient>
<linearGradient id="paint5_linear_1172_12613" x1="96" y1="164" x2="114" y2="164" gradientUnits="userSpaceOnUse">
<stop stop-color="#A5B2DC"/>
<stop offset="0.390625" stop-color="#C9D3F1"/>
<stop offset="0.619792" stop-color="#CAD4F2"/>
<stop offset="1" stop-color="#A5B2DC"/>
</linearGradient>
<linearGradient id="paint6_linear_1172_12613" x1="96" y1="341.5" x2="114" y2="341.5" gradientUnits="userSpaceOnUse">
<stop stop-color="#A5B2DC"/>
<stop offset="0.390625" stop-color="#C9D3F1"/>
<stop offset="0.619792" stop-color="#CAD4F2"/>
<stop offset="1" stop-color="#A5B2DC"/>
</linearGradient>
<linearGradient id="paint7_linear_1172_12613" x1="96" y1="479" x2="114" y2="479" gradientUnits="userSpaceOnUse">
<stop stop-color="#A5B2DC"/>
<stop offset="0.390625" stop-color="#C9D3F1"/>
<stop offset="0.619792" stop-color="#CAD4F2"/>
<stop offset="1" stop-color="#A5B2DC"/>
</linearGradient>
<linearGradient id="paint8_linear_1172_12613" x1="96" y1="243" x2="114" y2="243" gradientUnits="userSpaceOnUse">
<stop stop-color="#A6A6A6"/>
<stop offset="0.536458" stop-color="#EEECEC"/>
<stop offset="0.979167" stop-color="#A6A6A6" stop-opacity="0.859375"/>
</linearGradient>
<linearGradient id="paint9_linear_1172_12613" x1="96" y1="519" x2="114" y2="519" gradientUnits="userSpaceOnUse">
<stop stop-color="#F2E2A8"/>
<stop offset="0.4375" stop-color="#FFF9E1"/>
<stop offset="1" stop-color="#F2E2A8"/>
</linearGradient>
<linearGradient id="paint10_linear_1172_12613" x1="69" y1="179.766" x2="119.128" y2="203.653" gradientUnits="userSpaceOnUse">
<stop stop-color="#999494"/>
<stop offset="1" stop-color="#D3D3D3"/>
</linearGradient>
<clipPath id="clip0_1172_12613">
<rect width="210" height="648" fill="white"/>
</clipPath>
</defs>
</svg>
