<svg xmlns="http://www.w3.org/2000/svg" xmlns:xlink="http://www.w3.org/1999/xlink" width="1920" zoomAndPan="magnify" viewBox="0 0 1440 809.999993" height="1080" preserveAspectRatio="xMidYMid meet" version="1.0"><path fill="#caddff" d="M 1043.886719 321.980469 C 1013.722656 168.738281 861.441406 76.125 733.632812 64.308594 C 627.75 54.519531 499.402344 81.214844 440.089844 179.441406 C 403.75 239.625 448.578125 266.125 423.4375 399.324219 C 401.679688 514.613281 362.011719 556.152344 386.15625 614.910156 C 405.894531 662.953125 450.804688 684.003906 480.289062 698.527344 C 596.503906 755.773438 810.550781 751.222656 937.652344 646.804688 C 967.398438 622.367188 1078 495.324219 1043.886719 321.980469 " fill-opacity="1" fill-rule="nonzero"/><path fill="#ffffff" d="M 642.804688 209.90625 C 660.148438 179.933594 698.496094 169.699219 728.457031 187.046875 C 758.421875 204.394531 768.65625 242.757812 751.3125 272.730469 C 733.96875 302.699219 695.621094 312.933594 665.65625 295.589844 C 635.695312 278.242188 625.460938 239.882812 642.804688 209.90625 Z M 601.457031 206.804688 C 599.507812 212.191406 598.019531 217.664062 597.019531 223.1875 L 571.101562 229.003906 L 571.074219 253.363281 L 597.019531 259.246094 C 598.019531 264.8125 599.480469 270.296875 601.386719 275.625 L 581.820312 293.648438 L 593.972656 314.757812 L 619.34375 306.890625 C 622.957031 311.175781 626.972656 315.183594 631.351562 318.878906 L 623.417969 344.277344 L 644.492188 356.480469 L 662.554688 336.945312 C 667.941406 338.898438 673.414062 340.390625 678.929688 341.386719 L 684.746094 367.316406 L 709.097656 367.335938 L 714.980469 341.386719 C 720.546875 340.390625 726.027344 338.925781 731.351562 337.015625 L 749.375 356.59375 L 770.480469 344.433594 L 762.609375 319.050781 C 766.894531 315.441406 770.898438 311.421875 774.601562 307.042969 L 799.988281 314.980469 L 812.183594 293.898438 L 792.660156 275.835938 C 794.609375 270.445312 796.097656 264.96875 797.097656 259.453125 L 823.015625 253.628906 L 823.042969 229.273438 L 797.097656 223.390625 C 796.097656 217.820312 794.636719 212.34375 792.730469 207.015625 L 812.296875 188.984375 L 800.140625 167.875 L 774.769531 175.746094 C 771.160156 171.460938 767.140625 167.453125 762.765625 163.753906 L 770.699219 138.363281 L 749.621094 126.15625 L 731.5625 145.6875 C 726.175781 143.734375 720.703125 142.25 715.1875 141.253906 L 709.371094 115.324219 L 685.019531 115.296875 L 679.136719 141.253906 C 673.566406 142.25 668.09375 143.707031 662.765625 145.621094 L 644.742188 126.046875 L 623.636719 138.203125 L 631.503906 163.582031 C 627.21875 167.199219 623.214844 171.214844 619.515625 175.589844 L 594.132812 167.660156 L 581.933594 188.738281 L 601.457031 206.804688 " fill-opacity="1" fill-rule="nonzero"/><path fill="#99b9ff" d="M 820.972656 707.0625 L 685.179688 707.0625 L 615.09375 584.351562 L 615.09375 691.53125 C 615.09375 708.292969 627.316406 721.699219 642.128906 721.699219 L 820.972656 721.699219 C 823.859375 721.699219 826.445312 719.683594 826.445312 716.796875 L 826.445312 711.996094 C 826.445312 709.113281 823.859375 707.0625 820.972656 707.0625 " fill-opacity="1" fill-rule="nonzero"/><path fill="#ffffff" d="M 635.011719 622.90625 L 635.011719 683.683594 C 635.011719 696.003906 644.773438 705.84375 657.089844 705.84375 L 774.015625 705.84375 L 774.015625 622.90625 L 635.011719 622.90625 " fill-opacity="1" fill-rule="nonzero"/><path fill="#000000" d="M 636.230469 624.121094 L 636.230469 683.683594 C 636.230469 695.425781 645.390625 704.625 657.089844 704.625 L 772.796875 704.625 L 772.796875 624.121094 Z M 775.234375 707.0625 L 657.089844 707.0625 C 644.023438 707.0625 633.789062 696.796875 633.789062 683.683594 L 633.789062 621.6875 L 775.234375 621.6875 L 775.234375 707.0625 " fill-opacity="1" fill-rule="nonzero"/><path fill="#99b9ff" d="M 1002.933594 628.511719 L 432.820312 629.757812 C 427.839844 629.757812 423.632812 626.046875 422.996094 621.089844 L 377.585938 266.078125 C 376.480469 257.441406 382.773438 249.28125 391.460938 249.28125 L 954.199219 249.796875 L 1002.933594 628.511719 " fill-opacity="1" fill-rule="nonzero"/><path fill="#ffffff" d="M 1014.617188 628.058594 L 455.894531 628.058594 C 450.914062 628.058594 446.707031 624.339844 446.070312 619.371094 L 400.945312 267.546875 C 399.691406 257.777344 407.257812 249.121094 417.050781 249.121094 L 968.570312 249.121094 C 973.550781 249.121094 977.757812 252.839844 978.394531 257.808594 L 1024.445312 616.820312 C 1025.207031 622.78125 1020.59375 628.058594 1014.617188 628.058594 " fill-opacity="1" fill-rule="nonzero"/><path fill="#000000" d="M 417.050781 250.335938 C 412.753906 250.335938 408.652344 252.195312 405.804688 255.433594 C 402.929688 258.703125 401.597656 263.0625 402.152344 267.390625 L 447.28125 619.214844 C 447.835938 623.5625 451.539062 626.839844 455.894531 626.839844 L 1014.621094 626.839844 C 1017.105469 626.839844 1019.476562 625.765625 1021.121094 623.894531 C 1022.789062 622.003906 1023.558594 619.480469 1023.238281 616.976562 L 977.183594 257.964844 C 976.625 253.617188 972.921875 250.335938 968.574219 250.335938 Z M 1014.621094 629.277344 L 455.894531 629.277344 C 450.316406 629.277344 445.574219 625.085938 444.859375 619.523438 L 399.734375 267.703125 C 399.089844 262.679688 400.636719 257.621094 403.972656 253.824219 C 407.285156 250.058594 412.050781 247.898438 417.050781 247.898438 L 968.574219 247.898438 C 974.148438 247.898438 978.894531 252.089844 979.601562 257.652344 L 1025.652344 616.664062 C 1026.066406 619.867188 1025.082031 623.085938 1022.953125 625.503906 C 1020.84375 627.90625 1017.804688 629.277344 1014.621094 629.277344 " fill-opacity="1" fill-rule="nonzero"/><path fill="#caddff" d="M 444.875 215.460938 L 934.210938 215.460938 C 945.007812 215.460938 954.832031 224.246094 956.15625 235.089844 L 997.433594 573.65625 C 998.773438 584.613281 991.050781 593.496094 980.1875 593.496094 L 488.101562 593.496094 C 477.242188 593.496094 467.421875 584.613281 466.171875 573.65625 L 427.558594 235.089844 C 426.320312 224.246094 434.074219 215.460938 444.875 215.460938 " fill-opacity="1" fill-rule="nonzero"/><path fill="#99b9ff" d="M 957.707031 247.078125 L 956.785156 234.910156 C 955.476562 224.164062 945.304688 215.609375 934.5 215.609375 L 445.167969 215.609375 C 434.363281 215.609375 426.5 224.164062 427.726562 234.910156 L 428.871094 249.886719 L 957.707031 247.078125 " fill-opacity="1" fill-rule="nonzero"/><path fill="#caddff" d="M 458.527344 235.417969 C 458.925781 238.914062 456.421875 241.742188 452.933594 241.742188 C 449.441406 241.742188 446.289062 238.914062 445.890625 235.417969 C 445.492188 231.929688 447.996094 229.097656 451.484375 229.097656 C 454.972656 229.097656 458.125 231.929688 458.527344 235.417969 " fill-opacity="1" fill-rule="nonzero"/><path fill="#caddff" d="M 478.699219 234.992188 C 479.101562 238.484375 476.59375 241.316406 473.105469 241.316406 C 469.617188 241.316406 466.464844 238.484375 466.0625 234.992188 C 465.664062 231.5 468.167969 228.671875 471.65625 228.671875 C 475.144531 228.671875 478.296875 231.5 478.699219 234.992188 " fill-opacity="1" fill-rule="nonzero"/><path fill="#caddff" d="M 500.699219 235.835938 C 501.101562 239.328125 498.597656 242.160156 495.109375 242.160156 C 491.617188 242.160156 488.464844 239.328125 488.0625 235.835938 C 487.660156 232.34375 490.164062 229.519531 493.652344 229.519531 C 497.144531 229.519531 500.296875 232.34375 500.699219 235.835938 " fill-opacity="1" fill-rule="nonzero"/><path fill="#ffffff" d="M 539.332031 436.714844 L 586.050781 436.714844 L 577.375 361.980469 L 575.628906 365.910156 Z M 615.847656 436.714844 L 638.042969 436.714844 L 640.851562 460.722656 L 618.644531 460.722656 L 623.296875 500.648438 L 593.472656 500.648438 L 588.839844 460.722656 L 511.679688 460.722656 L 508.726562 442.503906 L 571.710938 321.605469 L 602.4375 321.605469 L 615.847656 436.714844 " fill-opacity="1" fill-rule="nonzero"/><path fill="#ffffff" d="M 739.027344 391.707031 C 737.039062 374.917969 733.292969 362.617188 727.796875 354.796875 C 722.300781 346.980469 714.574219 343.074219 704.613281 343.074219 C 694.898438 343.074219 688.191406 346.777344 684.492188 354.183594 C 680.789062 361.589844 679.742188 373.152344 681.347656 388.882812 L 686.117188 429.457031 C 688.082031 446.191406 691.882812 458.671875 697.507812 466.878906 C 703.136719 475.09375 710.941406 479.199219 720.921875 479.199219 C 730.492188 479.199219 737.117188 475.402344 740.796875 467.804688 C 744.480469 460.210938 745.488281 448.328125 743.820312 432.167969 Z M 772.777344 425.148438 C 775.84375 450.917969 773.34375 470.347656 765.289062 483.453125 C 757.230469 496.5625 743.378906 503.113281 723.742188 503.113281 C 704.429688 503.113281 689.132812 496.722656 677.859375 483.945312 C 666.582031 471.171875 659.363281 452.269531 656.183594 427.246094 L 652.558594 396.253906 C 649.542969 370.535156 652.078125 351.257812 660.167969 338.410156 C 668.25 325.570312 682.121094 319.152344 701.792969 319.152344 C 721.292969 319.152344 736.578125 325.40625 747.65625 337.921875 C 758.734375 350.4375 765.878906 369.183594 769.097656 394.164062 L 772.777344 425.148438 " fill-opacity="1" fill-rule="nonzero"/><path fill="#ffffff" d="M 824.796875 436.71875 L 871.511719 436.71875 L 862.519531 361.980469 L 860.789062 365.910156 Z M 901.3125 436.71875 L 923.503906 436.71875 L 926.410156 460.726562 L 904.210938 460.726562 L 909.03125 500.648438 L 879.203125 500.648438 L 874.398438 460.726562 L 797.246094 460.726562 L 794.214844 442.503906 L 856.6875 321.605469 L 887.414062 321.605469 L 901.3125 436.71875 " fill-opacity="1" fill-rule="nonzero"/><path fill="#477bfd" d="M 547.046875 428.839844 L 590.402344 428.839844 L 582.394531 359.871094 Z M 591.769531 431.28125 L 545.050781 431.28125 C 544.628906 431.28125 544.230469 431.0625 544.011719 430.695312 C 543.789062 430.335938 543.773438 429.882812 543.96875 429.507812 L 580.261719 358.695312 L 581.984375 354.824219 C 582.207031 354.320312 582.734375 354.03125 583.28125 354.117188 C 583.824219 354.195312 584.242188 354.636719 584.308594 355.183594 L 592.984375 429.921875 C 593.023438 430.265625 592.914062 430.613281 592.683594 430.871094 C 592.453125 431.132812 592.121094 431.28125 591.769531 431.28125 Z M 600.277344 492.769531 L 627.648438 492.769531 L 623.152344 454.210938 C 623.113281 453.863281 623.222656 453.515625 623.453125 453.257812 C 623.683594 452.996094 624.015625 452.847656 624.367188 452.847656 L 645.195312 452.847656 L 642.675781 431.28125 L 621.566406 431.28125 C 620.949219 431.28125 620.429688 430.816406 620.355469 430.203125 L 607.070312 316.167969 L 578.171875 316.167969 L 515.71875 436.050781 L 518.4375 452.847656 L 594.558594 452.847656 C 595.175781 452.847656 595.699219 453.3125 595.769531 453.925781 Z M 629.019531 495.210938 L 599.191406 495.210938 C 598.570312 495.210938 598.050781 494.75 597.980469 494.132812 L 593.472656 455.289062 L 517.402344 455.289062 C 516.804688 455.289062 516.292969 454.851562 516.195312 454.261719 L 513.246094 436.039062 C 513.203125 435.78125 513.246094 435.515625 513.367188 435.28125 L 576.351562 314.386719 C 576.558594 313.980469 576.976562 313.730469 577.429688 313.730469 L 608.15625 313.730469 C 608.777344 313.730469 609.296875 314.191406 609.367188 314.808594 L 622.652344 428.839844 L 643.761719 428.839844 C 644.378906 428.839844 644.902344 429.304688 644.972656 429.921875 L 647.78125 453.925781 C 647.820312 454.273438 647.710938 454.617188 647.476562 454.878906 C 647.246094 455.140625 646.914062 455.289062 646.566406 455.289062 L 625.738281 455.289062 L 630.230469 493.847656 C 630.265625 494.199219 630.160156 494.542969 629.929688 494.800781 C 629.695312 495.0625 629.367188 495.210938 629.019531 495.210938 " fill-opacity="1" fill-rule="nonzero"/><path fill="#477bfd" d="M 710.332031 337.640625 C 701.035156 337.640625 694.808594 341.050781 691.300781 348.070312 C 687.722656 355.234375 686.703125 366.683594 688.277344 382.097656 L 693.046875 422.65625 C 694.984375 439.125 698.746094 451.53125 704.230469 459.535156 C 709.671875 467.46875 717 471.324219 726.640625 471.324219 C 735.785156 471.324219 741.929688 467.820312 745.421875 460.617188 C 748.984375 453.265625 749.960938 441.496094 748.324219 425.636719 L 743.535156 385.195312 C 741.582031 368.6875 737.875 356.453125 732.519531 348.84375 C 727.210938 341.304688 719.957031 337.640625 710.332031 337.640625 Z M 726.640625 473.765625 C 716.28125 473.765625 708.066406 469.441406 702.222656 460.914062 C 696.507812 452.582031 692.605469 439.804688 690.625 422.945312 L 685.855469 382.363281 C 684.230469 366.464844 685.332031 354.566406 689.117188 346.980469 C 693.027344 339.160156 700.164062 335.199219 710.332031 335.199219 C 720.664062 335.199219 728.800781 339.316406 734.515625 347.4375 C 740.105469 355.382812 743.953125 367.992188 745.957031 384.90625 L 750.75 425.367188 C 752.433594 441.703125 751.382812 453.917969 747.613281 461.683594 C 743.730469 469.699219 736.671875 473.765625 726.640625 473.765625 Z M 707.511719 313.714844 C 688.382812 313.714844 674.726562 320.003906 666.921875 332.402344 C 659.019531 344.949219 656.519531 364.144531 659.488281 389.457031 L 663.117188 420.445312 C 666.246094 445.101562 673.4375 463.960938 684.492188 476.480469 C 695.472656 488.925781 710.605469 495.238281 729.460938 495.238281 C 748.554688 495.238281 762.183594 488.816406 769.972656 476.15625 C 777.839844 463.359375 780.304688 444.007812 777.289062 418.640625 L 773.605469 387.65625 C 770.4375 363.050781 763.328125 344.347656 752.460938 332.074219 C 741.683594 319.890625 726.558594 313.714844 707.511719 313.714844 Z M 729.460938 497.679688 C 709.875 497.679688 694.125 491.089844 682.664062 478.09375 C 671.28125 465.199219 663.890625 445.902344 660.695312 420.742188 L 657.0625 389.742188 C 654.035156 363.863281 656.652344 344.132812 664.855469 331.101562 C 673.140625 317.949219 687.492188 311.277344 707.511719 311.277344 C 727.289062 311.277344 743.023438 317.726562 754.289062 330.457031 C 765.480469 343.105469 772.792969 362.246094 776.023438 387.351562 L 779.707031 418.347656 C 782.789062 444.277344 780.210938 464.15625 772.046875 477.4375 C 763.789062 490.867188 749.460938 497.679688 729.460938 497.679688 " fill-opacity="1" fill-rule="nonzero"/><path fill="#477bfd" d="M 877.234375 431.28125 L 830.515625 431.28125 C 830.089844 431.28125 829.699219 431.0625 829.476562 430.699219 C 829.253906 430.335938 829.234375 429.890625 829.425781 429.511719 L 865.425781 358.703125 L 867.125 354.832031 C 867.347656 354.328125 867.878906 354.03125 868.421875 354.117188 C 868.964844 354.195312 869.386719 354.628906 869.453125 355.175781 L 875.042969 401.605469 C 875.117188 402.273438 874.644531 402.882812 873.976562 402.960938 C 873.296875 403.046875 872.699219 402.566406 872.621094 401.898438 L 867.5625 359.871094 L 832.503906 428.84375 L 875.859375 428.84375 L 874.867188 420.621094 C 874.789062 419.953125 875.265625 419.34375 875.933594 419.269531 C 876.613281 419.179688 877.207031 419.660156 877.289062 420.328125 L 878.445312 429.917969 C 878.484375 430.261719 878.375 430.605469 878.144531 430.871094 C 877.914062 431.132812 877.585938 431.28125 877.234375 431.28125 Z M 914.75 495.214844 L 884.925781 495.214844 C 884.308594 495.214844 883.789062 494.75 883.71875 494.140625 L 879.035156 455.289062 L 802.964844 455.289062 C 802.371094 455.289062 801.863281 454.859375 801.761719 454.269531 L 798.738281 436.042969 C 798.691406 435.789062 798.730469 435.519531 798.855469 435.289062 L 861.324219 314.390625 C 861.53125 313.984375 861.953125 313.730469 862.40625 313.730469 L 893.128906 313.730469 C 893.746094 313.730469 894.269531 314.1875 894.34375 314.804688 L 898.117188 346.019531 C 898.191406 346.6875 897.71875 347.296875 897.050781 347.378906 C 896.375 347.453125 895.769531 346.984375 895.691406 346.316406 L 892.050781 316.171875 L 863.152344 316.171875 L 801.203125 436.042969 L 804 452.847656 L 880.125 452.847656 C 880.738281 452.847656 881.257812 453.308594 881.332031 453.921875 L 886.003906 492.773438 L 913.375 492.773438 L 909.523438 460.871094 C 909.445312 460.203125 909.921875 459.59375 910.585938 459.511719 C 911.253906 459.433594 911.863281 459.90625 911.945312 460.578125 L 915.960938 493.847656 C 916 494.191406 915.894531 494.539062 915.664062 494.800781 C 915.433594 495.0625 915.097656 495.214844 914.75 495.214844 " fill-opacity="1" fill-rule="nonzero"/><path fill="#477bfd" d="M 894.34375 594.71875 L 488.28125 594.71875 C 476.839844 594.71875 466.457031 585.328125 465.140625 573.796875 L 426.523438 235.226562 C 425.882812 229.597656 427.480469 224.304688 431.03125 220.328125 C 434.535156 216.398438 439.515625 214.234375 445.054688 214.234375 L 934.390625 214.234375 C 945.765625 214.234375 956.15625 223.527344 957.546875 234.941406 L 970.972656 345.039062 C 971.050781 345.707031 970.578125 346.316406 969.910156 346.398438 C 969.242188 346.472656 968.632812 346.003906 968.546875 345.328125 L 955.125 235.234375 C 953.882812 225.003906 944.574219 216.679688 934.390625 216.679688 L 445.054688 216.679688 C 440.21875 216.679688 435.882812 218.550781 432.851562 221.949219 C 429.773438 225.402344 428.386719 230.015625 428.945312 234.949219 L 467.5625 573.515625 C 468.742188 583.859375 478.039062 592.277344 488.28125 592.277344 L 894.34375 592.277344 C 895.019531 592.277344 895.566406 592.824219 895.566406 593.496094 C 895.566406 594.171875 895.019531 594.71875 894.34375 594.71875 " fill-opacity="1" fill-rule="nonzero"/><path fill="#000000" d="M 820.125 722.515625 L 648.421875 722.515625 C 647.75 722.515625 647.203125 721.96875 647.203125 721.292969 C 647.203125 720.621094 647.75 720.074219 648.421875 720.074219 L 820.125 720.074219 C 822.304688 720.074219 824.007812 718.292969 824.007812 716.019531 L 824.007812 711.21875 C 824.007812 708.929688 822.269531 707.0625 820.125 707.0625 L 770.355469 707.0625 C 769.683594 707.0625 769.136719 706.515625 769.136719 705.84375 C 769.136719 705.171875 769.683594 704.625 770.355469 704.625 L 820.125 704.625 C 823.613281 704.625 826.445312 707.582031 826.445312 711.21875 L 826.445312 716.019531 C 826.445312 719.597656 823.613281 722.515625 820.125 722.515625 " fill-opacity="1" fill-rule="nonzero"/><path fill="#99b9ff" d="M 592.734375 709.503906 L 444.765625 709.503906 L 458.769531 681.933594 L 470.972656 657.925781 L 484.613281 631.09375 L 496.808594 607.097656 L 512.675781 575.902344 C 513.839844 573.613281 516.183594 572.183594 518.75 572.183594 C 521.316406 572.183594 523.660156 573.613281 524.824219 575.902344 L 540.691406 607.09375 L 552.890625 631.085938 L 566.527344 657.910156 L 578.730469 681.933594 L 592.734375 709.503906 " fill-opacity="1" fill-rule="nonzero"/><path fill="#477bfd" d="M 552.890625 631.441406 L 484.613281 631.441406 L 496.808594 607.050781 L 540.691406 607.050781 L 552.890625 631.441406 " fill-opacity="1" fill-rule="nonzero"/><path fill="#477bfd" d="M 578.730469 681.855469 L 458.769531 681.855469 L 470.972656 658.277344 L 566.527344 658.277344 L 578.730469 681.855469 " fill-opacity="1" fill-rule="nonzero"/><path fill="#000000" d="M 446.015625 708.691406 L 590.023438 708.691406 L 564.707031 658.460938 L 523.007812 576.457031 C 522.050781 574.574219 520.140625 573.40625 518.019531 573.40625 C 515.902344 573.40625 513.992188 574.578125 513.03125 576.46875 L 484.96875 631.699219 L 471.332031 658.578125 L 459.125 682.6875 Z M 592.003906 711.128906 L 444.035156 711.128906 C 443.613281 711.128906 443.21875 710.910156 442.996094 710.550781 C 442.773438 710.1875 442.757812 709.742188 442.945312 709.363281 L 456.949219 681.589844 L 469.15625 657.476562 L 494.992188 606.570312 L 510.859375 575.359375 C 512.234375 572.652344 514.980469 570.964844 518.019531 570.964844 C 521.0625 570.964844 523.804688 572.648438 525.179688 575.347656 L 566.882812 657.359375 L 593.09375 709.363281 C 593.285156 709.742188 593.265625 710.1875 593.042969 710.550781 C 592.820312 710.910156 592.425781 711.128906 592.003906 711.128906 " fill-opacity="1" fill-rule="nonzero"/><path fill="#477bfd" d="M 606.453125 710.015625 C 606.453125 707.277344 604.234375 705.058594 601.496094 705.058594 L 435.273438 705.058594 C 432.535156 705.058594 430.316406 707.277344 430.316406 710.015625 L 430.316406 725.691406 C 430.316406 728.425781 432.535156 730.644531 435.273438 730.644531 L 601.496094 730.644531 C 604.234375 730.644531 606.453125 728.425781 606.453125 725.691406 L 606.453125 710.015625 " fill-opacity="1" fill-rule="nonzero"/><path fill="#000000" d="M 435.273438 706.277344 C 433.214844 706.277344 431.539062 707.953125 431.539062 710.015625 L 431.539062 725.683594 C 431.539062 727.75 433.214844 729.425781 435.273438 729.425781 L 601.496094 729.425781 C 603.558594 729.425781 605.234375 727.75 605.234375 725.683594 L 605.234375 710.015625 C 605.234375 707.953125 603.558594 706.277344 601.496094 706.277344 Z M 601.496094 731.863281 L 435.273438 731.863281 C 431.867188 731.863281 429.097656 729.09375 429.097656 725.683594 L 429.097656 710.015625 C 429.097656 706.609375 431.867188 703.839844 435.273438 703.839844 L 601.496094 703.839844 C 604.902344 703.839844 607.671875 706.609375 607.671875 710.015625 L 607.671875 725.683594 C 607.671875 729.09375 604.902344 731.863281 601.496094 731.863281 " fill-opacity="1" fill-rule="nonzero"/><path fill="#477bfd" d="M 1004.796875 411.007812 C 1024.035156 416.417969 1048.796875 437.25 1048.796875 475.042969 C 1048.796875 502.269531 1008.703125 525.332031 1008.703125 525.332031 L 1002.09375 509.09375 C 1002.09375 509.09375 1024.191406 492.726562 1023.128906 473.617188 C 1022.28125 458.292969 997.582031 453.53125 997.582031 453.53125 L 1004.796875 411.007812 " fill-opacity="1" fill-rule="nonzero"/><path fill="#477bfd" d="M 996.679688 721.589844 L 982.855469 721.589844 L 982.855469 705.351562 L 996.679688 705.351562 L 996.679688 721.589844 " fill-opacity="1" fill-rule="nonzero"/><path fill="#477bfd" d="M 959.886719 718.582031 L 946.4375 721.753906 L 942.703125 705.957031 L 956.164062 702.777344 L 959.886719 718.582031 " fill-opacity="1" fill-rule="nonzero"/><path fill="#000000" d="M 1008.101562 503.910156 C 1008.101562 503.910156 1012.230469 536.5625 1009.0625 549.242188 C 1005.898438 561.917969 998.480469 679.070312 998.480469 710.765625 L 979.851562 710.765625 L 971.433594 561.035156 L 945.425781 615.363281 C 943.542969 619.769531 943.058594 624.65625 944.054688 629.34375 L 959.414062 710.765625 L 941.976562 711.96875 L 912.828125 622.566406 C 911.527344 618.136719 911.429688 613.433594 912.550781 608.953125 L 936.1875 514.378906 L 1008.101562 503.910156 " fill-opacity="1" fill-rule="nonzero"/><path fill="#ffffff" d="M 972.335938 558.949219 C 972.066406 558.949219 971.800781 558.863281 971.570312 558.683594 C 971.042969 558.261719 970.957031 557.492188 971.382812 556.96875 L 980.996094 544.941406 C 981.421875 544.414062 982.183594 544.332031 982.710938 544.753906 C 983.238281 545.171875 983.324219 545.941406 982.898438 546.464844 L 973.285156 558.492188 C 973.042969 558.792969 972.6875 558.949219 972.335938 558.949219 " fill-opacity="1" fill-rule="nonzero"/><path fill="#ffffff" d="M 997.585938 717.980469 L 981.351562 717.980469 L 978.949219 730.234375 C 978.484375 732.597656 980.1875 734.820312 982.472656 734.820312 L 996.464844 734.820312 C 998.742188 734.820312 1000.453125 732.597656 999.992188 730.234375 L 997.585938 717.980469 " fill-opacity="1" fill-rule="nonzero"/><path fill="#000000" d="M 982.351562 719.203125 L 980.140625 730.472656 C 979.980469 731.289062 980.183594 732.109375 980.695312 732.734375 C 981.152344 733.289062 981.785156 733.601562 982.472656 733.601562 L 996.460938 733.601562 C 997.148438 733.601562 997.777344 733.289062 998.238281 732.734375 C 998.75 732.109375 998.953125 731.289062 998.792969 730.472656 L 996.578125 719.203125 Z M 996.460938 736.039062 L 982.472656 736.039062 C 981.0625 736.039062 979.730469 735.402344 978.8125 734.28125 C 977.835938 733.097656 977.449219 731.535156 977.746094 730 L 980.15625 717.746094 C 980.269531 717.175781 980.769531 716.761719 981.347656 716.761719 L 997.582031 716.761719 C 998.164062 716.761719 998.667969 717.175781 998.777344 717.746094 L 1001.183594 730 C 1001.484375 731.535156 1001.101562 733.097656 1000.121094 734.28125 C 999.203125 735.402344 997.871094 736.039062 996.460938 736.039062 " fill-opacity="1" fill-rule="nonzero"/><path fill="#000000" d="M 997.582031 732.128906 L 980.746094 732.128906 C 980.074219 732.128906 979.527344 731.585938 979.527344 730.910156 C 979.527344 730.238281 980.074219 729.6875 980.746094 729.6875 L 997.582031 729.6875 C 998.253906 729.6875 998.800781 730.238281 998.800781 730.910156 C 998.800781 731.585938 998.253906 732.128906 997.582031 732.128906 " fill-opacity="1" fill-rule="nonzero"/><path fill="#ffffff" d="M 960.3125 714.371094 L 964.757812 729.128906 C 965.53125 731.695312 963.964844 734.414062 961.664062 734.488281 L 931.132812 735.523438 C 929.242188 735.589844 928.488281 732.660156 930.085938 731.460938 C 935.050781 727.726562 941.664062 722.535156 943.476562 720.078125 C 947.6875 714.371094 951.894531 719.363281 951.894531 719.363281 C 951.894531 719.363281 954.902344 714.371094 960.3125 714.371094 " fill-opacity="1" fill-rule="nonzero"/><path fill="#000000" d="M 947.867188 718.5625 C 947.832031 718.5625 947.800781 718.5625 947.765625 718.5625 C 946.636719 718.605469 945.527344 719.359375 944.460938 720.800781 C 942.945312 722.851562 938.355469 726.765625 930.820312 732.433594 C 930.398438 732.75 930.367188 733.351562 930.519531 733.777344 C 930.578125 733.9375 930.742188 734.304688 931.078125 734.304688 C 931.082031 734.304688 931.085938 734.304688 931.089844 734.304688 L 961.625 733.269531 C 962.417969 733.242188 962.921875 732.695312 963.160156 732.371094 C 963.722656 731.582031 963.886719 730.472656 963.589844 729.484375 L 959.421875 715.648438 C 955.332031 716.148438 952.964844 719.953125 952.941406 719.996094 C 952.734375 720.328125 952.382812 720.546875 951.988281 720.578125 C 951.597656 720.605469 951.21875 720.449219 950.964844 720.148438 C 950.953125 720.140625 949.578125 718.5625 947.867188 718.5625 Z M 931.074219 736.742188 C 929.796875 736.742188 928.6875 735.910156 928.21875 734.589844 C 927.675781 733.050781 928.136719 731.402344 929.355469 730.484375 C 936.496094 725.117188 941.164062 721.160156 942.496094 719.351562 C 944.035156 717.273438 945.785156 716.1875 947.699219 716.125 C 949.402344 716.042969 950.804688 716.855469 951.71875 717.546875 C 953.070312 715.90625 955.984375 713.152344 960.3125 713.152344 C 960.847656 713.152344 961.324219 713.503906 961.480469 714.023438 L 965.921875 728.777344 C 966.445312 730.503906 966.152344 732.378906 965.136719 733.792969 C 964.296875 734.964844 963.046875 735.660156 961.707031 735.707031 L 931.179688 736.742188 C 931.140625 736.742188 931.109375 736.742188 931.074219 736.742188 " fill-opacity="1" fill-rule="nonzero"/><path fill="#ffffff" d="M 934.464844 730.910156 L 962.113281 729.707031 L 934.464844 730.910156 " fill-opacity="1" fill-rule="nonzero"/><path fill="#000000" d="M 934.460938 732.128906 C 933.816406 732.128906 933.269531 731.617188 933.246094 730.964844 C 933.214844 730.292969 933.734375 729.722656 934.410156 729.691406 L 962.0625 728.488281 C 962.753906 728.445312 963.304688 728.980469 963.332031 729.65625 C 963.359375 730.328125 962.839844 730.898438 962.164062 730.925781 L 934.515625 732.128906 C 934.496094 732.128906 934.480469 732.128906 934.460938 732.128906 " fill-opacity="1" fill-rule="nonzero"/><path fill="#ffffff" d="M 976.542969 402.589844 L 991.570312 412.8125 L 950.1875 410.832031 L 962.113281 403.191406 L 963.722656 395.796875 C 961.605469 395.476562 958.691406 395.269531 957.765625 394.113281 C 956.128906 392.074219 956.867188 385.015625 956.867188 385.015625 L 955.078125 383.609375 C 954.882812 383.511719 954.742188 383.339844 954.683594 383.136719 C 954.628906 382.929688 954.667969 382.707031 954.773438 382.527344 C 956.296875 380.097656 957.734375 379.316406 958.410156 376.84375 C 959.070312 374.402344 958.777344 374.773438 961.40625 369.515625 L 977.144531 369.492188 L 977.230469 381.292969 C 977.230469 381.292969 979.648438 379.738281 981.175781 381.84375 C 982.289062 383.375 979.828125 388.503906 977.828125 388.503906 L 976.542969 402.589844 " fill-opacity="1" fill-rule="nonzero"/><path fill="#000000" d="M 954.0625 409.796875 L 987.308594 411.386719 L 975.855469 403.597656 C 975.492188 403.347656 975.289062 402.921875 975.332031 402.476562 L 976.617188 388.394531 C 976.675781 387.765625 977.199219 387.289062 977.828125 387.289062 C 977.996094 387.273438 978.683594 386.839844 979.402344 385.535156 C 980.203125 384.09375 980.332031 382.828125 980.183594 382.550781 C 979.359375 381.417969 978.042969 382.222656 977.894531 382.320312 C 977.519531 382.566406 977.046875 382.582031 976.652344 382.371094 C 976.257812 382.15625 976.019531 381.75 976.015625 381.304688 L 975.933594 370.71875 L 962.160156 370.738281 C 960.277344 374.527344 960.1875 374.878906 959.8125 376.292969 C 959.75 376.542969 959.671875 376.824219 959.582031 377.160156 C 959.089844 378.972656 958.238281 380.011719 957.339844 381.113281 C 956.914062 381.628906 956.480469 382.15625 956.042969 382.816406 L 957.621094 384.058594 C 957.953125 384.320312 958.125 384.730469 958.082031 385.144531 C 957.796875 387.871094 957.804688 392.214844 958.71875 393.351562 C 959.203125 393.953125 961.519531 394.265625 962.90625 394.449219 C 963.246094 394.496094 963.582031 394.542969 963.902344 394.589844 C 964.230469 394.636719 964.53125 394.824219 964.726562 395.101562 C 964.917969 395.378906 964.980469 395.722656 964.914062 396.050781 L 963.304688 403.453125 C 963.238281 403.769531 963.046875 404.042969 962.773438 404.222656 Z M 991.570312 414.035156 C 991.550781 414.035156 991.527344 414.03125 991.511719 414.03125 L 950.128906 412.050781 C 949.601562 412.023438 949.148438 411.660156 949.007812 411.144531 C 948.871094 410.632812 949.082031 410.089844 949.53125 409.804688 L 961.03125 402.4375 L 962.25 396.828125 C 960.058594 396.527344 957.859375 396.175781 956.8125 394.878906 C 955.1875 392.84375 955.421875 387.65625 955.59375 385.570312 L 954.394531 384.625 C 953.964844 384.363281 953.648438 383.949219 953.511719 383.460938 C 953.363281 382.929688 953.449219 382.351562 953.746094 381.882812 C 954.347656 380.917969 954.9375 380.199219 955.453125 379.566406 C 956.28125 378.558594 956.875 377.828125 957.234375 376.519531 C 957.320312 376.195312 957.390625 375.921875 957.457031 375.675781 C 957.902344 373.957031 958.058594 373.488281 960.3125 368.972656 C 960.519531 368.5625 960.941406 368.300781 961.402344 368.296875 L 977.140625 368.28125 C 977.140625 368.28125 977.140625 368.28125 977.144531 368.28125 C 977.816406 368.28125 978.359375 368.820312 978.359375 369.488281 L 978.441406 379.578125 C 979.699219 379.390625 981.128906 379.707031 982.164062 381.128906 C 983.375 382.804688 982.117188 385.59375 981.699219 386.410156 C 981.296875 387.207031 980.332031 388.828125 978.964844 389.460938 L 977.820312 401.984375 L 992.257812 411.800781 C 992.707031 412.109375 992.902344 412.679688 992.730469 413.199219 C 992.5625 413.699219 992.089844 414.035156 991.570312 414.035156 " fill-opacity="1" fill-rule="nonzero"/><path fill="#000000" d="M 978.597656 393.78125 C 975.425781 394.839844 972.292969 392.355469 971.738281 391.910156 C 969.53125 390.160156 967.730469 387.042969 968.617188 385.671875 C 969.101562 384.917969 969.972656 385.328125 971.113281 384.425781 C 972.789062 383.089844 973.265625 380.207031 972.359375 379.433594 C 971.617188 378.796875 970.457031 380.015625 969.242188 379.433594 C 967.757812 378.71875 968.519531 376.441406 967.367188 374.441406 C 965.492188 371.164062 961.125 373.140625 957.765625 369.65625 C 955.574219 367.375 954.621094 363.585938 955.875 361.4375 C 956.242188 360.816406 956.800781 360.261719 957.597656 359.820312 C 962.878906 356.910156 963.671875 360.894531 968.820312 360.941406 C 979.402344 361.027344 984.597656 363.148438 986.515625 367.539062 C 987.816406 370.515625 986.226562 375.261719 985.457031 377.558594 C 985.199219 378.328125 984.664062 379.777344 984.207031 381.929688 C 983.714844 384.289062 983.863281 384.890625 983.585938 386.296875 C 983.386719 387.28125 982.335938 392.535156 978.597656 393.78125 " fill-opacity="1" fill-rule="nonzero"/><path fill="#ffffff" d="M 954.882812 375.304688 C 954.882812 375.304688 959.554688 377.03125 960.574219 374.695312 C 961.59375 372.359375 959.964844 370.425781 962.503906 368.597656 C 965.046875 366.769531 971.140625 364.832031 968.910156 362.089844 C 966.667969 359.34375 959.863281 358.226562 957.933594 361.480469 C 956.003906 364.734375 954.578125 370.324219 953.257812 370.425781 C 951.933594 370.523438 952.425781 374.730469 954.882812 375.304688 " fill-opacity="1" fill-rule="nonzero"/><path fill="#000000" d="M 955.304688 374.160156 C 956.769531 374.699219 959.097656 375.027344 959.457031 374.203125 C 959.742188 373.535156 959.742188 372.890625 959.742188 372.144531 C 959.734375 370.78125 959.726562 369.089844 961.789062 367.605469 C 962.503906 367.09375 963.40625 366.605469 964.363281 366.089844 C 965.726562 365.359375 968.003906 364.132812 968.164062 363.328125 C 968.183594 363.214844 968.117188 363.054688 967.960938 362.859375 C 966.863281 361.519531 964.128906 360.566406 961.835938 360.734375 C 961.039062 360.789062 959.609375 361.050781 958.976562 362.101562 C 958.242188 363.347656 957.542969 365.039062 956.933594 366.53125 C 955.777344 369.347656 955.035156 371.152344 953.773438 371.558594 C 953.730469 371.867188 953.777344 372.472656 954.085938 373.101562 C 954.238281 373.421875 954.585938 373.980469 955.15625 374.117188 C 955.207031 374.125 955.257812 374.144531 955.304688 374.160156 Z M 958.097656 377.136719 C 956.519531 377.136719 954.964844 376.628906 954.527344 376.476562 C 952.132812 375.863281 951.207031 373.125 951.335938 371.4375 C 951.441406 370.03125 952.199219 369.390625 952.941406 369.238281 C 953.378906 368.769531 954.160156 366.878906 954.675781 365.601562 C 955.324219 364.035156 956.050781 362.253906 956.882812 360.855469 C 957.765625 359.367188 959.464844 358.460938 961.652344 358.300781 C 964.777344 358.0625 968.234375 359.339844 969.851562 361.320312 C 970.648438 362.296875 970.675781 363.210938 970.554688 363.804688 C 970.167969 365.734375 967.800781 367.007812 965.519531 368.238281 C 964.632812 368.714844 963.796875 369.164062 963.214844 369.585938 C 962.171875 370.339844 962.171875 370.941406 962.175781 372.136719 C 962.179688 372.984375 962.183594 374.039062 961.691406 375.179688 C 961.027344 376.707031 959.550781 377.136719 958.097656 377.136719 " fill-opacity="1" fill-rule="nonzero"/><path fill="#477bfd" d="M 934.464844 408.609375 C 934.464844 408.609375 970.527344 398.382812 1004.792969 411.011719 C 1007.429688 426.207031 1009.238281 439.328125 1010.503906 449.71875 C 1012.726562 468.015625 1011.339844 462.171875 1014.113281 488.878906 C 1015.832031 505.480469 1016.289062 507 1014.710938 509.925781 C 1006.761719 524.671875 974.722656 523.871094 962.414062 520.753906 C 961.539062 520.527344 957.925781 519.578125 952.007812 518.082031 C 945.238281 516.375 939.675781 515.023438 935.960938 514.136719 C 933.953125 513.222656 931.242188 511.613281 929.347656 508.722656 C 925.113281 502.25 927.945312 493.875 929.347656 488.28125 C 932.960938 473.910156 928.21875 473.601562 929.347656 447.390625 C 929.746094 438.226562 930.898438 424.914062 934.464844 408.609375 " fill-opacity="1" fill-rule="nonzero"/><path fill="#ffffff" d="M 1000.441406 521.171875 C 999.84375 521.171875 999.324219 520.738281 999.234375 520.128906 C 999.136719 519.464844 999.597656 518.84375 1000.265625 518.742188 C 1000.917969 518.648438 1016.246094 516.210938 1014.214844 501.675781 C 1014.128906 501.007812 1014.585938 500.394531 1015.257812 500.300781 C 1015.914062 500.207031 1016.542969 500.671875 1016.632812 501.339844 C 1018.996094 518.289062 1000.800781 521.132812 1000.613281 521.160156 C 1000.554688 521.164062 1000.496094 521.171875 1000.441406 521.171875 " fill-opacity="1" fill-rule="nonzero"/><path fill="#ffffff" d="M 958.664062 507.140625 C 958.359375 507.140625 958.046875 507.027344 957.808594 506.789062 C 943.433594 492.613281 940.464844 471.160156 940.347656 470.253906 C 940.265625 469.589844 940.730469 468.976562 941.398438 468.886719 C 942.070312 468.800781 942.675781 469.269531 942.765625 469.9375 C 942.792969 470.152344 945.753906 491.476562 959.523438 505.050781 C 960.003906 505.523438 960.007812 506.296875 959.535156 506.777344 C 959.296875 507.019531 958.980469 507.140625 958.664062 507.140625 " fill-opacity="1" fill-rule="nonzero"/><path fill="#477bfd" d="M 921.660156 389.25 C 921.683594 388.609375 922.144531 388.066406 922.773438 387.949219 L 958.40625 376.84375 L 955.316406 369.496094 C 955.316406 369.496094 907.070312 354.171875 884.4375 373.722656 C 861.792969 393.265625 907.300781 441.5625 932.992188 452.746094 L 956.511719 405.511719 L 922.679688 390.632812 C 922.058594 390.464844 921.640625 389.894531 921.660156 389.25 " fill-opacity="1" fill-rule="nonzero"/><path fill="#ffffff" d="M 1031.917969 269.167969 C 1031.917969 296.273438 1009.953125 318.246094 982.855469 318.246094 C 955.757812 318.246094 933.789062 296.273438 933.789062 269.167969 C 933.789062 242.066406 955.757812 220.09375 982.855469 220.09375 C 1009.953125 220.09375 1031.917969 242.066406 1031.917969 269.167969 " fill-opacity="1" fill-rule="nonzero"/><path fill="#000000" d="M 982.855469 221.308594 C 956.472656 221.308594 935.011719 242.78125 935.011719 269.167969 C 935.011719 295.558594 956.472656 317.027344 982.855469 317.027344 C 1009.234375 317.027344 1030.699219 295.558594 1030.699219 269.167969 C 1030.699219 242.78125 1009.234375 221.308594 982.855469 221.308594 Z M 982.855469 319.46875 C 955.128906 319.46875 932.570312 296.902344 932.570312 269.167969 C 932.570312 241.433594 955.128906 218.875 982.855469 218.875 C 1010.578125 218.875 1033.132812 241.433594 1033.132812 269.167969 C 1033.132812 296.902344 1010.578125 319.46875 982.855469 319.46875 " fill-opacity="1" fill-rule="nonzero"/><path fill="#99b9ff" d="M 1013.761719 269.167969 C 1013.761719 286.246094 999.925781 300.085938 982.855469 300.085938 C 965.777344 300.085938 951.941406 286.246094 951.941406 269.167969 C 951.941406 252.09375 965.777344 238.25 982.855469 238.25 C 999.925781 238.25 1013.761719 252.09375 1013.761719 269.167969 " fill-opacity="1" fill-rule="nonzero"/><path fill="#ffffff" d="M 969.5625 283.164062 C 969.453125 283.164062 969.34375 283.152344 969.238281 283.125 C 968.585938 282.945312 968.207031 282.277344 968.382812 281.625 C 970.191406 275.007812 976.253906 270.390625 983.113281 270.390625 C 989.636719 270.390625 995.449219 274.535156 997.566406 280.707031 C 997.78125 281.347656 997.445312 282.039062 996.808594 282.257812 C 996.164062 282.472656 995.476562 282.132812 995.257812 281.5 C 993.480469 276.3125 988.597656 272.828125 983.113281 272.828125 C 977.347656 272.828125 972.257812 276.707031 970.734375 282.269531 C 970.589844 282.808594 970.097656 283.164062 969.5625 283.164062 " fill-opacity="1" fill-rule="nonzero"/><path fill="#ffffff" d="M 972.734375 263.933594 C 972.417969 263.933594 972.105469 263.816406 971.867188 263.578125 L 964.925781 256.628906 C 964.453125 256.152344 964.453125 255.382812 964.925781 254.910156 C 965.402344 254.433594 966.171875 254.433594 966.648438 254.910156 L 973.597656 261.851562 C 974.070312 262.328125 974.070312 263.101562 973.597656 263.578125 C 973.355469 263.816406 973.046875 263.933594 972.734375 263.933594 " fill-opacity="1" fill-rule="nonzero"/><path fill="#ffffff" d="M 972.734375 263.933594 C 972.417969 263.933594 972.105469 263.816406 971.867188 263.578125 L 964.925781 256.628906 C 964.453125 256.152344 964.453125 255.382812 964.925781 254.910156 C 965.402344 254.433594 966.171875 254.433594 966.648438 254.910156 L 973.597656 261.851562 C 974.070312 262.328125 974.070312 263.101562 973.597656 263.578125 C 973.355469 263.816406 973.046875 263.933594 972.734375 263.933594 " fill-opacity="1" fill-rule="nonzero"/><path fill="#ffffff" d="M 965.789062 263.933594 C 965.476562 263.933594 965.164062 263.816406 964.925781 263.578125 C 964.453125 263.101562 964.453125 262.328125 964.925781 261.851562 L 971.867188 254.910156 C 972.34375 254.433594 973.117188 254.433594 973.597656 254.910156 C 974.070312 255.382812 974.070312 256.152344 973.597656 256.628906 L 966.648438 263.578125 C 966.410156 263.816406 966.101562 263.933594 965.789062 263.933594 " fill-opacity="1" fill-rule="nonzero"/><path fill="#ffffff" d="M 1000.363281 263.941406 C 1000.054688 263.941406 999.746094 263.820312 999.507812 263.582031 L 992.5625 256.632812 C 992.082031 256.15625 992.082031 255.386719 992.5625 254.910156 C 993.039062 254.433594 993.808594 254.433594 994.285156 254.910156 L 1001.230469 261.855469 C 1001.707031 262.332031 1001.707031 263.105469 1001.230469 263.582031 C 1000.992188 263.820312 1000.675781 263.941406 1000.363281 263.941406 " fill-opacity="1" fill-rule="nonzero"/><path fill="#ffffff" d="M 993.421875 263.941406 C 993.109375 263.941406 992.800781 263.820312 992.5625 263.582031 C 992.082031 263.105469 992.082031 262.332031 992.5625 261.855469 L 999.507812 254.910156 C 999.980469 254.433594 1000.75 254.433594 1001.230469 254.910156 C 1001.707031 255.386719 1001.707031 256.15625 1001.230469 256.632812 L 994.285156 263.582031 C 994.046875 263.820312 993.734375 263.941406 993.421875 263.941406 " fill-opacity="1" fill-rule="nonzero"/><path fill="#000000" d="M 817.167969 115.875 C 816.960938 115.875 816.746094 115.832031 816.542969 115.746094 C 768.332031 95.644531 712.707031 89.503906 655.695312 98 C 654.808594 98.128906 653.980469 97.519531 653.851562 96.632812 C 653.71875 95.746094 654.328125 94.914062 655.21875 94.78125 C 712.8125 86.203125 769.03125 92.414062 817.792969 112.742188 C 818.621094 113.089844 819.015625 114.039062 818.667969 114.871094 C 818.410156 115.496094 817.800781 115.871094 817.167969 115.875 " fill-opacity="1" fill-rule="nonzero"/><path fill="#000000" d="M 840.382812 108.9375 C 840.136719 108.9375 839.878906 108.875 839.640625 108.753906 C 835.5 106.597656 831.207031 104.507812 826.871094 102.550781 C 766.214844 75.136719 692.820312 69.953125 620.207031 87.953125 C 619.328125 88.167969 618.453125 87.636719 618.238281 86.769531 C 618.019531 85.894531 618.550781 85.007812 619.421875 84.796875 C 692.746094 66.625 766.898438 71.875 828.210938 99.585938 C 832.597656 101.570312 836.945312 103.683594 841.140625 105.867188 C 841.9375 106.28125 842.246094 107.261719 841.832031 108.058594 C 841.539062 108.617188 840.976562 108.9375 840.382812 108.9375 " fill-opacity="1" fill-rule="nonzero"/><path fill="#000000" d="M 891.605469 166.433594 C 890.957031 166.433594 890.421875 165.925781 890.390625 165.273438 C 890.355469 164.601562 890.875 164.027344 891.546875 163.996094 L 897.402344 163.714844 C 898.078125 163.683594 898.648438 164.199219 898.679688 164.871094 C 898.710938 165.546875 898.191406 166.117188 897.523438 166.152344 L 891.664062 166.433594 C 891.648438 166.433594 891.621094 166.433594 891.605469 166.433594 " fill-opacity="1" fill-rule="nonzero"/><path fill="#000000" d="M 912.101562 165.449219 C 911.449219 165.449219 910.917969 164.941406 910.882812 164.289062 C 910.847656 163.613281 911.371094 163.042969 912.042969 163.011719 L 917.898438 162.730469 C 918.558594 162.703125 919.144531 163.21875 919.179688 163.886719 C 919.207031 164.5625 918.6875 165.132812 918.011719 165.164062 L 912.164062 165.449219 C 912.136719 165.449219 912.121094 165.449219 912.101562 165.449219 " fill-opacity="1" fill-rule="nonzero"/><path fill="#000000" d="M 905.496094 178.980469 C 904.847656 178.980469 904.308594 178.480469 904.273438 177.824219 L 903.960938 171.96875 C 903.925781 171.296875 904.441406 170.722656 905.113281 170.6875 C 905.792969 170.667969 906.359375 171.167969 906.394531 171.839844 L 906.710938 177.695312 C 906.746094 178.371094 906.234375 178.945312 905.558594 178.980469 C 905.539062 178.980469 905.511719 178.980469 905.496094 178.980469 " fill-opacity="1" fill-rule="nonzero"/><path fill="#000000" d="M 904.390625 158.476562 C 903.742188 158.476562 903.207031 157.972656 903.167969 157.320312 L 902.851562 151.464844 C 902.816406 150.789062 903.335938 150.214844 904.007812 150.175781 C 904.671875 150.15625 905.253906 150.660156 905.289062 151.328125 L 905.605469 157.191406 C 905.640625 157.863281 905.128906 158.4375 904.457031 158.472656 C 904.433594 158.476562 904.410156 158.476562 904.390625 158.476562 " fill-opacity="1" fill-rule="nonzero"/><path fill="#000000" d="M 851.355469 659.644531 C 851.136719 659.644531 850.914062 659.585938 850.714844 659.460938 L 846.542969 656.882812 C 845.972656 656.527344 845.796875 655.773438 846.148438 655.203125 C 846.503906 654.632812 847.253906 654.453125 847.828125 654.808594 L 852 657.386719 C 852.570312 657.742188 852.75 658.496094 852.390625 659.066406 C 852.164062 659.441406 851.765625 659.644531 851.355469 659.644531 " fill-opacity="1" fill-rule="nonzero"/><path fill="#000000" d="M 865.949219 668.671875 C 865.730469 668.671875 865.507812 668.613281 865.308594 668.492188 L 861.136719 665.910156 C 860.566406 665.558594 860.390625 664.804688 860.742188 664.230469 C 861.097656 663.65625 861.847656 663.480469 862.421875 663.835938 L 866.589844 666.414062 C 867.164062 666.769531 867.34375 667.519531 866.984375 668.09375 C 866.753906 668.46875 866.359375 668.671875 865.949219 668.671875 " fill-opacity="1" fill-rule="nonzero"/><path fill="#000000" d="M 850.816406 672.289062 C 850.597656 672.289062 850.378906 672.230469 850.179688 672.109375 C 849.605469 671.761719 849.425781 671.007812 849.773438 670.433594 L 852.332031 666.246094 C 852.679688 665.667969 853.433594 665.488281 854.007812 665.84375 C 854.582031 666.191406 854.765625 666.945312 854.410156 667.519531 L 851.855469 671.707031 C 851.625 672.082031 851.222656 672.289062 850.816406 672.289062 " fill-opacity="1" fill-rule="nonzero"/><path fill="#000000" d="M 859.761719 657.636719 C 859.542969 657.636719 859.328125 657.578125 859.128906 657.457031 C 858.554688 657.101562 858.371094 656.355469 858.722656 655.78125 L 861.28125 651.59375 C 861.632812 651.015625 862.382812 650.835938 862.953125 651.1875 C 863.53125 651.539062 863.710938 652.289062 863.359375 652.867188 L 860.808594 657.050781 C 860.574219 657.429688 860.175781 657.636719 859.761719 657.636719 " fill-opacity="1" fill-rule="nonzero"/><path fill="#000000" d="M 535.796875 147.101562 C 535.675781 147.101562 535.550781 147.085938 535.429688 147.046875 L 530.882812 145.625 C 530.242188 145.421875 529.882812 144.738281 530.082031 144.097656 C 530.285156 143.453125 530.964844 143.089844 531.613281 143.292969 L 536.160156 144.71875 C 536.800781 144.921875 537.160156 145.605469 536.960938 146.246094 C 536.796875 146.769531 536.316406 147.101562 535.796875 147.101562 " fill-opacity="1" fill-rule="nonzero"/><path fill="#000000" d="M 519.875 142.121094 C 519.757812 142.121094 519.632812 142.109375 519.511719 142.066406 L 514.964844 140.644531 C 514.324219 140.441406 513.964844 139.757812 514.167969 139.117188 C 514.367188 138.472656 515.050781 138.113281 515.695312 138.316406 L 520.242188 139.738281 C 520.882812 139.941406 521.242188 140.625 521.039062 141.269531 C 520.878906 141.789062 520.394531 142.121094 519.875 142.121094 " fill-opacity="1" fill-rule="nonzero"/><path fill="#000000" d="M 527.308594 138.199219 C 527.191406 138.199219 527.070312 138.1875 526.949219 138.144531 C 526.308594 137.949219 525.945312 137.269531 526.140625 136.625 L 527.539062 132.070312 C 527.734375 131.421875 528.417969 131.0625 529.058594 131.257812 C 529.703125 131.457031 530.066406 132.140625 529.871094 132.785156 L 528.476562 137.339844 C 528.3125 137.867188 527.832031 138.199219 527.308594 138.199219 " fill-opacity="1" fill-rule="nonzero"/><path fill="#000000" d="M 522.421875 154.15625 C 522.304688 154.15625 522.183594 154.136719 522.0625 154.105469 C 521.421875 153.90625 521.058594 153.222656 521.253906 152.582031 L 522.652344 148.023438 C 522.847656 147.378906 523.53125 147.015625 524.175781 147.210938 C 524.820312 147.410156 525.179688 148.09375 524.984375 148.734375 L 523.585938 153.296875 C 523.425781 153.820312 522.945312 154.15625 522.421875 154.15625 " fill-opacity="1" fill-rule="nonzero"/><path fill="#000000" d="M 602.539062 87.648438 C 602.339844 87.648438 602.132812 87.664062 601.929688 87.699219 C 599.792969 88.035156 598.332031 90.042969 598.667969 92.175781 C 598.832031 93.210938 599.386719 94.121094 600.234375 94.734375 C 601.078125 95.351562 602.113281 95.601562 603.148438 95.4375 C 605.28125 95.101562 606.746094 93.089844 606.410156 90.957031 C 606.105469 89.027344 604.433594 87.648438 602.539062 87.648438 Z M 602.523438 97.925781 C 601.191406 97.925781 599.898438 97.507812 598.796875 96.710938 C 597.425781 95.710938 596.523438 94.238281 596.257812 92.558594 C 595.714844 89.09375 598.085938 85.832031 601.546875 85.285156 C 605.007812 84.734375 608.269531 87.113281 608.816406 90.578125 C 609.363281 94.039062 606.992188 97.304688 603.53125 97.851562 C 603.195312 97.902344 602.859375 97.925781 602.523438 97.925781 " fill-opacity="1" fill-rule="nonzero"/></svg>