<svg width="1080" height="1080" viewBox="0 0 1080 1080" fill="none" xmlns="http://www.w3.org/2000/svg">
<path d="M1028.34 414.646C982.86 183.661 753.24 44.0622 560.532 26.2549C400.876 11.4997 207.35 51.7393 117.917 199.791C63.1205 290.51 130.719 330.453 92.808 531.229C59.9955 705.005 0.188213 767.614 36.5945 856.182C66.3549 928.593 134.074 960.328 178.532 982.218C353.761 1068.5 676.511 1061.65 868.157 904.255C913.006 867.422 1079.78 675.927 1028.34 414.646Z" fill="#CADDFF"/>
<path d="M423.573 245.714C449.724 200.536 507.547 185.109 552.724 211.26C597.906 237.406 613.339 295.234 587.182 340.406C561.036 385.583 503.208 401.01 458.031 374.865C412.854 348.719 397.422 290.896 423.573 245.714ZM361.229 241.042C358.286 249.156 356.042 257.411 354.542 265.729L315.458 274.5L315.422 311.219L354.536 320.089C356.047 328.479 358.25 336.74 361.125 344.771L331.62 371.943L349.943 403.76L388.203 391.901C393.651 398.359 399.703 404.401 406.302 409.974L394.344 448.255L426.12 466.646L453.354 437.203C461.479 440.146 469.729 442.391 478.042 443.901L486.818 482.979L523.536 483.01L532.406 443.901C540.797 442.391 549.057 440.188 557.089 437.307L584.26 466.818L616.089 448.49L604.219 410.234C610.682 404.792 616.719 398.729 622.302 392.135L660.578 404.099L678.969 372.318L649.536 345.089C652.469 336.964 654.714 328.714 656.224 320.396L695.302 311.62L695.344 274.906L656.224 266.042C654.714 257.646 652.51 249.391 649.635 241.359L679.141 214.177L660.812 182.365L622.552 194.224C617.115 187.766 611.052 181.724 604.453 176.151L616.417 137.875L584.635 119.479L557.406 148.917C549.281 145.974 541.031 143.734 532.714 142.234L523.943 103.151L487.224 103.109L478.354 142.234C469.958 143.734 461.708 145.938 453.672 148.818L426.495 119.318L394.677 137.635L406.536 175.891C400.078 181.339 394.036 187.391 388.458 193.99L350.182 182.036L331.792 213.807L361.229 241.042Z" fill="white"/>
<path d="M692.223 995.083H487.468L381.791 810.119V971.671C381.791 996.937 400.218 1017.15 422.557 1017.15H692.223C696.572 1017.15 700.473 1014.11 700.473 1009.75V1002.52C700.473 998.171 696.572 995.083 692.223 995.083Z" fill="#99B9FF"/>
<path d="M411.822 868.234V959.844C411.822 978.417 426.541 993.25 445.114 993.25H621.421V868.234H411.822Z" fill="white"/>
<path d="M413.661 870.068V959.844C413.661 977.548 427.474 991.407 445.115 991.407H619.578V870.068H413.661ZM623.255 995.084H445.115C425.417 995.084 409.984 979.61 409.984 959.844V866.396H623.255V995.084Z" fill="black"/>
<path d="M966.589 876.683L106.958 878.563C99.4426 878.563 93.0989 872.964 92.1405 865.495L23.6666 330.386C21.9999 317.365 31.4895 305.068 44.5937 305.068L893.104 305.844L966.589 876.683Z" fill="#99B9FF"/>
<path d="M984.209 875.999H141.745C134.235 875.999 127.896 870.395 126.933 862.9L58.8909 332.598C57.0003 317.869 68.4065 304.822 83.1773 304.822H914.776C922.287 304.822 928.625 310.432 929.589 317.921L999.021 859.057C1000.18 868.041 993.214 875.999 984.209 875.999Z" fill="white"/>
<path d="M83.1764 306.656C76.6972 306.656 70.5149 309.458 66.218 314.339C61.8795 319.266 59.8743 325.839 60.7128 332.365L128.755 862.672C129.598 869.224 135.182 874.161 141.744 874.161H984.213C987.958 874.161 991.531 872.542 994.015 869.724C996.525 866.87 997.687 863.068 997.202 859.297L927.765 318.156C926.921 311.599 921.333 306.656 914.781 306.656H83.1764ZM984.213 877.839H141.744C133.338 877.839 126.182 871.516 125.109 863.135L57.067 332.833C56.093 325.26 58.4212 317.635 63.4576 311.911C68.4524 306.234 75.6399 302.984 83.1764 302.984H914.781C923.182 302.984 930.338 309.302 931.406 317.682L1000.85 858.823C1001.47 863.651 999.984 868.505 996.77 872.151C993.593 875.766 989.01 877.839 984.213 877.839Z" fill="black"/>
<path d="M125.13 254.084H862.964C879.245 254.084 894.062 267.334 896.057 283.673L958.297 794.001C960.312 810.516 948.667 823.907 932.292 823.907H190.307C173.932 823.907 159.13 810.516 157.245 794.001L99.0157 283.673C97.1511 267.334 108.844 254.084 125.13 254.084Z" fill="#CADDFF"/>
<path d="M898.395 301.74L896.999 283.401C895.031 267.208 879.697 254.312 863.4 254.312H125.567C109.28 254.312 97.4211 267.208 99.2701 283.401L100.999 305.979L898.395 301.74Z" fill="#0048BB"/>
<path d="M145.713 284.167C146.317 289.438 142.541 293.704 137.276 293.704C132.015 293.704 127.26 289.438 126.661 284.167C126.057 278.912 129.838 274.646 135.099 274.646C140.359 274.646 145.109 278.912 145.713 284.167Z" fill="#CADDFF"/>
<path d="M176.129 283.526C176.733 288.792 172.957 293.062 167.697 293.062C162.437 293.062 157.681 288.792 157.077 283.526C156.473 278.266 160.249 274 165.509 274C170.77 274 175.525 278.266 176.129 283.526Z" fill="#CADDFF"/>
<path d="M209.306 284.801C209.911 290.062 206.135 294.333 200.874 294.333C195.608 294.333 190.853 290.062 190.249 284.801C189.645 279.536 193.416 275.275 198.681 275.275C203.942 275.275 208.697 279.536 209.306 284.801Z" fill="#CADDFF"/>
<path d="M267.558 587.589H338.001L324.923 474.938L322.287 480.859L267.558 587.589ZM382.928 587.589H416.396L420.626 623.776H387.146L394.162 683.953H349.188L342.204 623.776H225.865L221.412 596.312L316.381 414.078H362.709L382.928 587.589Z" fill="white"/>
<path d="M568.662 519.744C565.668 494.437 560.017 475.895 551.73 464.109C543.444 452.333 531.787 446.442 516.772 446.442C502.126 446.442 492.011 452.02 486.433 463.182C480.85 474.348 479.272 491.775 481.694 515.489L488.881 576.645C491.845 601.869 497.574 620.682 506.058 633.051C514.548 645.437 526.313 651.624 541.365 651.624C555.793 651.624 565.782 645.9 571.334 634.447C576.886 623.005 578.402 605.088 575.886 580.729L568.662 519.744ZM619.553 570.15C624.178 608.994 620.407 638.281 608.261 658.036C596.11 677.791 575.225 687.671 545.615 687.671C516.496 687.671 493.433 678.036 476.433 658.775C459.428 639.525 448.543 611.031 443.751 573.312L438.282 526.598C433.735 487.833 437.558 458.775 449.756 439.411C461.944 420.057 482.86 410.385 512.517 410.385C541.923 410.385 564.975 419.807 581.673 438.676C598.376 457.541 609.152 485.796 614.001 523.447L619.553 570.15Z" fill="white"/>
<path d="M697.984 587.594H768.427L754.865 474.938L752.26 480.86L697.984 587.594ZM813.359 587.594H846.823L851.203 623.777H817.729L825 683.954H780.026L772.781 623.777H656.448L651.875 596.313L746.073 414.084H792.406L813.359 587.594Z" fill="white"/>
<path d="M279.188 575.714H344.557L332.49 471.761L279.188 575.714ZM346.625 579.396H276.182C275.542 579.396 274.943 579.063 274.609 578.516C274.276 577.969 274.25 577.287 274.542 576.719L329.271 469.99L331.865 464.157C332.203 463.396 333 462.959 333.823 463.084C334.641 463.209 335.276 463.865 335.37 464.693L348.453 577.344C348.51 577.865 348.349 578.386 348 578.782C347.651 579.173 347.151 579.396 346.625 579.396ZM359.448 672.079H400.719L393.943 613.954C393.88 613.438 394.047 612.912 394.396 612.521C394.745 612.131 395.245 611.902 395.771 611.902H427.182L423.38 579.396H391.552C390.62 579.396 389.839 578.699 389.729 577.771L369.693 405.886H326.12L231.948 586.589L236.052 611.902H350.823C351.76 611.902 352.547 612.605 352.651 613.532L359.448 672.079ZM402.786 675.761H357.812C356.88 675.761 356.094 675.063 355.99 674.131L349.188 615.579H234.484C233.589 615.579 232.818 614.928 232.672 614.032L228.219 586.568C228.156 586.178 228.219 585.777 228.406 585.423L323.375 403.199C323.688 402.589 324.318 402.209 325.005 402.209H371.328C372.266 402.209 373.047 402.907 373.156 403.834L393.188 575.714H425.021C425.953 575.714 426.734 576.417 426.844 577.344L431.078 613.532C431.135 614.053 430.969 614.574 430.62 614.964C430.271 615.36 429.771 615.579 429.25 615.579H397.839L404.615 673.704C404.672 674.23 404.51 674.751 404.156 675.141C403.812 675.532 403.312 675.761 402.786 675.761Z" fill="#0048BB"/>
<path d="M525.396 438.249C511.375 438.249 501.99 443.39 496.703 453.968C491.302 464.77 489.771 482.025 492.141 505.265L499.333 566.395C502.25 591.218 507.927 609.916 516.198 621.984C524.396 633.937 535.453 639.749 549.984 639.749C563.776 639.749 573.036 634.473 578.302 623.614C583.677 612.531 585.151 594.791 582.682 570.885L575.458 509.926C572.51 485.046 566.922 466.609 558.849 455.135C550.849 443.77 539.906 438.249 525.396 438.249ZM549.984 643.432C534.365 643.432 521.974 636.916 513.167 624.062C504.552 611.499 498.667 592.244 495.682 566.827L488.49 505.661C486.042 481.692 487.698 463.76 493.406 452.327C499.302 440.541 510.063 434.567 525.396 434.567C540.974 434.567 553.24 440.775 561.859 453.02C570.286 464.994 576.094 483.999 579.109 509.494L586.333 570.479C588.88 595.104 587.292 613.515 581.609 625.218C575.755 637.301 565.109 643.432 549.984 643.432ZM521.141 402.187C492.302 402.187 471.703 411.666 459.938 430.359C448.026 449.265 444.255 478.197 448.729 516.348L454.203 563.062C458.917 600.229 469.766 628.656 486.432 647.525C502.99 666.286 525.802 675.796 554.24 675.796C583.031 675.796 603.578 666.119 615.323 647.036C627.188 627.744 630.901 598.577 626.354 560.338L620.797 513.635C616.026 476.551 605.302 448.359 588.917 429.859C572.667 411.499 549.865 402.187 521.141 402.187ZM554.24 679.479C524.703 679.479 500.958 669.541 483.672 649.958C466.516 630.52 455.365 601.437 450.552 563.51L445.073 516.781C440.505 477.77 444.458 448.036 456.823 428.395C469.313 408.567 490.953 398.51 521.141 398.51C550.958 398.51 574.688 408.234 591.672 427.421C608.547 446.484 619.578 475.338 624.443 513.182L630.005 559.9C634.651 598.984 630.76 628.947 618.448 648.963C606 669.208 584.396 679.479 554.24 679.479Z" fill="#0048BB"/>
<path d="M777.057 579.396H706.614C705.969 579.396 705.38 579.063 705.042 578.521C704.713 577.969 704.682 577.298 704.969 576.73L759.25 469.995L761.812 464.162C762.146 463.402 762.948 462.954 763.771 463.084C764.588 463.209 765.224 463.86 765.323 464.683L773.75 534.662C773.864 535.673 773.151 536.589 772.141 536.704C771.12 536.839 770.213 536.115 770.099 535.11L762.474 471.761L709.609 575.719H774.984L773.484 563.329C773.37 562.324 774.088 561.402 775.094 561.287C776.12 561.152 777.016 561.881 777.141 562.886L778.88 577.339C778.943 577.86 778.776 578.381 778.427 578.777C778.078 579.173 777.583 579.396 777.057 579.396ZM833.62 675.761H788.651C787.724 675.761 786.943 675.063 786.828 674.141L779.771 615.579H665.073C664.172 615.579 663.406 614.933 663.255 614.048L658.693 586.574C658.625 586.188 658.687 585.787 658.87 585.438L753.068 403.204C753.38 402.594 754.016 402.209 754.698 402.209H801.026C801.953 402.209 802.739 402.896 802.854 403.829L808.542 450.881C808.656 451.886 807.943 452.808 806.932 452.928C805.917 453.042 805.005 452.334 804.88 451.324L799.396 405.891H755.818L662.411 586.574L666.63 611.902H781.411C782.338 611.902 783.125 612.6 783.234 613.521L790.281 672.084H831.547L825.745 623.995C825.62 622.99 826.344 622.068 827.344 621.949C828.349 621.829 829.271 622.548 829.396 623.553L835.448 673.704C835.51 674.219 835.349 674.745 835 675.141C834.651 675.532 834.146 675.761 833.62 675.761Z" fill="#0048BB"/>
<path d="M802.854 825.745H190.583C173.323 825.745 157.671 811.594 155.687 794.209L97.4632 283.881C96.4892 275.396 98.9059 267.417 104.255 261.423C109.536 255.501 117.046 252.24 125.401 252.24H863.239C880.39 252.24 896.057 266.245 898.151 283.449L918.395 449.402C918.515 450.412 917.797 451.324 916.791 451.449C915.786 451.563 914.869 450.855 914.739 449.839L894.5 283.896C892.625 268.475 878.593 255.928 863.239 255.928H125.401C118.109 255.928 111.573 258.751 107 263.87C102.359 269.074 100.265 276.032 101.114 283.464L159.343 793.787C161.119 809.381 175.135 822.063 190.583 822.063H802.854C803.869 822.063 804.698 822.891 804.698 823.907C804.698 824.917 803.869 825.745 802.854 825.745Z" fill="#0048BB"/>
<path d="M690.943 1018.38H432.048C431.032 1018.38 430.209 1017.55 430.209 1016.53C430.209 1015.52 431.032 1014.69 432.048 1014.69H690.943C694.23 1014.69 696.803 1012.01 696.803 1008.58V1001.35C696.803 997.896 694.178 995.083 690.943 995.083H615.902C614.886 995.083 614.063 994.26 614.063 993.25C614.063 992.234 614.886 991.406 615.902 991.406H690.943C696.204 991.406 700.475 995.865 700.475 1001.35V1008.58C700.475 1013.98 696.204 1018.38 690.943 1018.38Z" fill="black"/>
<path d="M348.078 998.765H124.969L146.083 957.208L164.484 921.015L185.047 880.577L203.438 844.406L227.365 797.38C229.115 793.937 232.651 791.775 236.521 791.775C240.391 791.775 243.927 793.932 245.682 797.38L269.604 844.4L288 880.567L308.562 920.994L326.964 957.208L348.078 998.765Z" fill="#99B9FF"/>
<path d="M288 881.1H185.047L203.438 844.334H269.604L288 881.1Z" fill="#0048BB"/>
<path d="M326.964 957.089H146.084L164.485 921.553H308.563L326.964 957.089Z" fill="#0048BB"/>
<path d="M126.85 997.537H343.99L305.819 921.829L242.938 798.219C241.496 795.381 238.615 793.62 235.423 793.62C232.23 793.62 229.35 795.391 227.902 798.235L185.584 881.485L165.022 922.001L146.621 958.344L126.85 997.537ZM346.975 1001.21H123.865C123.23 1001.21 122.636 1000.88 122.298 1000.34C121.964 999.798 121.938 999.12 122.225 998.548L143.339 956.688L161.74 920.339L200.699 843.61L224.626 796.568C226.699 792.485 230.839 789.943 235.423 789.943C240.011 789.943 244.147 792.48 246.214 796.553L309.1 920.167L348.621 998.548C348.907 999.12 348.876 999.798 348.543 1000.34C348.209 1000.88 347.615 1001.21 346.975 1001.21Z" fill="black"/>
<path d="M368.761 999.536C368.761 995.406 365.417 992.062 361.292 992.062H110.652C106.527 992.062 103.178 995.406 103.178 999.536V1023.16C103.178 1027.28 106.527 1030.63 110.652 1030.63H361.292C365.417 1030.63 368.761 1027.28 368.761 1023.16V999.536Z" fill="#0048BB"/>
<path d="M110.651 993.902C107.547 993.902 105.021 996.428 105.021 999.537V1023.15C105.021 1026.27 107.547 1028.79 110.651 1028.79H361.292C364.396 1028.79 366.922 1026.27 366.922 1023.15V999.537C366.922 996.428 364.396 993.902 361.292 993.902H110.651ZM361.292 1032.47H110.651C105.521 1032.47 101.344 1028.29 101.344 1023.15V999.537C101.344 994.402 105.521 990.225 110.651 990.225H361.292C366.422 990.225 370.599 994.402 370.599 999.537V1023.15C370.599 1028.29 366.422 1032.47 361.292 1032.47Z" fill="black"/>
<path d="M969.396 548.838C998.407 556.994 1035.74 588.39 1035.74 645.359C1035.74 686.395 975.287 721.156 975.287 721.156L965.324 696.682C965.324 696.682 998.641 672.01 997.042 643.208C995.761 620.109 958.521 612.937 958.521 612.937L969.396 548.838Z" fill="#0048BB"/>
<path d="M957.162 1016.98H936.318V992.506H957.162V1016.98Z" fill="#0048BB"/>
<path d="M901.683 1012.44L881.402 1017.23L875.771 993.417L896.068 988.625L901.683 1012.44Z" fill="#0048BB"/>
<path d="M974.385 688.869C974.385 688.869 980.604 738.088 975.828 757.197C971.057 776.307 959.875 952.89 959.875 1000.67H931.781L919.088 774.973L879.88 856.864C877.036 863.505 876.307 870.869 877.812 877.937L900.963 1000.67L874.672 1002.47L830.729 867.723C828.765 861.041 828.62 853.952 830.307 847.202L865.943 704.65L974.385 688.869Z" fill="black"/>
<path d="M920.452 771.834C920.046 771.834 919.645 771.703 919.296 771.433C918.505 770.792 918.374 769.636 919.015 768.844L933.51 750.719C934.15 749.927 935.301 749.797 936.098 750.433C936.89 751.063 937.02 752.224 936.38 753.016L921.885 771.141C921.515 771.599 920.984 771.834 920.452 771.834Z" fill="white"/>
<path d="M958.526 1011.54H934.047L930.422 1030.01C929.724 1033.57 932.291 1036.92 935.739 1036.92H956.833C960.271 1036.92 962.849 1033.57 962.151 1030.01L958.526 1011.54Z" fill="white"/>
<path d="M935.558 1013.38L932.22 1030.36C931.98 1031.6 932.282 1032.84 933.058 1033.78C933.746 1034.62 934.699 1035.08 935.735 1035.08H956.829C957.865 1035.08 958.819 1034.62 959.506 1033.78C960.282 1032.84 960.584 1031.6 960.345 1030.36L957.006 1013.38H935.558ZM956.829 1038.76H935.735C933.61 1038.76 931.6 1037.8 930.22 1036.11C928.746 1034.32 928.162 1031.97 928.61 1029.66L932.24 1011.19C932.412 1010.33 933.168 1009.7 934.043 1009.7H958.522C959.397 1009.7 960.157 1010.33 960.324 1011.19L963.949 1029.66C964.407 1031.97 963.824 1034.32 962.345 1036.11C960.964 1037.8 958.954 1038.76 956.829 1038.76Z" fill="black"/>
<path d="M958.521 1032.86H933.135C932.125 1032.86 931.297 1032.05 931.297 1031.03C931.297 1030.02 932.125 1029.19 933.135 1029.19H958.521C959.531 1029.19 960.354 1030.02 960.354 1031.03C960.354 1032.05 959.531 1032.86 958.521 1032.86Z" fill="black"/>
<path d="M902.318 1006.1L909.026 1028.34C910.188 1032.21 907.828 1036.31 904.365 1036.42L858.323 1037.98C855.474 1038.08 854.339 1033.67 856.745 1031.86C864.234 1026.23 874.203 1018.41 876.938 1014.7C883.292 1006.1 889.635 1013.63 889.635 1013.63C889.635 1013.63 894.162 1006.1 902.318 1006.1Z" fill="white"/>
<path d="M883.557 1012.42C883.504 1012.42 883.458 1012.42 883.405 1012.42C881.702 1012.48 880.03 1013.62 878.421 1015.79C876.14 1018.88 869.213 1024.78 857.853 1033.32C857.213 1033.8 857.171 1034.71 857.4 1035.35C857.484 1035.59 857.734 1036.15 858.239 1036.15C858.249 1036.15 858.254 1036.15 858.26 1036.15L904.301 1034.58C905.494 1034.55 906.26 1033.72 906.614 1033.23C907.463 1032.04 907.713 1030.36 907.265 1028.88L900.978 1008.02C894.812 1008.78 891.244 1014.51 891.208 1014.58C890.895 1015.08 890.369 1015.41 889.77 1015.45C889.182 1015.49 888.609 1015.26 888.228 1014.81C888.208 1014.79 886.135 1012.42 883.557 1012.42ZM858.234 1039.82C856.312 1039.82 854.635 1038.56 853.932 1036.57C853.114 1034.25 853.807 1031.77 855.64 1030.39C866.411 1022.29 873.452 1016.33 875.458 1013.61C877.78 1010.47 880.416 1008.84 883.307 1008.74C885.874 1008.62 887.984 1009.84 889.364 1010.88C891.4 1008.42 895.796 1004.26 902.322 1004.26C903.129 1004.26 903.848 1004.79 904.088 1005.57L910.78 1027.81C911.572 1030.42 911.129 1033.24 909.598 1035.37C908.333 1037.14 906.442 1038.19 904.426 1038.26L858.39 1039.82C858.333 1039.82 858.291 1039.82 858.234 1039.82Z" fill="black"/>
<path d="M863.35 1031.03L905.042 1029.21L863.35 1031.03Z" fill="white"/>
<path d="M863.343 1032.87C862.369 1032.87 861.546 1032.09 861.51 1031.11C861.463 1030.09 862.249 1029.24 863.265 1029.19L904.958 1027.38C905.999 1027.32 906.833 1028.12 906.874 1029.14C906.921 1030.15 906.135 1031.01 905.114 1031.06L863.421 1032.87C863.395 1032.87 863.369 1032.87 863.343 1032.87Z" fill="black"/>
<path d="M926.796 536.15L949.458 551.557L887.057 548.572L905.036 537.057L907.463 525.906C904.27 525.426 899.88 525.114 898.484 523.369C896.015 520.296 897.13 509.661 897.13 509.661L894.426 507.541C894.135 507.39 893.926 507.135 893.838 506.827C893.755 506.515 893.812 506.176 893.973 505.906C896.27 502.249 898.437 501.067 899.452 497.343C900.452 493.661 900.01 494.223 903.968 486.296L927.702 486.26L927.833 504.046C927.833 504.046 931.479 501.702 933.781 504.88C935.458 507.187 931.744 514.916 928.734 514.916L926.796 536.15Z" fill="white"/>
<path d="M892.901 547.01L943.031 549.411L925.755 537.666C925.213 537.291 924.906 536.65 924.968 535.979L926.906 514.749C926.994 513.801 927.786 513.083 928.734 513.083C928.984 513.062 930.026 512.406 931.109 510.442C932.312 508.27 932.51 506.359 932.286 505.942C931.041 504.239 929.057 505.452 928.833 505.593C928.27 505.963 927.552 505.989 926.958 505.671C926.364 505.348 926.005 504.734 925.999 504.067L925.874 488.109L905.109 488.14C902.265 493.848 902.13 494.38 901.572 496.51C901.473 496.885 901.359 497.312 901.223 497.822C900.479 500.551 899.192 502.114 897.838 503.781C897.203 504.551 896.546 505.348 895.885 506.343L898.265 508.218C898.765 508.614 899.026 509.229 898.958 509.854C898.531 513.963 898.541 520.51 899.921 522.223C900.651 523.135 904.145 523.604 906.234 523.88C906.744 523.952 907.249 524.02 907.734 524.088C908.234 524.161 908.687 524.442 908.979 524.859C909.265 525.281 909.359 525.796 909.26 526.291L906.833 537.447C906.734 537.926 906.447 538.343 906.036 538.609L892.901 547.01ZM949.453 553.395C949.427 553.395 949.39 553.395 949.364 553.395L886.968 550.406C886.171 550.369 885.489 549.822 885.276 549.041C885.072 548.27 885.39 547.452 886.067 547.02L903.406 535.921L905.244 527.463C901.937 527.01 898.619 526.484 897.046 524.525C894.593 521.458 894.947 513.635 895.208 510.494L893.401 509.067C892.749 508.671 892.27 508.051 892.067 507.312C891.843 506.515 891.973 505.645 892.421 504.932C893.333 503.479 894.218 502.4 894.994 501.447C896.244 499.926 897.14 498.822 897.682 496.848C897.807 496.364 897.916 495.952 898.015 495.577C898.692 492.989 898.921 492.286 902.322 485.479C902.635 484.859 903.27 484.468 903.968 484.458L927.697 484.432C927.697 484.432 927.697 484.432 927.703 484.432C928.713 484.432 929.536 485.244 929.536 486.255L929.656 501.463C931.552 501.176 933.713 501.656 935.276 503.801C937.098 506.327 935.197 510.531 934.572 511.76C933.963 512.963 932.51 515.406 930.447 516.359L928.718 535.234L950.489 550.036C951.166 550.499 951.463 551.359 951.203 552.14C950.947 552.895 950.239 553.395 949.453 553.395Z" fill="black"/>
<path d="M929.895 522.869C925.109 524.463 920.39 520.723 919.551 520.051C916.223 517.416 913.51 512.718 914.843 510.645C915.578 509.51 916.885 510.135 918.604 508.77C921.135 506.755 921.854 502.411 920.484 501.244C919.364 500.281 917.619 502.119 915.786 501.244C913.546 500.166 914.697 496.734 912.958 493.718C910.135 488.775 903.546 491.76 898.484 486.505C895.176 483.067 893.739 477.354 895.63 474.119C896.187 473.187 897.025 472.343 898.229 471.682C906.192 467.291 907.385 473.301 915.15 473.369C931.109 473.505 938.942 476.697 941.833 483.312C943.791 487.801 941.395 494.953 940.234 498.416C939.848 499.578 939.041 501.76 938.348 505.01C937.609 508.562 937.833 509.468 937.416 511.593C937.114 513.078 935.531 520.994 929.895 522.869Z" fill="black"/>
<path d="M894.135 495.021C894.135 495.021 901.177 497.625 902.719 494.099C904.255 490.583 901.797 487.667 905.625 484.911C909.458 482.156 918.651 479.239 915.286 475.104C911.906 470.963 901.641 469.281 898.734 474.182C895.823 479.088 893.672 487.515 891.682 487.667C889.693 487.818 890.432 494.156 894.135 495.021Z" fill="white"/>
<path d="M894.771 493.297C896.985 494.109 900.495 494.604 901.032 493.365C901.464 492.354 901.464 491.385 901.464 490.26C901.454 488.203 901.438 485.656 904.553 483.417C905.625 482.646 906.99 481.911 908.433 481.135C910.485 480.026 913.922 478.182 914.162 476.969C914.193 476.797 914.094 476.557 913.855 476.26C912.198 474.24 908.073 472.802 904.62 473.057C903.422 473.141 901.261 473.531 900.308 475.12C899.204 476.995 898.152 479.547 897.23 481.797C895.49 486.042 894.37 488.76 892.464 489.38C892.402 489.839 892.469 490.755 892.933 491.703C893.162 492.188 893.688 493.026 894.547 493.229C894.625 493.245 894.698 493.271 894.771 493.297ZM898.985 497.786C896.605 497.786 894.261 497.016 893.599 496.786C889.99 495.865 888.594 491.734 888.787 489.193C888.943 487.073 890.094 486.109 891.209 485.88C891.865 485.172 893.042 482.323 893.823 480.401C894.797 478.036 895.902 475.349 897.152 473.24C898.48 470.995 901.042 469.635 904.344 469.391C909.053 469.031 914.266 470.958 916.709 473.943C917.907 475.417 917.948 476.792 917.766 477.682C917.183 480.599 913.615 482.516 910.172 484.37C908.834 485.089 907.579 485.766 906.698 486.406C905.125 487.536 905.125 488.443 905.136 490.245C905.141 491.521 905.146 493.109 904.402 494.833C903.402 497.135 901.178 497.786 898.985 497.786Z" fill="black"/>
<path d="M863.348 545.22C863.348 545.22 917.723 529.813 969.395 548.845C973.369 571.746 976.093 591.527 977.999 607.188C981.353 634.772 979.265 625.959 983.447 666.214C986.036 691.235 986.728 693.532 984.348 697.938C972.358 720.167 924.051 718.959 905.494 714.256C904.176 713.917 898.723 712.485 889.801 710.235C879.593 707.657 871.207 705.626 865.608 704.282C862.577 702.912 858.494 700.485 855.635 696.126C849.244 686.371 853.52 673.746 855.635 665.313C861.077 643.647 853.931 643.183 855.635 603.678C856.233 589.865 857.973 569.798 863.348 545.22Z" fill="#0048BB"/>
<path d="M962.827 714.886C961.931 714.886 961.145 714.235 961.01 713.319C960.864 712.313 961.556 711.381 962.567 711.23C963.546 711.084 986.661 707.412 983.598 685.506C983.468 684.496 984.161 683.574 985.171 683.428C986.161 683.287 987.109 683.991 987.239 684.996C990.812 710.543 963.369 714.829 963.088 714.871C963.004 714.881 962.911 714.886 962.827 714.886Z" fill="white"/>
<path d="M899.839 693.734C899.376 693.734 898.907 693.568 898.548 693.213C876.876 671.844 872.397 639.51 872.219 638.141C872.094 637.135 872.798 636.213 873.803 636.078C874.813 635.948 875.73 636.651 875.865 637.661C875.912 637.984 880.371 670.13 901.131 690.588C901.855 691.302 901.86 692.469 901.152 693.187C900.792 693.557 900.318 693.734 899.839 693.734Z" fill="white"/>
<path d="M844.042 516.041C844.079 515.072 844.772 514.26 845.725 514.077L899.449 497.338L894.792 486.265C894.792 486.265 822.042 463.166 787.917 492.635C753.777 522.093 822.391 594.89 861.126 611.749L896.595 540.556L845.579 518.124C844.641 517.869 844.011 517.01 844.042 516.041Z" fill="#0048BB"/>
<path d="M1010.29 335.042C1010.29 375.896 977.173 409.016 936.318 409.016C895.454 409.016 862.334 375.896 862.334 335.042C862.334 294.188 895.454 261.068 936.318 261.068C977.173 261.068 1010.29 294.188 1010.29 335.042Z" fill="white"/>
<path d="M936.312 262.901C896.531 262.901 864.171 295.271 864.171 335.042C864.171 374.823 896.531 407.177 936.312 407.177C976.088 407.177 1008.45 374.823 1008.45 335.042C1008.45 295.271 976.088 262.901 936.312 262.901ZM936.312 410.859C894.505 410.859 860.494 376.844 860.494 335.042C860.494 293.24 894.505 259.234 936.312 259.234C978.114 259.234 1012.12 293.24 1012.12 335.042C1012.12 376.844 978.114 410.859 936.312 410.859Z" fill="black"/>
<path d="M982.917 335.042C982.917 360.787 962.057 381.646 936.312 381.646C910.562 381.646 889.703 360.787 889.703 335.042C889.703 309.303 910.562 288.443 936.312 288.443C962.057 288.443 982.917 309.303 982.917 335.042Z" fill="#99B9FF"/>
<path d="M916.272 356.135C916.11 356.135 915.943 356.119 915.782 356.077C914.803 355.807 914.225 354.796 914.49 353.817C917.22 343.843 926.36 336.885 936.699 336.885C946.542 336.885 955.303 343.13 958.496 352.432C958.824 353.395 958.313 354.442 957.355 354.77C956.381 355.093 955.345 354.583 955.016 353.63C952.334 345.812 944.975 340.557 936.699 340.557C928.011 340.557 920.334 346.406 918.037 354.791C917.818 355.604 917.074 356.135 916.272 356.135Z" fill="white"/>
<path d="M921.051 327.151C920.577 327.151 920.104 326.974 919.744 326.615L909.275 316.141C908.562 315.422 908.562 314.26 909.275 313.547C909.994 312.828 911.161 312.828 911.88 313.547L922.354 324.01C923.067 324.729 923.067 325.896 922.354 326.615C921.989 326.974 921.525 327.151 921.051 327.151Z" fill="white"/>
<path d="M921.051 327.151C920.577 327.151 920.104 326.974 919.744 326.615L909.275 316.141C908.562 315.422 908.562 314.26 909.275 313.547C909.994 312.828 911.161 312.828 911.88 313.547L922.354 324.01C923.067 324.729 923.067 325.896 922.354 326.615C921.989 326.974 921.525 327.151 921.051 327.151Z" fill="white"/>
<path d="M910.577 327.151C910.109 327.151 909.635 326.974 909.275 326.615C908.562 325.896 908.562 324.729 909.275 324.01L919.744 313.547C920.463 312.828 921.63 312.828 922.354 313.547C923.067 314.26 923.067 315.422 922.354 316.141L911.88 326.615C911.52 326.974 911.051 327.151 910.577 327.151Z" fill="white"/>
<path d="M962.713 327.162C962.249 327.162 961.781 326.98 961.421 326.62L950.947 316.152C950.223 315.433 950.223 314.271 950.947 313.553C951.666 312.834 952.827 312.834 953.546 313.553L964.02 324.021C964.734 324.735 964.734 325.902 964.02 326.62C963.661 326.98 963.182 327.162 962.713 327.162Z" fill="white"/>
<path d="M952.244 327.162C951.775 327.162 951.307 326.98 950.947 326.62C950.223 325.902 950.223 324.735 950.947 324.021L961.421 313.553C962.135 312.834 963.291 312.834 964.02 313.553C964.734 314.271 964.734 315.433 964.02 316.152L953.546 326.62C953.187 326.98 952.718 327.162 952.244 327.162Z" fill="white"/>
<path d="M686.485 103.98C686.173 103.98 685.85 103.917 685.542 103.787C612.85 73.4899 528.975 64.2347 443.011 77.0368C441.678 77.2295 440.428 76.3181 440.23 74.9743C440.032 73.641 440.949 72.391 442.292 72.1879C529.136 59.2556 613.902 68.6201 687.428 99.2608C688.678 99.7816 689.272 101.214 688.751 102.469C688.36 103.407 687.444 103.974 686.485 103.98Z" fill="black"/>
<path d="M721.489 93.5265C721.119 93.5265 720.728 93.4276 720.369 93.2453C714.124 89.9953 707.65 86.8494 701.114 83.8963C609.656 42.5786 498.994 34.7661 389.499 61.8963C388.176 62.2192 386.853 61.4172 386.53 60.1099C386.202 58.7922 387.004 57.4588 388.317 57.1359C498.879 29.7453 610.682 37.6619 703.135 79.4328C709.749 82.4172 716.307 85.6047 722.635 88.8963C723.833 89.5213 724.296 91.0005 723.671 92.1984C723.234 93.0422 722.385 93.5265 721.489 93.5265Z" fill="black"/>
<path d="M798.724 180.187C797.745 180.187 796.938 179.421 796.891 178.437C796.839 177.426 797.625 176.562 798.636 176.515L807.469 176.088C808.48 176.041 809.344 176.822 809.391 177.833C809.443 178.848 808.657 179.713 807.646 179.765L798.813 180.187C798.787 180.187 798.75 180.187 798.724 180.187Z" fill="black"/>
<path d="M829.63 178.708C828.646 178.708 827.844 177.938 827.792 176.953C827.739 175.938 828.526 175.078 829.542 175.031L838.37 174.609C839.364 174.563 840.25 175.339 840.297 176.349C840.344 177.37 839.557 178.229 838.542 178.276L829.724 178.708C829.682 178.708 829.656 178.708 829.63 178.708Z" fill="black"/>
<path d="M819.667 199.098C818.687 199.098 817.88 198.343 817.823 197.359L817.354 188.531C817.302 187.52 818.078 186.65 819.088 186.598C820.12 186.572 820.974 187.322 821.021 188.333L821.5 197.161C821.557 198.176 820.781 199.046 819.76 199.098C819.734 199.098 819.693 199.098 819.667 199.098Z" fill="black"/>
<path d="M818 168.192C817.026 168.192 816.219 167.432 816.161 166.452L815.682 157.624C815.63 156.609 816.411 155.744 817.427 155.687C818.427 155.65 819.302 156.411 819.359 157.421L819.833 166.255C819.885 167.27 819.114 168.135 818.099 168.187C818.068 168.192 818.031 168.192 818 168.192Z" fill="black"/>
<path d="M738.036 923.608C737.702 923.608 737.369 923.52 737.067 923.332L730.781 919.442C729.916 918.911 729.65 917.775 730.182 916.916C730.718 916.051 731.854 915.78 732.713 916.317L739.005 920.207C739.869 920.739 740.135 921.874 739.593 922.739C739.255 923.301 738.65 923.608 738.036 923.608Z" fill="black"/>
<path d="M760.036 937.218C759.708 937.218 759.375 937.129 759.073 936.947L752.786 933.051C751.922 932.525 751.656 931.39 752.188 930.52C752.724 929.661 753.854 929.39 754.719 929.926L761.005 933.812C761.875 934.348 762.141 935.478 761.599 936.348C761.255 936.911 760.656 937.218 760.036 937.218Z" fill="black"/>
<path d="M737.218 942.672C736.89 942.672 736.556 942.584 736.26 942.396C735.39 941.87 735.119 940.735 735.645 939.87L739.504 933.563C740.03 932.693 741.166 932.422 742.03 932.953C742.895 933.479 743.171 934.615 742.64 935.479L738.786 941.792C738.437 942.354 737.838 942.672 737.218 942.672Z" fill="black"/>
<path d="M750.708 920.584C750.379 920.584 750.051 920.496 749.754 920.313C748.89 919.782 748.614 918.652 749.14 917.787L752.999 911.475C753.53 910.605 754.661 910.334 755.52 910.866C756.395 911.392 756.666 912.522 756.135 913.392L752.286 919.704C751.932 920.272 751.333 920.584 750.708 920.584Z" fill="black"/>
<path d="M262.224 151.051C262.041 151.051 261.859 151.02 261.672 150.963L254.817 148.822C253.849 148.515 253.307 147.483 253.609 146.52C253.916 145.546 254.942 145.004 255.916 145.306L262.771 147.457C263.739 147.765 264.281 148.791 263.979 149.759C263.729 150.546 263.005 151.051 262.224 151.051Z" fill="black"/>
<path d="M238.218 143.541C238.036 143.541 237.854 143.52 237.672 143.463L230.817 141.317C229.849 141.01 229.307 139.979 229.609 139.01C229.911 138.041 230.942 137.5 231.911 137.807L238.771 139.953C239.739 140.26 240.276 141.286 239.974 142.255C239.729 143.041 239.005 143.541 238.218 143.541Z" fill="black"/>
<path d="M249.427 137.635C249.25 137.635 249.068 137.609 248.885 137.552C247.917 137.255 247.37 136.224 247.667 135.26L249.771 128.391C250.068 127.417 251.099 126.87 252.068 127.167C253.042 127.469 253.583 128.5 253.287 129.469L251.182 136.333C250.938 137.13 250.214 137.635 249.427 137.635Z" fill="black"/>
<path d="M242.058 161.682C241.881 161.682 241.699 161.656 241.522 161.604C240.548 161.307 240.006 160.276 240.298 159.307L242.407 152.437C242.699 151.468 243.73 150.922 244.699 151.213C245.673 151.51 246.219 152.547 245.917 153.51L243.813 160.385C243.574 161.177 242.844 161.682 242.058 161.682Z" fill="black"/>
<path d="M362.865 61.4366C362.558 61.4366 362.251 61.4575 361.938 61.5096C358.725 62.0148 356.516 65.0408 357.027 68.2596C357.271 69.8221 358.11 71.1866 359.386 72.1189C360.662 73.046 362.219 73.421 363.782 73.1762C366.995 72.671 369.204 69.6346 368.698 66.421C368.24 63.5096 365.719 61.4366 362.865 61.4366ZM362.839 76.9262C360.829 76.9262 358.881 76.296 357.219 75.0929C355.152 73.5825 353.792 71.3637 353.391 68.8325C352.568 63.6137 356.146 58.6971 361.37 57.8741C366.584 57.0408 371.506 60.6293 372.329 65.8481C373.152 71.0668 369.573 75.9887 364.355 76.8116C363.85 76.8898 363.344 76.9262 362.839 76.9262Z" fill="black"/>
</svg>
