<svg width="1080" height="1080" viewBox="0 0 1080 1080" fill="none" xmlns="http://www.w3.org/2000/svg">
<path d="M974.063 154.99C926.797 95.9219 850.177 81.125 801.214 71.6771C608.198 34.4167 373.047 16.5833 186.458 225.031C144.005 272.458 0.0104145 568.797 115.849 795.203C218.25 995.349 475.656 1063.47 668.594 1034.05C828.443 1009.68 1020.16 908.115 1056.9 761.974C1080 670.073 1022.31 647.917 1009.04 455.594C997.531 289.12 1031.88 227.24 974.063 154.99Z" fill="#CADDFF"/>
<path d="M575.818 818.219H70.8073V892.427H70.0208C69.2343 892.427 68.8229 894.646 68.8229 895.234C68.8229 905.125 183.651 911.599 327.589 911.599C471.536 911.599 577.094 904.865 577.094 894.974C577.094 894.385 576.714 892.427 575.984 892.427H575.818V818.219Z" fill="#99B9FF"/>
<path d="M577.094 817.63C577.094 827.521 471.536 833.469 327.594 833.469C183.651 833.469 68.8229 827.521 68.8229 817.63C68.8229 807.74 183.651 797.651 327.594 797.651C471.536 797.651 577.094 807.74 577.094 817.63Z" fill="white"/>
<path d="M580.604 729.656H75.5938V803.859H74.8125C74.026 803.859 73.6094 806.083 73.6094 806.672C73.6094 816.563 188.438 823.036 332.375 823.036C476.318 823.036 581.88 816.302 581.88 806.411C581.88 805.823 581.495 803.859 580.771 803.859H580.604V729.656Z" fill="#99B9FF"/>
<path d="M581.88 729.068C581.88 738.958 476.318 744.906 332.375 744.906C188.438 744.906 73.6094 738.958 73.6094 729.068C73.6094 719.177 188.438 709.089 332.375 709.089C476.318 709.089 581.88 719.177 581.88 729.068Z" fill="white"/>
<path d="M578.208 638.703H73.198V715.297H73.4115C72.625 715.297 72.2084 716.521 72.2084 717.109C72.2084 727 187.037 732.974 330.979 732.974C474.917 732.974 580.479 726.984 580.479 717.094C580.479 716.505 580.099 715.297 579.37 715.297H578.208V638.703Z" fill="#99B9FF"/>
<path d="M580.479 638.5C580.479 648.396 474.917 654.339 330.979 654.339C187.037 654.339 72.2084 648.396 72.2084 638.5C72.2084 628.609 187.037 618.526 330.979 618.526C474.917 618.526 580.479 628.609 580.479 638.5Z" fill="white"/>
<path d="M582.995 545.354H75.5938V623.141H75.2656C74.4792 623.141 74.0625 624.109 74.0625 624.693C74.0625 634.583 188.891 640.432 332.833 640.432C476.776 640.432 582.333 634.641 582.333 624.75C582.333 624.162 581.953 623.141 581.224 623.141H582.995V545.354Z" fill="#99B9FF"/>
<path d="M582.333 545.833C582.333 555.724 476.776 561.672 332.833 561.672C188.891 561.672 74.0625 555.724 74.0625 545.833C74.0625 535.943 188.891 525.854 332.833 525.854C476.776 525.854 582.333 535.943 582.333 545.833Z" fill="white"/>
<path d="M580.604 453.198H75.5937V527.401H74.3229C73.5364 527.401 73.1198 529.365 73.1198 529.953C73.1198 539.844 187.953 546.193 331.891 546.193C475.828 546.193 581.396 539.646 581.396 529.755C581.396 529.172 581.01 527.401 580.281 527.401H580.604V453.198Z" fill="#99B9FF"/>
<path d="M581.396 452.094C581.396 461.984 475.828 467.932 331.891 467.932C187.948 467.932 73.1198 461.984 73.1198 452.094C73.1198 442.203 187.948 432.109 331.891 432.109C475.828 432.109 581.396 442.203 581.396 452.094Z" fill="white"/>
<path d="M578.208 359.849H70.8073V438.839H72.4687C71.6823 438.839 71.2656 439.266 71.2656 439.854C71.2656 449.745 186.094 455.328 330.036 455.328C473.974 455.328 579.536 449.927 579.536 440.037C579.536 439.453 579.156 438.839 578.427 438.839H578.208V359.849Z" fill="#99B9FF"/>
<path d="M579.536 360.458C579.536 370.349 473.974 376.297 330.036 376.297C186.094 376.297 71.2656 370.349 71.2656 360.458C71.2656 350.568 186.094 340.474 330.036 340.474C473.974 340.474 579.536 350.568 579.536 360.458Z" fill="white"/>
<path d="M577.755 360.563H577.771H577.755ZM73.1407 360.443C74.2657 361.766 83.0052 366.719 150 370.479C196.229 373.073 260.167 374.5 330.037 374.5C400.375 374.5 461.141 373.109 505.755 370.469C569.458 366.703 576.859 361.682 577.703 360.448C576.214 357.958 559.609 352.74 505.964 348.328C458.516 344.427 396.037 342.276 330.037 342.276C263.688 342.276 199.688 344.417 149.818 348.313C93.0782 352.74 75.0521 357.938 73.1407 360.443ZM330.037 378.094C258.318 378.094 193.162 376.599 146.568 373.88C69.474 369.38 69.474 363.354 69.474 360.458C69.474 357.917 69.474 351.172 146.531 344.969C196.901 340.922 262.068 338.688 330.037 338.688C397.516 338.688 461.042 340.922 508.912 344.974C581.333 351.104 581.333 357.901 581.333 360.458C581.333 363.146 578.875 366.021 561.078 368.88C549.042 370.813 531.474 372.49 508.875 373.875C463.948 376.635 402.104 378.094 330.037 378.094Z" fill="#99B9FF"/>
<path d="M1043.04 327.526C1043.04 275.13 1021.59 197.104 918.229 201.839C924.057 135.484 867.484 44.2916 744.255 52.625C684.786 56.6562 672.583 103.312 666.141 100.974C583.177 70.9635 481.963 141.547 504.516 248.245C458.427 253.333 420.219 291.599 421.292 343.281C421.99 376.854 441.068 402.682 472.016 402.682H973.484C1010.88 402.682 1042.06 370.62 1043.02 330.047C1043.04 329.203 1043.04 328.365 1043.04 327.526Z" fill="#99B9FF"/>
<path d="M524.969 404.474H472.016C441.365 404.474 420.255 379.896 419.5 343.318C418.979 318.438 427.641 294.912 443.891 277.073C459.536 259.906 480.995 249.031 504.323 246.458C505.302 246.354 506.193 247.063 506.307 248.047C506.417 249.031 505.698 249.922 504.719 250.031C457.182 255.271 422.094 295.344 423.089 343.24C423.802 377.714 443.464 400.875 472.016 400.875H524.969C525.964 400.875 526.76 401.682 526.76 402.677C526.76 403.667 525.964 404.474 524.969 404.474Z" fill="white"/>
<path d="M1057.59 336.651C1057.59 285.594 1027.33 185.427 926.141 190.042C904.167 89.3854 857.719 59.9426 775.052 59.1979C694.328 58.4687 679.474 117.604 673.255 115.042C586.401 79.302 505.859 160.161 523.5 253.995C478.37 258.943 443.151 300.115 443.151 350.167C443.151 350.391 443.151 350.615 443.151 350.844C443.359 383.557 468.188 409.875 498.49 409.875H989.49C1026.1 409.875 1056.64 378.641 1057.57 339.104C1057.59 338.286 1057.59 337.469 1057.59 336.651Z" fill="#5479F7"/>
<path d="M387.615 984.359C402.245 972.401 417.604 961.255 433.338 950.625C465.26 929.047 498.906 909.76 532.911 891.073C550.802 881.245 569.375 872.349 587.708 863.198C606.156 853.995 624.646 844.875 643.146 835.76C660.052 827.432 676.953 819.099 693.833 810.724C732.193 681.047 773.849 534.031 765.578 534.031L136.677 516.271C121.87 516.271 111.937 528.323 114.536 543.13L190.745 977.708C193.344 992.51 207.5 1004.56 222.302 1004.56H362.26C370.51 997.599 379.26 991.182 387.615 984.359Z" fill="#5479F7"/>
<path d="M765.505 535.823C765.526 535.823 765.547 535.823 765.568 535.823H765.505ZM387.615 984.359H387.625H387.615ZM136.625 518.078C130.13 518.078 124.412 520.594 120.573 525.161C116.646 529.844 115.125 536.115 116.302 542.823L192.516 977.401C194.964 991.385 208.328 1002.76 222.302 1002.76H361.599C366.12 998.974 370.839 995.297 375.406 991.734C379.063 988.885 382.844 985.938 386.479 982.969C399.995 971.917 414.995 960.854 432.328 949.141C466.073 926.333 501.672 906.198 532.047 889.505C545.927 881.875 560.427 874.703 574.458 867.766C578.615 865.714 582.766 863.661 586.906 861.594C605.094 852.521 623.51 843.432 642.354 834.151C656.901 826.984 674.969 818.083 692.339 809.464C760.073 580.38 765.932 541.276 764.781 535.807L136.625 518.078ZM362.255 1006.35H222.302C206.667 1006.35 191.719 993.641 188.979 978.016L112.766 543.438C111.406 535.672 113.203 528.354 117.828 522.854C122.359 517.458 129.052 514.484 136.677 514.484L765.62 532.234H765.625C766.365 532.234 767.063 532.599 767.557 533.26C769.557 535.932 774.875 543.057 695.552 811.234C695.412 811.714 695.073 812.115 694.625 812.333C677.047 821.063 658.688 830.104 643.938 837.375C625.099 846.651 606.688 855.74 588.505 864.802C584.365 866.875 580.214 868.927 576.052 870.984C562.057 877.901 547.589 885.057 533.776 892.651C503.469 909.302 467.964 929.385 434.339 952.115C417.099 963.771 402.182 974.766 388.75 985.745C385.083 988.74 381.287 991.703 377.615 994.563C372.901 998.234 368.031 1002.04 363.412 1005.93C363.089 1006.2 362.677 1006.35 362.255 1006.35Z" fill="black"/>
<path d="M783.521 517.797H149.714C135.724 517.797 126.37 529.135 128.823 543.13L205.036 977.708C207.49 991.703 220.818 1003.04 234.807 1003.04H868.62C882.599 1003.04 891.953 991.703 889.505 977.708L813.292 543.13C810.844 529.135 797.505 517.797 783.521 517.797Z" fill="white"/>
<path d="M149.714 519.594C143.563 519.594 138.188 521.953 134.594 526.234C130.906 530.62 129.49 536.505 130.594 542.818L206.807 977.396C209.115 990.542 221.677 1001.24 234.807 1001.24H868.62C874.776 1001.24 880.141 998.885 883.74 994.604C887.422 990.214 888.844 984.323 887.74 978.016L811.531 543.438C809.229 530.286 796.662 519.594 783.526 519.594H149.714ZM868.62 1004.83H234.807C220.01 1004.83 205.865 992.807 203.271 978.016L127.057 543.438C125.766 536.063 127.464 529.135 131.844 523.922C136.135 518.818 142.479 516 149.714 516H783.526C798.318 516 812.469 528.031 815.063 542.818L891.271 977.396C892.568 984.766 890.865 991.698 886.49 996.906C882.198 1002.02 875.854 1004.83 868.62 1004.83Z" fill="black"/>
<path d="M767.896 534.552H168.896C155.672 534.552 146.839 545.115 149.156 558.13L221.182 962.698C223.5 975.729 236.094 986.286 249.318 986.286H848.318C861.547 986.286 870.38 975.729 868.068 962.698L796.031 558.13C793.714 545.115 781.12 534.552 767.896 534.552Z" fill="#CADDFF"/>
<path d="M1015.43 1005.53H232.651C222.219 1005.53 213.734 1013.64 213.734 1024.07C213.734 1034.51 222.219 1042.63 232.651 1042.63H1015.43C1025.87 1042.63 1034.34 1034.53 1034.34 1024.07C1034.34 1013.63 1025.87 1005.53 1015.43 1005.53Z" fill="#5479F7"/>
<path d="M232.651 1007.31C223.052 1007.31 215.531 1014.68 215.531 1024.07C215.531 1033.47 223.052 1040.83 232.651 1040.83H1015.43C1025.03 1040.83 1032.55 1033.47 1032.55 1024.07C1032.55 1014.68 1025.03 1007.31 1015.43 1007.31H232.651ZM1015.43 1044.42H232.651C221.036 1044.42 211.938 1035.48 211.938 1024.07C211.938 1012.66 221.036 1003.73 232.651 1003.73H1015.43C1027.04 1003.73 1036.14 1012.66 1036.14 1024.07C1036.14 1035.48 1027.04 1044.42 1015.43 1044.42Z" fill="black"/>
<path d="M563.48 354V241.2H604.44C617.347 241.2 628.227 243.44 637.08 247.92C646.04 252.293 652.813 258.693 657.4 267.12C661.987 275.44 664.28 285.573 664.28 297.52C664.28 309.36 661.987 319.493 657.4 327.92C652.813 336.347 646.04 342.8 637.08 347.28C628.227 351.76 617.347 354 604.44 354H563.48ZM584.12 336.88H603.16C616.813 336.88 626.947 333.627 633.56 327.12C640.173 320.613 643.48 310.747 643.48 297.52C643.48 284.187 640.173 274.32 633.56 267.92C626.947 261.413 616.813 258.16 603.16 258.16H584.12V336.88Z" fill="white"/>
<path d="M714.955 355.6C707.915 355.6 701.728 353.947 696.395 350.64C691.062 347.227 686.902 342.373 683.915 336.08C680.928 329.787 679.435 322.267 679.435 313.52C679.435 304.773 680.928 297.307 683.915 291.12C686.902 284.827 691.062 280.027 696.395 276.72C701.728 273.307 707.915 271.6 714.955 271.6C721.782 271.6 727.755 273.307 732.875 276.72C738.102 280.027 741.568 284.507 743.275 290.16H741.515L743.275 273.2H762.475C762.155 276.507 761.835 279.867 761.515 283.28C761.302 286.693 761.195 290.053 761.195 293.36V354H741.355L741.195 337.36H743.115C741.408 342.907 737.942 347.333 732.715 350.64C727.488 353.947 721.568 355.6 714.955 355.6ZM720.555 340.24C726.848 340.24 731.915 338.053 735.755 333.68C739.595 329.2 741.515 322.48 741.515 313.52C741.515 304.56 739.595 297.893 735.755 293.52C731.915 289.147 726.848 286.96 720.555 286.96C714.262 286.96 709.195 289.147 705.355 293.52C701.515 297.893 699.595 304.56 699.595 313.52C699.595 322.48 701.462 329.2 705.195 333.68C709.035 338.053 714.155 340.24 720.555 340.24Z" fill="white"/>
<path d="M814.174 355.6C807.134 355.6 800.947 353.947 795.614 350.64C790.28 347.227 786.12 342.373 783.134 336.08C780.147 329.787 778.654 322.267 778.654 313.52C778.654 304.773 780.147 297.307 783.134 291.12C786.12 284.827 790.28 280.027 795.614 276.72C800.947 273.307 807.134 271.6 814.174 271.6C821 271.6 826.974 273.307 832.094 276.72C837.32 280.027 840.787 284.507 842.494 290.16H840.734L842.494 273.2H861.694C861.374 276.507 861.054 279.867 860.734 283.28C860.52 286.693 860.414 290.053 860.414 293.36V354H840.574L840.414 337.36H842.334C840.627 342.907 837.16 347.333 831.934 350.64C826.707 353.947 820.787 355.6 814.174 355.6ZM819.774 340.24C826.067 340.24 831.134 338.053 834.974 333.68C838.814 329.2 840.734 322.48 840.734 313.52C840.734 304.56 838.814 297.893 834.974 293.52C831.134 289.147 826.067 286.96 819.774 286.96C813.48 286.96 808.414 289.147 804.574 293.52C800.734 297.893 798.814 304.56 798.814 313.52C798.814 322.48 800.68 329.2 804.414 333.68C808.254 338.053 813.374 340.24 819.774 340.24Z" fill="white"/>
<path d="M923.152 355.6C914.086 355.6 905.712 354.48 898.032 352.24C890.459 349.893 883.952 346.693 878.512 342.64L884.912 326.48C888.539 329.04 892.326 331.227 896.272 333.04C900.219 334.747 904.432 336.08 908.912 337.04C913.392 337.893 918.139 338.32 923.152 338.32C931.579 338.32 937.659 336.933 941.392 334.16C945.126 331.387 946.992 327.76 946.992 323.28C946.992 319.333 945.712 316.347 943.152 314.32C940.592 312.187 936.006 310.427 929.392 309.04L911.312 305.36C900.966 303.227 893.232 299.653 888.112 294.64C882.992 289.627 880.432 282.907 880.432 274.48C880.432 267.44 882.299 261.307 886.032 256.08C889.766 250.853 894.992 246.8 901.712 243.92C908.432 241.04 916.272 239.6 925.232 239.6C933.232 239.6 940.646 240.773 947.472 243.12C954.299 245.36 960.006 248.613 964.592 252.88L958.192 268.24C953.606 264.4 948.592 261.573 943.152 259.76C937.712 257.84 931.632 256.88 924.912 256.88C917.339 256.88 911.419 258.373 907.152 261.36C902.992 264.24 900.912 268.24 900.912 273.36C900.912 277.307 902.192 280.453 904.752 282.8C907.419 285.147 911.899 286.96 918.192 288.24L936.112 291.76C946.779 293.893 954.672 297.413 959.792 302.32C964.912 307.12 967.472 313.627 967.472 321.84C967.472 328.56 965.659 334.48 962.032 339.6C958.406 344.613 953.286 348.56 946.672 351.44C940.059 354.213 932.219 355.6 923.152 355.6Z" fill="white"/>
<path d="M816.693 1006.54L826.38 1007.24L1006.1 1006.54C1014.27 1006.54 1020.05 999.943 1019.02 991.807L972.38 623.328C971.344 615.198 963.901 608.599 955.729 608.599L775.828 606.5C755.182 606.5 752.375 615.198 753.411 623.328L800.047 991.807C801.083 999.943 808.526 1006.54 816.693 1006.54Z" fill="black"/>
<path d="M828.083 1006.54H1017.49C1025.66 1006.54 1031.44 999.922 1030.42 991.76L983.771 622.115C982.74 613.953 975.292 607.328 967.125 607.328H777.719C769.557 607.328 763.776 613.953 764.807 622.115L811.438 991.76C812.474 999.922 819.927 1006.54 828.083 1006.54Z" fill="white"/>
<path d="M777.719 609.13C774.313 609.13 771.287 610.437 769.203 612.812C767.078 615.213 766.151 618.437 766.583 621.891L813.229 991.536C814.141 998.818 820.813 1004.74 828.089 1004.74H1017.49C1020.9 1004.74 1023.92 1003.44 1026.02 1001.06C1028.14 998.661 1029.07 995.432 1028.63 991.984L981.995 622.338C981.068 615.052 974.406 609.13 967.125 609.13H777.719ZM1017.49 1008.33H828.089C819.073 1008.33 810.797 1001 809.662 991.984L763.026 622.338C762.458 617.849 763.693 613.62 766.505 610.437C769.287 607.276 773.266 605.536 777.719 605.536H967.125C976.151 605.536 984.417 612.87 985.547 621.891L1032.19 991.536C1032.76 996.026 1031.52 1000.25 1028.71 1003.44C1025.92 1006.59 1021.94 1008.33 1017.49 1008.33Z" fill="black"/>
<path d="M1019.62 992.271L975.089 639.323C974.844 637.432 973.13 635.911 971.24 635.911H780.818C778.932 635.911 777.594 637.432 777.828 639.323L822.365 992.271C822.604 994.151 824.323 995.682 826.208 995.682H1016.63C1018.52 995.682 1019.85 994.151 1019.62 992.271Z" fill="#99B9FF"/>
<path d="M874.797 626.135C877.854 626.135 880.016 623.656 879.635 620.599C879.245 617.542 876.453 615.062 873.396 615.062C870.344 615.062 868.177 617.542 868.557 620.599C868.948 623.656 871.734 626.135 874.797 626.135Z" fill="#CADDFF"/>
<path d="M377.568 836.682C356.297 802.484 366.776 757.521 400.969 736.25C435.161 714.979 480.125 725.458 501.401 759.656C522.667 793.854 512.187 838.818 477.995 860.089C443.802 881.359 398.838 870.88 377.568 836.682ZM504.844 930.083L528.901 915.125L518.74 885.901C523.687 881.438 528.208 876.63 532.25 871.516L562.042 879.724L575.391 854.74L551.974 834.505C554 828.24 555.49 821.823 556.448 815.313L586.391 807.516L585.463 779.203L555.115 773.401C553.755 767.016 551.823 760.708 549.354 754.526L571.385 732.797L556.422 708.75L527.203 718.901C522.745 713.958 517.932 709.438 512.818 705.396L521.026 675.604L496.047 662.25L475.812 685.667C469.552 683.646 463.13 682.151 456.62 681.193L448.823 651.245L420.516 652.177L414.713 682.526C408.333 683.896 402.026 685.823 395.838 688.287L374.12 666.26L350.068 681.219L360.224 710.443C355.276 714.906 350.755 719.708 346.713 724.823L316.922 716.615L303.573 741.599L326.99 761.833C324.969 768.094 323.474 774.516 322.516 781.026L292.568 788.823L293.5 817.136L323.849 822.943C325.213 829.323 327.141 835.63 329.609 841.818L307.578 863.542L322.542 887.594L351.76 877.427C356.224 882.386 361.026 886.901 366.141 890.943L357.932 920.74L382.917 934.083L403.146 910.672C409.406 912.693 415.828 914.188 422.344 915.146L430.141 945.094L458.448 944.167L464.25 913.818C470.625 912.448 476.937 910.516 483.13 908.047L504.844 930.083Z" fill="#5479F7"/>
<path d="M442.51 713.448C429.391 713.448 416.5 717.099 405.083 724.203C388.948 734.24 377.693 749.953 373.38 768.458C369.068 786.958 372.219 806.031 382.255 822.167C392.286 838.297 408 849.552 426.5 853.865C445.005 858.182 464.078 855.026 480.208 844.99C496.338 834.958 507.594 819.24 511.906 800.74C516.224 782.24 513.068 763.161 503.031 747.031C493 730.901 477.281 719.641 458.786 715.328C453.38 714.068 447.922 713.448 442.51 713.448ZM442.786 859.339C437.094 859.339 431.364 858.688 425.687 857.359C406.255 852.839 389.745 841.01 379.203 824.057C368.667 807.115 365.354 787.078 369.885 767.641C374.411 748.203 386.239 731.693 403.182 721.156C420.13 710.615 440.167 707.297 459.604 711.833C479.036 716.359 495.547 728.188 506.083 745.135C516.625 762.083 519.932 782.12 515.401 801.552C510.875 820.995 499.052 837.5 482.104 848.042C470.114 855.5 456.568 859.339 442.786 859.339ZM406.307 895.302C406.495 895.302 406.677 895.328 406.859 895.391C413.005 897.375 419.364 898.854 425.766 899.797C426.479 899.901 427.057 900.427 427.239 901.12L434.672 929.677L460.12 928.844L465.651 899.901C465.786 899.193 466.333 898.635 467.042 898.49C473.276 897.151 479.526 895.245 485.625 892.813C486.297 892.542 487.062 892.703 487.568 893.219L508.281 914.224L529.896 900.781L520.208 872.917C519.969 872.234 520.167 871.474 520.698 870.99C525.573 866.594 530.057 861.833 534.005 856.828C534.458 856.266 535.198 856.021 535.891 856.208L564.297 864.042L576.292 841.589L553.963 822.297C553.422 821.823 553.213 821.068 553.427 820.385C555.411 814.234 556.896 807.875 557.833 801.479C557.943 800.766 558.463 800.188 559.156 800L587.713 792.568L586.88 767.12L557.943 761.589C557.234 761.453 556.677 760.901 556.526 760.198C555.193 753.964 553.281 747.708 550.849 741.615C550.578 740.943 550.745 740.177 551.255 739.667L572.266 718.958L558.823 697.344L530.953 707.026C530.271 707.26 529.516 707.078 529.031 706.536C524.641 701.667 519.88 697.188 514.87 693.229C514.307 692.781 514.062 692.036 514.25 691.344L522.078 662.938L499.63 650.943L480.338 673.271C479.864 673.813 479.114 674.026 478.432 673.807C472.271 671.823 465.911 670.333 459.521 669.396C458.812 669.292 458.229 668.771 458.047 668.073L450.614 639.516L425.172 640.354L419.635 669.292C419.5 670.005 418.953 670.563 418.25 670.708C412.016 672.042 405.766 673.953 399.661 676.385C398.995 676.651 398.229 676.495 397.719 675.979L377.01 654.969L355.396 668.411L365.083 696.281C365.323 696.964 365.125 697.719 364.588 698.203C359.713 702.599 355.234 707.365 351.281 712.37C350.833 712.938 350.094 713.177 349.401 712.984L320.995 705.156L309 727.609L331.323 746.901C331.87 747.375 332.078 748.125 331.859 748.813C329.875 754.964 328.391 761.323 327.453 767.719C327.349 768.427 326.828 769.01 326.125 769.193L297.573 776.625L298.411 802.068L327.344 807.609C328.057 807.745 328.614 808.292 328.766 808.995C330.099 815.224 332.01 821.484 334.443 827.578C334.708 828.255 334.547 829.021 334.031 829.521L313.026 850.24L326.469 871.854L354.333 862.161C355.016 861.927 355.771 862.125 356.255 862.656C360.656 867.542 365.422 872.016 370.417 875.964C370.984 876.417 371.229 877.156 371.036 877.854L363.208 906.255L385.656 918.255L404.948 895.927C405.297 895.526 405.797 895.302 406.307 895.302ZM433.302 933.313C432.489 933.313 431.771 932.766 431.568 931.974L424.068 903.172C418.26 902.26 412.495 900.911 406.896 899.167L387.437 921.688C386.885 922.323 385.974 922.495 385.234 922.099L360.25 908.75C359.51 908.349 359.141 907.495 359.364 906.688L367.26 878.036C362.75 874.391 358.427 870.333 354.396 865.943L326.292 875.714C325.5 875.995 324.625 875.682 324.177 874.969L309.219 850.917C308.776 850.203 308.885 849.276 309.484 848.693L330.667 827.797C328.516 822.245 326.786 816.578 325.51 810.911L296.323 805.328C295.5 805.172 294.896 804.464 294.87 803.625L293.937 775.318C293.911 774.474 294.469 773.724 295.281 773.516L324.078 766.021C324.989 760.214 326.333 754.448 328.083 748.849L305.562 729.385C304.927 728.839 304.76 727.922 305.156 727.177L318.505 702.198C318.901 701.453 319.755 701.094 320.562 701.313L349.208 709.208C352.859 704.688 356.917 700.37 361.302 696.339L351.531 668.234C351.255 667.448 351.568 666.568 352.281 666.125L376.333 651.167C377.042 650.714 377.969 650.828 378.557 651.427L399.448 672.609C405 670.464 410.672 668.729 416.333 667.453L421.917 638.271C422.073 637.443 422.781 636.839 423.62 636.807L451.927 635.88C452.76 635.833 453.516 636.411 453.724 637.224L461.224 666.026C467.021 666.938 472.786 668.276 478.396 670.026L497.849 647.505C498.406 646.875 499.318 646.703 500.057 647.099L525.036 660.448C525.781 660.844 526.146 661.703 525.922 662.51L518.026 691.156C522.547 694.807 526.87 698.865 530.896 703.25L558.995 693.479C559.792 693.208 560.667 693.516 561.109 694.229L576.073 718.281C576.51 718.99 576.406 719.917 575.807 720.505L554.62 741.396C556.771 746.948 558.5 752.62 559.781 758.286L588.963 763.865C589.786 764.021 590.396 764.734 590.422 765.573L591.349 793.885C591.375 794.724 590.823 795.469 590.01 795.677L561.208 803.177C560.297 808.979 558.958 814.745 557.208 820.349L579.724 839.807C580.359 840.359 580.531 841.276 580.135 842.016L566.786 867C566.391 867.74 565.536 868.104 564.729 867.88L536.078 859.984C532.432 864.505 528.37 868.823 523.984 872.854L533.755 900.958C534.031 901.755 533.724 902.625 533.005 903.073L508.958 918.031C508.245 918.474 507.318 918.37 506.734 917.771L485.844 896.583C480.292 898.729 474.62 900.469 468.958 901.745L463.375 930.927C463.213 931.75 462.505 932.359 461.672 932.385L433.364 933.313C433.338 933.313 433.318 933.313 433.302 933.313Z" fill="black"/>
<path d="M622.125 707.953C612.63 692.677 617.307 672.599 632.578 663.094C647.854 653.599 667.932 658.276 677.432 673.552C686.932 688.823 682.25 708.906 666.979 718.406C651.703 727.906 631.625 723.224 622.125 707.953ZM678.974 749.662L689.714 742.984L685.182 729.927C687.391 727.938 689.406 725.797 691.214 723.505L704.516 727.172L710.479 716.016L700.021 706.979C700.922 704.177 701.594 701.313 702.021 698.406L715.391 694.922L714.979 682.281L701.422 679.688C700.818 676.839 699.953 674.026 698.849 671.255L708.688 661.557L702.011 650.813L688.953 655.349C686.964 653.141 684.818 651.12 682.531 649.318L686.198 636.01L675.047 630.047L666.005 640.505C663.208 639.604 660.344 638.932 657.438 638.505L653.953 625.135L641.307 625.547L638.719 639.104C635.87 639.714 633.047 640.573 630.287 641.677L620.583 631.839L609.844 638.516L614.38 651.573C612.172 653.563 610.151 655.703 608.349 657.995L595.047 654.328L589.083 665.484L599.537 674.526C598.635 677.318 597.969 680.188 597.542 683.094L584.167 686.578L584.578 699.219L598.135 701.813C598.745 704.662 599.609 707.479 600.708 710.245L590.87 719.948L597.552 730.688L610.604 726.151C612.594 728.359 614.74 730.38 617.026 732.188L613.359 745.49L624.516 751.453L633.552 741C636.349 741.901 639.214 742.563 642.125 742.995L645.609 756.37L658.25 755.958L660.839 742.396C663.688 741.787 666.505 740.927 669.271 739.828L678.974 749.662Z" fill="#CADDFF"/>
<path d="M623.536 701.891C614.036 686.615 618.719 666.537 633.99 657.037C649.266 647.537 669.344 652.214 678.844 667.49C688.344 682.76 683.667 702.844 668.396 712.344C653.12 721.844 633.036 717.162 623.536 701.891ZM680.385 743.599L691.125 736.922L686.589 723.87C688.797 721.875 690.823 719.729 692.625 717.448L705.932 721.115L711.885 709.953L701.432 700.917C702.333 698.12 703.005 695.255 703.427 692.344L716.802 688.865L716.391 676.214L702.839 673.625C702.224 670.781 701.365 667.958 700.26 665.198L710.104 655.495L703.417 644.75L690.37 649.287C688.38 647.078 686.229 645.063 683.948 643.255L687.609 629.953L676.453 623.99L667.417 634.443C664.625 633.542 661.755 632.875 658.844 632.448L655.365 619.073L642.719 619.484L640.125 633.037C637.281 633.651 634.464 634.516 631.698 635.615L621.995 625.776L611.255 632.458L615.797 645.505C613.583 647.505 611.563 649.646 609.755 651.932L596.453 648.271L590.495 659.422L600.953 668.464C600.047 671.255 599.38 674.125 598.953 677.037L585.578 680.516L585.995 693.162L599.547 695.755C600.156 698.604 601.016 701.417 602.12 704.182L592.281 713.886L598.964 724.63L612.016 720.089C614.005 722.302 616.156 724.318 618.438 726.125L614.771 739.432L625.932 745.391L634.964 734.932C637.76 735.839 640.625 736.505 643.536 736.932L647.021 750.307L659.667 749.891L662.26 736.339C665.099 735.729 667.922 734.865 670.682 733.766L680.385 743.599Z" fill="#5479F7"/>
<path d="M651.135 653.906C645.453 653.906 639.88 655.484 634.943 658.563C627.958 662.901 623.094 669.698 621.224 677.708C619.359 685.708 620.724 693.964 625.063 700.938C629.401 707.922 636.203 712.797 644.208 714.656C652.208 716.516 660.469 715.161 667.443 710.818C674.422 706.479 679.292 699.682 681.162 691.672C683.026 683.672 681.667 675.417 677.318 668.432C672.979 661.458 666.177 656.583 658.177 654.719C655.839 654.177 653.479 653.906 651.135 653.906ZM651.255 719.068C648.641 719.068 646.005 718.766 643.391 718.156C634.453 716.073 626.865 710.63 622.016 702.839C617.167 695.042 615.646 685.828 617.729 676.891C619.813 667.953 625.25 660.354 633.042 655.51C640.839 650.661 650.052 649.141 658.99 651.224C667.927 653.307 675.521 658.745 680.365 666.542C685.219 674.333 686.734 683.552 684.651 692.49C682.568 701.427 677.135 709.021 669.339 713.87C663.823 717.297 657.594 719.063 651.255 719.068ZM634.964 733.141C635.146 733.141 635.333 733.167 635.516 733.229C638.208 734.094 640.995 734.75 643.797 735.156C644.51 735.266 645.094 735.781 645.271 736.479L648.396 748.469L658.167 748.141L660.495 736C660.63 735.292 661.172 734.729 661.875 734.578C664.604 734 667.349 733.161 670.021 732.094C670.688 731.828 671.453 731.99 671.964 732.5L680.656 741.323L688.958 736.151L684.891 724.458C684.656 723.776 684.849 723.021 685.385 722.536C687.526 720.609 689.484 718.526 691.219 716.333C691.662 715.771 692.406 715.521 693.099 715.714L705.021 719L709.63 710.375L700.26 702.276C699.714 701.802 699.5 701.052 699.724 700.365C700.594 697.672 701.245 694.885 701.656 692.083C701.76 691.37 702.281 690.786 702.979 690.609L714.964 687.484L714.646 677.714L702.495 675.391C701.792 675.255 701.234 674.708 701.078 674C700.495 671.271 699.656 668.526 698.594 665.859C698.323 665.188 698.484 664.427 699 663.917L707.818 655.224L702.651 646.917L690.958 650.984C690.281 651.219 689.521 651.026 689.037 650.49C687.109 648.354 685.026 646.396 682.828 644.661C682.266 644.214 682.026 643.474 682.219 642.776L685.5 630.859L676.875 626.245L668.781 635.615C668.307 636.161 667.552 636.37 666.87 636.151C664.172 635.286 661.391 634.63 658.583 634.219C657.875 634.12 657.292 633.594 657.109 632.896L653.99 620.911L644.214 621.229L641.891 633.38C641.755 634.083 641.208 634.646 640.5 634.797C637.781 635.38 635.037 636.219 632.365 637.281C631.693 637.547 630.927 637.391 630.422 636.875L621.724 628.057L613.427 633.224L617.49 644.922C617.729 645.599 617.531 646.359 616.995 646.839C614.859 648.766 612.901 650.854 611.167 653.042C610.724 653.609 609.979 653.854 609.287 653.661L597.359 650.38L592.755 659.005L602.125 667.099C602.667 667.573 602.875 668.328 602.662 669.01C601.787 671.708 601.141 674.49 600.729 677.297C600.62 678.005 600.099 678.589 599.406 678.771L587.422 681.891L587.74 691.667L599.885 693.99C600.594 694.125 601.151 694.672 601.307 695.38C601.885 698.109 602.719 700.844 603.787 703.516C604.057 704.193 603.891 704.958 603.38 705.458L594.568 714.156L599.734 722.458L611.422 718.396C612.104 718.156 612.865 718.349 613.349 718.891C615.271 721.021 617.359 722.984 619.552 724.714C620.115 725.167 620.359 725.906 620.167 726.604L616.88 738.521L625.505 743.13L633.604 733.76C633.953 733.359 634.453 733.141 634.964 733.141ZM647.021 752.104C646.203 752.104 645.49 751.552 645.281 750.76L642.099 738.521C639.891 738.151 637.698 737.641 635.552 737L627.287 746.563C626.74 747.203 625.823 747.375 625.083 746.979L613.927 741.016C613.188 740.615 612.818 739.76 613.042 738.953L616.391 726.781C614.682 725.365 613.042 723.823 611.495 722.172L599.552 726.323C598.76 726.599 597.88 726.286 597.443 725.573L590.755 714.828C590.313 714.12 590.427 713.198 591.026 712.604L600.026 703.729C599.229 701.609 598.573 699.453 598.057 697.297L585.656 694.922C584.833 694.766 584.224 694.057 584.198 693.219L583.787 680.573C583.76 679.74 584.313 678.995 585.125 678.781L597.359 675.594C597.734 673.385 598.245 671.198 598.885 669.047L589.323 660.781C588.688 660.229 588.516 659.313 588.906 658.578L594.87 647.422C595.266 646.677 596.125 646.313 596.932 646.531L609.104 649.891C610.516 648.182 612.063 646.536 613.714 644.984L609.563 633.042C609.287 632.25 609.594 631.375 610.313 630.932L621.052 624.25C621.766 623.807 622.688 623.917 623.276 624.516L632.151 633.516C634.276 632.724 636.427 632.063 638.589 631.552L640.958 619.146C641.115 618.323 641.828 617.724 642.662 617.693L655.307 617.276C656.141 617.234 656.891 617.807 657.104 618.615L660.287 630.859C662.495 631.229 664.688 631.74 666.833 632.38L675.099 622.813C675.646 622.177 676.563 622.005 677.302 622.406L688.458 628.37C689.198 628.76 689.568 629.615 689.344 630.422L685.99 642.599C687.698 644.016 689.339 645.563 690.891 647.203L702.828 643.057C703.625 642.781 704.5 643.089 704.943 643.802L711.63 654.547C712.068 655.26 711.958 656.182 711.359 656.776L702.359 665.646C703.151 667.766 703.813 669.922 704.323 672.083L716.729 674.453C717.552 674.615 718.151 675.323 718.188 676.161L718.599 688.802C718.625 689.646 718.073 690.385 717.26 690.599L705.021 693.786C704.646 695.99 704.135 698.182 703.495 700.328L713.063 708.594C713.698 709.146 713.87 710.063 713.474 710.797L707.51 721.958C707.115 722.703 706.26 723.068 705.453 722.844L693.281 719.49C691.865 721.198 690.323 722.839 688.672 724.391L692.823 736.333C693.099 737.125 692.787 738.005 692.073 738.448L681.333 745.125C680.62 745.573 679.693 745.464 679.109 744.859L670.234 735.865C668.109 736.656 665.958 737.313 663.797 737.828L661.427 750.234C661.266 751.052 660.557 751.656 659.719 751.688L647.078 752.104C647.057 752.104 647.042 752.104 647.021 752.104Z" fill="black"/>
<path d="M950.328 510.047C948.542 540.208 922.63 563.203 892.474 561.406C862.318 559.615 839.318 533.714 841.115 503.552C842.906 473.396 868.813 450.396 898.974 452.188C929.125 453.979 952.125 479.875 950.328 510.047Z" fill="white"/>
<path d="M950.333 510.042H950.344H950.333ZM895.651 453.88C882.708 453.88 870.365 458.557 860.599 467.224C850.031 476.604 843.75 489.542 842.906 503.651C841.172 532.781 863.458 557.885 892.589 559.615C906.703 560.448 920.287 555.745 930.849 546.365C941.422 536.979 947.698 524.042 948.542 509.937C949.38 495.823 944.677 482.229 935.292 471.667C925.912 461.094 912.974 454.812 898.859 453.979C897.797 453.911 896.719 453.88 895.651 453.88ZM895.802 563.302C894.662 563.302 893.521 563.26 892.375 563.198C861.271 561.344 837.474 534.547 839.323 503.443C840.219 488.375 846.932 474.557 858.219 464.536C869.505 454.521 884.021 449.484 899.083 450.391C914.151 451.286 927.958 457.995 937.974 469.281C947.995 480.568 953.021 495.078 952.12 510.146C951.229 525.213 944.526 539.026 933.234 549.052C922.807 558.302 909.625 563.302 895.802 563.302Z" fill="black"/>
<path d="M922.078 471.875C910.812 482.802 896.75 498.885 890.448 516.849L865.266 487.391C864.573 486.573 863.088 487.24 863.536 488.161C874.104 509.937 884.599 527.911 892.016 543.88C892.766 545.49 895.521 545.401 896.016 543.74C902.484 522.281 913.021 496.146 924.708 473.26C925.401 471.896 923.239 470.766 922.078 471.875Z" fill="#5479F7"/>
<path d="M1023.81 140.354C1023.69 140.354 1023.55 140.339 1023.42 140.313C1022.45 140.089 1021.85 139.13 1022.07 138.167L1023.88 130.193C1024.1 129.224 1025.07 128.63 1026.04 128.839C1027 129.063 1027.6 130.026 1027.39 130.99L1025.57 138.964C1025.38 139.792 1024.64 140.354 1023.81 140.354Z" fill="black"/>
<path d="M1017.46 168.245C1017.33 168.245 1017.19 168.229 1017.06 168.198C1016.09 167.979 1015.48 167.021 1015.71 166.052L1017.53 158.083C1017.74 157.12 1018.71 156.516 1019.67 156.729C1020.64 156.953 1021.24 157.911 1021.03 158.875L1019.21 166.844C1019.02 167.677 1018.28 168.245 1017.46 168.245Z" fill="black"/>
<path d="M1011.76 147.932C1011.63 147.932 1011.48 147.917 1011.34 147.885L1003.52 145.974C1002.56 145.745 1001.97 144.776 1002.2 143.807C1002.43 142.849 1003.41 142.26 1004.37 142.49L1012.19 144.396C1013.15 144.63 1013.74 145.599 1013.51 146.562C1013.31 147.385 1012.58 147.932 1011.76 147.932Z" fill="black"/>
<path d="M1039.15 154.599C1039.01 154.599 1038.86 154.583 1038.72 154.547L1030.9 152.646C1029.94 152.411 1029.34 151.432 1029.59 150.474C1029.82 149.51 1030.79 148.917 1031.75 149.156L1039.57 151.063C1040.54 151.292 1041.13 152.26 1040.89 153.224C1040.7 154.052 1039.96 154.599 1039.15 154.599Z" fill="black"/>
<path d="M1007.72 82.677C1004.8 86.8645 1005.85 92.7499 1010.07 95.7916C1012.12 97.2708 1014.6 97.8645 1017.06 97.4427C1019.45 97.0312 1021.54 95.7135 1022.93 93.7135C1025.85 89.526 1024.8 83.6406 1020.58 80.6093C1018.53 79.1302 1016.05 78.5364 1013.59 78.9531C1011.19 79.3593 1009.11 80.6874 1007.72 82.677ZM1015.51 101.167C1012.82 101.167 1010.21 100.318 1007.96 98.7031C1002.17 94.5208 1000.74 86.4166 1004.78 80.6249C1006.72 77.8385 1009.64 75.9791 1012.99 75.4166C1016.4 74.8385 1019.84 75.6458 1022.69 77.6979C1028.47 81.8749 1029.91 89.9843 1025.87 95.7708C1023.93 98.5624 1021.01 100.411 1017.66 100.984C1016.94 101.104 1016.22 101.167 1015.51 101.167Z" fill="black"/>
<path d="M946.313 88.4323C944.396 91.1875 945.089 95.0573 947.854 97.0625C949.214 98.0417 950.849 98.4271 952.453 98.1511C954.021 97.8855 955.391 97.0157 956.302 95.7136C958.224 92.9584 957.526 89.0782 954.755 87.0834C953.401 86.1094 951.776 85.724 950.162 85.9948C948.594 86.2605 947.224 87.1302 946.313 88.4323ZM951.432 101.833C949.417 101.833 947.448 101.193 945.761 99.974C941.401 96.8334 940.328 90.7344 943.37 86.3802C944.833 84.2761 947.037 82.8802 949.557 82.4584C952.125 82.0209 954.719 82.625 956.854 84.1667C961.208 87.3125 962.281 93.4115 959.245 97.7657C957.781 99.8698 955.589 101.266 953.057 101.693C952.511 101.781 951.969 101.833 951.432 101.833Z" fill="black"/>
<path d="M227.625 368.516C227.625 368.516 207.385 376.057 199.448 369.714C191.51 363.359 211.75 352.641 216.51 353.432C221.276 354.229 227.625 368.516 227.625 368.516Z" fill="black"/>
<path d="M329.349 530.349L310.297 563.682L299.974 549.396L316.646 516.849L329.349 530.349Z" fill="white"/>
<path d="M302.078 549.234L310.12 560.38L327.13 530.609L317.083 519.937L302.078 549.234ZM310.297 565.479C309.719 565.479 309.177 565.208 308.839 564.734L298.521 550.448C298.125 549.901 298.073 549.177 298.38 548.578L315.047 516.031C315.312 515.516 315.818 515.156 316.396 515.073C316.974 514.984 317.552 515.193 317.953 515.614L330.651 529.114C331.193 529.693 331.297 530.547 330.906 531.234L311.854 564.578C311.552 565.104 311 565.443 310.391 565.479C310.359 565.479 310.328 565.479 310.297 565.479Z" fill="black"/>
<path d="M316.896 558.599C311.87 568.958 299.156 594.078 286.901 606.115C283.911 609.052 278.859 607.688 277.792 603.636C273.958 589.136 271.401 558.922 285.687 535.104C285.687 535.104 292.042 532.724 304.74 535.104L302.359 548.604L303.917 547.49C306.266 545.813 309.453 545.953 311.646 547.828L315.302 550.964C317.505 552.859 318.161 555.99 316.896 558.599Z" fill="black"/>
<path d="M284.896 603.583C284.172 603.583 283.49 603.141 283.219 602.422C271.974 572.708 286.594 538.979 287.224 537.557C287.625 536.646 288.682 536.24 289.589 536.641C290.495 537.042 290.906 538.099 290.505 539.005C290.359 539.344 275.859 572.828 286.573 601.151C286.927 602.078 286.458 603.115 285.531 603.469C285.323 603.547 285.109 603.583 284.896 603.583Z" fill="white"/>
<path d="M309.5 574.839C309.167 574.839 308.828 574.74 308.526 574.542L299 568.365C298.167 567.828 297.932 566.714 298.474 565.885C299.01 565.057 300.12 564.818 300.953 565.354L310.479 571.536C311.307 572.078 311.547 573.182 311.005 574.016C310.661 574.542 310.089 574.839 309.5 574.839Z" fill="white"/>
<path d="M304.74 583.297C304.354 583.297 303.969 583.177 303.646 582.922L294.917 576.219C294.13 575.62 293.979 574.49 294.583 573.708C295.188 572.922 296.318 572.771 297.099 573.38L305.833 580.078C306.62 580.682 306.766 581.807 306.162 582.594C305.813 583.052 305.276 583.297 304.74 583.297Z" fill="white"/>
<path d="M389.672 531.141C389.672 531.932 407.135 570.036 407.135 570.036L387.292 571.625L373.797 539.078L389.672 531.141Z" fill="white"/>
<path d="M391.463 531.141H391.479H391.463ZM376.094 539.932L388.448 569.734L404.432 568.453C394.068 545.818 390.193 537.094 388.74 533.615L376.094 539.932ZM387.292 573.422C386.568 573.422 385.911 572.99 385.63 572.307L372.135 539.766C371.776 538.896 372.151 537.896 372.995 537.469L388.87 529.537C389.427 529.255 390.083 529.287 390.615 529.609C391.031 529.87 391.323 530.287 391.427 530.76C392.104 532.745 402.13 554.807 408.766 569.287C409.01 569.818 408.979 570.438 408.682 570.943C408.385 571.453 407.859 571.776 407.276 571.828L387.432 573.412C387.385 573.417 387.338 573.422 387.292 573.422Z" fill="black"/>
<path d="M388.88 562.099C388.88 562.099 392.849 552.568 403.167 557.333C403.167 557.333 422.109 584.698 429.146 607.287C431.135 613.682 424.578 619.438 418.479 616.688C404.203 610.24 381.833 596.708 369.031 571.625C369.031 571.625 373 561.307 379.354 556.542L388.88 562.099Z" fill="black"/>
<path d="M423.385 611.589C417.922 611.589 398.031 608.886 372.344 573.469C371.76 572.667 371.943 571.547 372.739 570.964C373.547 570.386 374.667 570.563 375.25 571.365C403.651 610.516 424.13 607.984 424.333 607.948C425.312 607.802 426.229 608.479 426.375 609.464C426.516 610.448 425.844 611.359 424.859 611.505C424.734 611.521 424.234 611.589 423.385 611.589Z" fill="white"/>
<path d="M407.136 590.088C406.516 590.088 405.917 589.771 405.583 589.198C405.083 588.338 405.375 587.24 406.229 586.74L415.755 581.187C416.615 580.687 417.714 580.979 418.208 581.828C418.708 582.687 418.422 583.792 417.563 584.286L408.037 589.844C407.755 590.016 407.443 590.088 407.136 590.088Z" fill="white"/>
<path d="M402.375 582.943C401.734 582.943 401.115 582.599 400.792 582C400.323 581.125 400.646 580.042 401.521 579.568L411.839 574.016C412.714 573.542 413.802 573.865 414.271 574.74C414.74 575.615 414.417 576.703 413.542 577.172L403.224 582.729C402.953 582.875 402.662 582.943 402.375 582.943Z" fill="white"/>
<path d="M288.068 339.036C288.068 339.036 339.807 348.276 377.089 387.37C386.5 397.24 389.823 411.448 385.786 424.464C377.505 451.188 359.474 499.995 329.344 536.698L306.323 516.849C306.323 516.849 311.88 470.813 326.964 442.234C342.047 413.651 253.938 351.734 253.938 351.734L288.068 339.036Z" fill="white"/>
<path d="M308.229 516.125L329.115 534.135C358.5 497.646 376.13 449.557 384.068 423.937C387.912 411.542 384.74 398.005 375.787 388.615C341.203 352.349 293.469 341.948 288.224 340.896L257.724 352.245C272.938 363.292 342.813 416.052 328.552 443.078C314.979 468.786 309.125 509.437 308.229 516.125ZM329.344 538.495C328.917 538.495 328.5 538.344 328.172 538.062L305.151 518.214C304.698 517.823 304.469 517.234 304.542 516.641C304.599 516.172 310.313 469.937 325.375 441.396C331.125 430.505 320.578 411.885 294.875 387.578C275.052 368.828 253.125 353.365 252.906 353.208C252.359 352.828 252.073 352.172 252.156 351.51C252.245 350.849 252.688 350.292 253.313 350.057L287.443 337.359C287.745 337.245 288.068 337.219 288.386 337.271C288.906 337.37 341.125 347.068 378.386 386.13C388.234 396.469 391.729 411.359 387.5 425.005C379.375 451.208 361.203 500.714 330.729 537.839C330.427 538.214 329.979 538.448 329.5 538.49C329.448 538.49 329.396 538.495 329.344 538.495Z" fill="black"/>
<path d="M396.026 538.281L369.037 546.224C369.037 546.224 319.823 442.229 305.537 427.146C291.245 412.063 263.464 387.453 234.094 378.719C204.729 369.99 204.729 347.76 204.729 347.76L254.734 333.474C254.734 333.474 324.583 363.641 347.604 397.776C370.625 431.906 396.026 538.281 396.026 538.281Z" fill="white"/>
<path d="M206.615 349.094C207.141 353.854 210.703 369.896 234.604 377C268.063 386.948 298.349 416.958 306.839 425.917C320.422 440.255 363.859 531.151 370 544.062L393.875 537.042C390.537 523.417 367.13 429.937 346.115 398.781C324.76 367.104 261.37 338.38 254.604 335.375L206.615 349.094ZM369.037 548.016C368.354 548.016 367.714 547.625 367.412 546.984C366.922 545.953 318.162 443.089 304.229 428.38C295.901 419.589 266.182 390.135 233.583 380.443C203.281 371.437 202.932 348 202.932 347.766C202.932 346.963 203.464 346.26 204.234 346.042L254.24 331.75C254.635 331.635 255.068 331.661 255.443 331.828C258.318 333.068 326.047 362.594 349.094 396.771C372.031 430.786 396.729 533.505 397.771 537.865C397.99 538.792 397.448 539.729 396.531 540.005L369.542 547.937C369.37 547.99 369.203 548.016 369.037 548.016Z" fill="black"/>
<path d="M164.245 266C177.74 239.01 199.964 235.047 199.964 235.047L238.062 231.87C249.979 231.068 262.646 238.422 267.349 249.401L302.359 331.094C302.359 331.094 295.214 350.151 263.464 353.323C231.714 356.495 209.885 354.516 199.568 367.214C192.766 375.589 192.979 319.745 196.891 275.573L164.245 266Z" fill="#5479F7"/>
<path d="M265.844 337.448L248.38 329.51L234.891 335.068C234.891 335.068 162.5 325.896 194.865 274.099C195.005 273.875 169.427 268.703 169.427 268.703C169.427 268.703 139.927 339.042 233.302 340.625C233.302 340.625 238.063 342.214 244.417 339.042C250.766 335.859 261.875 342.214 265.844 337.448Z" fill="white"/>
<path d="M170.573 270.771C168.573 276.422 161.974 298.469 173.255 315.734C182.937 330.542 203.151 338.318 233.328 338.828C233.51 338.839 233.693 338.865 233.87 338.922C234.026 338.974 238.073 340.198 243.609 337.432C247.083 335.693 251.354 336.328 255.484 336.943C257.703 337.271 259.854 337.594 261.557 337.474L248.349 331.469L235.573 336.724C235.286 336.844 234.969 336.885 234.661 336.849C233.151 336.656 197.594 331.917 187.401 310.443C182.677 300.484 184.25 288.646 192.073 275.25C187.719 274.276 177.812 272.24 170.573 270.771ZM236.479 342.812C234.786 342.812 233.573 342.557 233.031 342.417C201.708 341.844 180.583 333.516 170.234 317.672C156.219 296.193 167.297 269.151 167.776 268.005C168.109 267.219 168.948 266.786 169.786 266.943C196.026 272.25 196.026 272.25 196.516 273.391C196.75 273.932 196.698 274.552 196.385 275.052C188.161 288.214 186.229 299.604 190.646 308.906C199.417 327.385 230.5 332.609 234.656 333.224L247.698 327.849C248.156 327.667 248.672 327.667 249.125 327.875L266.589 335.818C267.099 336.047 267.469 336.5 267.594 337.047C267.719 337.594 267.583 338.167 267.224 338.599C264.464 341.911 259.63 341.193 254.953 340.5C251.38 339.964 247.677 339.411 245.213 340.646C241.76 342.375 238.703 342.812 236.479 342.812Z" fill="black"/>
<path d="M198.333 279.109L162.88 269.089L164.245 266.005C164.245 266.005 168.276 262.917 169.047 262.917C169.818 262.917 189.854 262.151 189.854 262.151L202.193 266.005L198.333 279.109Z" fill="#5479F7"/>
<path d="M332.703 342.661H263.854L314.896 264.156C316.49 261.698 319.266 260.214 322.255 260.214H378.13C381.677 260.214 383.833 264.016 381.938 266.922L332.703 342.661Z" fill="black"/>
<path d="M346.427 287.74C344.187 291.177 339.38 293.969 335.682 293.969C331.984 293.969 330.802 291.177 333.036 287.74C335.276 284.297 340.083 281.51 343.781 281.51C347.479 281.51 348.661 284.297 346.427 287.74Z" fill="white"/>
<path d="M343.781 283.302C340.682 283.302 336.448 285.781 334.542 288.719C333.641 290.104 333.589 291.089 333.818 291.51C334.047 291.932 334.74 292.172 335.682 292.172C338.781 292.172 343.016 289.698 344.922 286.766C345.823 285.37 345.875 284.385 345.646 283.964C345.422 283.552 344.724 283.302 343.781 283.302ZM335.682 295.76C332.516 295.76 331.177 294.172 330.667 293.229C329.698 291.448 330.016 289.094 331.531 286.766C334.099 282.812 339.484 279.714 343.781 279.714C346.948 279.714 348.286 281.302 348.802 282.25C349.766 284.031 349.448 286.385 347.932 288.719C345.365 292.672 339.984 295.76 335.682 295.76Z" fill="black"/>
<path d="M330.943 348.562H218.854C217.75 348.562 216.859 347.667 216.859 346.568V342.151H332.943V346.568C332.943 347.667 332.047 348.562 330.943 348.562Z" fill="black"/>
<path d="M192.823 49.2916C163.672 40.0833 108.234 86.3333 115.828 120.734C117.922 130.224 125.271 140.896 135.672 146.135C154.115 155.427 173.797 143.422 178.531 150.901C182.641 157.375 168.047 166.719 169.802 180.271C172.411 200.401 208.563 210.125 212.661 211.234C215.729 212.052 258.87 223.073 279.339 200.109C284.271 194.589 290.734 183.891 287.276 177.094C283.979 170.609 273.859 172.005 271.401 165.193C269.276 159.281 276.057 155.974 275.37 149.307C274.047 136.458 247.5 135.797 244.417 122.318C241.943 111.547 257.365 105.208 254.734 94.5416C252.609 85.927 241.51 85.7031 223.776 74.6927C202.547 61.5052 203.865 52.7812 192.823 49.2916Z" fill="black"/>
<path d="M225.365 229.49C226.068 229.135 235.62 217.865 241.208 211.234C240.786 209.391 240.849 208.797 241 206.005C241 206.005 238.104 203.109 239.266 199.344C240.62 194.964 244.776 198.479 244.776 198.479C244.776 198.479 246.698 195.109 253.938 200.917C261.177 206.714 268.823 199.656 268.823 199.656C268.823 199.656 268.818 204.005 264.995 209.287C262.885 212.203 262.531 216.052 262.427 219.646L258.375 219.068C256.141 221.714 254.484 223.005 251.417 224.276C251.417 224.276 248.99 223.828 246.474 221.75L242.031 231.87L246.563 234.255C246.563 234.255 247.589 240.604 235.682 242.193C223.776 243.781 214.25 234.255 214.25 234.255C214.25 234.255 220.599 231.87 225.365 229.49Z" fill="white"/>
<path d="M225.365 229.49H225.375H225.365ZM217.714 234.828C221.037 237.349 227.771 241.438 235.443 240.412C240.802 239.698 243.063 238.021 244.016 236.74C244.412 236.214 244.609 235.698 244.703 235.307L241.198 233.464C240.365 233.026 240.011 232.016 240.386 231.151L244.833 221.031C245.057 220.51 245.516 220.135 246.063 220C246.609 219.88 247.188 220.005 247.62 220.365C249.104 221.594 250.552 222.156 251.276 222.38C253.641 221.339 255.042 220.229 257.005 217.906C257.401 217.438 258.016 217.198 258.63 217.292L260.729 217.589C260.948 214.266 261.573 210.953 263.542 208.234C264.776 206.526 265.578 204.927 266.094 203.589C262.432 205.302 257.427 206.01 252.813 202.313C248.922 199.193 247.094 199.25 246.625 199.333C246.568 199.339 246.495 199.323 246.432 199.323C246.391 199.323 246.349 199.333 246.333 199.37C246.068 199.833 245.609 200.156 245.083 200.245C244.563 200.339 244.021 200.188 243.615 199.849C242.995 199.339 241.943 198.839 241.526 198.958C241.396 198.995 241.172 199.26 240.984 199.875C240.162 202.526 242.193 204.662 242.276 204.75C242.625 205.109 242.823 205.604 242.792 206.104L242.766 206.547C242.641 208.912 242.615 209.333 242.958 210.828C243.083 211.38 242.948 211.953 242.583 212.391C227.307 230.526 226.677 230.839 226.167 231.099C223.344 232.51 220.021 233.906 217.714 234.828ZM232.953 244.172C221.766 244.172 213.365 235.906 212.979 235.521C212.547 235.094 212.365 234.474 212.495 233.875C212.625 233.281 213.047 232.787 213.62 232.573C213.682 232.552 219.792 230.255 224.396 227.969C224.912 227.479 227.406 224.828 239.271 210.74C239.031 209.396 239.068 208.5 239.167 206.62C238.203 205.365 236.438 202.432 237.552 198.813C238.234 196.604 239.542 195.797 240.521 195.51C242.068 195.063 243.625 195.656 244.672 196.25C245.026 196.057 245.448 195.901 245.953 195.802C248.359 195.349 251.422 196.599 255.063 199.516C260.99 204.26 267.344 198.578 267.609 198.333C268.136 197.854 268.896 197.729 269.547 198.016C270.198 198.307 270.62 198.948 270.62 199.662C270.62 199.859 270.568 204.651 266.448 210.333C264.656 212.818 264.318 216.307 264.229 219.698C264.214 220.208 263.979 220.688 263.589 221.026C263.198 221.354 262.682 221.5 262.177 221.422L259.089 220.979C256.912 223.412 255.047 224.714 252.104 225.932C251.781 226.068 251.427 226.104 251.094 226.042C251 226.026 249.313 225.703 247.24 224.474L244.349 231.063L247.396 232.667C247.901 232.927 248.245 233.412 248.333 233.969C248.375 234.219 248.677 236.484 246.896 238.88C244.912 241.552 241.219 243.266 235.917 243.974C234.912 244.104 233.922 244.172 232.953 244.172Z" fill="black"/>
<path d="M246.474 221.75L245.167 220.568L246.474 221.75Z" fill="white"/>
<path d="M246.474 223.542C246.047 223.542 245.62 223.391 245.276 223.083L243.963 221.901C243.229 221.234 243.172 220.099 243.833 219.365C244.5 218.625 245.63 218.568 246.37 219.229L247.677 220.412C248.417 221.073 248.474 222.208 247.812 222.948C247.453 223.339 246.969 223.542 246.474 223.542Z" fill="black"/>
</svg>
