<svg width="1080" height="1080" viewBox="0 0 1080 1080" fill="none" xmlns="http://www.w3.org/2000/svg">
<path d="M977.347 155.451C930.081 96.3831 853.461 81.5862 804.498 72.1383C611.482 34.8779 376.331 17.0445 189.742 225.492C147.289 272.919 3.29438 569.258 119.133 795.664C221.534 995.81 478.94 1063.93 671.878 1034.51C831.727 1010.14 1023.44 908.576 1060.18 762.435C1083.28 670.534 1025.59 648.378 1012.32 456.055C1000.81 289.581 1035.16 227.701 977.347 155.451Z" fill="#CADDFF"/>
<path d="M575.817 818.219H70.8067V892.427H70.0202C69.2337 892.427 68.8223 894.646 68.8223 895.234C68.8223 905.125 183.65 911.599 327.588 911.599C471.535 911.599 577.093 904.865 577.093 894.974C577.093 894.385 576.713 892.427 575.983 892.427H575.817V818.219Z" fill="#99B9FF"/>
<path d="M577.093 817.629C577.093 827.52 471.535 833.468 327.593 833.468C183.65 833.468 68.8223 827.52 68.8223 817.629C68.8223 807.739 183.65 797.65 327.593 797.65C471.535 797.65 577.093 807.739 577.093 817.629Z" fill="white"/>
<path d="M580.604 729.656H75.5938V803.859H74.8125C74.026 803.859 73.6094 806.083 73.6094 806.672C73.6094 816.563 188.438 823.036 332.375 823.036C476.318 823.036 581.88 816.302 581.88 806.411C581.88 805.823 581.495 803.859 580.771 803.859H580.604V729.656Z" fill="#99B9FF"/>
<path d="M581.88 729.069C581.88 738.959 476.318 744.907 332.375 744.907C188.438 744.907 73.6094 738.959 73.6094 729.069C73.6094 719.178 188.438 709.09 332.375 709.09C476.318 709.09 581.88 719.178 581.88 729.069Z" fill="white"/>
<path d="M578.209 638.703H73.1986V715.297H73.4121C72.6256 715.297 72.209 716.521 72.209 717.109C72.209 727 187.038 732.974 330.98 732.974C474.918 732.974 580.48 726.984 580.48 717.094C580.48 716.505 580.1 715.297 579.371 715.297H578.209V638.703Z" fill="#99B9FF"/>
<path d="M580.48 638.499C580.48 648.395 474.918 654.338 330.98 654.338C187.038 654.338 72.209 648.395 72.209 638.499C72.209 628.608 187.038 618.525 330.98 618.525C474.918 618.525 580.48 628.608 580.48 638.499Z" fill="white"/>
<path d="M582.995 545.354H75.5938V623.141H75.2656C74.4792 623.141 74.0625 624.109 74.0625 624.693C74.0625 634.583 188.891 640.432 332.833 640.432C476.776 640.432 582.333 634.641 582.333 624.75C582.333 624.162 581.953 623.141 581.224 623.141H582.995V545.354Z" fill="#99B9FF"/>
<path d="M582.333 545.833C582.333 555.724 476.776 561.672 332.833 561.672C188.891 561.672 74.0625 555.724 74.0625 545.833C74.0625 535.943 188.891 525.854 332.833 525.854C476.776 525.854 582.333 535.943 582.333 545.833Z" fill="white"/>
<path d="M580.603 453.197H75.593V527.4H74.3222C73.5357 527.4 73.1191 529.364 73.1191 529.952C73.1191 539.843 187.952 546.192 331.89 546.192C475.827 546.192 581.395 539.645 581.395 529.754C581.395 529.171 581.009 527.4 580.28 527.4H580.603V453.197Z" fill="#99B9FF"/>
<path d="M581.395 452.094C581.395 461.984 475.827 467.932 331.89 467.932C187.947 467.932 73.1191 461.984 73.1191 452.094C73.1191 442.203 187.947 432.109 331.89 432.109C475.827 432.109 581.395 442.203 581.395 452.094Z" fill="white"/>
<path d="M578.207 359.85H70.8066V438.84H72.468C71.6816 438.84 71.2649 439.267 71.2649 439.855C71.2649 449.746 186.093 455.329 330.035 455.329C473.973 455.329 579.535 449.928 579.535 440.038C579.535 439.454 579.155 438.84 578.426 438.84H578.207V359.85Z" fill="#99B9FF"/>
<path d="M579.536 360.459C579.536 370.35 473.974 376.298 330.036 376.298C186.094 376.298 71.2656 370.35 71.2656 360.459C71.2656 350.569 186.094 340.475 330.036 340.475C473.974 340.475 579.536 350.569 579.536 360.459Z" fill="white"/>
<path d="M577.756 360.562H577.772H577.756ZM73.1413 360.443C74.2663 361.766 83.0058 366.719 150.001 370.479C196.23 373.073 260.168 374.5 330.038 374.5C400.376 374.5 461.142 373.109 505.756 370.469C569.459 366.703 576.86 361.682 577.704 360.448C576.215 357.958 559.61 352.74 505.965 348.328C458.517 344.427 396.038 342.276 330.038 342.276C263.689 342.276 199.689 344.417 149.819 348.312C93.0788 352.74 75.0527 357.938 73.1413 360.443ZM330.038 378.094C258.319 378.094 193.163 376.599 146.569 373.88C69.4746 369.38 69.4746 363.354 69.4746 360.458C69.4746 357.917 69.4746 351.172 146.532 344.969C196.902 340.922 262.069 338.688 330.038 338.688C397.517 338.688 461.043 340.922 508.913 344.974C581.334 351.104 581.334 357.901 581.334 360.458C581.334 363.146 578.876 366.021 561.079 368.88C549.043 370.813 531.475 372.49 508.876 373.875C463.949 376.635 402.105 378.094 330.038 378.094Z" fill="#99B9FF"/>
<path d="M1043.04 327.526C1043.04 275.13 1021.59 197.104 918.229 201.839C924.057 135.484 867.484 44.2912 744.255 52.6246C684.786 56.6558 672.583 103.312 666.141 100.974C583.177 70.9631 481.963 141.547 504.516 248.245C458.427 253.333 420.219 291.599 421.292 343.281C421.99 376.854 441.068 402.682 472.016 402.682H973.484C1010.88 402.682 1042.06 370.62 1043.02 330.047C1043.04 329.203 1043.04 328.365 1043.04 327.526Z" fill="#99B9FF"/>
<path d="M524.97 404.473H472.017C441.366 404.473 420.256 379.895 419.501 343.317C418.98 318.437 427.642 294.911 443.892 277.072C459.537 259.905 480.996 249.03 504.324 246.457C505.303 246.353 506.194 247.062 506.308 248.046C506.418 249.03 505.699 249.921 504.72 250.03C457.183 255.27 422.095 295.343 423.09 343.239C423.803 377.713 443.465 400.874 472.017 400.874H524.97C525.965 400.874 526.761 401.681 526.761 402.676C526.761 403.666 525.965 404.473 524.97 404.473Z" fill="white"/>
<path d="M1057.59 336.651C1057.59 285.594 1027.33 185.427 926.14 190.042C904.166 89.3856 857.718 59.9428 775.051 59.1981C694.327 58.4689 679.473 117.604 673.254 115.042C586.4 79.3022 505.858 160.161 523.499 253.995C478.369 258.943 443.15 300.115 443.15 350.167C443.15 350.391 443.15 350.615 443.15 350.844C443.358 383.557 468.187 409.875 498.489 409.875H989.489C1026.1 409.875 1056.64 378.641 1057.57 339.104C1057.59 338.286 1057.59 337.469 1057.59 336.651Z" fill="#0048BB"/>
<path d="M387.615 984.359C402.245 972.401 417.604 961.255 433.338 950.625C465.26 929.047 498.906 909.76 532.911 891.073C550.802 881.245 569.375 872.349 587.708 863.198C606.156 853.995 624.646 844.875 643.146 835.76C660.052 827.432 676.953 819.099 693.833 810.724C732.193 681.047 773.849 534.031 765.578 534.031L136.677 516.271C121.87 516.271 111.937 528.323 114.536 543.13L190.745 977.708C193.344 992.51 207.5 1004.56 222.302 1004.56H362.26C370.51 997.599 379.26 991.182 387.615 984.359Z" fill="#0048BB"/>
<path d="M765.506 535.823C765.527 535.823 765.548 535.823 765.569 535.823H765.506ZM387.616 984.359H387.626H387.616ZM136.626 518.078C130.131 518.078 124.413 520.594 120.574 525.161C116.647 529.844 115.126 536.115 116.303 542.823L192.517 977.401C194.965 991.385 208.329 1002.76 222.303 1002.76H361.6C366.121 998.974 370.84 995.297 375.407 991.734C379.064 988.885 382.845 985.938 386.48 982.969C399.996 971.917 414.996 960.854 432.329 949.141C466.074 926.333 501.673 906.198 532.048 889.505C545.928 881.875 560.428 874.703 574.459 867.766C578.616 865.714 582.767 863.661 586.907 861.594C605.095 852.521 623.511 843.432 642.355 834.151C656.902 826.984 674.97 818.083 692.34 809.464C760.074 580.38 765.933 541.276 764.782 535.807L136.626 518.078ZM362.256 1006.35H222.303C206.668 1006.35 191.72 993.641 188.98 978.016L112.767 543.438C111.407 535.672 113.204 528.354 117.829 522.854C122.36 517.458 129.053 514.484 136.678 514.484L765.621 532.234H765.626C766.366 532.234 767.064 532.599 767.558 533.26C769.558 535.932 774.876 543.057 695.553 811.234C695.413 811.714 695.074 812.115 694.626 812.333C677.048 821.063 658.689 830.104 643.939 837.375C625.1 846.651 606.689 855.74 588.506 864.802C584.366 866.875 580.215 868.927 576.053 870.984C562.058 877.901 547.59 885.057 533.777 892.651C503.47 909.302 467.965 929.385 434.34 952.115C417.1 963.771 402.183 974.766 388.751 985.745C385.084 988.74 381.288 991.703 377.616 994.563C372.902 998.234 368.032 1002.04 363.413 1005.93C363.09 1006.2 362.678 1006.35 362.256 1006.35Z" fill="#1C1B1B"/>
<path d="M783.52 517.797H149.713C135.723 517.797 126.369 529.135 128.822 543.13L205.035 977.708C207.489 991.703 220.817 1003.04 234.806 1003.04H868.619C882.598 1003.04 891.952 991.703 889.504 977.708L813.291 543.13C810.843 529.135 797.504 517.797 783.52 517.797Z" fill="white"/>
<path d="M149.713 519.594C143.562 519.594 138.187 521.953 134.593 526.234C130.905 530.62 129.489 536.505 130.593 542.818L206.806 977.396C209.114 990.542 221.676 1001.24 234.806 1001.24H868.619C874.775 1001.24 880.14 998.885 883.739 994.604C887.421 990.214 888.843 984.323 887.739 978.016L811.53 543.438C809.228 530.286 796.661 519.594 783.525 519.594H149.713ZM868.619 1004.83H234.806C220.009 1004.83 205.864 992.807 203.27 978.016L127.056 543.438C125.765 536.063 127.463 529.135 131.843 523.922C136.134 518.818 142.478 516 149.713 516H783.525C798.317 516 812.468 528.031 815.062 542.818L891.27 977.396C892.567 984.766 890.864 991.698 886.489 996.906C882.197 1002.02 875.853 1004.83 868.619 1004.83Z" fill="#1C1B1B"/>
<path d="M767.896 534.553H168.896C155.672 534.553 146.839 545.116 149.156 558.131L221.182 962.699C223.5 975.73 236.094 986.287 249.318 986.287H848.318C861.547 986.287 870.38 975.73 868.068 962.699L796.031 558.131C793.714 545.116 781.12 534.553 767.896 534.553Z" fill="#CADDFF"/>
<path d="M1015.43 1005.53H232.651C222.219 1005.53 213.734 1013.64 213.734 1024.07C213.734 1034.51 222.219 1042.63 232.651 1042.63H1015.43C1025.87 1042.63 1034.34 1034.53 1034.34 1024.07C1034.34 1013.63 1025.87 1005.53 1015.43 1005.53Z" fill="#0048BB"/>
<path d="M232.65 1007.31C223.051 1007.31 215.531 1014.68 215.531 1024.07C215.531 1033.47 223.051 1040.83 232.65 1040.83H1015.43C1025.03 1040.83 1032.55 1033.47 1032.55 1024.07C1032.55 1014.68 1025.03 1007.31 1015.43 1007.31H232.65ZM1015.43 1044.42H232.65C221.035 1044.42 211.938 1035.48 211.938 1024.07C211.938 1012.66 221.035 1003.73 232.65 1003.73H1015.43C1027.04 1003.73 1036.14 1012.66 1036.14 1024.07C1036.14 1035.48 1027.04 1044.42 1015.43 1044.42Z" fill="#1C1B1B"/>
<path d="M608 301V219H638.07C647.545 219 655.533 220.628 662.032 223.885C668.61 227.064 673.582 231.717 676.949 237.843C680.317 243.891 682 251.257 682 259.942C682 268.549 680.317 275.915 676.949 282.041C673.582 288.167 668.61 292.858 662.032 296.115C655.533 299.372 647.545 301 638.07 301H608ZM623.152 288.555H637.13C647.153 288.555 654.593 286.19 659.448 281.46C664.302 276.729 666.73 269.557 666.73 259.942C666.73 250.249 664.302 243.077 659.448 238.424C654.593 233.694 647.153 231.329 637.13 231.329H623.152V288.555Z" fill="white"/>
<path d="M717.665 302C712.578 302 708.108 300.8 704.254 298.398C700.401 295.92 697.395 292.395 695.237 287.825C693.079 283.255 692 277.794 692 271.442C692 265.09 693.079 259.668 695.237 255.175C697.395 250.605 700.401 247.12 704.254 244.718C708.108 242.24 712.578 241 717.665 241C722.598 241 726.913 242.24 730.613 244.718C734.389 247.12 736.894 250.373 738.127 254.478H736.856L738.127 242.162H752C751.769 244.563 751.538 247.003 751.306 249.482C751.152 251.96 751.075 254.4 751.075 256.802V300.838H736.74L736.624 288.754H738.012C736.778 292.782 734.274 295.997 730.497 298.398C726.72 300.8 722.443 302 717.665 302ZM721.711 290.846C726.258 290.846 729.919 289.258 732.694 286.082C735.468 282.829 736.856 277.949 736.856 271.442C736.856 264.935 735.468 260.094 732.694 256.918C729.919 253.742 726.258 252.154 721.711 252.154C717.164 252.154 713.503 253.742 710.728 256.918C707.954 260.094 706.566 264.935 706.566 271.442C706.566 277.949 707.915 282.829 710.613 286.082C713.387 289.258 717.087 290.846 721.711 290.846Z" fill="white"/>
<path d="M788.52 302C783.264 302 778.645 300.8 774.663 298.398C770.68 295.92 767.574 292.395 765.345 287.825C763.115 283.255 762 277.794 762 271.442C762 265.09 763.115 259.668 765.345 255.175C767.574 250.605 770.68 247.12 774.663 244.718C778.645 242.24 783.264 241 788.52 241C793.617 241 798.077 242.24 801.9 244.718C805.802 247.12 808.39 250.373 809.665 254.478H808.351L809.665 242.162H824C823.761 244.563 823.522 247.003 823.283 249.482C823.123 251.96 823.044 254.4 823.044 256.802V300.838H808.231L808.112 288.754H809.545C808.271 292.782 805.682 295.997 801.78 298.398C797.878 300.8 793.458 302 788.52 302ZM792.701 290.846C797.4 290.846 801.183 289.258 804.05 286.082C806.917 282.829 808.351 277.949 808.351 271.442C808.351 264.935 806.917 260.094 804.05 256.918C801.183 253.742 797.4 252.154 792.701 252.154C788.002 252.154 784.22 253.742 781.353 256.918C778.486 260.094 777.052 264.935 777.052 271.442C777.052 277.949 778.445 282.829 781.233 286.082C784.1 289.258 787.923 290.846 792.701 290.846Z" fill="white"/>
<path d="M868.115 302C861.593 302 855.568 301.189 850.043 299.567C844.595 297.867 839.914 295.55 836 292.615L840.604 280.913C843.214 282.767 845.938 284.351 848.777 285.663C851.617 286.9 854.647 287.865 857.87 288.56C861.094 289.178 864.509 289.487 868.115 289.487C874.178 289.487 878.552 288.483 881.237 286.474C883.924 284.466 885.266 281.84 885.266 278.596C885.266 275.738 884.345 273.575 882.504 272.108C880.662 270.563 877.363 269.289 872.604 268.284L859.597 265.619C852.154 264.075 846.59 261.487 842.906 257.857C839.223 254.226 837.381 249.36 837.381 243.258C837.381 238.16 838.724 233.719 841.41 229.934C844.096 226.149 847.856 223.214 852.691 221.128C857.525 219.043 863.165 218 869.612 218C875.367 218 880.701 218.849 885.612 220.549C890.523 222.171 894.629 224.527 897.928 227.617L893.324 238.739C890.024 235.959 886.417 233.911 882.504 232.599C878.59 231.208 874.216 230.513 869.381 230.513C863.933 230.513 859.674 231.594 856.604 233.757C853.611 235.843 852.115 238.739 852.115 242.447C852.115 245.305 853.036 247.583 854.878 249.283C856.796 250.982 860.019 252.295 864.547 253.222L877.439 255.771C885.113 257.316 890.791 259.865 894.475 263.418C898.158 266.894 900 271.606 900 277.553C900 282.419 898.696 286.706 896.086 290.414C893.478 294.044 889.794 296.902 885.036 298.988C880.278 300.996 874.638 302 868.115 302Z" fill="white"/>
<path d="M816.692 1006.54L826.379 1007.24L1006.1 1006.54C1014.27 1006.54 1020.05 999.943 1019.02 991.807L972.379 623.328C971.343 615.198 963.9 608.599 955.728 608.599L775.827 606.5C755.181 606.5 752.374 615.198 753.41 623.328L800.046 991.807C801.082 999.943 808.525 1006.54 816.692 1006.54Z" fill="#1C1B1B"/>
<path d="M828.083 1006.54H1017.49C1025.66 1006.54 1031.44 999.922 1030.42 991.76L983.771 622.115C982.74 613.953 975.292 607.328 967.125 607.328H777.719C769.557 607.328 763.776 613.953 764.807 622.115L811.438 991.76C812.474 999.922 819.927 1006.54 828.083 1006.54Z" fill="white"/>
<path d="M777.719 609.129C774.313 609.129 771.287 610.436 769.203 612.811C767.078 615.212 766.151 618.436 766.583 621.89L813.229 991.535C814.141 998.817 820.813 1004.74 828.089 1004.74H1017.49C1020.9 1004.74 1023.92 1003.44 1026.02 1001.06C1028.14 998.66 1029.07 995.431 1028.63 991.983L981.995 622.337C981.068 615.051 974.406 609.129 967.125 609.129H777.719ZM1017.49 1008.33H828.089C819.073 1008.33 810.797 1001 809.662 991.983L763.026 622.337C762.458 617.848 763.693 613.619 766.505 610.436C769.287 607.275 773.266 605.535 777.719 605.535H967.125C976.151 605.535 984.417 612.869 985.547 621.89L1032.19 991.535C1032.76 996.025 1031.52 1000.25 1028.71 1003.44C1025.92 1006.59 1021.94 1008.33 1017.49 1008.33Z" fill="#1C1B1B"/>
<path d="M1019.62 992.27L975.088 639.322C974.843 637.431 973.129 635.91 971.239 635.91H780.817C778.931 635.91 777.593 637.431 777.827 639.322L822.364 992.27C822.603 994.15 824.322 995.681 826.207 995.681H1016.63C1018.52 995.681 1019.85 994.15 1019.62 992.27Z" fill="#99B9FF"/>
<path d="M874.797 626.135C877.854 626.135 880.016 623.656 879.635 620.599C879.245 617.542 876.453 615.062 873.396 615.062C870.344 615.062 868.177 617.542 868.557 620.599C868.948 623.656 871.734 626.135 874.797 626.135Z" fill="#CADDFF"/>
<path d="M950.327 510.047C948.541 540.208 922.629 563.203 892.473 561.406C862.317 559.615 839.317 533.714 841.114 503.552C842.905 473.396 868.812 450.396 898.973 452.188C929.124 453.979 952.124 479.875 950.327 510.047Z" fill="white"/>
<path d="M950.334 510.042H950.345H950.334ZM895.652 453.88C882.709 453.88 870.366 458.557 860.6 467.224C850.032 476.604 843.751 489.542 842.907 503.651C841.173 532.781 863.459 557.885 892.59 559.615C906.704 560.448 920.288 555.745 930.85 546.365C941.423 536.979 947.699 524.042 948.543 509.937C949.381 495.823 944.678 482.229 935.293 471.667C925.913 461.094 912.975 454.812 898.86 453.979C897.798 453.911 896.72 453.88 895.652 453.88ZM895.803 563.302C894.663 563.302 893.522 563.26 892.376 563.198C861.272 561.344 837.475 534.547 839.324 503.443C840.22 488.375 846.933 474.557 858.22 464.536C869.506 454.521 884.022 449.484 899.084 450.391C914.152 451.286 927.959 457.995 937.975 469.281C947.996 480.568 953.022 495.078 952.121 510.146C951.23 525.213 944.527 539.026 933.235 549.052C922.808 558.302 909.626 563.302 895.803 563.302Z" fill="#1C1B1B"/>
<path d="M922.078 471.875C910.812 482.802 896.75 498.885 890.448 516.849L865.266 487.391C864.573 486.573 863.088 487.24 863.536 488.161C874.104 509.937 884.599 527.911 892.016 543.88C892.766 545.49 895.521 545.401 896.016 543.74C902.484 522.281 913.021 496.146 924.708 473.26C925.401 471.896 923.239 470.766 922.078 471.875Z" fill="#0048BB"/>
<path d="M1023.81 140.354C1023.69 140.354 1023.55 140.339 1023.42 140.313C1022.45 140.089 1021.85 139.13 1022.07 138.167L1023.88 130.193C1024.1 129.224 1025.07 128.63 1026.04 128.839C1027 129.063 1027.6 130.026 1027.39 130.99L1025.57 138.964C1025.38 139.792 1024.64 140.354 1023.81 140.354Z" fill="#1C1B1B"/>
<path d="M1017.46 168.244C1017.33 168.244 1017.19 168.228 1017.06 168.197C1016.09 167.978 1015.48 167.02 1015.71 166.051L1017.53 158.082C1017.74 157.119 1018.71 156.515 1019.67 156.728C1020.64 156.952 1021.24 157.91 1021.03 158.874L1019.21 166.843C1019.02 167.676 1018.28 168.244 1017.46 168.244Z" fill="#1C1B1B"/>
<path d="M1011.76 147.931C1011.63 147.931 1011.48 147.916 1011.34 147.884L1003.52 145.973C1002.56 145.744 1001.97 144.775 1002.2 143.806C1002.43 142.848 1003.41 142.259 1004.37 142.489L1012.19 144.395C1013.15 144.629 1013.74 145.598 1013.51 146.561C1013.31 147.384 1012.58 147.931 1011.76 147.931Z" fill="#1C1B1B"/>
<path d="M1039.15 154.599C1039.01 154.599 1038.86 154.583 1038.72 154.547L1030.9 152.646C1029.94 152.411 1029.34 151.432 1029.59 150.474C1029.82 149.51 1030.79 148.917 1031.75 149.156L1039.57 151.063C1040.54 151.292 1041.13 152.26 1040.89 153.224C1040.7 154.052 1039.96 154.599 1039.15 154.599Z" fill="#1C1B1B"/>
<path d="M1007.72 82.677C1004.8 86.8645 1005.85 92.7499 1010.07 95.7916C1012.12 97.2708 1014.6 97.8645 1017.06 97.4427C1019.45 97.0312 1021.54 95.7135 1022.93 93.7135C1025.85 89.526 1024.8 83.6406 1020.58 80.6093C1018.53 79.1302 1016.05 78.5364 1013.59 78.9531C1011.19 79.3593 1009.11 80.6874 1007.72 82.677ZM1015.51 101.167C1012.82 101.167 1010.21 100.318 1007.96 98.7031C1002.17 94.5208 1000.74 86.4166 1004.78 80.6249C1006.72 77.8385 1009.64 75.9791 1012.99 75.4166C1016.4 74.8385 1019.84 75.6458 1022.69 77.6979C1028.47 81.8749 1029.91 89.9843 1025.87 95.7708C1023.93 98.5624 1021.01 100.411 1017.66 100.984C1016.94 101.104 1016.22 101.167 1015.51 101.167Z" fill="#1C1B1B"/>
<path d="M946.313 88.433C944.396 91.1882 945.089 95.058 947.854 97.0632C949.214 98.0424 950.849 98.4278 952.453 98.1518C954.021 97.8862 955.391 97.0164 956.302 95.7143C958.224 92.9591 957.526 89.0789 954.755 87.0841C953.401 86.1101 951.776 85.7247 950.162 85.9955C948.594 86.2612 947.224 87.1309 946.313 88.433ZM951.432 101.834C949.417 101.834 947.448 101.194 945.761 99.9747C941.401 96.8341 940.328 90.7351 943.37 86.3809C944.833 84.2768 947.037 82.8809 949.557 82.4591C952.125 82.0216 954.719 82.6257 956.854 84.1674C961.208 87.3132 962.281 93.4122 959.245 97.7664C957.781 99.8705 955.589 101.267 953.057 101.694C952.511 101.782 951.969 101.834 951.432 101.834Z" fill="#1C1B1B"/>
<path d="M227.625 368.516C227.625 368.516 207.385 376.057 199.448 369.714C191.51 363.359 211.75 352.641 216.51 353.432C221.276 354.229 227.625 368.516 227.625 368.516Z" fill="#1C1B1B"/>
<path d="M329.35 530.35L310.298 563.683L299.975 549.397L316.647 516.85L329.35 530.35Z" fill="white"/>
<path d="M324.014 324.783L305.446 319.961L293.112 327.752C293.112 327.752 281.5 312.403 272.5 263.501C270.5 264.501 261.001 269 261.001 269C261.001 269 240.37 335.059 292.5 333.5C292.5 333.5 297.464 334.248 303.179 330.032C308.887 325.806 320.922 330.159 324.014 324.783Z" fill="white"/>
<path d="M302.078 549.234L310.12 560.38L327.13 530.609L317.083 519.937L302.078 549.234ZM310.297 565.479C309.719 565.479 309.177 565.208 308.839 564.734L298.521 550.448C298.125 549.901 298.073 549.177 298.38 548.578L315.047 516.031C315.312 515.516 315.818 515.156 316.396 515.073C316.974 514.984 317.552 515.193 317.953 515.614L330.651 529.114C331.193 529.693 331.297 530.547 330.906 531.234L311.854 564.578C311.552 565.104 311 565.443 310.391 565.479C310.359 565.479 310.328 565.479 310.297 565.479Z" fill="#1C1B1B"/>
<path d="M316.897 558.6C311.871 568.959 299.157 594.079 286.902 606.116C283.912 609.053 278.86 607.689 277.793 603.637C273.959 589.137 271.402 558.923 285.688 535.105C285.688 535.105 292.043 532.725 304.741 535.105L302.36 548.605L303.918 547.491C306.267 545.814 309.454 545.954 311.647 547.829L315.303 550.965C317.506 552.86 318.162 555.991 316.897 558.6Z" fill="#1C1B1B"/>
<path d="M284.895 603.583C284.171 603.583 283.489 603.141 283.218 602.422C271.973 572.708 286.593 538.979 287.223 537.557C287.624 536.646 288.681 536.24 289.588 536.641C290.494 537.042 290.905 538.099 290.504 539.005C290.358 539.344 275.858 572.828 286.572 601.151C286.926 602.078 286.457 603.115 285.53 603.469C285.322 603.547 285.108 603.583 284.895 603.583Z" fill="white"/>
<path d="M309.499 574.84C309.166 574.84 308.827 574.741 308.525 574.543L298.999 568.366C298.166 567.829 297.931 566.715 298.473 565.886C299.009 565.058 300.119 564.819 300.952 565.355L310.478 571.537C311.306 572.079 311.546 573.183 311.004 574.017C310.66 574.543 310.088 574.84 309.499 574.84Z" fill="white"/>
<path d="M304.74 583.297C304.354 583.297 303.969 583.177 303.646 582.922L294.917 576.219C294.13 575.62 293.979 574.49 294.583 573.708C295.188 572.922 296.318 572.771 297.099 573.38L305.833 580.078C306.62 580.682 306.766 581.807 306.162 582.594C305.813 583.052 305.276 583.297 304.74 583.297Z" fill="white"/>
<path d="M389.672 531.141C389.672 531.932 407.135 570.036 407.135 570.036L387.292 571.625L373.797 539.078L389.672 531.141Z" fill="white"/>
<path d="M391.464 531.142H391.48H391.464ZM376.095 539.933L388.449 569.735L404.433 568.454C394.069 545.819 390.194 537.095 388.741 533.616L376.095 539.933ZM387.293 573.423C386.569 573.423 385.912 572.991 385.631 572.308L372.136 539.767C371.777 538.897 372.152 537.897 372.996 537.47L388.871 529.538C389.428 529.256 390.084 529.288 390.616 529.61C391.032 529.871 391.324 530.288 391.428 530.761C392.105 532.746 402.131 554.808 408.767 569.288C409.011 569.819 408.98 570.439 408.683 570.944C408.386 571.454 407.86 571.777 407.277 571.829L387.433 573.413C387.386 573.418 387.339 573.423 387.293 573.423Z" fill="#1C1B1B"/>
<path d="M388.88 562.098C388.88 562.098 392.849 552.567 403.167 557.332C403.167 557.332 422.109 584.697 429.146 607.286C431.135 613.681 424.578 619.437 418.479 616.687C404.203 610.239 381.833 596.707 369.031 571.624C369.031 571.624 373 561.306 379.354 556.541L388.88 562.098Z" fill="#1C1B1B"/>
<path d="M423.385 611.59C417.922 611.59 398.031 608.887 372.344 573.47C371.76 572.668 371.943 571.548 372.739 570.965C373.547 570.387 374.667 570.564 375.25 571.366C403.651 610.517 424.13 607.985 424.333 607.949C425.312 607.803 426.229 608.48 426.375 609.465C426.516 610.449 425.844 611.36 424.859 611.506C424.734 611.522 424.234 611.59 423.385 611.59Z" fill="white"/>
<path d="M407.135 590.087C406.515 590.087 405.916 589.77 405.582 589.197C405.082 588.337 405.374 587.239 406.228 586.739L415.754 581.186C416.614 580.686 417.713 580.978 418.207 581.827C418.707 582.686 418.421 583.791 417.562 584.285L408.036 589.843C407.754 590.015 407.442 590.087 407.135 590.087Z" fill="white"/>
<path d="M402.374 582.942C401.733 582.942 401.114 582.598 400.791 581.999C400.322 581.124 400.645 580.041 401.52 579.567L411.838 574.015C412.713 573.541 413.801 573.864 414.27 574.739C414.739 575.614 414.416 576.702 413.541 577.171L403.223 582.728C402.952 582.874 402.661 582.942 402.374 582.942Z" fill="white"/>
<path d="M288.067 339.035C288.067 339.035 339.806 348.275 377.088 387.369C386.499 397.239 389.823 411.447 385.786 424.463C377.505 451.187 359.473 499.994 329.343 536.697L306.322 516.848C306.322 516.848 311.879 470.812 326.963 442.233C342.046 413.65 253.938 351.733 253.938 351.733L288.067 339.035Z" fill="white"/>
<path d="M308.23 516.126L329.116 534.136C358.501 497.647 376.131 449.558 384.069 423.938C387.913 411.543 384.741 398.006 375.788 388.616C341.204 352.35 293.47 341.949 288.225 340.897L257.725 352.246C272.939 363.293 342.814 416.053 328.553 443.079C314.98 468.787 309.126 509.438 308.23 516.126ZM329.345 538.496C328.918 538.496 328.501 538.345 328.173 538.063L305.152 518.215C304.699 517.824 304.47 517.235 304.543 516.642C304.6 516.173 310.314 469.938 325.376 441.397C331.126 430.506 320.579 411.886 294.876 387.579C275.053 368.829 253.126 353.366 252.907 353.209C252.36 352.829 252.074 352.173 252.157 351.511C252.246 350.85 252.689 350.293 253.314 350.058L287.444 337.36C287.746 337.246 288.069 337.22 288.387 337.272C288.907 337.371 341.126 347.069 378.387 386.131C388.235 396.47 391.73 411.36 387.501 425.006C379.376 451.209 361.204 500.715 330.73 537.84C330.428 538.215 329.98 538.449 329.501 538.491C329.449 538.491 329.397 538.496 329.345 538.496Z" fill="#1C1B1B"/>
<path d="M396.026 538.282L369.036 546.225C369.036 546.225 319.823 442.23 305.536 427.147C291.244 412.064 263.464 387.454 234.094 378.72C204.729 369.991 204.729 347.761 204.729 347.761L254.734 333.475C254.734 333.475 324.583 363.642 347.604 397.777C370.625 431.907 396.026 538.282 396.026 538.282Z" fill="white"/>
<path d="M206.615 349.094C207.141 353.854 210.703 369.896 234.604 377C268.063 386.948 298.349 416.958 306.839 425.917C320.422 440.255 363.859 531.151 370 544.062L393.875 537.042C390.537 523.417 367.13 429.937 346.115 398.781C324.76 367.104 261.37 338.38 254.604 335.375L206.615 349.094ZM369.037 548.016C368.354 548.016 367.714 547.625 367.412 546.984C366.922 545.953 318.162 443.089 304.229 428.38C295.901 419.589 266.182 390.135 233.583 380.443C203.281 371.437 202.932 348 202.932 347.766C202.932 346.963 203.464 346.26 204.234 346.042L254.24 331.75C254.635 331.635 255.068 331.661 255.443 331.828C258.318 333.068 326.047 362.594 349.094 396.771C372.031 430.786 396.729 533.505 397.771 537.865C397.99 538.792 397.448 539.729 396.531 540.005L369.542 547.937C369.37 547.99 369.203 548.016 369.037 548.016Z" fill="#1C1B1B"/>
<path d="M164.244 266C177.739 239.01 199.963 235.047 199.963 235.047L238.061 231.87C249.978 231.068 262.645 238.422 267.348 249.401L274 264L262.5 269.5L271.5 320.5C271.5 320.5 295.213 350.151 263.463 353.323C231.713 356.495 209.884 354.516 199.567 367.214C192.765 375.589 192.978 319.745 196.89 275.573L164.244 266Z" fill="#0048BB"/>
<path d="M265.844 337.448L248.38 329.51L234.891 335.068C234.891 335.068 162.5 325.896 194.865 274.099C195.005 273.875 169.427 268.703 169.427 268.703C169.427 268.703 139.927 339.042 233.302 340.625C233.302 340.625 238.063 342.214 244.417 339.042C250.766 335.859 261.875 342.214 265.844 337.448Z" fill="white"/>
<path d="M170.573 270.77C168.573 276.421 161.974 298.468 173.255 315.733C182.937 330.541 203.151 338.317 233.328 338.827C233.51 338.838 233.693 338.864 233.87 338.921C234.026 338.973 238.073 340.197 243.609 337.431C247.083 335.692 251.354 336.327 255.484 336.942C257.703 337.27 259.854 337.593 261.557 337.473L248.349 331.468L235.573 336.723C235.286 336.843 234.969 336.884 234.661 336.848C233.151 336.655 197.594 331.916 187.401 310.442C182.677 300.483 184.25 288.645 192.073 275.249C187.719 274.275 177.812 272.239 170.573 270.77ZM236.479 342.811C234.786 342.811 233.573 342.556 233.031 342.416C201.708 341.843 180.583 333.515 170.234 317.671C156.219 296.192 167.297 269.15 167.776 268.004C168.109 267.218 168.948 266.785 169.786 266.942C196.026 272.249 196.026 272.249 196.516 273.39C196.75 273.931 196.698 274.551 196.385 275.051C188.161 288.213 186.229 299.603 190.646 308.905C199.417 327.384 230.5 332.608 234.656 333.223L247.698 327.848C248.156 327.666 248.672 327.666 249.125 327.874L266.589 335.817C267.099 336.046 267.469 336.499 267.594 337.046C267.719 337.593 267.583 338.166 267.224 338.598C264.464 341.91 259.63 341.192 254.953 340.499C251.38 339.963 247.677 339.41 245.213 340.645C241.76 342.374 238.703 342.811 236.479 342.811Z" fill="#1C1B1B"/>
<path d="M198.334 279.108L162.881 269.088L164.246 266.004C164.246 266.004 168.277 262.916 169.048 262.916C169.819 262.916 189.855 262.15 189.855 262.15L202.194 266.004L198.334 279.108Z" fill="#0048BB"/>
<path d="M195 360.498L194 347.498L194 333.998L195.5 334.498L195.5 347.498C195.5 347.498 195.158 359.99 197.5 364.998C198.732 367.634 200.735 367.635 200.735 367.635C200.732 368.008 200.184 369.016 199.824 369.191C199.375 369.41 197.587 368.105 196.587 366.605C195.587 365.105 195 360.498 195 360.498Z" fill="#1C1B1B"/>
<path d="M196.588 276.999C196.588 276.999 196.406 276.944 196.069 276.843L200.501 262.499C200.294 260.932 202.98 260.738 202.737 262.523L197.982 277.917L196 316.5L194.5 315.5L195.722 278.577C196.438 278.8 196.84 278.926 196.84 278.926L195.745 277.893L196.588 276.999Z" fill="#1C1B1B"/>
<path fill-rule="evenodd" clip-rule="evenodd" d="M196.069 276.843C196.406 276.944 196.588 276.999 196.588 276.999L195.745 277.893L196.84 278.926C196.84 278.926 196.438 278.8 195.722 278.577L195.745 277.893L196.069 276.843Z" fill="#1C1B1B"/>
<path d="M163 269.999C162.405 270.019 162.2 268.487 162.793 268.431C166.713 268.06 192.112 275.651 196.069 276.843L195.745 277.893L195.722 278.577C190.359 276.911 167.342 269.847 163 269.999Z" fill="#1C1B1B"/>
<path d="M332.703 342.662H263.854L314.896 264.157C316.49 261.699 319.266 260.215 322.255 260.215H378.13C381.677 260.215 383.832 264.017 381.938 266.923L332.703 342.662Z" fill="#1C1B1B"/>
<path d="M346.427 287.74C344.187 291.177 339.38 293.969 335.682 293.969C331.984 293.969 330.802 291.177 333.036 287.74C335.276 284.297 340.083 281.51 343.781 281.51C347.479 281.51 348.661 284.297 346.427 287.74Z" fill="white"/>
<path d="M343.781 283.303C340.682 283.303 336.448 285.782 334.542 288.72C333.641 290.105 333.589 291.09 333.818 291.511C334.047 291.933 334.74 292.173 335.682 292.173C338.781 292.173 343.016 289.699 344.922 286.767C345.823 285.371 345.875 284.386 345.646 283.965C345.422 283.553 344.724 283.303 343.781 283.303ZM335.682 295.761C332.516 295.761 331.177 294.173 330.667 293.23C329.698 291.449 330.016 289.095 331.531 286.767C334.099 282.813 339.484 279.715 343.781 279.715C346.948 279.715 348.286 281.303 348.802 282.251C349.766 284.032 349.448 286.386 347.932 288.72C345.365 292.673 339.984 295.761 335.682 295.761Z" fill="#1C1B1B"/>
<path d="M330.943 348.561H218.854C217.75 348.561 216.859 347.666 216.859 346.567V342.15H332.943V346.567C332.943 347.666 332.047 348.561 330.943 348.561Z" fill="#1C1B1B"/>
<path d="M192.823 49.292C163.672 40.0837 108.234 86.3337 115.828 120.734C117.922 130.224 125.271 140.896 135.672 146.135C154.115 155.427 173.797 143.422 178.531 150.901C182.641 157.375 168.047 166.719 169.802 180.271C172.411 200.401 208.563 210.125 212.661 211.234C215.729 212.052 258.87 223.073 279.339 200.109C284.271 194.589 290.734 183.891 287.276 177.094C283.979 170.609 273.859 172.005 271.401 165.193C269.276 159.281 276.057 155.974 275.37 149.307C274.047 136.458 247.5 135.797 244.417 122.318C241.943 111.547 257.365 105.208 254.734 94.542C252.609 85.9274 241.51 85.7035 223.776 74.6931C202.547 61.5056 203.865 52.7816 192.823 49.292Z" fill="#1C1B1B"/>
<path d="M225.365 229.49C226.068 229.135 235.62 217.865 241.208 211.234C240.786 209.391 240.849 208.797 241 206.005C241 206.005 238.104 203.109 239.266 199.344C240.62 194.964 244.776 198.479 244.776 198.479C244.776 198.479 246.698 195.109 253.938 200.917C261.177 206.714 268.823 199.656 268.823 199.656C268.823 199.656 268.818 204.005 264.995 209.287C262.885 212.203 262.531 216.052 262.427 219.646L258.375 219.068C256.141 221.714 254.484 223.005 251.417 224.276C251.417 224.276 248.99 223.828 246.474 221.75L242.031 231.87L246.563 234.255C246.563 234.255 247.589 240.604 235.682 242.193C223.776 243.781 214.25 234.255 214.25 234.255C214.25 234.255 220.599 231.87 225.365 229.49Z" fill="white"/>
<path d="M225.364 229.49H225.374H225.364ZM217.713 234.828C221.036 237.349 227.77 241.438 235.442 240.412C240.801 239.698 243.062 238.021 244.015 236.74C244.411 236.214 244.608 235.698 244.702 235.307L241.197 233.464C240.364 233.026 240.01 232.016 240.385 231.151L244.832 221.031C245.056 220.51 245.515 220.135 246.062 220C246.608 219.88 247.187 220.005 247.619 220.365C249.103 221.594 250.551 222.156 251.275 222.38C253.64 221.339 255.041 220.229 257.004 217.906C257.4 217.438 258.015 217.198 258.629 217.292L260.728 217.589C260.947 214.266 261.572 210.953 263.541 208.234C264.775 206.526 265.577 204.927 266.093 203.589C262.431 205.302 257.426 206.01 252.812 202.313C248.921 199.193 247.093 199.25 246.624 199.333C246.567 199.339 246.494 199.323 246.431 199.323C246.39 199.323 246.348 199.333 246.332 199.37C246.067 199.833 245.608 200.156 245.082 200.245C244.562 200.339 244.02 200.188 243.614 199.849C242.994 199.339 241.942 198.839 241.525 198.958C241.395 198.995 241.171 199.26 240.983 199.875C240.161 202.526 242.192 204.662 242.275 204.75C242.624 205.109 242.822 205.604 242.791 206.104L242.765 206.547C242.64 208.912 242.614 209.333 242.957 210.828C243.082 211.38 242.947 211.953 242.582 212.391C227.306 230.526 226.676 230.839 226.166 231.099C223.343 232.51 220.02 233.906 217.713 234.828ZM232.952 244.172C221.765 244.172 213.364 235.906 212.978 235.521C212.546 235.094 212.364 234.474 212.494 233.875C212.624 233.281 213.046 232.787 213.619 232.573C213.681 232.552 219.791 230.255 224.395 227.969C224.911 227.479 227.405 224.828 239.27 210.74C239.03 209.396 239.067 208.5 239.166 206.62C238.202 205.365 236.437 202.432 237.551 198.813C238.233 196.604 239.541 195.797 240.52 195.51C242.067 195.063 243.624 195.656 244.671 196.25C245.025 196.057 245.447 195.901 245.952 195.802C248.358 195.349 251.421 196.599 255.062 199.516C260.989 204.26 267.343 198.578 267.608 198.333C268.135 197.854 268.895 197.729 269.546 198.016C270.197 198.307 270.619 198.948 270.619 199.662C270.619 199.859 270.567 204.651 266.447 210.333C264.655 212.818 264.317 216.307 264.228 219.698C264.213 220.208 263.978 220.688 263.588 221.026C263.197 221.354 262.681 221.5 262.176 221.422L259.088 220.979C256.911 223.412 255.046 224.714 252.103 225.932C251.78 226.068 251.426 226.104 251.093 226.042C250.999 226.026 249.312 225.703 247.239 224.474L244.348 231.063L247.395 232.667C247.9 232.927 248.244 233.412 248.332 233.969C248.374 234.219 248.676 236.484 246.895 238.88C244.911 241.552 241.218 243.266 235.916 243.974C234.911 244.104 233.921 244.172 232.952 244.172Z" fill="#1C1B1B"/>
<path d="M246.475 221.75L245.168 220.568L246.475 221.75Z" fill="white"/>
<path d="M246.475 223.542C246.048 223.542 245.621 223.391 245.277 223.083L243.964 221.901C243.23 221.234 243.173 220.099 243.834 219.365C244.501 218.625 245.631 218.568 246.371 219.229L247.678 220.412C248.418 221.073 248.475 222.208 247.813 222.948C247.454 223.339 246.97 223.542 246.475 223.542Z" fill="#1C1B1B"/>
<g clip-path="url(#clip0_1813_18006)">
<path d="M220.016 278.212C221.831 278.212 223.416 277.092 224.093 275.432C225.496 271.994 228.915 269.561 232.903 269.561C236.891 269.561 240.31 271.994 241.713 275.432C242.39 277.087 243.979 278.212 245.789 278.212H246.746C246.373 271.014 240.305 265.27 232.903 265.27C225.496 265.27 219.432 271.014 219.055 278.212H220.016Z" fill="#FEFEFE"/>
<path d="M245.795 279.617C243.98 279.617 242.396 280.737 241.714 282.398C240.311 285.835 236.892 288.268 232.904 288.268C228.916 288.268 225.496 285.835 224.094 282.398C223.417 280.742 221.832 279.617 220.017 279.617H219.061C219.433 286.815 225.501 292.56 232.909 292.56C240.316 292.56 246.379 286.815 246.752 279.617H245.795Z" fill="#FEFEFE"/>
</g>
<path d="M262 268.312C262 268.312 269.5 265 273.5 263.5C274.057 263.291 274.544 264.758 274 265C269.5 267 262.617 270.155 262.617 270.155L262.5 269.499L262 268.312Z" fill="#1C1B1B"/>
<path d="M262.5 269.499L258.5 259.999C257.999 258.5 255.5 259.501 256.499 261L260.499 270.5L266.999 307L269.499 321.5L272.999 326.5C273.166 326.833 274.099 327.5 274.499 327.5C274.999 327.5 276.001 326.499 275 325.499L271.5 320.499L269 305.999L262.5 269.499Z" fill="#1C1B1B"/>
<path d="M272.001 264.499C271.915 264.927 272.501 266.499 272.501 266.499C274.501 275.999 278.601 295.399 279.001 296.999C279.401 298.599 283.167 307.999 285.001 312.499C285.667 312.166 286.801 311.199 286.001 309.999C285.001 308.499 284.001 303.999 282.001 299.999C280.444 296.886 275.922 276.485 273.683 265.865C273.62 265.568 273.559 264.781 273.5 264.5C273.441 264.219 272.122 263.893 272.001 264.499Z" fill="#1C1B1B"/>
<path d="M213 235.001C213.167 234.501 213.4 233.501 213 233.501C199.5 231.5 174.5 240 163 268.501C163 269.501 163.5 270 164.5 269C180.9 237.801 203.667 233.334 213 235.001Z" fill="#1C1B1B"/>
<path d="M245.462 233.401C245.486 232.875 245.628 231.858 246.001 232.001C259.317 234.99 266.845 240.595 274.081 263.575C273.721 264.508 272.886 264.862 272.502 263.501C266 240.5 254.77 235.203 245.462 233.401Z" fill="#1C1B1B"/>
<path d="M644.632 684.242C654.984 667.6 649.884 645.719 633.243 635.367C616.602 625.016 594.718 630.115 584.364 646.758C574.014 663.4 579.114 685.281 595.755 695.633C612.396 705.984 634.28 700.884 644.632 684.242ZM582.688 729.695L570.98 722.416L575.925 708.194C573.517 706.022 571.317 703.682 569.35 701.194L554.85 705.188L548.354 693.03L559.75 683.182C558.764 680.134 558.039 677.011 557.573 673.843L543 670.048L543.452 656.27L558.222 653.447C558.884 650.339 559.824 647.27 561.025 644.261L550.303 633.687L557.586 621.984L571.806 626.924C573.976 624.519 576.318 622.319 578.807 620.352L574.812 605.854L586.969 599.356L596.817 610.751C599.864 609.768 602.99 609.04 606.158 608.574L609.953 594L623.729 594.454L626.554 609.223C629.659 609.889 632.728 610.827 635.74 612.026L646.31 601.307L658.015 608.587L653.073 622.808C655.481 624.98 657.681 627.317 659.648 629.806L674.147 625.812L680.644 637.97L669.247 647.817C670.231 650.864 670.958 653.989 671.425 657.157L686 660.952L685.546 674.73L670.776 677.556C670.112 680.661 669.174 683.73 667.973 686.741L678.695 697.313L671.412 709.018L657.192 704.07C655.019 706.483 652.682 708.681 650.193 710.648L654.188 725.148L642.028 731.642L632.183 720.249C629.136 721.232 626.011 721.96 622.84 722.426L619.045 737L605.268 736.549L602.445 721.78C599.342 721.113 596.27 720.173 593.256 718.971L582.688 729.695Z" fill="#5479F7"/>
<path d="M626.465 630.632C632.147 630.632 637.721 632.21 642.658 635.289C649.643 639.627 654.506 646.424 656.376 654.434C658.241 662.434 656.877 670.69 652.538 677.664C648.2 684.648 641.397 689.523 633.392 691.382C625.392 693.242 617.132 691.887 610.158 687.544C603.178 683.205 598.309 676.408 596.439 668.398C594.575 660.398 595.934 652.143 600.283 645.158C604.621 638.184 611.423 633.309 619.423 631.445C621.761 630.903 624.121 630.632 626.465 630.632ZM626.345 695.794C628.959 695.794 631.596 695.492 634.21 694.882C643.148 692.799 650.736 687.356 655.585 679.565C660.434 671.768 661.954 662.554 659.871 653.617C657.787 644.679 652.351 637.08 644.559 632.236C636.762 627.387 627.549 625.867 618.611 627.95C609.674 630.033 602.08 635.471 597.236 643.268C592.382 651.059 590.866 660.278 592.949 669.216C595.032 678.153 600.466 685.747 608.262 690.596C613.778 694.023 620.006 695.789 626.345 695.794ZM642.637 709.867C642.455 709.867 642.268 709.893 642.085 709.955C639.393 710.82 636.605 711.476 633.803 711.882C633.09 711.992 632.506 712.507 632.329 713.205L629.204 725.195L619.434 724.867L617.105 712.726C616.97 712.018 616.428 711.455 615.725 711.304C612.996 710.726 610.251 709.887 607.579 708.82C606.912 708.554 606.148 708.716 605.637 709.226L596.944 718.049L588.642 712.877L592.71 701.184C592.945 700.502 592.751 699.747 592.215 699.262C590.074 697.335 588.117 695.252 586.382 693.059C585.938 692.497 585.194 692.247 584.501 692.44L572.579 695.726L567.97 687.101L577.34 679.002C577.886 678.528 578.1 677.778 577.876 677.091C577.006 674.398 576.355 671.611 575.944 668.809C575.84 668.096 575.319 667.512 574.621 667.335L562.637 664.21L562.954 654.44L575.105 652.117C575.809 651.981 576.366 651.434 576.522 650.726C577.105 647.997 577.945 645.252 579.007 642.585C579.278 641.914 579.116 641.153 578.6 640.643L569.783 631.95L574.949 623.643L586.642 627.71C587.319 627.945 588.08 627.752 588.564 627.216C590.492 625.08 592.574 623.122 594.772 621.387C595.334 620.94 595.575 620.2 595.382 619.502L592.1 607.585L600.725 602.971L608.819 612.341C609.293 612.887 610.049 613.096 610.73 612.877C613.428 612.012 616.209 611.356 619.017 610.945C619.725 610.846 620.308 610.32 620.491 609.622L623.611 597.637L633.387 597.955L635.71 610.106C635.846 610.809 636.392 611.372 637.1 611.523C639.819 612.106 642.564 612.945 645.236 614.007C645.908 614.273 646.673 614.117 647.178 613.601L655.876 604.783L664.173 609.95L660.111 621.648C659.872 622.325 660.069 623.085 660.605 623.565C662.741 625.492 664.7 627.58 666.434 629.768C666.877 630.335 667.622 630.58 668.314 630.387L680.241 627.106L684.845 635.731L675.475 643.825C674.933 644.299 674.726 645.054 674.939 645.736C675.814 648.434 676.459 651.216 676.871 654.023C676.98 654.731 677.501 655.315 678.194 655.497L690.178 658.617L689.861 668.393L677.715 670.716C677.006 670.851 676.449 671.398 676.293 672.106C675.715 674.835 674.882 677.57 673.814 680.242C673.544 680.919 673.709 681.684 674.22 682.184L683.033 690.882L677.866 699.184L666.178 695.122C665.496 694.882 664.735 695.075 664.251 695.617C662.329 697.747 660.241 699.71 658.048 701.44C657.485 701.893 657.242 702.632 657.434 703.33L660.72 715.247L652.095 719.856L643.996 710.486C643.647 710.085 643.148 709.867 642.637 709.867ZM630.579 728.83C631.397 728.83 632.11 728.278 632.319 727.486L635.501 715.247C637.709 714.877 639.902 714.367 642.048 713.726L650.314 723.289C650.861 723.929 651.777 724.101 652.517 723.705L663.673 717.742C664.412 717.341 664.783 716.486 664.559 715.679L661.21 703.507C662.919 702.091 664.558 700.549 666.105 698.898L678.048 703.049C678.84 703.325 679.72 703.012 680.158 702.299L686.845 691.554C687.287 690.846 687.173 689.924 686.574 689.33L677.574 680.455C678.371 678.335 679.027 676.179 679.543 674.023L691.944 671.648C692.767 671.492 693.376 670.783 693.402 669.945L693.814 657.299C693.841 656.466 693.287 655.721 692.475 655.507L680.241 652.32C679.866 650.111 679.355 647.924 678.715 645.773L688.277 637.507C688.912 636.955 689.084 636.039 688.694 635.304L682.73 624.148C682.334 623.403 681.475 623.039 680.668 623.257L668.496 626.617C667.084 624.908 665.538 623.262 663.887 621.71L668.038 609.768C668.314 608.976 668.007 608.101 667.288 607.658L656.548 600.976C655.834 600.533 654.912 600.643 654.324 601.242L645.449 610.242C643.324 609.45 641.174 608.789 639.012 608.278L636.642 595.872C636.485 595.049 635.773 594.45 634.939 594.419L622.293 594.002C621.459 593.96 620.709 594.533 620.496 595.341L617.314 607.585C615.106 607.955 612.912 608.466 610.767 609.106L602.501 599.539C601.954 598.903 601.037 598.731 600.298 599.132L589.142 605.096C588.402 605.486 588.033 606.341 588.257 607.148L591.611 619.325C589.903 620.742 588.262 622.289 586.71 623.929L574.772 619.783C573.975 619.507 573.101 619.815 572.658 620.528L565.97 631.273C565.532 631.986 565.642 632.908 566.241 633.502L575.241 642.372C574.449 644.492 573.787 646.648 573.277 648.809L560.871 651.179C560.048 651.341 559.45 652.049 559.413 652.887L559.001 665.528C558.975 666.372 559.527 667.111 560.34 667.325L572.579 670.512C572.954 672.716 573.465 674.908 574.105 677.054L564.538 685.32C563.903 685.872 563.73 686.789 564.126 687.523L570.09 698.684C570.485 699.429 571.34 699.794 572.147 699.57L584.319 696.216C585.735 697.924 587.277 699.565 588.928 701.117L584.777 713.059C584.501 713.851 584.813 714.731 585.527 715.174L596.267 721.851C596.98 722.299 597.907 722.19 598.491 721.585L607.366 712.591C609.491 713.382 611.642 714.039 613.803 714.554L616.173 726.96C616.334 727.778 617.044 728.382 617.882 728.414L630.522 728.83C630.543 728.83 630.558 728.83 630.579 728.83Z" fill="black"/>
<path d="M501.742 823.913C521.579 792.019 511.801 750.099 479.914 730.264C448.017 710.429 406.094 720.194 386.258 752.089C366.421 783.97 376.187 825.903 408.073 845.738C439.97 865.573 481.906 855.797 501.742 823.913ZM383.04 910.995L360.614 897.054L370.086 869.803C365.475 865.638 361.245 861.157 357.482 856.395L329.697 864.051L317.267 840.746L339.093 821.88C337.212 816.04 335.809 810.058 334.927 803.981L307 796.717L307.858 770.303L336.155 764.898C337.439 758.96 339.233 753.066 341.54 747.303L320.986 727.045L334.948 704.61L362.191 714.083C366.346 709.471 370.837 705.264 375.6 701.489L367.956 673.716L391.25 661.266L410.118 683.091C415.947 681.209 421.94 679.817 428.018 678.925L435.282 651L461.688 651.858L467.104 680.155C473.042 681.437 478.924 683.243 484.7 685.538L504.96 664.995L527.386 678.946L517.902 706.187C522.525 710.362 526.742 714.833 530.518 719.605L558.293 711.962L570.733 735.244L548.896 754.122C550.788 759.949 552.181 765.942 553.073 772.021L581 779.285L580.129 805.688L551.832 811.102C550.561 817.051 548.765 822.924 546.46 828.697L567.004 848.958L553.05 871.39L525.797 861.909C521.644 866.529 517.152 870.738 512.387 874.511L520.044 902.294L496.74 914.736L477.88 892.899C472.042 894.793 466.06 896.183 459.982 897.075L452.705 925L426.3 924.131L420.885 895.837C414.958 894.563 409.063 892.759 403.3 890.464L383.04 910.995Z" fill="#5479F7"/>
<path d="M463.626 715.023C476.021 715.023 488.2 718.46 498.987 725.148C514.232 734.597 524.866 749.389 528.94 766.809C533.015 784.224 530.037 802.179 520.555 817.369C511.078 832.554 496.231 843.149 478.752 847.209C461.268 851.273 443.248 848.302 428.008 838.854C412.768 829.411 402.134 814.614 398.059 797.198C393.98 779.783 396.962 761.822 406.445 746.638C415.922 731.453 430.774 720.853 448.248 716.793C453.356 715.607 458.512 715.023 463.626 715.023ZM463.365 852.362C468.743 852.362 474.157 851.75 479.52 850.498C497.88 846.243 513.479 835.108 523.439 819.149C533.393 803.2 536.524 784.337 532.243 766.04C527.966 747.741 516.791 732.199 500.783 722.28C484.771 712.357 465.839 709.233 447.475 713.503C429.115 717.764 413.516 728.899 403.561 744.853C393.601 760.808 390.476 779.67 394.757 797.963C399.034 816.266 410.204 831.804 426.217 841.728C437.545 848.748 450.343 852.362 463.365 852.362ZM497.831 886.217C497.653 886.217 497.481 886.242 497.309 886.301C491.502 888.169 485.494 889.561 479.446 890.449C478.772 890.547 478.226 891.042 478.054 891.694L471.031 918.577L446.988 917.793L441.762 890.547C441.634 889.88 441.117 889.355 440.448 889.218C434.558 887.958 428.653 886.164 422.89 883.874C422.255 883.619 421.532 883.771 421.054 884.256L401.484 904.03L381.062 891.375L390.216 865.144C390.441 864.501 390.254 863.786 389.753 863.33C385.147 859.192 380.91 854.71 377.18 849.999C376.752 849.469 376.053 849.239 375.398 849.415L348.56 856.79L337.227 835.653L358.324 817.492C358.835 817.046 359.032 816.335 358.83 815.692C356.955 809.901 355.552 803.915 354.667 797.894C354.563 797.223 354.072 796.679 353.417 796.502L326.436 789.505L327.223 765.549L354.563 760.342C355.233 760.214 355.759 759.695 355.902 759.033C357.161 753.164 358.968 747.275 361.266 741.539C361.522 740.907 361.364 740.186 360.882 739.706L341.031 720.21L353.732 699.863L380.064 708.978C380.708 709.198 381.421 709.027 381.88 708.517C386.027 703.933 390.526 699.717 395.259 695.99C395.791 695.568 396.022 694.867 395.845 694.215L388.449 667.474L409.658 656.183L427.885 677.202C428.333 677.712 429.042 677.912 429.686 677.706C435.507 675.839 441.516 674.436 447.553 673.554C448.223 673.456 448.774 672.965 448.946 672.308L455.969 645.425L480.007 646.214L485.238 673.456C485.366 674.127 485.883 674.652 486.547 674.789C492.437 676.045 498.342 677.844 504.11 680.133C504.739 680.384 505.463 680.237 505.945 679.751L525.511 659.973L545.932 672.627L536.78 698.863C536.553 699.506 536.74 700.217 537.247 700.672C541.853 704.81 546.085 709.297 549.82 714.009C550.243 714.543 550.941 714.768 551.596 714.587L578.434 707.218L589.767 728.354L568.676 746.515C568.16 746.962 567.963 747.668 568.17 748.315C570.045 754.106 571.447 760.092 572.333 766.113C572.431 766.78 572.923 767.328 573.588 767.501L600.564 774.497L599.772 798.449L572.436 803.665C571.762 803.793 571.236 804.308 571.092 804.97C569.833 810.833 568.027 816.726 565.729 822.463C565.478 823.1 565.63 823.822 566.118 824.292L585.964 843.797L573.263 864.144L546.936 855.019C546.291 854.799 545.578 854.985 545.12 855.485C540.962 860.084 536.459 864.296 531.74 868.013C531.204 868.439 530.973 869.135 531.155 869.792L538.551 896.528L517.342 907.825L499.115 886.806C498.785 886.428 498.313 886.217 497.831 886.217ZM472.325 922C473.094 922 473.772 921.485 473.964 920.74L481.05 893.626C486.537 892.767 491.984 891.497 497.274 889.856L515.659 911.056C516.181 911.654 517.042 911.816 517.741 911.443L541.346 898.877C542.045 898.499 542.394 897.695 542.183 896.936L534.723 869.963C538.984 866.532 543.068 862.712 546.877 858.579L573.43 867.777C574.178 868.042 575.005 867.747 575.428 867.076L589.561 844.434C589.979 843.762 589.876 842.889 589.31 842.34L569.296 822.669C571.329 817.443 572.963 812.108 574.169 806.773L601.745 801.517C602.522 801.371 603.093 800.704 603.118 799.914L603.999 773.267C604.024 772.472 603.497 771.766 602.729 771.57L575.522 764.515C574.661 759.048 573.391 753.62 571.738 748.349L593.016 730.026C593.616 729.512 593.773 728.649 593.399 727.948L580.787 704.433C580.413 703.732 579.606 703.394 578.844 703.6L551.778 711.032C548.329 706.777 544.495 702.712 540.352 698.917L549.584 672.46C549.844 671.72 549.549 670.892 548.875 670.475L526.15 656.393C525.481 655.967 524.605 656.074 524.049 656.638L504.311 676.578C499.066 674.559 493.707 672.926 488.358 671.725L483.082 644.253C482.935 643.474 482.266 642.905 481.473 642.875L454.728 642.003C453.941 641.958 453.227 642.502 453.031 643.268L445.944 670.381C440.467 671.24 435.021 672.499 429.72 674.147L411.341 652.946C410.814 652.353 409.953 652.191 409.255 652.564L385.654 665.13C384.95 665.503 384.605 666.312 384.817 667.071L392.277 694.038C388.006 697.475 383.921 701.295 380.118 705.423L353.569 696.225C352.816 695.97 351.99 696.26 351.572 696.931L337.434 719.573C337.021 720.241 337.119 721.113 337.685 721.667L357.703 741.333C355.671 746.56 354.037 751.899 352.827 757.233L325.255 762.485C324.478 762.632 323.901 763.303 323.877 764.093L323.001 790.745C322.976 791.535 323.498 792.236 324.266 792.432L351.478 799.493C352.339 804.954 353.604 810.382 355.258 815.658L333.984 833.975C333.384 834.495 333.222 835.358 333.596 836.055L346.208 859.574C346.581 860.271 347.389 860.614 348.152 860.403L375.222 852.97C378.666 857.226 382.504 861.29 386.648 865.085L377.416 891.542C377.156 892.292 377.446 893.111 378.125 893.533L400.845 907.614C401.518 908.031 402.394 907.933 402.946 907.369L422.683 887.423C427.929 889.443 433.288 891.081 438.637 892.283L443.912 919.754C444.065 920.529 444.734 921.102 445.521 921.126L472.267 922C472.291 922 472.31 922 472.325 922Z" fill="black"/>
<path d="M1013.8 990.94L828.132 990.486C827.777 990.491 827.428 990.327 827.164 990.031C826.9 989.734 826.741 989.329 826.723 988.904L785.157 643.823C785.139 643.398 785.263 642.988 785.502 642.684C785.74 642.38 786.074 642.205 786.43 642.2L968.052 640.289C968.233 640.287 968.414 640.328 968.585 640.41C968.755 640.493 968.91 640.614 969.043 640.768C969.175 640.922 969.281 641.105 969.354 641.306C969.427 641.507 969.467 641.722 969.469 641.938L1015.09 989.384C1015.1 989.8 1014.96 990.195 1014.72 990.486C1014.48 990.776 1014.15 990.939 1013.8 990.94Z" fill="white"/>
<path d="M815.5 642H817.5L859 990.5H857L815.5 642Z" fill="#D9D9D9"/>
<path d="M851 641.5H853L894.5 990.5H892.5L851 641.5Z" fill="#D9D9D9"/>
<path d="M894 641H896L938.5 991H936.5L894 641Z" fill="#D9D9D9"/>
<path d="M937 641H939L981 991H979L937 641Z" fill="#D9D9D9"/>
<path d="M786.25 659L970.714 657L971 659L786.499 661L786.25 659Z" fill="#D9D9D9"/>
<path d="M789 683L973.464 681L973.75 683L789.249 685L789 683Z" fill="#D9D9D9"/>
<path d="M792 707L976.464 705L976.75 707L792.249 709L792 707Z" fill="#D9D9D9"/>
<path d="M794.75 729L980 727L980.286 729L794.999 731L794.75 729Z" fill="#D9D9D9"/>
<path d="M797.336 751L982.714 749L982.999 751L797.585 753L797.336 751Z" fill="#D9D9D9"/>
<path d="M800.836 780L986.575 778L986.861 780L801.085 782L800.836 780Z" fill="#D9D9D9"/>
<path d="M803.5 802L989.461 800L989.747 802L803.749 804L803.5 802Z" fill="#D9D9D9"/>
<path d="M807 831L993.214 829L993.5 831L807.249 833L807 831Z" fill="#D9D9D9"/>
<path d="M810.25 861L997.213 859L997.499 861L810.499 863L810.25 861Z" fill="#D9D9D9"/>
<path d="M814.5 895.5L1002 894L1002.29 896L814.749 897.5L814.5 895.5Z" fill="#D9D9D9"/>
<path d="M818.393 926L1005.71 924L1006 926L818.642 928L818.393 926Z" fill="#D9D9D9"/>
<path d="M822.393 958L1009.71 956L1010 958L822.642 960L822.393 958Z" fill="#D9D9D9"/>
<path d="M789 662H815.133L817 681H790.867L789 662Z" fill="#CADDFF"/>
<path d="M869 754H906.333L909 778H871.667L869 754Z" fill="#5479F7"/>
<path d="M922 834H957.467L960 858H924.533L922 834Z" fill="#5479F7"/>
<path d="M839 806H868.867L871 829H841.133L839 806Z" fill="#5479F7"/>
<path d="M847 864H875.933L878 894H849.067L847 864Z" fill="#CADDFF"/>
<path d="M889 929H927.267L930 956H891.733L889 929Z" fill="#5479F7"/>
<path d="M937 960H973.4L976 990H939.6L937 960Z" fill="#CADDFF"/>
<path d="M905 686H939.533L942 702H907.467L905 686Z" fill="#CADDFF"/>
<path d="M831 733H859L861 749H833L831 733Z" fill="#0048BB"/>
<path d="M858 662H893.467L896 678H860.533L858 662Z" fill="#0048BB"/>
<defs>
<clipPath id="clip0_1813_18006">
<rect width="28" height="28" fill="white" transform="translate(219 265)"/>
</clipPath>
</defs>
</svg>
