<svg xmlns="http://www.w3.org/2000/svg" xmlns:xlink="http://www.w3.org/1999/xlink" width="1080" zoomAndPan="magnify" viewBox="0 0 810 809.999993" height="1080" preserveAspectRatio="xMidYMid meet" version="1.0"><path fill="#caddff" d="M 200.199219 80.664062 C 346.753906 -0.015625 543.09375 83.804688 645.402344 176.722656 C 674.632812 203.269531 745.496094 269.484375 762.230469 375.621094 C 783.019531 507.457031 714.980469 667.25 558.917969 735.605469 C 389.0625 810.003906 199.136719 739.492188 110.246094 625.039062 C 27.113281 518 43.753906 391.964844 49.699219 346.9375 C 56.671875 294.113281 77.414062 148.253906 200.199219 80.664062 " fill-opacity="1" fill-rule="nonzero"/><path fill="#99b9ff" d="M 400.660156 228.054688 C 400.660156 326.878906 320.523438 406.992188 221.675781 406.992188 C 122.828125 406.992188 42.695312 326.878906 42.695312 228.054688 C 42.695312 129.226562 122.828125 49.113281 221.675781 49.113281 C 320.523438 49.113281 400.660156 129.226562 400.660156 228.054688 " fill-opacity="1" fill-rule="nonzero"/><path fill="#000000" d="M 221.679688 408.300781 C 122.265625 408.300781 41.386719 327.441406 41.386719 228.054688 C 41.386719 128.664062 122.265625 47.804688 221.679688 47.804688 C 258.238281 47.804688 293.441406 58.683594 323.480469 79.269531 C 352.816406 99.371094 375.378906 127.34375 388.738281 160.15625 C 389.011719 160.824219 388.691406 161.585938 388.019531 161.855469 C 387.351562 162.128906 386.589844 161.808594 386.316406 161.140625 C 358.9375 93.882812 294.316406 50.421875 221.679688 50.421875 C 123.707031 50.421875 44.003906 130.105469 44.003906 228.054688 C 44.003906 326 123.707031 405.6875 221.679688 405.6875 C 257.652344 405.6875 292.300781 394.996094 321.875 374.765625 C 322.46875 374.359375 323.28125 374.511719 323.691406 375.109375 C 324.097656 375.703125 323.949219 376.519531 323.347656 376.929688 C 293.339844 397.453125 258.179688 408.300781 221.679688 408.300781 " fill-opacity="1" fill-rule="nonzero"/><path fill="#ffffff" d="M 382.835938 228.113281 C 382.835938 317.226562 310.578125 389.460938 221.445312 389.460938 C 132.3125 389.460938 60.058594 317.226562 60.058594 228.113281 C 60.058594 139.003906 132.3125 66.761719 221.445312 66.761719 C 310.578125 66.761719 382.835938 139.003906 382.835938 228.113281 " fill-opacity="1" fill-rule="nonzero"/><path fill="#000000" d="M 349.871094 315.777344 C 349.621094 315.777344 349.367188 315.707031 349.140625 315.554688 C 348.542969 315.152344 348.386719 314.335938 348.789062 313.738281 C 353.414062 306.890625 357.507812 299.628906 360.964844 292.148438 C 361.261719 291.492188 362.039062 291.203125 362.695312 291.507812 C 363.351562 291.804688 363.636719 292.582031 363.335938 293.238281 C 359.828125 300.851562 355.660156 308.242188 350.957031 315.203125 C 350.703125 315.574219 350.292969 315.777344 349.871094 315.777344 " fill-opacity="1" fill-rule="nonzero"/><path fill="#caddff" d="M 351.261719 180.851562 C 331.984375 127.96875 281.242188 90.203125 221.675781 90.203125 C 221.613281 90.203125 221.550781 90.203125 221.488281 90.203125 L 221.675781 225.410156 L 351.261719 180.851562 " fill-opacity="1" fill-rule="nonzero"/><path fill="#5479f7" d="M 230.089844 89.597656 C 230.089844 94.246094 226.324219 98.007812 221.675781 98.007812 C 217.03125 98.007812 213.261719 94.246094 213.261719 89.597656 C 213.261719 84.953125 217.03125 81.191406 221.675781 81.191406 C 226.324219 81.191406 230.089844 84.953125 230.089844 89.597656 " fill-opacity="1" fill-rule="nonzero"/><path fill="#000000" d="M 221.675781 82.496094 C 217.757812 82.496094 214.570312 85.683594 214.570312 89.601562 C 214.570312 93.515625 217.757812 96.703125 221.675781 96.703125 C 225.59375 96.703125 228.78125 93.515625 228.78125 89.601562 C 228.78125 85.683594 225.59375 82.496094 221.675781 82.496094 Z M 221.675781 99.316406 C 216.316406 99.316406 211.957031 94.953125 211.957031 89.601562 C 211.957031 84.238281 216.316406 79.882812 221.675781 79.882812 C 227.035156 79.882812 231.394531 84.238281 231.394531 89.601562 C 231.394531 94.953125 227.035156 99.316406 221.675781 99.316406 " fill-opacity="1" fill-rule="nonzero"/><path fill="#5479f7" d="M 230.089844 366.511719 C 230.089844 371.15625 226.324219 374.921875 221.675781 374.921875 C 217.03125 374.921875 213.265625 371.15625 213.265625 366.511719 C 213.265625 361.867188 217.03125 358.101562 221.675781 358.101562 C 226.324219 358.101562 230.089844 361.867188 230.089844 366.511719 " fill-opacity="1" fill-rule="nonzero"/><path fill="#000000" d="M 221.675781 359.410156 C 217.757812 359.410156 214.570312 362.59375 214.570312 366.511719 C 214.570312 370.429688 217.757812 373.613281 221.675781 373.613281 C 225.59375 373.613281 228.78125 370.429688 228.78125 366.511719 C 228.78125 362.59375 225.59375 359.410156 221.675781 359.410156 Z M 221.675781 376.230469 C 216.320312 376.230469 211.957031 371.867188 211.957031 366.511719 C 211.957031 361.152344 216.320312 356.792969 221.675781 356.792969 C 227.035156 356.792969 231.394531 361.152344 231.394531 366.511719 C 231.394531 371.867188 227.035156 376.230469 221.675781 376.230469 " fill-opacity="1" fill-rule="nonzero"/><path fill="#5479f7" d="M 83.1875 219.640625 C 87.835938 219.640625 91.601562 223.410156 91.601562 228.050781 C 91.601562 232.695312 87.835938 236.460938 83.1875 236.460938 C 78.542969 236.460938 74.777344 232.695312 74.777344 228.050781 C 74.777344 223.410156 78.542969 219.640625 83.1875 219.640625 " fill-opacity="1" fill-rule="nonzero"/><path fill="#000000" d="M 83.1875 220.953125 C 79.269531 220.953125 76.082031 224.136719 76.082031 228.054688 C 76.082031 231.972656 79.269531 235.15625 83.1875 235.15625 C 87.105469 235.15625 90.292969 231.972656 90.292969 228.054688 C 90.292969 224.136719 87.105469 220.953125 83.1875 220.953125 Z M 83.1875 237.773438 C 77.828125 237.773438 73.46875 233.417969 73.46875 228.054688 C 73.46875 222.699219 77.828125 218.339844 83.1875 218.339844 C 88.546875 218.339844 92.90625 222.699219 92.90625 228.054688 C 92.90625 233.417969 88.546875 237.773438 83.1875 237.773438 " fill-opacity="1" fill-rule="nonzero"/><path fill="#5479f7" d="M 360.167969 219.640625 C 364.8125 219.640625 368.582031 223.410156 368.582031 228.050781 C 368.582031 232.695312 364.8125 236.460938 360.167969 236.460938 C 355.519531 236.460938 351.753906 232.695312 351.753906 228.050781 C 351.753906 223.410156 355.519531 219.640625 360.167969 219.640625 " fill-opacity="1" fill-rule="nonzero"/><path fill="#000000" d="M 360.167969 220.953125 C 356.242188 220.953125 353.058594 224.136719 353.058594 228.054688 C 353.058594 231.972656 356.242188 235.15625 360.167969 235.15625 C 364.082031 235.15625 367.265625 231.972656 367.265625 228.054688 C 367.265625 224.136719 364.082031 220.953125 360.167969 220.953125 Z M 360.167969 237.773438 C 354.804688 237.773438 350.441406 233.417969 350.441406 228.054688 C 350.441406 222.699219 354.804688 218.339844 360.167969 218.339844 C 365.523438 218.339844 369.882812 222.699219 369.882812 228.054688 C 369.882812 233.417969 365.523438 237.773438 360.167969 237.773438 " fill-opacity="1" fill-rule="nonzero"/><path fill="#99b9ff" d="M 156.308594 105.910156 C 157.546875 108.046875 156.8125 110.785156 154.671875 112.023438 C 152.53125 113.257812 149.792969 112.523438 148.554688 110.382812 C 147.320312 108.246094 148.050781 105.507812 150.195312 104.269531 C 152.335938 103.035156 155.074219 103.769531 156.308594 105.910156 " fill-opacity="1" fill-rule="nonzero"/><path fill="#99b9ff" d="M 99.503906 293.40625 C 101.644531 292.171875 104.382812 292.902344 105.617188 295.046875 C 106.855469 297.1875 106.121094 299.921875 103.980469 301.15625 C 101.839844 302.394531 99.101562 301.660156 97.863281 299.519531 C 96.628906 297.378906 97.363281 294.640625 99.503906 293.40625 " fill-opacity="1" fill-rule="nonzero"/><path fill="#99b9ff" d="M 339.375 154.945312 C 341.515625 153.710938 344.253906 154.445312 345.492188 156.585938 C 346.726562 158.726562 345.992188 161.460938 343.851562 162.699219 C 341.710938 163.933594 338.972656 163.199219 337.734375 161.0625 C 336.5 158.917969 337.234375 156.183594 339.375 154.945312 " fill-opacity="1" fill-rule="nonzero"/><path fill="#99b9ff" d="M 103.980469 154.945312 C 106.121094 156.183594 106.855469 158.917969 105.621094 161.0625 C 104.382812 163.199219 101.648438 163.933594 99.503906 162.699219 C 97.363281 161.460938 96.628906 158.726562 97.863281 156.585938 C 99.101562 154.445312 101.839844 153.710938 103.980469 154.945312 " fill-opacity="1" fill-rule="nonzero"/><path fill="#99b9ff" d="M 343.851562 293.40625 C 345.992188 294.640625 346.722656 297.378906 345.488281 299.519531 C 344.25 301.660156 341.511719 302.394531 339.371094 301.15625 C 337.230469 299.921875 336.5 297.1875 337.734375 295.046875 C 338.972656 292.902344 341.710938 292.171875 343.851562 293.40625 " fill-opacity="1" fill-rule="nonzero"/><path fill="#99b9ff" d="M 148.554688 345.722656 C 149.792969 343.582031 152.53125 342.847656 154.671875 344.085938 C 156.8125 345.320312 157.546875 348.058594 156.308594 350.203125 C 155.074219 352.339844 152.335938 353.070312 150.195312 351.839844 C 148.050781 350.601562 147.320312 347.863281 148.554688 345.722656 " fill-opacity="1" fill-rule="nonzero"/><path fill="#99b9ff" d="M 287.046875 105.910156 C 288.28125 103.769531 291.019531 103.035156 293.160156 104.269531 C 295.300781 105.507812 296.035156 108.246094 294.796875 110.382812 C 293.5625 112.523438 290.824219 113.257812 288.683594 112.023438 C 286.542969 110.785156 285.808594 108.046875 287.046875 105.910156 " fill-opacity="1" fill-rule="nonzero"/><path fill="#99b9ff" d="M 287.046875 347.8125 C 288.28125 345.671875 291.019531 344.941406 293.160156 346.175781 C 295.300781 347.414062 296.035156 350.148438 294.796875 352.289062 C 293.5625 354.429688 290.824219 355.160156 288.683594 353.925781 C 286.542969 352.6875 285.808594 349.949219 287.046875 347.8125 " fill-opacity="1" fill-rule="nonzero"/><path fill="#99b9ff" d="M 262.753906 198.402344 C 233.695312 229.84375 222.324219 235.539062 218.261719 231.789062 C 214.199219 228.039062 218.988281 216.25 248.046875 184.808594 C 268.816406 162.339844 298.441406 137.824219 313.652344 125.671875 C 315.972656 123.8125 318.226562 125.894531 316.558594 128.355469 C 305.636719 144.472656 283.527344 175.925781 262.753906 198.402344 " fill-opacity="1" fill-rule="nonzero"/><path fill="#000000" d="M 315.429688 126.261719 C 315.1875 126.261719 314.84375 126.386719 314.46875 126.6875 C 298.859375 139.164062 269.601562 163.417969 249.007812 185.699219 C 217.464844 219.824219 216.761719 228.621094 219.148438 230.828125 C 221.535156 233.03125 230.25 231.640625 261.796875 197.511719 C 282.386719 175.238281 304.265625 144.160156 315.476562 127.617188 C 315.886719 127.015625 315.90625 126.527344 315.714844 126.351562 C 315.652344 126.292969 315.550781 126.261719 315.429688 126.261719 Z M 221.054688 234.171875 C 219.40625 234.171875 218.261719 233.570312 217.375 232.75 C 213.503906 229.171875 213.382812 220.394531 247.085938 183.921875 C 267.796875 161.519531 297.171875 137.167969 312.835938 124.648438 C 314.648438 123.199219 316.472656 123.496094 317.488281 124.429688 C 318.5 125.367188 318.9375 127.167969 317.640625 129.085938 C 306.390625 145.6875 284.421875 176.886719 263.714844 199.289062 L 262.757812 198.398438 L 263.714844 199.289062 C 237.746094 227.382812 226.582031 234.171875 221.054688 234.171875 " fill-opacity="1" fill-rule="nonzero"/><path fill="#99b9ff" d="M 203.882812 187.019531 C 222.769531 206.632812 223.921875 216.027344 218.871094 220.890625 C 213.816406 225.753906 204.46875 224.238281 185.585938 204.625 C 172.089844 190.601562 159.953125 168.644531 154.128906 157.261719 C 153.242188 155.523438 156.042969 152.828125 157.746094 153.785156 C 168.902344 160.03125 190.386719 172.996094 203.882812 187.019531 " fill-opacity="1" fill-rule="nonzero"/><path fill="#000000" d="M 156.957031 154.886719 C 156.695312 154.886719 156.257812 155.082031 155.875 155.453125 C 155.398438 155.910156 155.1875 156.460938 155.292969 156.664062 C 161.25 168.308594 173.226562 189.902344 186.527344 203.714844 C 201.941406 219.726562 212.515625 225.1875 217.964844 219.949219 C 220.390625 217.617188 220.769531 214.34375 219.128906 209.941406 C 217.023438 204.304688 211.578125 196.894531 202.941406 187.921875 C 189.640625 174.109375 168.515625 161.316406 157.105469 154.917969 C 157.070312 154.898438 157.015625 154.886719 156.957031 154.886719 Z M 213.113281 224.523438 C 206.277344 224.527344 196.875 218.234375 184.644531 205.527344 C 171.109375 191.46875 158.988281 169.625 152.96875 157.855469 C 152.292969 156.539062 152.722656 154.855469 154.058594 153.570312 C 155.398438 152.28125 157.097656 151.917969 158.386719 152.640625 C 169.921875 159.105469 191.292969 172.050781 204.828125 186.109375 C 213.839844 195.46875 219.316406 202.96875 221.578125 209.03125 C 223.59375 214.4375 222.988281 218.742188 219.777344 221.832031 C 217.914062 223.625 215.695312 224.523438 213.113281 224.523438 " fill-opacity="1" fill-rule="nonzero"/><path fill="#99b9ff" d="M 231.476562 210.605469 C 240.066406 215.421875 243.121094 226.289062 238.304688 234.875 C 233.484375 243.464844 222.617188 246.515625 214.027344 241.703125 C 205.4375 236.886719 202.378906 226.015625 207.199219 217.433594 C 212.015625 208.84375 222.886719 205.785156 231.476562 210.605469 " fill-opacity="1" fill-rule="nonzero"/><path fill="#000000" d="M 222.777344 209.625 C 221.273438 209.625 219.761719 209.832031 218.277344 210.246094 C 214.027344 211.445312 210.5 214.222656 208.335938 218.070312 C 203.878906 226.015625 206.71875 236.105469 214.664062 240.5625 C 218.515625 242.722656 222.976562 243.253906 227.226562 242.054688 C 231.476562 240.863281 235.003906 238.085938 237.164062 234.238281 C 239.324219 230.390625 239.855469 225.925781 238.660156 221.679688 C 237.464844 217.429688 234.6875 213.902344 230.835938 211.746094 C 228.332031 210.335938 225.570312 209.625 222.777344 209.625 Z M 222.722656 245.300781 C 219.484375 245.300781 216.289062 244.46875 213.386719 242.839844 C 204.183594 237.679688 200.894531 225.992188 206.058594 216.789062 C 208.558594 212.332031 212.644531 209.113281 217.570312 207.734375 C 222.492188 206.347656 227.65625 206.964844 232.117188 209.460938 C 236.574219 211.964844 239.792969 216.050781 241.175781 220.96875 C 242.558594 225.890625 241.945312 231.058594 239.445312 235.515625 C 236.941406 239.976562 232.855469 243.1875 227.933594 244.574219 C 226.210938 245.058594 224.460938 245.296875 222.722656 245.300781 " fill-opacity="1" fill-rule="nonzero"/><path fill="#ffffff" d="M 650.945312 769.378906 L 608.78125 769.378906 L 608.78125 251.210938 L 650.523438 248.265625 L 650.945312 769.378906 " fill-opacity="1" fill-rule="nonzero"/><path fill="#000000" d="M 610.085938 768.074219 L 649.632812 768.074219 L 649.214844 249.671875 L 610.085938 252.433594 Z M 650.941406 770.6875 L 608.78125 770.6875 C 608.058594 770.6875 607.472656 770.101562 607.472656 769.378906 L 607.472656 251.210938 C 607.472656 250.527344 608.003906 249.957031 608.6875 249.910156 L 650.429688 246.964844 C 650.789062 246.945312 651.148438 247.066406 651.414062 247.3125 C 651.671875 247.558594 651.828125 247.90625 651.828125 248.269531 L 652.25 769.378906 C 652.25 769.726562 652.109375 770.058594 651.871094 770.304688 C 651.625 770.546875 651.292969 770.6875 650.941406 770.6875 " fill-opacity="1" fill-rule="nonzero"/><path fill="#99b9ff" d="M 763.996094 769.378906 L 650.941406 769.378906 C 650.710938 769.378906 650.523438 769.117188 650.523438 768.789062 L 650.523438 248.878906 C 650.523438 248.542969 650.722656 248.277344 650.957031 248.289062 L 764.011719 254.257812 C 764.238281 254.269531 764.421875 254.527344 764.421875 254.84375 L 764.421875 768.789062 C 764.421875 769.117188 764.230469 769.378906 763.996094 769.378906 " fill-opacity="1" fill-rule="nonzero"/><path fill="#000000" d="M 651.832031 768.070312 L 763.113281 768.070312 L 763.113281 255.515625 L 651.832031 249.644531 Z M 764 770.6875 L 650.949219 770.6875 C 649.976562 770.6875 649.222656 769.851562 649.222656 768.789062 L 649.222656 248.875 C 649.222656 248.320312 649.4375 247.800781 649.808594 247.441406 C 650.148438 247.121094 650.578125 246.964844 651.027344 246.980469 L 764.085938 252.945312 C 765.011719 253 765.730469 253.828125 765.730469 254.839844 L 765.730469 768.789062 C 765.730469 769.851562 764.96875 770.6875 764 770.6875 " fill-opacity="1" fill-rule="nonzero"/><path fill="#caddff" d="M 726.890625 499.042969 C 726.167969 499.042969 725.582031 498.457031 725.582031 497.734375 L 725.582031 287.308594 C 725.582031 286.589844 726.167969 286.003906 726.890625 286.003906 C 727.609375 286.003906 728.199219 286.589844 728.199219 287.308594 L 728.199219 497.734375 C 728.199219 498.457031 727.609375 499.042969 726.890625 499.042969 " fill-opacity="1" fill-rule="nonzero"/><path fill="#caddff" d="M 691.125 424.058594 C 690.40625 424.058594 689.824219 423.472656 689.824219 422.75 L 689.824219 360.675781 C 689.824219 359.953125 690.40625 359.367188 691.125 359.367188 C 691.851562 359.367188 692.4375 359.953125 692.4375 360.675781 L 692.4375 422.75 C 692.4375 423.472656 691.851562 424.058594 691.125 424.058594 " fill-opacity="1" fill-rule="nonzero"/><path fill="#caddff" d="M 691.125 636.921875 C 690.40625 636.921875 689.824219 636.335938 689.824219 635.613281 L 689.824219 528.492188 C 689.824219 527.773438 690.40625 527.1875 691.125 527.1875 C 691.851562 527.1875 692.4375 527.773438 692.4375 528.492188 L 692.4375 635.613281 C 692.4375 636.335938 691.851562 636.921875 691.125 636.921875 " fill-opacity="1" fill-rule="nonzero"/><path fill="#ffffff" d="M 508.769531 769.4375 L 466.800781 769.4375 L 466.800781 382.597656 L 508.539062 369.414062 L 508.769531 769.4375 " fill-opacity="1" fill-rule="nonzero"/><path fill="#000000" d="M 468.105469 768.132812 L 507.460938 768.132812 L 507.234375 371.195312 L 468.105469 383.554688 Z M 508.769531 770.746094 L 466.800781 770.746094 C 466.082031 770.746094 465.492188 770.160156 465.492188 769.441406 L 465.492188 382.597656 C 465.492188 382.027344 465.863281 381.519531 466.402344 381.351562 L 508.144531 368.167969 C 508.542969 368.042969 508.976562 368.117188 509.3125 368.359375 C 509.648438 368.605469 509.84375 368.996094 509.84375 369.414062 L 510.074219 769.4375 C 510.074219 769.785156 509.941406 770.117188 509.691406 770.363281 C 509.449219 770.605469 509.117188 770.746094 508.769531 770.746094 " fill-opacity="1" fill-rule="nonzero"/><path fill="#99b9ff" d="M 622.019531 769.4375 L 508.964844 769.4375 C 508.730469 769.4375 508.539062 769.234375 508.539062 768.984375 L 508.539062 369.882812 C 508.539062 369.625 508.738281 369.417969 508.984375 369.433594 L 622.035156 374.015625 C 622.257812 374.019531 622.441406 374.21875 622.441406 374.464844 L 622.441406 768.984375 C 622.441406 769.234375 622.253906 769.4375 622.019531 769.4375 " fill-opacity="1" fill-rule="nonzero"/><path fill="#000000" d="M 509.84375 768.132812 L 621.128906 768.132812 L 621.128906 375.285156 L 509.84375 370.773438 Z M 622.011719 770.746094 L 508.960938 770.746094 C 508.007812 770.746094 507.234375 769.953125 507.234375 768.984375 L 507.234375 369.882812 C 507.234375 369.402344 507.425781 368.9375 507.773438 368.609375 C 508.105469 368.28125 508.566406 368.113281 509.03125 368.128906 L 622.085938 372.707031 C 623.015625 372.746094 623.746094 373.515625 623.746094 374.464844 L 623.746094 768.984375 C 623.746094 769.953125 622.96875 770.746094 622.011719 770.746094 " fill-opacity="1" fill-rule="nonzero"/><path fill="#caddff" d="M 565.511719 578.824219 C 564.789062 578.824219 564.203125 578.238281 564.203125 577.515625 L 564.203125 400.324219 C 564.203125 399.597656 564.789062 399.015625 565.511719 399.015625 C 566.234375 399.015625 566.820312 399.597656 566.820312 400.324219 L 566.820312 577.515625 C 566.820312 578.238281 566.234375 578.824219 565.511719 578.824219 " fill-opacity="1" fill-rule="nonzero"/><path fill="#caddff" d="M 535.667969 459.445312 C 534.945312 459.445312 534.359375 458.863281 534.359375 458.140625 L 534.359375 427.933594 C 534.359375 427.214844 534.945312 426.628906 535.667969 426.628906 C 536.386719 426.628906 536.972656 427.214844 536.972656 427.933594 L 536.972656 458.140625 C 536.972656 458.863281 536.386719 459.445312 535.667969 459.445312 " fill-opacity="1" fill-rule="nonzero"/><path fill="#caddff" d="M 535.667969 659.847656 C 534.945312 659.847656 534.359375 659.261719 534.359375 658.539062 L 534.359375 508.09375 C 534.359375 507.371094 534.945312 506.789062 535.667969 506.789062 C 536.386719 506.789062 536.972656 507.371094 536.972656 508.09375 L 536.972656 658.539062 C 536.972656 659.261719 536.386719 659.847656 535.667969 659.847656 " fill-opacity="1" fill-rule="nonzero"/><path fill="#caddff" d="M 595.359375 518.992188 C 594.644531 518.992188 594.058594 518.40625 594.058594 517.6875 L 594.058594 487.480469 C 594.058594 486.757812 594.644531 486.171875 595.359375 486.171875 C 596.082031 486.171875 596.671875 486.757812 596.671875 487.480469 L 596.671875 517.6875 C 596.671875 518.40625 596.082031 518.992188 595.359375 518.992188 " fill-opacity="1" fill-rule="nonzero"/><path fill="#ffffff" d="M 367.589844 769.4375 L 325.851562 769.4375 L 325.851562 547.105469 L 367.589844 537.953125 L 367.589844 769.4375 " fill-opacity="1" fill-rule="nonzero"/><path fill="#000000" d="M 327.15625 768.132812 L 366.285156 768.132812 L 366.285156 539.578125 L 327.15625 548.15625 Z M 367.589844 770.746094 L 325.851562 770.746094 C 325.125 770.746094 324.542969 770.160156 324.542969 769.441406 L 324.542969 547.105469 C 324.542969 546.492188 324.96875 545.957031 325.570312 545.828125 L 367.308594 536.675781 C 367.695312 536.589844 368.101562 536.6875 368.410156 536.933594 C 368.714844 537.183594 368.894531 537.554688 368.894531 537.953125 L 368.894531 769.441406 C 368.894531 770.160156 368.3125 770.746094 367.589844 770.746094 " fill-opacity="1" fill-rule="nonzero"/><path fill="#99b9ff" d="M 481.492188 769.4375 L 367.589844 769.4375 L 367.589844 538.4375 C 367.589844 538.171875 367.8125 537.960938 368.078125 537.972656 L 481.492188 541.769531 L 481.492188 769.4375 " fill-opacity="1" fill-rule="nonzero"/><path fill="#000000" d="M 368.894531 768.132812 L 480.179688 768.132812 L 480.179688 543.03125 L 368.894531 539.304688 Z M 482.796875 770.746094 L 366.285156 770.746094 L 366.285156 538.4375 C 366.285156 537.960938 366.480469 537.492188 366.820312 537.160156 C 367.171875 536.828125 367.632812 536.636719 368.121094 536.660156 L 482.796875 540.503906 L 482.796875 770.746094 " fill-opacity="1" fill-rule="nonzero"/><path fill="#caddff" d="M 397.867188 704.832031 C 397.144531 704.832031 396.558594 704.246094 396.558594 703.527344 L 396.558594 565.613281 C 396.558594 564.890625 397.144531 564.304688 397.867188 564.304688 C 398.585938 564.304688 399.171875 564.890625 399.171875 565.613281 L 399.171875 703.527344 C 399.171875 704.246094 398.585938 704.832031 397.867188 704.832031 " fill-opacity="1" fill-rule="nonzero"/><path fill="#caddff" d="M 457.5625 720.960938 C 456.84375 720.960938 456.257812 720.378906 456.257812 719.65625 L 456.257812 581.742188 C 456.257812 581.023438 456.84375 580.4375 457.5625 580.4375 C 458.28125 580.4375 458.867188 581.023438 458.867188 581.742188 L 458.867188 719.65625 C 458.867188 720.378906 458.28125 720.960938 457.5625 720.960938 " fill-opacity="1" fill-rule="nonzero"/><path fill="#caddff" d="M 427.714844 666.925781 C 426.992188 666.925781 426.40625 666.34375 426.40625 665.621094 L 426.40625 637.390625 C 426.40625 636.671875 426.992188 636.085938 427.714844 636.085938 C 428.433594 636.085938 429.019531 636.671875 429.019531 637.390625 L 429.019531 665.621094 C 429.019531 666.34375 428.433594 666.925781 427.714844 666.925781 " fill-opacity="1" fill-rule="nonzero"/><path fill="#ffffff" d="M 227.21875 769.4375 L 185.082031 769.4375 L 185.082031 659.167969 L 226.820312 650.9375 L 227.21875 769.4375 " fill-opacity="1" fill-rule="nonzero"/><path fill="#000000" d="M 186.386719 768.132812 L 225.90625 768.132812 L 225.519531 652.527344 L 186.386719 660.242188 Z M 227.21875 770.746094 L 185.082031 770.746094 C 184.359375 770.746094 183.773438 770.160156 183.773438 769.441406 L 183.773438 659.167969 C 183.773438 658.546875 184.214844 658.007812 184.828125 657.882812 L 226.566406 649.65625 C 226.953125 649.582031 227.347656 649.679688 227.648438 649.929688 C 227.953125 650.175781 228.128906 650.542969 228.128906 650.9375 L 228.527344 769.433594 C 228.527344 769.78125 228.390625 770.117188 228.144531 770.363281 C 227.898438 770.605469 227.566406 770.746094 227.21875 770.746094 " fill-opacity="1" fill-rule="nonzero"/><path fill="#99b9ff" d="M 340.320312 769.4375 L 227.21875 769.4375 C 227 769.4375 226.820312 769.261719 226.820312 769.042969 L 226.820312 651.34375 C 226.820312 651.121094 227.003906 650.945312 227.226562 650.945312 L 340.328125 652.789062 C 340.546875 652.792969 340.722656 652.972656 340.722656 653.191406 L 340.722656 769.042969 C 340.722656 769.261719 340.542969 769.4375 340.320312 769.4375 " fill-opacity="1" fill-rule="nonzero"/><path fill="#000000" d="M 228.128906 768.132812 L 339.414062 768.132812 L 339.414062 654.082031 L 228.128906 652.265625 Z M 340.320312 770.746094 L 227.21875 770.746094 C 226.277344 770.746094 225.515625 769.984375 225.515625 769.042969 L 225.515625 651.34375 C 225.515625 650.882812 225.695312 650.453125 226.023438 650.128906 C 226.351562 649.808594 226.792969 649.648438 227.246094 649.636719 L 340.347656 651.484375 C 341.273438 651.5 342.027344 652.265625 342.027344 653.191406 L 342.027344 769.042969 C 342.027344 769.984375 341.265625 770.746094 340.320312 770.746094 " fill-opacity="1" fill-rule="nonzero"/><path fill="#caddff" d="M 306.296875 742.738281 C 305.574219 742.738281 304.992188 742.15625 304.992188 741.433594 L 304.992188 671.265625 C 304.992188 670.542969 305.574219 669.960938 306.296875 669.960938 C 307.023438 669.960938 307.601562 670.542969 307.601562 671.265625 L 307.601562 741.433594 C 307.601562 742.15625 307.023438 742.738281 306.296875 742.738281 " fill-opacity="1" fill-rule="nonzero"/><path fill="#caddff" d="M 270.535156 717.738281 C 269.8125 717.738281 269.226562 717.152344 269.226562 716.429688 L 269.226562 695.730469 C 269.226562 695.007812 269.8125 694.421875 270.535156 694.421875 C 271.257812 694.421875 271.839844 695.007812 271.839844 695.730469 L 271.839844 716.429688 C 271.839844 717.152344 271.257812 717.738281 270.535156 717.738281 " fill-opacity="1" fill-rule="nonzero"/><path fill="#ffffff" d="M 86.785156 769.4375 L 44.648438 769.4375 L 44.648438 711.691406 L 86.390625 704.648438 L 86.785156 769.4375 " fill-opacity="1" fill-rule="nonzero"/><path fill="#000000" d="M 45.957031 768.132812 L 85.472656 768.132812 L 85.09375 706.191406 L 45.957031 712.792969 Z M 86.785156 770.746094 L 44.648438 770.746094 C 43.929688 770.746094 43.34375 770.160156 43.34375 769.441406 L 43.34375 711.691406 C 43.34375 711.054688 43.804688 710.507812 44.433594 710.402344 L 86.171875 703.359375 C 86.550781 703.292969 86.9375 703.398438 87.230469 703.644531 C 87.527344 703.894531 87.695312 704.253906 87.699219 704.640625 L 88.09375 769.429688 C 88.097656 769.777344 87.960938 770.113281 87.714844 770.359375 C 87.46875 770.605469 87.136719 770.746094 86.785156 770.746094 " fill-opacity="1" fill-rule="nonzero"/><path fill="#99b9ff" d="M 199.890625 769.4375 L 86.785156 769.4375 C 86.570312 769.4375 86.390625 769.339844 86.390625 769.222656 L 86.390625 704.867188 C 86.390625 704.75 86.574219 704.648438 86.792969 704.648438 L 199.898438 705.660156 C 200.117188 705.664062 200.289062 705.757812 200.289062 705.875 L 200.289062 769.222656 C 200.289062 769.339844 200.109375 769.4375 199.890625 769.4375 " fill-opacity="1" fill-rule="nonzero"/><path fill="#000000" d="M 87.699219 768.132812 L 198.980469 768.132812 L 198.980469 706.960938 L 87.699219 705.96875 Z M 199.890625 770.746094 L 86.785156 770.746094 C 85.832031 770.746094 85.085938 770.078125 85.085938 769.222656 L 85.085938 704.867188 C 85.085938 704.480469 85.238281 704.113281 85.519531 703.835938 C 85.839844 703.519531 86.324219 703.359375 86.804688 703.34375 L 199.910156 704.351562 C 200.871094 704.359375 201.597656 705.015625 201.597656 705.875 L 201.597656 769.222656 C 201.597656 770.078125 200.847656 770.746094 199.890625 770.746094 " fill-opacity="1" fill-rule="nonzero"/><path fill="#caddff" d="M 165.867188 755.433594 C 165.144531 755.433594 164.558594 754.847656 164.558594 754.125 L 164.558594 715.761719 C 164.558594 715.039062 165.144531 714.457031 165.867188 714.457031 C 166.589844 714.457031 167.175781 715.039062 167.175781 715.761719 L 167.175781 754.125 C 167.175781 754.847656 166.589844 755.433594 165.867188 755.433594 " fill-opacity="1" fill-rule="nonzero"/><path fill="#caddff" d="M 130.101562 741.765625 C 129.378906 741.765625 128.796875 741.179688 128.796875 740.453125 L 128.796875 729.136719 C 128.796875 728.414062 129.378906 727.828125 130.101562 727.828125 C 130.824219 727.828125 131.410156 728.414062 131.410156 729.136719 L 131.410156 740.453125 C 131.410156 741.179688 130.824219 741.765625 130.101562 741.765625 " fill-opacity="1" fill-rule="nonzero"/><path fill="#ffffff" d="M 450.1875 477.652344 C 447.765625 475.929688 429.421875 441 429.421875 441 L 408.835938 461.863281 L 442.605469 490.890625 L 450.1875 477.652344 " fill-opacity="1" fill-rule="nonzero"/><path fill="#000000" d="M 410.746094 461.785156 L 442.257812 488.863281 L 448.597656 477.804688 C 444.914062 472.96875 433.753906 452.027344 429.097656 443.191406 Z M 442.605469 492.195312 C 442.296875 492.195312 441.992188 492.082031 441.757812 491.878906 L 407.980469 462.855469 C 407.707031 462.621094 407.542969 462.277344 407.527344 461.917969 C 407.515625 461.554688 407.648438 461.203125 407.90625 460.945312 L 428.492188 440.082031 C 428.78125 439.785156 429.199219 439.644531 429.613281 439.710938 C 430.023438 439.769531 430.386719 440.019531 430.578125 440.394531 C 437.5 453.570312 449.148438 475.050781 450.964844 476.605469 C 451.515625 476.996094 451.65625 477.722656 451.324219 478.304688 L 443.742188 491.539062 C 443.546875 491.875 443.210938 492.113281 442.828125 492.175781 C 442.757812 492.1875 442.683594 492.195312 442.605469 492.195312 " fill-opacity="1" fill-rule="nonzero"/><path fill="#ffffff" d="M 354.121094 497.761719 L 330.375 529.039062 L 315.101562 525.652344 L 335.664062 486.960938 L 354.121094 497.761719 " fill-opacity="1" fill-rule="nonzero"/><path fill="#000000" d="M 317.0625 524.746094 L 329.84375 527.578125 L 352.191406 498.148438 L 336.179688 488.777344 Z M 330.375 530.34375 C 330.285156 530.34375 330.191406 530.335938 330.09375 530.3125 L 314.820312 526.925781 C 314.417969 526.839844 314.085938 526.570312 313.914062 526.199219 C 313.742188 525.828125 313.753906 525.402344 313.949219 525.039062 L 334.511719 486.347656 C 334.675781 486.03125 334.964844 485.796875 335.308594 485.703125 C 335.648438 485.605469 336.019531 485.652344 336.328125 485.832031 L 354.78125 496.636719 C 355.105469 496.824219 355.332031 497.140625 355.402344 497.511719 C 355.480469 497.875 355.390625 498.257812 355.164062 498.554688 L 331.417969 529.824219 C 331.167969 530.160156 330.78125 530.34375 330.375 530.34375 " fill-opacity="1" fill-rule="nonzero"/><path fill="#000000" d="M 499.328125 305.777344 C 499.328125 305.777344 373.042969 291.429688 335.054688 323.625 C 292.1875 359.964844 419.464844 476.078125 419.464844 476.078125 L 441.292969 454.335938 L 396.070312 374.53125 L 513.117188 341.300781 L 499.328125 305.777344 " fill-opacity="1" fill-rule="nonzero"/><path fill="#000000" d="M 569.011719 370.269531 C 550.621094 376.109375 517.710938 383.65625 471.710938 383.027344 C 458.648438 382.847656 444.921875 391.085938 438.988281 402.726562 C 425.359375 429.441406 398.4375 469.816406 350.40625 508.527344 L 326.554688 495.332031 L 385.109375 363.558594 C 390.453125 351.527344 400.449219 342.175781 412.8125 337.640625 L 528.859375 295.097656 C 528.859375 295.097656 564.84375 285.046875 582.484375 317.160156 C 585.632812 322.894531 591.484375 312.640625 592.878906 317.269531 C 597.652344 333.132812 584.8125 365.261719 569.011719 370.269531 " fill-opacity="1" fill-rule="nonzero"/><path fill="#caddff" d="M 357.183594 424.515625 C 357 424.515625 356.820312 424.480469 356.648438 424.402344 C 355.984375 424.101562 355.699219 423.328125 355.996094 422.671875 L 383.042969 363.015625 C 388.3125 351.164062 399.273438 341.214844 412.363281 336.414062 L 467.941406 316.042969 C 468.617188 315.792969 469.367188 316.140625 469.613281 316.816406 C 469.863281 317.496094 469.515625 318.246094 468.835938 318.496094 L 413.265625 338.867188 C 400.828125 343.429688 390.421875 352.855469 385.429688 364.089844 L 358.375 423.75 C 358.15625 424.230469 357.683594 424.515625 357.183594 424.515625 " fill-opacity="1" fill-rule="nonzero"/><path fill="#caddff" d="M 397.777344 466.621094 C 397.472656 466.621094 397.167969 466.519531 396.917969 466.300781 C 396.371094 465.832031 396.316406 465.003906 396.789062 464.457031 C 404.546875 455.53125 412.347656 445.289062 420.640625 433.152344 C 421.050781 432.558594 421.863281 432.402344 422.457031 432.808594 C 423.054688 433.21875 423.207031 434.03125 422.800781 434.625 C 414.449219 446.847656 406.589844 457.164062 398.761719 466.175781 C 398.503906 466.472656 398.140625 466.621094 397.777344 466.621094 " fill-opacity="1" fill-rule="nonzero"/><path fill="#5479f7" d="M 341.28125 520.519531 C 342.367188 524.417969 344.664062 535.410156 345.625 542.019531 C 346.230469 546.167969 343.605469 550.09375 339.59375 551.183594 C 328.246094 554.246094 301.125 554.117188 278.546875 555.113281 C 276.996094 555.179688 274.148438 554.425781 272.882812 550.679688 C 268.585938 537.976562 292.316406 534.042969 315.777344 521.125 C 316.234375 520.871094 316.796875 520.894531 317.226562 521.199219 C 317.492188 521.394531 317.839844 521.628906 318.246094 521.882812 C 322.324219 524.484375 329.105469 524.484375 333.253906 521.996094 L 337.933594 519.179688 C 339.214844 518.40625 340.875 519.070312 341.28125 520.519531 " fill-opacity="1" fill-rule="nonzero"/><path fill="#000000" d="M 316.46875 522.265625 C 309.238281 526.21875 302.027344 529.339844 295.664062 532.09375 C 280.238281 538.773438 271.632812 542.90625 274.117188 550.265625 C 275.304688 553.769531 277.96875 553.832031 278.488281 553.808594 C 284.28125 553.550781 290.445312 553.371094 296.410156 553.191406 C 313.394531 552.6875 330.960938 552.160156 339.25 549.917969 C 342.652344 549 344.835938 545.683594 344.332031 542.210938 C 343.414062 535.878906 341.121094 524.824219 340.023438 520.871094 C 339.9375 520.574219 339.726562 520.34375 339.449219 520.230469 C 339.285156 520.164062 338.957031 520.089844 338.605469 520.300781 L 333.925781 523.113281 C 329.335938 525.875 321.988281 525.816406 317.542969 522.988281 C 317.113281 522.71875 316.75 522.46875 316.46875 522.265625 Z M 278.351562 556.421875 C 276.03125 556.421875 272.976562 555.046875 271.644531 551.097656 C 268.261719 541.109375 279.898438 536.074219 294.628906 529.695312 C 300.933594 526.960938 308.085938 523.871094 315.144531 519.980469 C 316.058594 519.480469 317.144531 519.539062 317.984375 520.136719 C 318.238281 520.316406 318.5625 520.539062 318.945312 520.785156 C 322.574219 523.09375 328.816406 523.132812 332.578125 520.875 L 337.261719 518.058594 C 338.222656 517.480469 339.371094 517.386719 340.414062 517.800781 C 341.460938 518.21875 342.234375 519.078125 342.539062 520.171875 C 343.675781 524.226562 345.960938 535.242188 346.917969 541.835938 C 347.613281 546.617188 344.609375 551.175781 339.933594 552.445312 C 331.347656 554.765625 314.410156 555.265625 296.484375 555.800781 C 290.53125 555.980469 284.375 556.167969 278.601562 556.417969 C 278.519531 556.421875 278.433594 556.421875 278.351562 556.421875 " fill-opacity="1" fill-rule="nonzero"/><path fill="#ffffff" d="M 346.308594 545.015625 C 346.332031 545.128906 346.347656 545.207031 346.351562 545.25 C 346.953125 549.394531 343.011719 551.945312 339.246094 553.714844 C 328.070312 558.957031 282.925781 555.953125 281.179688 555.832031 C 281.144531 555.828125 281.121094 555.828125 281.085938 555.828125 C 280.523438 555.835938 274.792969 555.835938 273.140625 552.277344 C 272.9375 551.835938 272.808594 551.214844 272.734375 550.628906 C 272.605469 549.675781 272.671875 548.710938 272.882812 547.773438 C 273.054688 547.003906 273.804688 546.53125 274.558594 546.71875 C 282.9375 548.863281 302.507812 550.480469 322.054688 548.292969 C 330.714844 547.324219 335.410156 546.472656 343.710938 541.355469 C 344.527344 540.855469 345.585938 541.339844 345.769531 542.285156 C 345.929688 543.078125 346.113281 544.039062 346.308594 545.015625 " fill-opacity="1" fill-rule="nonzero"/><path fill="#000000" d="M 281.109375 554.523438 C 281.167969 554.523438 281.214844 554.523438 281.277344 554.527344 C 297.332031 555.621094 330.007812 556.605469 338.691406 552.53125 C 343.480469 550.28125 345.445312 548.09375 345.058594 545.433594 L 345.027344 545.269531 L 344.488281 542.539062 C 344.484375 542.527344 344.476562 542.488281 344.433594 542.46875 C 336.066406 547.601562 331.234375 548.578125 322.203125 549.59375 C 303.363281 551.699219 283.429688 550.339844 274.234375 547.984375 L 272.882812 547.773438 L 274.15625 548.058594 C 273.972656 548.886719 273.929688 549.699219 274.027344 550.457031 C 274.128906 551.21875 274.257812 551.582031 274.328125 551.726562 C 275.648438 554.570312 280.84375 554.523438 281.066406 554.523438 C 281.082031 554.523438 281.097656 554.523438 281.109375 554.523438 Z M 309.585938 558.125 C 296.347656 558.125 283.601562 557.308594 281.09375 557.136719 C 279.90625 557.160156 273.90625 557.03125 271.957031 552.828125 C 271.71875 552.316406 271.550781 551.65625 271.4375 550.800781 C 271.296875 549.734375 271.351562 548.617188 271.605469 547.484375 C 271.765625 546.773438 272.214844 546.140625 272.832031 545.761719 C 273.449219 545.386719 274.179688 545.277344 274.882812 545.453125 C 283.851562 547.75 303.382812 549.066406 321.910156 546.992188 C 330.730469 546.007812 335.113281 545.117188 343.023438 540.246094 C 343.765625 539.785156 344.679688 539.722656 345.480469 540.070312 C 346.292969 540.425781 346.882812 541.160156 347.050781 542.035156 L 347.589844 544.761719 C 347.621094 544.914062 347.636719 545.019531 347.644531 545.0625 C 348.394531 550.222656 343.527344 553.148438 339.800781 554.898438 C 334.398438 557.433594 321.78125 558.125 309.585938 558.125 " fill-opacity="1" fill-rule="nonzero"/><path fill="#000000" d="M 314.167969 532.699219 C 313.890625 532.699219 313.613281 532.613281 313.375 532.433594 L 306.527344 527.214844 C 305.953125 526.78125 305.84375 525.960938 306.277344 525.386719 C 306.71875 524.808594 307.535156 524.699219 308.109375 525.140625 L 314.957031 530.351562 C 315.53125 530.789062 315.648438 531.609375 315.207031 532.183594 C 314.949219 532.519531 314.558594 532.699219 314.167969 532.699219 " fill-opacity="1" fill-rule="nonzero"/><path fill="#000000" d="M 305.066406 536.429688 C 304.792969 536.429688 304.519531 536.339844 304.28125 536.167969 L 298.292969 531.667969 C 297.714844 531.238281 297.597656 530.417969 298.03125 529.84375 C 298.464844 529.265625 299.285156 529.144531 299.863281 529.582031 L 305.855469 534.074219 C 306.429688 534.511719 306.546875 535.328125 306.117188 535.90625 C 305.859375 536.246094 305.460938 536.429688 305.066406 536.429688 " fill-opacity="1" fill-rule="nonzero"/><path fill="#5479f7" d="M 432.414062 481.707031 L 445.808594 469.957031 L 466.574219 482.792969 C 469.664062 484.734375 470.984375 488.996094 469.460938 492.328125 C 467.464844 496.671875 464.222656 502.746094 459.625 508.390625 C 450.964844 519.03125 446.597656 536.238281 433.949219 537.402344 C 421.300781 538.558594 421.6875 537.789062 419.003906 534.691406 C 416.320312 531.597656 421.300781 518.832031 424.75 510.328125 C 427.566406 503.375 432.414062 481.707031 432.414062 481.707031 " fill-opacity="1" fill-rule="nonzero"/><path fill="#000000" d="M 433.597656 482.40625 C 432.890625 485.535156 428.605469 504.296875 425.960938 510.816406 C 423.921875 515.855469 417.703125 531.195312 419.988281 533.835938 C 420.183594 534.058594 420.359375 534.273438 420.53125 534.472656 C 422.375 536.660156 422.757812 537.117188 433.832031 536.101562 C 441.8125 535.367188 446.359375 527.449219 451.179688 519.066406 C 453.457031 515.105469 455.8125 511.007812 458.613281 507.566406 C 463.183594 501.957031 466.386719 495.890625 468.265625 491.78125 C 469.523438 489.050781 468.449219 485.515625 465.882812 483.898438 L 445.941406 471.574219 Z M 425.835938 539.21875 C 421.539062 539.21875 420.363281 538.335938 418.527344 536.15625 C 418.371094 535.964844 418.199219 535.761719 418.015625 535.550781 C 415.230469 532.34375 418.066406 523.332031 423.539062 509.835938 C 426.28125 503.066406 431.09375 481.632812 431.140625 481.417969 L 431.230469 481.003906 L 445.671875 468.335938 L 467.261719 481.679688 C 470.910156 483.96875 472.425781 488.992188 470.644531 492.875 C 468.699219 497.113281 465.382812 503.390625 460.644531 509.214844 C 457.972656 512.496094 455.675781 516.496094 453.445312 520.371094 C 448.511719 528.960938 443.402344 537.84375 434.070312 538.703125 C 430.429688 539.035156 427.804688 539.21875 425.835938 539.21875 " fill-opacity="1" fill-rule="nonzero"/><path fill="#000000" d="M 437.398438 501.285156 L 427.914062 501.285156 C 427.191406 501.285156 426.605469 500.703125 426.605469 499.980469 C 426.605469 499.257812 427.191406 498.671875 427.914062 498.671875 L 437.398438 498.671875 C 438.121094 498.671875 438.707031 499.257812 438.707031 499.980469 C 438.707031 500.703125 438.121094 501.285156 437.398438 501.285156 " fill-opacity="1" fill-rule="nonzero"/><path fill="#000000" d="M 435.886719 509.335938 L 426.40625 509.335938 C 425.679688 509.335938 425.09375 508.753906 425.09375 508.027344 C 425.09375 507.308594 425.679688 506.722656 426.40625 506.722656 L 435.886719 506.722656 C 436.613281 506.722656 437.199219 507.308594 437.199219 508.027344 C 437.199219 508.753906 436.613281 509.335938 435.886719 509.335938 " fill-opacity="1" fill-rule="nonzero"/><path fill="#ffffff" d="M 421.300781 536.820312 C 421.300781 536.820312 432.226562 537.402344 438.546875 529.277344 C 444.875 521.15625 466.429688 482.574219 466.429688 482.574219 L 470.539062 485.179688 C 472.621094 486.503906 473.335938 489.21875 472.191406 491.414062 C 467.015625 501.324219 452.84375 527.21875 441.996094 535.367188 C 428.484375 545.523438 421.300781 536.820312 421.300781 536.820312 " fill-opacity="1" fill-rule="nonzero"/><path fill="#000000" d="M 424.949219 537.921875 C 427.910156 539.382812 433.347656 540.234375 441.214844 534.324219 C 451.753906 526.402344 465.578125 501.253906 471.035156 490.808594 C 471.859375 489.222656 471.332031 487.238281 469.839844 486.285156 L 466.898438 484.417969 C 463.132812 491.128906 445.335938 522.691406 439.582031 530.078125 C 435.222656 535.679688 428.921875 537.40625 424.949219 537.921875 Z M 429.734375 541.574219 C 423.640625 541.574219 420.34375 537.714844 420.292969 537.65625 C 419.964844 537.25 419.902344 536.695312 420.132812 536.230469 C 420.367188 535.769531 420.832031 535.480469 421.367188 535.515625 C 421.527344 535.527344 431.71875 535.921875 437.519531 528.472656 C 443.707031 520.523438 465.074219 482.320312 465.289062 481.9375 C 465.46875 481.621094 465.765625 481.394531 466.113281 481.308594 C 466.460938 481.21875 466.828125 481.277344 467.132812 481.46875 L 471.238281 484.082031 C 473.875 485.753906 474.800781 489.238281 473.351562 492.019531 C 467.8125 502.621094 453.753906 528.171875 442.785156 536.414062 C 437.582031 540.324219 433.207031 541.574219 429.734375 541.574219 " fill-opacity="1" fill-rule="nonzero"/><path fill="#ffffff" d="M 337.378906 122.292969 L 359.710938 134.34375 C 364.441406 136.894531 368.199219 140.917969 370.457031 145.792969 C 377.230469 160.410156 394.277344 191.886719 416.4375 194.320312 C 440.515625 196.957031 464.378906 169.699219 471.726562 160.464844 C 472.792969 159.117188 474.902344 159.367188 475.628906 160.925781 L 492.664062 197.371094 C 493.015625 198.121094 492.941406 199.003906 492.460938 199.675781 C 487.6875 206.433594 460.742188 241.507812 420.273438 235.148438 C 379.949219 228.816406 366.0625 173.597656 363.714844 162.765625 C 363.496094 161.761719 362.652344 161.007812 361.621094 160.949219 C 358.457031 160.761719 351.746094 159.386719 348.753906 151.648438 C 346.394531 145.546875 346.355469 141.191406 346.546875 139.09375 C 346.632812 138.210938 346.207031 137.375 345.457031 136.917969 C 342.472656 135.109375 335.359375 130.300781 334.023438 124.847656 C 333.550781 122.914062 335.628906 121.34375 337.378906 122.292969 " fill-opacity="1" fill-rule="nonzero"/><path fill="#000000" d="M 336.28125 123.316406 C 335.96875 123.316406 335.738281 123.46875 335.652344 123.535156 C 335.5 123.652344 335.160156 123.984375 335.292969 124.539062 C 336.546875 129.644531 343.90625 134.449219 346.132812 135.796875 C 347.324219 136.519531 347.980469 137.828125 347.851562 139.214844 C 347.667969 141.160156 347.699219 145.304688 349.972656 151.175781 C 352.652344 158.105469 358.46875 159.453125 361.703125 159.640625 C 363.296875 159.738281 364.648438 160.90625 364.992188 162.488281 C 367.339844 173.320312 381.042969 227.660156 420.476562 233.855469 C 460.078125 240.082031 486.5 205.84375 491.398438 198.921875 C 491.597656 198.632812 491.636719 198.246094 491.484375 197.917969 L 474.445312 161.476562 C 474.226562 161.015625 473.816406 160.921875 473.648438 160.90625 C 473.484375 160.878906 473.0625 160.878906 472.742188 161.277344 C 465.800781 170.023438 441.175781 198.34375 416.292969 195.617188 C 393.289062 193.09375 375.746094 160.316406 369.269531 146.339844 C 367.136719 141.734375 363.523438 137.878906 359.09375 135.488281 L 336.761719 123.441406 C 336.589844 123.347656 336.429688 123.316406 336.28125 123.316406 Z M 430.027344 237.222656 C 426.808594 237.222656 423.488281 236.976562 420.074219 236.4375 C 378.953125 229.976562 364.847656 174.167969 362.4375 163.042969 C 362.34375 162.597656 361.976562 162.277344 361.546875 162.253906 C 358.441406 162.070312 350.863281 160.722656 347.535156 152.117188 C 345.070312 145.746094 345.046875 141.144531 345.25 138.96875 C 345.28125 138.585938 345.105469 138.230469 344.777344 138.035156 C 341.644531 136.136719 334.203125 131.078125 332.753906 125.160156 C 332.410156 123.761719 332.910156 122.351562 334.054688 121.464844 C 335.210938 120.574219 336.722656 120.449219 338.003906 121.140625 L 360.332031 133.191406 C 365.257812 135.847656 369.273438 140.125 371.644531 145.242188 C 377.929688 158.8125 394.898438 190.640625 416.582031 193.015625 C 417.628906 193.128906 418.683594 193.1875 419.730469 193.1875 C 442.230469 193.1875 464.257812 167.753906 470.699219 159.652344 C 471.484375 158.664062 472.699219 158.15625 473.957031 158.308594 C 475.210938 158.449219 476.28125 159.222656 476.8125 160.367188 L 493.851562 196.816406 C 494.40625 197.992188 494.277344 199.375 493.53125 200.429688 C 488.902344 206.984375 465.570312 237.222656 430.027344 237.222656 " fill-opacity="1" fill-rule="nonzero"/><path fill="#000000" d="M 364.15625 156.621094 C 362.125 156.621094 358.289062 155.410156 357.195312 150.71875 C 356.585938 148.113281 356.191406 147.742188 353.992188 145.699219 C 353.5625 145.300781 353.070312 144.839844 352.511719 144.304688 C 350.6875 142.550781 350.128906 140.617188 349.855469 139.128906 C 349.609375 137.808594 350.152344 136.511719 351.269531 135.75 C 352.410156 134.96875 353.84375 134.941406 355.003906 135.671875 L 362.867188 140.582031 C 363.480469 140.964844 363.664062 141.769531 363.28125 142.386719 C 362.898438 142.996094 362.089844 143.179688 361.480469 142.796875 L 353.621094 137.890625 C 353.210938 137.628906 352.847656 137.839844 352.742188 137.910156 C 352.59375 138.011719 352.347656 138.246094 352.421875 138.648438 C 352.652344 139.878906 353.042969 141.1875 354.320312 142.417969 C 354.871094 142.941406 355.351562 143.390625 355.773438 143.785156 C 358.089844 145.9375 358.953125 146.746094 359.742188 150.121094 C 360.640625 153.96875 363.878906 154.019531 364.242188 154.003906 C 364.941406 154.007812 365.566406 154.558594 365.585938 155.277344 C 365.605469 155.992188 365.046875 156.589844 364.332031 156.621094 C 364.273438 156.621094 364.214844 156.621094 364.15625 156.621094 " fill-opacity="1" fill-rule="nonzero"/><path fill="#5479f7" d="M 576.992188 139.273438 C 562.488281 135.867188 556.429688 135.816406 503.699219 137.726562 C 490.808594 138.195312 475.480469 154.367188 473.960938 167.175781 C 478.058594 179.457031 496.964844 240.097656 463.957031 287.480469 C 459.277344 294.207031 452.910156 301.574219 444.167969 308.644531 C 449.082031 312.617188 456.710938 317.78125 466.960938 320.824219 C 483.972656 325.875 492.53125 320.417969 506.242188 320.824219 C 542.511719 321.910156 555.808594 362.289062 579.238281 357.21875 C 585.488281 355.867188 593.777344 350.988281 601.554688 334.625 C 605.960938 321.058594 609.882812 305.125 612.0625 287.121094 C 617.984375 238.3125 608.296875 197.667969 599.648438 172.167969 C 597.082031 164.113281 594.097656 143.292969 576.992188 139.273438 " fill-opacity="1" fill-rule="nonzero"/><path fill="#5479f7" d="M 448.101562 175.890625 C 448.101562 175.890625 475.800781 141 500.226562 138.21875 L 488.1875 230.585938 L 448.101562 175.890625 " fill-opacity="1" fill-rule="nonzero"/><path fill="#5479f7" d="M 648.59375 215.703125 C 648.59375 215.703125 644.433594 183.996094 638.417969 169.082031 C 625.066406 135.988281 571.875 137.730469 571.875 137.730469 L 581.4375 225.148438 L 648.59375 215.703125 " fill-opacity="1" fill-rule="nonzero"/><path fill="#ffffff" d="M 601.683594 215.703125 C 601.683594 215.703125 611.015625 247.023438 607.945312 259.53125 C 603.628906 277.136719 546.40625 289.183594 542.46875 290.035156 C 538.527344 290.882812 520.226562 286.914062 512.476562 293.933594 C 507.832031 298.136719 504.566406 297.613281 498.898438 298.453125 C 497.097656 298.71875 495.871094 300.574219 496.1875 302.371094 C 496.46875 303.945312 498 306.234375 502.078125 306.234375 C 507.054688 306.234375 507.582031 305.769531 511.496094 304.835938 C 512.730469 304.542969 513.613281 305.96875 512.753906 306.863281 C 510.753906 308.941406 506.976562 313.71875 506.296875 315.816406 C 503.152344 325.503906 507.09375 335.441406 528.835938 318.835938 C 537.824219 311.980469 540.125 307.105469 545.007812 305.828125 C 549.890625 304.554688 611.980469 297.003906 623.253906 291.894531 C 639.472656 284.542969 645.59375 237.230469 642.21875 213.59375 C 640.796875 203.675781 601.683594 215.703125 601.683594 215.703125 " fill-opacity="1" fill-rule="nonzero"/><path fill="#000000" d="M 511.820312 303.496094 C 512.738281 303.496094 513.59375 303.972656 514.0625 304.796875 C 514.617188 305.765625 514.46875 306.964844 513.691406 307.769531 C 511.664062 309.875 508.109375 314.457031 507.535156 316.222656 C 506.101562 320.640625 506.421875 324.378906 508.355469 325.75 C 509.800781 326.769531 514.617188 328.050781 528.039062 317.800781 C 531.8125 314.925781 534.410156 312.378906 536.5 310.332031 C 539.425781 307.460938 541.542969 305.390625 544.675781 304.566406 C 546.15625 304.183594 551.957031 303.339844 560.742188 302.074219 C 580.980469 299.152344 614.859375 294.265625 622.710938 290.707031 C 637.585938 283.960938 644.472656 238.664062 640.917969 213.78125 C 640.828125 213.121094 640.46875 212.613281 639.800781 212.195312 C 634.109375 208.582031 612.609375 213.835938 603.300781 216.585938 C 605.027344 222.644531 612.015625 248.429688 609.214844 259.84375 C 605.078125 276.691406 557.433594 288.160156 542.929688 291.273438 L 542.742188 291.316406 C 541.480469 291.585938 539.335938 291.457031 536.367188 291.273438 C 529.273438 290.84375 518.554688 290.191406 513.347656 294.90625 C 509.296875 298.578125 506.117188 298.933594 502.089844 299.375 C 501.15625 299.480469 500.167969 299.585938 499.089844 299.746094 C 498.605469 299.816406 498.171875 300.09375 497.859375 300.527344 C 497.523438 301.007812 497.375 301.59375 497.476562 302.148438 C 497.550781 302.613281 498.164062 304.929688 502.074219 304.929688 C 505.882812 304.929688 506.902344 304.664062 509.148438 304.082031 C 509.734375 303.929688 510.394531 303.761719 511.191406 303.566406 C 511.402344 303.515625 511.613281 303.496094 511.820312 303.496094 Z M 510.910156 329.066406 C 509.316406 329.066406 507.964844 328.671875 506.84375 327.878906 C 503.871094 325.773438 503.203125 321.113281 505.050781 315.414062 C 505.824219 313.035156 509.601562 308.296875 511.640625 306.128906 C 510.9375 306.316406 510.339844 306.472656 509.804688 306.613281 C 507.492188 307.214844 506.214844 307.546875 502.074219 307.546875 C 497.425781 307.546875 495.304688 304.882812 494.898438 302.597656 C 494.679688 301.359375 494.988281 300.046875 495.738281 299 C 496.46875 297.992188 497.523438 297.335938 498.707031 297.15625 C 499.824219 296.996094 500.839844 296.882812 501.804688 296.773438 C 505.632812 296.351562 508.164062 296.074219 511.597656 292.964844 C 517.613281 287.515625 528.996094 288.207031 536.527344 288.667969 C 539.078125 288.824219 541.28125 288.953125 542.1875 288.761719 L 542.378906 288.71875 C 570.167969 282.753906 603.671875 271.449219 606.675781 259.222656 C 609.625 247.195312 600.519531 216.390625 600.425781 216.078125 L 600.058594 214.839844 L 601.300781 214.457031 C 604.535156 213.460938 633.152344 204.882812 641.203125 209.988281 C 642.507812 210.816406 643.304688 212 643.511719 213.410156 C 646.84375 236.746094 640.953125 285.304688 623.792969 293.082031 C 615.601562 296.796875 582.8125 301.53125 561.117188 304.660156 C 553.046875 305.828125 546.671875 306.746094 545.335938 307.09375 C 542.875 307.742188 541.066406 309.511719 538.328125 312.199219 C 536.1875 314.296875 533.527344 316.902344 529.621094 319.882812 C 521.617188 325.996094 515.351562 329.066406 510.910156 329.066406 " fill-opacity="1" fill-rule="nonzero"/><path fill="#ffffff" d="M 528.457031 127.5625 L 530.613281 114.160156 C 529.78125 94.855469 558.800781 90.597656 556.191406 90.378906 L 554.640625 126.996094 C 554.457031 131.21875 557.199219 135.003906 561.261719 136.148438 C 565.855469 137.449219 571.324219 138.984375 572.984375 139.425781 C 569.050781 139.242188 541.859375 151.066406 511.015625 138.144531 L 522.058594 134.855469 C 525.414062 133.859375 527.898438 131.023438 528.457031 127.5625 " fill-opacity="1" fill-rule="nonzero"/><path fill="#000000" d="M 515.039062 138.3125 C 537.734375 146.519531 558.117188 141.609375 567.445312 139.253906 C 565.359375 138.667969 563 138 560.902344 137.410156 C 556.242188 136.09375 553.125 131.789062 553.332031 126.941406 L 554.792969 92.347656 C 539.199219 97.085938 531.5 104.40625 531.914062 114.105469 C 531.921875 114.191406 531.914062 114.28125 531.902344 114.367188 L 529.746094 127.777344 L 528.453125 127.570312 L 529.746094 127.777344 C 529.117188 131.703125 526.242188 134.976562 522.429688 136.109375 Z M 541.546875 145.492188 C 532.265625 145.492188 521.613281 144.003906 510.507812 139.351562 C 510 139.140625 509.679688 138.628906 509.703125 138.078125 C 509.738281 137.527344 510.109375 137.050781 510.640625 136.894531 L 521.6875 133.601562 C 524.539062 132.757812 526.6875 130.300781 527.164062 127.359375 L 529.300781 114.082031 C 528.898438 103.027344 537.34375 94.835938 554.417969 89.730469 C 554.707031 89.640625 555 89.554688 555.242188 89.480469 C 555.265625 89.449219 555.296875 89.425781 555.328125 89.398438 C 555.59375 89.164062 555.941406 89.050781 556.296875 89.074219 C 557.503906 89.179688 557.644531 90.183594 557.65625 90.296875 C 557.699219 90.679688 557.628906 90.964844 557.460938 91.191406 L 555.941406 127.054688 C 555.792969 130.683594 558.121094 133.910156 561.613281 134.894531 C 566.019531 136.136719 571.628906 137.71875 573.316406 138.167969 C 573.960938 138.339844 574.375 138.96875 574.277344 139.625 C 574.171875 140.285156 573.609375 140.753906 572.921875 140.734375 C 572.367188 140.691406 570.523438 141.171875 568.578125 141.664062 C 563.074219 143.050781 553.425781 145.492188 541.546875 145.492188 " fill-opacity="1" fill-rule="nonzero"/><path fill="#000000" d="M 512.617188 52.679688 C 520.179688 51.695312 511.21875 60.191406 538.667969 49.96875 C 549.59375 45.894531 544.914062 59.355469 547.757812 58.308594 C 558.238281 54.429688 557.878906 54.554688 563.207031 55.550781 C 566.738281 56.210938 569.46875 62.433594 569.167969 67.257812 C 568.785156 73.617188 563.710938 75.617188 560.105469 89.265625 C 557.566406 98.84375 558.785156 104.46875 555.144531 106.097656 C 551.457031 107.753906 548.285156 102.867188 544.128906 104.371094 C 538.746094 106.316406 540.542969 115.757812 535.484375 120.097656 C 532.296875 122.832031 524.53125 124.554688 511.492188 119.339844 C 509.375 118.496094 508.15625 116.253906 508.597656 114.011719 C 509.152344 111.140625 509.886719 107.515625 510.875 104.113281 C 515.574219 87.898438 520.925781 83.921875 518.585938 79.980469 C 515 73.933594 503.417969 78.386719 501.074219 73.378906 C 498.640625 68.183594 502.273438 54.03125 512.617188 52.679688 " fill-opacity="1" fill-rule="nonzero"/><path fill="#ffffff" d="M 541.121094 77.957031 L 539.253906 82.171875 C 538.375 84.15625 537.632812 86.195312 537.035156 88.285156 C 535.910156 92.199219 533.929688 98.917969 532.535156 102.59375 C 530.480469 108 513.351562 102.820312 513.351562 102.820312 L 512.109375 99.664062 L 510.109375 99.011719 C 509.722656 98.890625 509.359375 98.683594 509.085938 98.378906 C 508.40625 97.625 508.324219 96.5625 508.792969 95.746094 C 511.371094 91.253906 516.691406 81.214844 518.21875 72.4375 C 518.21875 72.4375 530.339844 68.347656 541.121094 77.957031 " fill-opacity="1" fill-rule="nonzero"/><path fill="#000000" d="M 514.332031 101.746094 C 520.777344 103.601562 530.242188 104.945312 531.3125 102.132812 C 532.699219 98.46875 534.703125 91.65625 535.78125 87.921875 C 536.390625 85.789062 537.15625 83.679688 538.058594 81.640625 L 539.535156 78.316406 C 531.019531 71.25 521.953125 72.816406 519.355469 73.46875 C 517.667969 82.046875 512.761719 91.457031 509.929688 96.394531 C 509.722656 96.75 509.777344 97.195312 510.058594 97.507812 C 510.15625 97.613281 510.316406 97.707031 510.515625 97.773438 L 512.507812 98.421875 C 512.878906 98.542969 513.179688 98.824219 513.324219 99.1875 Z M 526.207031 106.371094 C 520.996094 106.371094 514.796875 104.621094 512.96875 104.070312 C 512.585938 103.953125 512.277344 103.671875 512.128906 103.300781 L 511.113281 100.714844 L 509.703125 100.257812 C 509.066406 100.046875 508.519531 99.703125 508.113281 99.253906 C 507.078125 98.101562 506.894531 96.429688 507.664062 95.09375 C 509.941406 91.113281 515.410156 80.921875 516.929688 72.207031 C 517.007812 71.738281 517.34375 71.347656 517.800781 71.195312 C 518.320312 71.019531 530.769531 66.980469 541.992188 76.984375 C 542.414062 77.359375 542.554688 77.964844 542.316406 78.484375 L 540.449219 82.699219 C 539.59375 84.625 538.871094 86.625 538.289062 88.644531 C 537.210938 92.417969 535.179688 99.304688 533.757812 103.058594 C 532.796875 105.570312 529.730469 106.371094 526.207031 106.371094 " fill-opacity="1" fill-rule="nonzero"/><path fill="#ffffff" d="M 539.113281 92.332031 C 539.113281 92.332031 543.597656 82.195312 547.757812 85.238281 C 551.914062 88.277344 546.707031 99.308594 539.113281 92.332031 " fill-opacity="1" fill-rule="nonzero"/><path fill="#99b9ff" d="M 326.148438 321.609375 L 504.453125 321.609375 C 506.15625 321.609375 507.535156 320.230469 507.535156 318.523438 L 507.535156 311.707031 L 323.066406 311.707031 L 323.066406 318.523438 C 323.066406 320.230469 324.449219 321.609375 326.148438 321.609375 " fill-opacity="1" fill-rule="nonzero"/><path fill="#000000" d="M 324.375 313.015625 L 324.375 314.671875 C 324.375 317.777344 326.902344 320.300781 330.003906 320.300781 L 500.601562 320.300781 C 503.703125 320.300781 506.230469 317.777344 506.230469 314.671875 L 506.230469 313.015625 Z M 500.601562 322.917969 L 330.003906 322.917969 C 325.457031 322.917969 321.757812 319.21875 321.757812 314.671875 L 321.757812 310.402344 L 508.84375 310.402344 L 508.84375 314.671875 C 508.84375 319.21875 505.144531 322.917969 500.601562 322.917969 " fill-opacity="1" fill-rule="nonzero"/><path fill="#99b9ff" d="M 323.066406 311.882812 L 428.617188 311.882812 L 395.082031 213.1875 C 393.074219 210.105469 389.582031 208.230469 385.820312 208.230469 L 296.59375 208.230469 C 292.546875 208.230469 289.9375 212.160156 291.257812 215.625 C 291.785156 217.003906 292.351562 218.367188 292.8125 219.765625 L 323.066406 311.882812 " fill-opacity="1" fill-rule="nonzero"/><path fill="#000000" d="M 324.011719 310.578125 L 426.796875 310.578125 L 393.902344 213.765625 C 392.109375 211.113281 389.101562 209.535156 385.820312 209.535156 L 296.59375 209.535156 C 295.105469 209.535156 293.785156 210.21875 292.964844 211.40625 C 292.191406 212.523438 292.011719 213.925781 292.480469 215.15625 C 292.628906 215.546875 292.78125 215.933594 292.929688 216.316406 C 293.316406 217.300781 293.714844 218.320312 294.054688 219.359375 Z M 430.441406 313.191406 L 322.121094 313.191406 L 291.570312 220.171875 C 291.25 219.203125 290.867188 218.21875 290.496094 217.265625 C 290.339844 216.875 290.1875 216.480469 290.039062 216.089844 C 289.261719 214.054688 289.550781 211.746094 290.8125 209.921875 C 292.125 208.015625 294.234375 206.921875 296.59375 206.921875 L 385.820312 206.921875 C 390.050781 206.921875 393.917969 208.996094 396.183594 212.476562 L 396.324219 212.769531 L 430.441406 313.191406 " fill-opacity="1" fill-rule="nonzero"/><path fill="#ffffff" d="M 362.234375 258.726562 C 363.496094 262.898438 361.574219 267.171875 357.941406 268.265625 C 354.3125 269.359375 350.351562 266.867188 349.09375 262.691406 C 347.839844 258.519531 349.753906 254.25 353.390625 253.152344 C 357.015625 252.058594 360.980469 254.554688 362.234375 258.726562 " fill-opacity="1" fill-rule="nonzero"/><path fill="#ffffff" d="M 412.925781 313.191406 L 354.769531 313.191406 C 354.050781 313.191406 353.464844 312.609375 353.464844 311.882812 C 353.464844 311.164062 354.050781 310.578125 354.769531 310.578125 L 412.925781 310.578125 C 413.644531 310.578125 414.230469 311.164062 414.230469 311.882812 C 414.230469 312.609375 413.644531 313.191406 412.925781 313.191406 " fill-opacity="1" fill-rule="nonzero"/><path fill="#ffffff" d="M 335.472656 313.191406 L 325.164062 313.191406 C 324.441406 313.191406 323.855469 312.609375 323.855469 311.882812 C 323.855469 311.164062 324.441406 310.578125 325.164062 310.578125 L 335.472656 310.578125 C 336.191406 310.578125 336.777344 311.164062 336.777344 311.882812 C 336.777344 312.609375 336.191406 313.191406 335.472656 313.191406 " fill-opacity="1" fill-rule="nonzero"/><path fill="#99b9ff" d="M 111.335938 426.257812 C 122.203125 428.636719 129.101562 439.296875 126.742188 450.070312 C 124.378906 460.835938 113.65625 467.636719 102.789062 465.253906 C 91.917969 462.871094 85.019531 452.210938 87.378906 441.441406 C 89.742188 430.675781 100.464844 423.875 111.335938 426.257812 Z M 57.84375 427.179688 L 63.359375 431.738281 C 64.25 432.476562 64.648438 433.652344 64.359375 434.761719 C 64.054688 435.929688 63.796875 437.109375 63.59375 438.292969 C 63.398438 439.417969 62.554688 440.324219 61.445312 440.628906 L 54.554688 442.527344 C 53.195312 442.898438 52.285156 444.15625 52.359375 445.550781 L 52.660156 451.234375 C 52.734375 452.632812 53.773438 453.792969 55.164062 454.035156 L 62.238281 455.257812 C 63.382812 455.460938 64.3125 456.292969 64.625 457.398438 C 64.953125 458.546875 65.320312 459.679688 65.738281 460.796875 C 66.144531 461.875 65.878906 463.085938 65.070312 463.910156 L 60.058594 468.984375 C 59.074219 469.980469 58.921875 471.523438 59.6875 472.695312 L 62.816406 477.484375 C 63.582031 478.65625 65.066406 479.148438 66.390625 478.671875 L 73.105469 476.234375 C 74.191406 475.839844 75.414062 476.09375 76.246094 476.902344 C 77.101562 477.734375 78 478.53125 78.929688 479.300781 C 79.828125 480.035156 80.210938 481.222656 79.925781 482.335938 L 78.160156 489.21875 C 77.8125 490.574219 78.457031 491.988281 79.710938 492.625 L 84.824219 495.226562 C 86.082031 495.867188 87.613281 495.558594 88.511719 494.488281 L 93.09375 489.039062 C 93.828125 488.160156 95.015625 487.761719 96.136719 488.058594 C 97.316406 488.367188 98.507812 488.621094 99.699219 488.828125 C 100.835938 489.027344 101.75 489.867188 102.0625 490.96875 L 104.003906 497.804688 C 104.386719 499.15625 105.65625 500.0625 107.0625 499.996094 L 112.792969 499.71875 C 114.199219 499.648438 115.367188 498.625 115.605469 497.246094 L 116.816406 490.242188 C 117.011719 489.113281 117.835938 488.183594 118.945312 487.878906 C 120.113281 487.558594 121.265625 487.195312 122.402344 486.777344 C 123.484375 486.382812 124.703125 486.660156 125.527344 487.464844 L 130.664062 492.445312 C 131.675781 493.429688 133.230469 493.585938 134.414062 492.832031 L 139.226562 489.75 C 140.410156 488.992188 140.898438 487.523438 140.410156 486.210938 L 137.929688 479.539062 C 137.523438 478.460938 137.78125 477.25 138.589844 476.425781 C 139.425781 475.582031 140.226562 474.695312 140.996094 473.773438 C 141.734375 472.886719 142.929688 472.511719 144.058594 472.800781 L 151.003906 474.582031 C 152.371094 474.929688 153.796875 474.296875 154.433594 473.050781 L 157.039062 467.992188 C 157.679688 466.75 157.363281 465.230469 156.277344 464.332031 L 150.765625 459.769531 C 149.875 459.035156 149.472656 457.855469 149.761719 456.75 C 150.070312 455.578125 150.324219 454.398438 150.527344 453.222656 C 150.722656 452.09375 151.566406 451.1875 152.679688 450.882812 L 159.570312 448.984375 C 160.925781 448.613281 161.835938 447.355469 161.761719 445.960938 L 161.460938 440.273438 C 161.386719 438.878906 160.347656 437.714844 158.957031 437.476562 L 151.886719 436.253906 C 150.75 436.054688 149.8125 435.230469 149.5 434.132812 C 149.171875 432.972656 148.796875 431.824219 148.375 430.699219 C 147.976562 429.621094 148.25 428.417969 149.054688 427.601562 L 154.0625 422.527344 C 155.046875 421.53125 155.203125 419.988281 154.433594 418.8125 L 151.308594 414.03125 C 150.539062 412.855469 149.054688 412.359375 147.730469 412.839844 L 141.015625 415.277344 C 139.929688 415.671875 138.707031 415.414062 137.878906 414.609375 C 137.019531 413.777344 136.121094 412.980469 135.191406 412.210938 C 134.292969 411.476562 133.910156 410.289062 134.195312 409.171875 L 135.964844 402.289062 C 136.3125 400.9375 135.664062 399.519531 134.410156 398.882812 L 129.296875 396.28125 C 128.042969 395.640625 126.511719 395.949219 125.609375 397.019531 L 121.03125 402.472656 C 120.292969 403.355469 119.105469 403.746094 117.988281 403.453125 C 116.804688 403.144531 115.613281 402.886719 114.425781 402.683594 C 113.289062 402.484375 112.371094 401.644531 112.058594 400.542969 L 110.121094 393.703125 C 109.738281 392.355469 108.46875 391.449219 107.058594 391.515625 L 101.328125 391.792969 C 99.921875 391.859375 98.753906 392.886719 98.515625 394.265625 L 97.304688 401.273438 C 97.109375 402.40625 96.277344 403.328125 95.160156 403.636719 C 94.003906 403.953125 92.859375 404.316406 91.734375 404.726562 C 90.648438 405.121094 89.425781 404.851562 88.59375 404.046875 L 83.457031 399.0625 C 82.449219 398.082031 80.890625 397.921875 79.707031 398.679688 L 74.894531 401.761719 C 73.714844 402.519531 73.222656 403.988281 73.710938 405.300781 L 76.195312 411.96875 C 76.597656 413.050781 76.34375 414.261719 75.53125 415.082031 C 74.699219 415.929688 73.894531 416.816406 73.125 417.734375 C 72.386719 418.625 71.191406 419 70.066406 418.710938 L 63.117188 416.929688 C 61.75 416.582031 60.328125 417.214844 59.6875 418.460938 L 57.082031 423.519531 C 56.445312 424.761719 56.757812 426.28125 57.84375 427.179688 " fill-opacity="1" fill-rule="nonzero"/><path fill="#000000" d="M 106.949219 427.085938 C 103.398438 427.085938 99.921875 428.089844 96.867188 430.023438 C 92.640625 432.703125 89.726562 436.855469 88.660156 441.722656 C 87.59375 446.589844 88.503906 451.582031 91.222656 455.785156 C 93.941406 459.988281 98.148438 462.898438 103.066406 463.976562 C 107.984375 465.054688 113.023438 464.167969 117.253906 461.488281 C 121.484375 458.808594 124.398438 454.652344 125.464844 449.789062 C 126.53125 444.921875 125.621094 439.929688 122.902344 435.726562 C 120.179688 431.523438 115.972656 428.609375 111.054688 427.535156 C 109.6875 427.234375 108.3125 427.085938 106.949219 427.085938 Z M 107.179688 467.039062 C 105.625 467.039062 104.0625 466.871094 102.507812 466.53125 C 96.910156 465.304688 92.125 461.988281 89.027344 457.203125 C 85.925781 452.410156 84.886719 446.714844 86.105469 441.164062 C 87.320312 435.613281 90.644531 430.871094 95.46875 427.816406 C 100.285156 424.761719 106.019531 423.757812 111.613281 424.980469 C 117.210938 426.203125 122 429.519531 125.097656 434.304688 C 128.199219 439.101562 129.234375 444.796875 128.019531 450.34375 C 126.800781 455.898438 123.476562 460.636719 118.65625 463.695312 C 115.175781 465.902344 111.21875 467.039062 107.179688 467.039062 Z M 95.402344 486.65625 C 95.753906 486.65625 96.113281 486.699219 96.464844 486.792969 C 97.609375 487.089844 98.773438 487.339844 99.921875 487.539062 C 101.535156 487.820312 102.871094 489.027344 103.320312 490.613281 L 105.261719 497.453125 C 105.476562 498.21875 106.191406 498.722656 107 498.6875 L 112.730469 498.414062 C 113.53125 498.371094 114.183594 497.804688 114.320312 497.023438 L 115.527344 490.019531 C 115.808594 488.390625 117.015625 487.054688 118.601562 486.621094 C 119.730469 486.3125 120.859375 485.953125 121.957031 485.550781 C 123.492188 484.992188 125.253906 485.375 126.441406 486.527344 L 131.578125 491.511719 C 132.144531 492.0625 133.042969 492.15625 133.707031 491.730469 L 138.519531 488.648438 C 139.1875 488.222656 139.460938 487.402344 139.1875 486.664062 L 136.703125 479.996094 C 136.125 478.445312 136.5 476.683594 137.65625 475.511719 C 138.460938 474.699219 139.246094 473.832031 139.996094 472.941406 C 141.050781 471.671875 142.769531 471.121094 144.382812 471.535156 L 151.328125 473.316406 C 152.109375 473.511719 152.910156 473.160156 153.273438 472.453125 L 155.878906 467.394531 C 156.238281 466.691406 156.0625 465.847656 155.445312 465.335938 L 149.929688 460.78125 C 148.648438 459.714844 148.085938 458.003906 148.5 456.421875 C 148.792969 455.285156 149.042969 454.132812 149.242188 452.996094 C 149.515625 451.390625 150.730469 450.066406 152.332031 449.621094 L 159.222656 447.726562 C 159.992188 447.511719 160.5 446.816406 160.457031 446.03125 L 160.15625 440.347656 C 160.113281 439.550781 159.53125 438.902344 158.734375 438.761719 L 151.664062 437.539062 C 150.027344 437.253906 148.6875 436.054688 148.242188 434.484375 C 147.925781 433.363281 147.558594 432.246094 147.152344 431.152344 C 146.578125 429.617188 146.957031 427.863281 148.125 426.683594 L 153.132812 421.609375 C 153.6875 421.046875 153.773438 420.1875 153.339844 419.523438 L 150.210938 414.742188 C 149.78125 414.082031 148.925781 413.796875 148.179688 414.070312 L 141.464844 416.507812 C 139.910156 417.070312 138.148438 416.691406 136.964844 415.550781 C 136.144531 414.75 135.265625 413.96875 134.359375 413.222656 C 133.078125 412.167969 132.515625 410.449219 132.929688 408.847656 L 134.699219 401.964844 C 134.894531 401.203125 134.53125 400.410156 133.816406 400.046875 L 128.703125 397.449219 C 127.996094 397.085938 127.113281 397.261719 126.609375 397.863281 L 122.03125 403.3125 C 120.964844 404.582031 119.25 405.132812 117.65625 404.71875 C 116.515625 404.421875 115.351562 404.167969 114.199219 403.972656 C 112.585938 403.691406 111.25 402.484375 110.800781 400.898438 L 108.863281 394.058594 C 108.644531 393.292969 107.933594 392.789062 107.121094 392.820312 L 101.390625 393.097656 C 100.589844 393.136719 99.9375 393.707031 99.804688 394.488281 L 98.59375 401.496094 C 98.3125 403.121094 97.101562 404.457031 95.503906 404.894531 C 94.386719 405.203125 93.269531 405.558594 92.183594 405.953125 C 90.636719 406.515625 88.871094 406.136719 87.683594 404.984375 L 82.546875 400 C 81.976562 399.445312 81.078125 399.355469 80.414062 399.78125 L 75.601562 402.863281 C 74.933594 403.292969 74.660156 404.105469 74.9375 404.84375 L 77.421875 411.515625 C 77.996094 413.066406 77.621094 414.824219 76.464844 416 C 75.660156 416.816406 74.875 417.679688 74.128906 418.574219 C 73.074219 419.835938 71.347656 420.390625 69.742188 419.976562 L 62.792969 418.199219 C 62.011719 417.996094 61.210938 418.351562 60.847656 419.058594 L 58.246094 424.117188 C 57.882812 424.816406 58.0625 425.664062 58.675781 426.175781 L 64.191406 430.734375 C 65.476562 431.792969 66.039062 433.507812 65.625 435.09375 C 65.328125 436.226562 65.078125 437.378906 64.882812 438.515625 C 64.605469 440.125 63.390625 441.445312 61.789062 441.890625 L 54.902344 443.785156 C 54.132812 443.996094 53.621094 444.695312 53.664062 445.484375 L 53.964844 451.164062 C 54.007812 451.957031 54.59375 452.609375 55.386719 452.746094 L 62.460938 453.972656 C 64.09375 454.253906 65.4375 455.460938 65.882812 457.042969 C 66.199219 458.152344 66.5625 459.261719 66.964844 460.335938 C 67.542969 461.886719 67.164062 463.648438 66 464.828125 L 60.988281 469.902344 C 60.433594 470.464844 60.351562 471.320312 60.785156 471.980469 L 63.910156 476.769531 C 64.34375 477.429688 65.199219 477.710938 65.945312 477.441406 L 72.660156 475.003906 C 74.210938 474.441406 75.976562 474.820312 77.15625 475.960938 C 77.984375 476.769531 78.859375 477.550781 79.761719 478.289062 C 81.042969 479.34375 81.605469 481.058594 81.191406 482.660156 L 79.425781 489.542969 C 79.226562 490.3125 79.589844 491.097656 80.304688 491.460938 L 85.417969 494.066406 C 86.128906 494.425781 87.007812 494.246094 87.511719 493.644531 L 92.089844 488.195312 C 92.921875 487.210938 94.148438 486.65625 95.402344 486.65625 Z M 106.910156 501.308594 C 104.972656 501.308594 103.277344 500.042969 102.746094 498.167969 L 100.804688 491.324219 C 100.628906 490.699219 100.105469 490.226562 99.476562 490.113281 C 98.253906 489.902344 97.019531 489.632812 95.804688 489.324219 C 95.183594 489.160156 94.511719 489.378906 94.09375 489.875 L 89.515625 495.328125 C 88.214844 496.878906 86.042969 497.3125 84.234375 496.390625 L 79.117188 493.792969 C 77.304688 492.867188 76.390625 490.855469 76.894531 488.894531 L 78.660156 482.011719 C 78.820312 481.386719 78.601562 480.71875 78.101562 480.308594 C 77.144531 479.519531 76.214844 478.691406 75.335938 477.839844 C 74.867188 477.386719 74.167969 477.238281 73.550781 477.464844 L 66.835938 479.902344 C 64.933594 480.589844 62.828125 479.894531 61.722656 478.195312 L 58.59375 473.414062 C 57.480469 471.714844 57.703125 469.515625 59.128906 468.066406 L 64.136719 462.992188 C 64.589844 462.53125 64.738281 461.851562 64.515625 461.25 C 64.085938 460.109375 63.703125 458.933594 63.367188 457.753906 C 63.195312 457.132812 62.660156 456.660156 62.011719 456.546875 L 54.941406 455.320312 C 52.933594 454.972656 51.460938 453.324219 51.355469 451.300781 L 51.054688 445.621094 C 50.945312 443.597656 52.242188 441.804688 54.207031 441.261719 L 61.097656 439.371094 C 61.726562 439.195312 62.199219 438.683594 62.304688 438.066406 C 62.515625 436.863281 62.78125 435.640625 63.09375 434.433594 C 63.25 433.824219 63.027344 433.164062 62.523438 432.746094 L 57.011719 428.1875 C 55.441406 426.890625 54.992188 424.722656 55.921875 422.921875 L 58.523438 417.859375 C 59.449219 416.0625 61.472656 415.164062 63.441406 415.664062 L 70.386719 417.445312 C 71.027344 417.609375 71.707031 417.390625 72.121094 416.898438 C 72.910156 415.953125 73.746094 415.03125 74.601562 414.164062 C 75.050781 413.710938 75.195312 413.03125 74.96875 412.425781 L 72.488281 405.761719 C 71.777344 403.855469 72.476562 401.757812 74.191406 400.660156 L 79.003906 397.578125 C 80.707031 396.488281 82.914062 396.714844 84.367188 398.125 L 89.503906 403.109375 C 89.976562 403.566406 90.675781 403.722656 91.289062 403.496094 C 92.441406 403.078125 93.628906 402.703125 94.8125 402.375 C 95.433594 402.203125 95.910156 401.6875 96.019531 401.050781 L 97.226562 394.039062 C 97.570312 392.046875 99.234375 390.585938 101.265625 390.488281 L 106.996094 390.210938 C 109.011719 390.105469 110.828125 391.402344 111.378906 393.347656 L 113.316406 400.183594 C 113.496094 400.8125 114.015625 401.285156 114.648438 401.398438 C 115.867188 401.605469 117.101562 401.875 118.316406 402.1875 C 118.9375 402.351562 119.609375 402.132812 120.027344 401.632812 L 124.609375 396.183594 C 125.90625 394.632812 128.078125 394.199219 129.890625 395.117188 L 135.003906 397.71875 C 136.816406 398.644531 137.734375 400.65625 137.230469 402.613281 L 135.460938 409.496094 C 135.300781 410.121094 135.519531 410.792969 136.019531 411.203125 C 136.984375 411.992188 137.914062 412.824219 138.789062 413.671875 C 139.253906 414.125 139.957031 414.273438 140.574219 414.050781 L 147.289062 411.609375 C 149.191406 410.921875 151.292969 411.621094 152.402344 413.3125 L 155.527344 418.097656 C 156.640625 419.800781 156.421875 421.996094 154.992188 423.445312 L 149.984375 428.519531 C 149.53125 428.976562 149.382812 429.652344 149.601562 430.238281 C 150.03125 431.394531 150.421875 432.585938 150.757812 433.777344 C 150.929688 434.386719 151.460938 434.851562 152.109375 434.960938 L 159.183594 436.1875 C 161.1875 436.535156 162.660156 438.191406 162.765625 440.207031 L 163.066406 445.890625 C 163.175781 447.914062 161.878906 449.703125 159.917969 450.246094 L 153.027344 452.140625 C 152.398438 452.316406 151.921875 452.824219 151.816406 453.441406 C 151.609375 454.648438 151.34375 455.871094 151.027344 457.078125 C 150.871094 457.6875 151.09375 458.347656 151.597656 458.761719 L 157.113281 463.324219 C 158.679688 464.621094 159.128906 466.789062 158.203125 468.589844 L 155.597656 473.652344 C 154.671875 475.449219 152.652344 476.347656 150.679688 475.847656 L 143.734375 474.066406 C 143.097656 473.902344 142.414062 474.117188 142 474.613281 C 141.207031 475.5625 140.371094 476.480469 139.519531 477.34375 C 139.074219 477.800781 138.929688 478.484375 139.152344 479.085938 L 141.636719 485.753906 C 142.34375 487.65625 141.644531 489.753906 139.929688 490.847656 L 135.121094 493.929688 C 133.414062 495.023438 131.210938 494.796875 129.753906 493.390625 L 124.617188 488.402344 C 124.148438 487.941406 123.453125 487.789062 122.851562 488.007812 C 121.6875 488.433594 120.492188 488.8125 119.292969 489.140625 C 118.679688 489.308594 118.214844 489.828125 118.105469 490.460938 L 116.894531 497.472656 C 116.550781 499.464844 114.890625 500.925781 112.855469 501.023438 L 107.125 501.300781 C 107.054688 501.304688 106.980469 501.308594 106.910156 501.308594 " fill-opacity="1" fill-rule="nonzero"/><path fill="#5479f7" d="M 185.160156 500.757812 C 196.527344 501.257812 205.339844 510.789062 204.847656 522.046875 C 204.355469 533.308594 194.742188 542.035156 183.378906 541.535156 C 172.011719 541.035156 163.199219 531.507812 163.691406 520.246094 C 164.183594 508.988281 173.796875 500.261719 185.160156 500.757812 Z M 131.441406 511.046875 L 137.792969 514.675781 C 138.816406 515.261719 139.425781 516.378906 139.328125 517.546875 C 139.226562 518.777344 139.175781 520.007812 139.179688 521.234375 C 139.179688 522.402344 138.484375 523.460938 137.421875 523.964844 L 130.8125 527.082031 C 129.511719 527.695312 128.8125 529.117188 129.132812 530.515625 L 130.429688 536.183594 C 130.75 537.578125 132 538.566406 133.441406 538.566406 L 140.78125 538.566406 C 141.96875 538.566406 143.054688 539.238281 143.5625 540.300781 C 144.089844 541.394531 144.664062 542.476562 145.277344 543.527344 C 145.875 544.542969 145.820312 545.808594 145.148438 546.78125 L 140.988281 552.765625 C 140.171875 553.945312 140.289062 555.527344 141.269531 556.578125 L 145.253906 560.851562 C 146.230469 561.898438 147.8125 562.136719 149.0625 561.417969 L 155.398438 557.789062 C 156.425781 557.203125 157.703125 557.246094 158.679688 557.914062 C 159.691406 558.597656 160.734375 559.246094 161.808594 559.855469 C 162.839844 560.441406 163.433594 561.570312 163.339844 562.746094 L 162.761719 569.984375 C 162.652344 571.410156 163.546875 572.722656 164.925781 573.148438 L 170.53125 574.871094 C 171.90625 575.296875 173.398438 574.71875 174.117188 573.484375 L 177.773438 567.191406 C 178.363281 566.171875 179.488281 565.570312 180.667969 565.671875 C 181.914062 565.773438 183.15625 565.824219 184.390625 565.820312 C 185.570312 565.820312 186.640625 566.507812 187.148438 567.566406 L 190.300781 574.117188 C 190.921875 575.40625 192.359375 576.097656 193.765625 575.785156 L 199.488281 574.503906 C 200.894531 574.1875 201.894531 572.949219 201.890625 571.519531 L 201.882812 564.25 C 201.878906 563.078125 202.546875 562.003906 203.613281 561.503906 C 204.734375 560.976562 205.832031 560.402344 206.90625 559.789062 C 207.925781 559.199219 209.203125 559.269531 210.171875 559.925781 L 216.222656 564.054688 C 217.410156 564.863281 219.003906 564.75 220.0625 563.78125 L 224.371094 559.835938 C 225.429688 558.867188 225.667969 557.300781 224.945312 556.0625 L 221.277344 549.78125 C 220.679688 548.761719 220.726562 547.496094 221.398438 546.53125 C 222.089844 545.53125 222.746094 544.5 223.359375 543.433594 C 223.949219 542.414062 225.085938 541.824219 226.269531 541.917969 L 233.578125 542.492188 C 235.015625 542.605469 236.339844 541.71875 236.769531 540.355469 L 238.507812 534.800781 C 238.933594 533.4375 238.347656 531.960938 237.097656 531.246094 L 230.746094 527.621094 C 229.722656 527.035156 229.113281 525.917969 229.210938 524.75 C 229.3125 523.515625 229.363281 522.289062 229.363281 521.0625 C 229.359375 519.894531 230.054688 518.832031 231.117188 518.332031 L 237.726562 515.214844 C 239.027344 514.601562 239.726562 513.175781 239.40625 511.78125 L 238.109375 506.109375 C 237.789062 504.71875 236.539062 503.730469 235.097656 503.730469 L 227.757812 503.730469 C 226.578125 503.730469 225.492188 503.066406 224.984375 502.011719 C 224.453125 500.90625 223.875 499.816406 223.25 498.753906 C 222.65625 497.738281 222.722656 496.476562 223.390625 495.511719 L 227.550781 489.523438 C 228.367188 488.347656 228.25 486.765625 227.269531 485.71875 L 223.285156 481.445312 C 222.308594 480.398438 220.722656 480.160156 219.476562 480.875 L 213.140625 484.503906 C 212.113281 485.09375 210.835938 485.046875 209.859375 484.382812 C 208.847656 483.695312 207.808594 483.042969 206.734375 482.4375 C 205.699219 481.851562 205.105469 480.722656 205.199219 479.546875 L 205.773438 472.3125 C 205.886719 470.886719 204.992188 469.574219 203.613281 469.148438 L 198.007812 467.421875 C 196.628906 466.996094 195.140625 467.574219 194.421875 468.8125 L 190.765625 475.105469 C 190.175781 476.121094 189.046875 476.722656 187.871094 476.625 C 186.625 476.523438 185.382812 476.472656 184.148438 476.472656 C 182.96875 476.472656 181.898438 475.78125 181.390625 474.730469 L 178.238281 468.179688 C 177.617188 466.886719 176.179688 466.195312 174.773438 466.511719 L 169.050781 467.792969 C 167.644531 468.105469 166.644531 469.347656 166.648438 470.773438 L 166.65625 478.046875 C 166.65625 479.21875 165.980469 480.296875 164.90625 480.804688 C 163.800781 481.324219 162.710938 481.890625 161.652344 482.5 C 160.625 483.089844 159.34375 483.035156 158.367188 482.363281 L 152.316406 478.242188 C 151.132812 477.433594 149.535156 477.542969 148.476562 478.511719 L 144.167969 482.460938 C 143.113281 483.429688 142.871094 484.996094 143.59375 486.234375 L 147.265625 492.515625 C 147.859375 493.53125 147.8125 494.796875 147.140625 495.765625 C 146.449219 496.761719 145.792969 497.796875 145.179688 498.859375 C 144.589844 499.882812 143.453125 500.472656 142.269531 500.378906 L 134.960938 499.800781 C 133.523438 499.683594 132.199219 500.574219 131.769531 501.941406 L 130.035156 507.496094 C 129.605469 508.859375 130.191406 510.335938 131.441406 511.046875 " fill-opacity="1" fill-rule="nonzero"/><path fill="#000000" d="M 696.074219 147.070312 L 696.082031 147.070312 Z M 700.757812 145.933594 C 700.496094 145.933594 700.234375 145.957031 699.976562 146 C 698.816406 146.207031 697.8125 146.851562 697.144531 147.816406 C 696.476562 148.777344 696.21875 149.941406 696.425781 151.09375 C 696.632812 152.25 697.273438 153.253906 698.238281 153.921875 C 699.199219 154.59375 700.367188 154.847656 701.519531 154.640625 C 702.675781 154.4375 703.683594 153.789062 704.347656 152.828125 C 705.730469 150.84375 705.242188 148.101562 703.253906 146.722656 C 702.511719 146.203125 701.640625 145.933594 700.757812 145.933594 Z M 700.734375 157.328125 C 699.3125 157.328125 697.929688 156.898438 696.742188 156.070312 C 695.210938 155 694.179688 153.398438 693.851562 151.554688 C 693.523438 149.714844 693.929688 147.851562 695 146.320312 C 696.066406 144.785156 697.671875 143.761719 699.507812 143.429688 C 701.351562 143.097656 703.214844 143.507812 704.75 144.574219 C 707.917969 146.78125 708.703125 151.152344 706.496094 154.324219 C 705.425781 155.859375 703.824219 156.886719 701.984375 157.214844 C 701.5625 157.289062 701.148438 157.328125 700.734375 157.328125 " fill-opacity="1" fill-rule="nonzero"/><path fill="#000000" d="M 672.839844 98.078125 C 672.46875 98.078125 672.105469 97.925781 671.84375 97.621094 C 671.375 97.070312 671.441406 96.246094 671.988281 95.777344 L 676.210938 92.179688 C 676.765625 91.710938 677.585938 91.777344 678.058594 92.328125 C 678.523438 92.875 678.457031 93.699219 677.910156 94.171875 L 673.6875 97.769531 C 673.4375 97.980469 673.140625 98.078125 672.839844 98.078125 " fill-opacity="1" fill-rule="nonzero"/><path fill="#000000" d="M 659.496094 109.453125 C 659.125 109.453125 658.761719 109.300781 658.5 108.996094 C 658.03125 108.449219 658.101562 107.621094 658.648438 107.152344 L 662.867188 103.554688 C 663.421875 103.085938 664.242188 103.15625 664.710938 103.699219 C 665.183594 104.246094 665.113281 105.074219 664.5625 105.542969 L 660.34375 109.140625 C 660.097656 109.355469 659.796875 109.453125 659.496094 109.453125 " fill-opacity="1" fill-rule="nonzero"/><path fill="#000000" d="M 664.386719 97.417969 C 664.023438 97.417969 663.652344 97.261719 663.390625 96.957031 L 659.792969 92.734375 C 659.324219 92.183594 659.390625 91.359375 659.9375 90.894531 C 660.488281 90.421875 661.3125 90.488281 661.785156 91.039062 L 665.382812 95.257812 C 665.851562 95.808594 665.78125 96.636719 665.230469 97.101562 C 664.988281 97.3125 664.6875 97.417969 664.386719 97.417969 " fill-opacity="1" fill-rule="nonzero"/><path fill="#000000" d="M 675.769531 110.746094 C 675.398438 110.746094 675.03125 110.589844 674.773438 110.289062 L 671.171875 106.070312 C 670.703125 105.515625 670.769531 104.695312 671.320312 104.222656 C 671.871094 103.757812 672.699219 103.824219 673.164062 104.371094 L 676.761719 108.59375 C 677.230469 109.144531 677.160156 109.964844 676.617188 110.4375 C 676.367188 110.644531 676.070312 110.746094 675.769531 110.746094 " fill-opacity="1" fill-rule="nonzero"/><path fill="#000000" d="M 82.042969 645.25 C 81.34375 645.25 80.765625 644.699219 80.738281 643.992188 L 80.527344 638.453125 C 80.5 637.730469 81.0625 637.121094 81.785156 637.09375 C 82.523438 637.082031 83.113281 637.632812 83.140625 638.351562 L 83.351562 643.898438 C 83.375 644.617188 82.8125 645.222656 82.09375 645.25 C 82.074219 645.25 82.058594 645.25 82.042969 645.25 " fill-opacity="1" fill-rule="nonzero"/><path fill="#000000" d="M 82.703125 662.769531 C 82.003906 662.769531 81.425781 662.214844 81.398438 661.511719 L 81.1875 655.96875 C 81.160156 655.246094 81.722656 654.640625 82.445312 654.613281 C 83.183594 654.585938 83.773438 655.148438 83.800781 655.871094 L 84.011719 661.414062 C 84.039062 662.132812 83.476562 662.742188 82.753906 662.769531 C 82.738281 662.769531 82.71875 662.769531 82.703125 662.769531 " fill-opacity="1" fill-rule="nonzero"/><path fill="#000000" d="M 70.734375 651.675781 C 70.035156 651.675781 69.457031 651.121094 69.429688 650.417969 C 69.402344 649.695312 69.964844 649.085938 70.6875 649.058594 L 76.230469 648.855469 C 76.960938 648.84375 77.5625 649.390625 77.585938 650.109375 C 77.613281 650.832031 77.050781 651.4375 76.332031 651.464844 L 70.785156 651.675781 C 70.769531 651.675781 70.753906 651.675781 70.734375 651.675781 " fill-opacity="1" fill-rule="nonzero"/><path fill="#000000" d="M 88.253906 651.015625 C 87.558594 651.015625 86.976562 650.460938 86.949219 649.757812 C 86.921875 649.035156 87.484375 648.429688 88.207031 648.398438 L 93.753906 648.191406 C 94.488281 648.183594 95.078125 648.726562 95.109375 649.449219 C 95.136719 650.171875 94.570312 650.777344 93.851562 650.804688 L 88.304688 651.015625 C 88.289062 651.015625 88.273438 651.015625 88.253906 651.015625 " fill-opacity="1" fill-rule="nonzero"/></svg>