<svg width="1080" height="1080" viewBox="0 0 1080 1080" fill="none" xmlns="http://www.w3.org/2000/svg">
<path d="M266.932 107.552C462.338 -0.0211639 724.124 111.739 860.536 235.63C899.51 271.026 993.994 359.312 1016.31 500.828C1044.03 676.609 953.307 889.666 745.223 980.807C518.749 1080 265.515 985.989 146.994 833.385C36.1504 690.666 58.3379 522.619 66.265 462.583C75.5619 392.151 103.218 197.672 266.932 107.552Z" fill="#CADDFF"/>
<path d="M534.214 304.073C534.214 435.839 427.365 542.656 295.568 542.656C163.771 542.656 56.9277 435.839 56.9277 304.073C56.9277 172.302 163.771 65.4844 295.568 65.4844C427.365 65.4844 534.214 172.302 534.214 304.073Z" fill="#99B9FF"/>
<path d="M295.572 544.402C163.02 544.402 55.1816 436.589 55.1816 304.074C55.1816 171.553 163.02 63.7402 295.572 63.7402C344.317 63.7402 391.255 78.2454 431.307 105.693C470.421 132.495 500.505 169.792 518.317 213.542C518.682 214.433 518.255 215.449 517.359 215.808C516.468 216.173 515.452 215.745 515.088 214.855C478.583 125.178 392.421 67.2298 295.572 67.2298C164.942 67.2298 58.6712 173.475 58.6712 304.074C58.6712 434.667 164.942 540.917 295.572 540.917C343.536 540.917 389.734 526.662 429.166 499.688C429.958 499.146 431.041 499.35 431.588 500.146C432.13 500.938 431.932 502.027 431.13 502.574C391.119 529.938 344.239 544.402 295.572 544.402Z" fill="black"/>
<path d="M510.448 304.151C510.448 422.969 414.104 519.281 295.26 519.281C176.417 519.281 80.0781 422.969 80.0781 304.151C80.0781 185.339 176.417 89.0156 295.26 89.0156C414.104 89.0156 510.448 185.339 510.448 304.151Z" fill="white"/>
<path d="M466.494 421.037C466.161 421.037 465.822 420.943 465.52 420.74C464.723 420.204 464.515 419.115 465.051 418.318C471.218 409.188 476.676 399.506 481.286 389.532C481.682 388.657 482.718 388.271 483.593 388.677C484.468 389.073 484.848 390.11 484.447 390.985C479.77 401.136 474.213 410.99 467.942 420.271C467.604 420.766 467.057 421.037 466.494 421.037Z" fill="black"/>
<path d="M468.35 241.136C442.646 170.626 374.99 120.271 295.568 120.271C295.485 120.271 295.402 120.271 295.318 120.271L295.568 300.548L468.35 241.136Z" fill="#CADDFF"/>
<path d="M306.787 119.464C306.787 125.662 301.766 130.678 295.568 130.678C289.376 130.678 284.35 125.662 284.35 119.464C284.35 113.271 289.376 108.256 295.568 108.256C301.766 108.256 306.787 113.271 306.787 119.464Z" fill="#0048BB"/>
<path d="M295.568 109.994C290.344 109.994 286.094 114.244 286.094 119.468C286.094 124.687 290.344 128.937 295.568 128.937C300.792 128.937 305.042 124.687 305.042 119.468C305.042 114.244 300.792 109.994 295.568 109.994ZM295.568 132.421C288.422 132.421 282.609 126.604 282.609 119.468C282.609 112.317 288.422 106.51 295.568 106.51C302.714 106.51 308.526 112.317 308.526 119.468C308.526 126.604 302.714 132.421 295.568 132.421Z" fill="black"/>
<path d="M306.786 488.682C306.786 494.875 301.765 499.896 295.567 499.896C289.374 499.896 284.354 494.875 284.354 488.682C284.354 482.49 289.374 477.469 295.567 477.469C301.765 477.469 306.786 482.49 306.786 488.682Z" fill="#0048BB"/>
<path d="M295.568 479.214C290.344 479.214 286.094 483.459 286.094 488.683C286.094 493.907 290.344 498.152 295.568 498.152C300.792 498.152 305.042 493.907 305.042 488.683C305.042 483.459 300.792 479.214 295.568 479.214ZM295.568 501.641C288.427 501.641 282.609 495.824 282.609 488.683C282.609 481.537 288.427 475.725 295.568 475.725C302.714 475.725 308.526 481.537 308.526 488.683C308.526 495.824 302.714 501.641 295.568 501.641Z" fill="black"/>
<path d="M110.917 292.854C117.115 292.854 122.135 297.88 122.135 304.067C122.135 310.26 117.115 315.281 110.917 315.281C104.724 315.281 99.7031 310.26 99.7031 304.067C99.7031 297.88 104.724 292.854 110.917 292.854Z" fill="#0048BB"/>
<path d="M110.917 294.604C105.693 294.604 101.443 298.848 101.443 304.072C101.443 309.296 105.693 313.541 110.917 313.541C116.141 313.541 120.391 309.296 120.391 304.072C120.391 298.848 116.141 294.604 110.917 294.604ZM110.917 317.031C103.771 317.031 97.959 311.223 97.959 304.072C97.959 296.932 103.771 291.119 110.917 291.119C118.063 291.119 123.876 296.932 123.876 304.072C123.876 311.223 118.063 317.031 110.917 317.031Z" fill="black"/>
<path d="M480.225 292.854C486.417 292.854 491.443 297.88 491.443 304.067C491.443 310.26 486.417 315.281 480.225 315.281C474.027 315.281 469.006 310.26 469.006 304.067C469.006 297.88 474.027 292.854 480.225 292.854Z" fill="#0048BB"/>
<path d="M480.225 294.604C474.99 294.604 470.745 298.848 470.745 304.072C470.745 309.296 474.99 313.541 480.225 313.541C485.443 313.541 489.688 309.296 489.688 304.072C489.688 298.848 485.443 294.604 480.225 294.604ZM480.225 317.031C473.074 317.031 467.256 311.223 467.256 304.072C467.256 296.932 473.074 291.119 480.225 291.119C487.365 291.119 493.178 296.932 493.178 304.072C493.178 311.223 487.365 317.031 480.225 317.031Z" fill="black"/>
<path d="M208.412 141.213C210.063 144.062 209.084 147.713 206.23 149.364C203.375 151.01 199.724 150.031 198.073 147.176C196.427 144.327 197.401 140.676 200.261 139.025C203.115 137.379 206.766 138.359 208.412 141.213Z" fill="#99B9FF"/>
<path d="M132.672 391.208C135.526 389.562 139.177 390.536 140.823 393.396C142.474 396.25 141.495 399.896 138.641 401.541C135.786 403.192 132.135 402.213 130.484 399.359C128.838 396.505 129.818 392.854 132.672 391.208Z" fill="#99B9FF"/>
<path d="M452.5 206.594C455.354 204.948 459.005 205.927 460.656 208.781C462.302 211.635 461.323 215.281 458.469 216.932C455.615 218.578 451.963 217.599 450.312 214.75C448.667 211.891 449.646 208.245 452.5 206.594Z" fill="#99B9FF"/>
<path d="M138.641 206.594C141.495 208.245 142.474 211.891 140.828 214.75C139.177 217.599 135.531 218.578 132.672 216.932C129.818 215.281 128.838 211.635 130.484 208.781C132.135 205.927 135.786 204.948 138.641 206.594Z" fill="#99B9FF"/>
<path d="M458.468 391.208C461.322 392.854 462.296 396.505 460.65 399.359C458.999 402.213 455.348 403.192 452.494 401.541C449.64 399.896 448.666 396.25 450.312 393.396C451.963 390.536 455.614 389.562 458.468 391.208Z" fill="#99B9FF"/>
<path d="M198.073 460.963C199.724 458.109 203.375 457.13 206.23 458.781C209.084 460.427 210.063 464.078 208.412 466.937C206.766 469.786 203.115 470.76 200.261 469.119C197.401 467.468 196.427 463.817 198.073 460.963Z" fill="#99B9FF"/>
<path d="M382.73 141.213C384.376 138.359 388.027 137.379 390.881 139.025C393.735 140.676 394.714 144.327 393.063 147.176C391.418 150.031 387.767 151.01 384.912 149.364C382.058 147.713 381.079 144.062 382.73 141.213Z" fill="#99B9FF"/>
<path d="M382.73 463.75C384.376 460.896 388.027 459.922 390.881 461.568C393.735 463.219 394.714 466.865 393.063 469.719C391.418 472.573 387.767 473.547 384.912 471.901C382.058 470.25 381.079 466.599 382.73 463.75Z" fill="#99B9FF"/>
<path d="M350.339 264.536C311.594 306.458 296.432 314.051 291.016 309.051C285.599 304.051 291.984 288.333 330.729 246.411C358.422 216.452 397.922 183.765 418.203 167.562C421.297 165.083 424.302 167.859 422.078 171.14C407.516 192.629 378.037 234.567 350.339 264.536Z" fill="#99B9FF"/>
<path d="M420.573 168.348C420.25 168.348 419.792 168.515 419.292 168.916C398.479 185.551 359.469 217.89 332.011 247.598C289.953 293.098 289.016 304.827 292.198 307.77C295.381 310.707 307 308.853 349.063 263.348C376.516 233.65 405.688 192.213 420.636 170.155C421.183 169.353 421.209 168.702 420.953 168.468C420.87 168.39 420.735 168.348 420.573 168.348ZM294.74 312.228C292.542 312.228 291.016 311.426 289.834 310.332C284.672 305.562 284.511 293.858 329.448 245.228C357.063 215.358 396.229 182.89 417.115 166.197C419.532 164.265 421.964 164.66 423.318 165.905C424.667 167.155 425.25 169.556 423.521 172.114C408.521 194.249 379.229 235.848 351.62 265.718L350.344 264.53L351.62 265.718C316.995 303.176 302.11 312.228 294.74 312.228Z" fill="black"/>
<path d="M271.844 249.358C297.026 275.51 298.562 288.036 291.828 294.52C285.088 301.004 272.625 298.983 247.448 272.832C229.453 254.135 213.271 224.858 205.505 209.681C204.323 207.364 208.057 203.77 210.328 205.046C225.203 213.374 253.849 230.661 271.844 249.358Z" fill="#99B9FF"/>
<path d="M209.276 206.515C208.927 206.515 208.344 206.776 207.833 207.27C207.198 207.88 206.916 208.614 207.057 208.885C215 224.411 230.969 253.203 248.703 271.619C269.255 292.968 283.354 300.249 290.62 293.265C293.854 290.156 294.359 285.791 292.172 279.921C289.364 272.406 282.104 262.526 270.588 250.562C252.854 232.145 224.687 215.088 209.474 206.557C209.427 206.531 209.354 206.515 209.276 206.515ZM284.151 299.364C275.036 299.369 262.5 290.979 246.193 274.036C228.146 255.291 211.984 226.166 203.958 210.473C203.057 208.718 203.63 206.473 205.411 204.76C207.198 203.041 209.463 202.557 211.182 203.52C226.562 212.14 255.057 229.401 273.104 248.145C285.12 260.624 292.422 270.624 295.437 278.708C298.125 285.916 297.318 291.656 293.036 295.776C290.552 298.166 287.594 299.364 284.151 299.364Z" fill="black"/>
<path d="M308.636 280.807C320.089 287.229 324.162 301.719 317.74 313.167C311.313 324.62 296.823 328.687 285.37 322.271C273.917 315.849 269.839 301.354 276.266 289.911C282.688 278.458 297.183 274.38 308.636 280.807Z" fill="#99B9FF"/>
<path d="M297.037 279.499C295.031 279.499 293.016 279.775 291.037 280.327C285.37 281.926 280.667 285.629 277.781 290.76C271.839 301.353 275.625 314.806 286.219 320.749C291.354 323.629 297.302 324.338 302.969 322.739C308.636 321.15 313.339 317.447 316.219 312.317C319.099 307.187 319.807 301.234 318.214 295.572C316.62 289.905 312.917 285.202 307.781 282.327C304.443 280.447 300.761 279.499 297.037 279.499ZM296.964 327.067C292.646 327.067 288.386 325.958 284.516 323.786C272.245 316.905 267.859 301.322 274.745 289.051C278.078 283.109 283.526 278.817 290.094 276.978C296.656 275.129 303.542 275.952 309.49 279.28C315.432 282.619 319.724 288.067 321.568 294.624C323.412 301.187 322.594 308.077 319.261 314.02C315.922 319.968 310.474 324.249 303.912 326.098C301.615 326.744 299.281 327.062 296.964 327.067Z" fill="black"/>
<path d="M867.928 1025.84H811.709V334.949L867.365 331.021L867.928 1025.84Z" fill="white"/>
<path d="M813.447 1024.1H866.176L865.619 332.895L813.447 336.578V1024.1ZM867.921 1027.58H811.708C810.744 1027.58 809.963 1026.8 809.963 1025.84V334.947C809.963 334.036 810.671 333.276 811.583 333.213L867.239 329.286C867.718 329.26 868.197 329.421 868.551 329.749C868.895 330.078 869.104 330.541 869.104 331.026L869.666 1025.84C869.666 1026.3 869.479 1026.74 869.161 1027.07C868.833 1027.4 868.39 1027.58 867.921 1027.58Z" fill="black"/>
<path d="M1018.66 1025.84H867.923C867.615 1025.84 867.365 1025.49 867.365 1025.05V331.838C867.365 331.39 867.631 331.036 867.943 331.051L1018.68 339.01C1018.99 339.025 1019.23 339.369 1019.23 339.791V1025.05C1019.23 1025.49 1018.97 1025.84 1018.66 1025.84Z" fill="#99B9FF"/>
<path d="M869.11 1024.09H1017.49V340.688L869.11 332.86V1024.09ZM1018.67 1027.58H867.933C866.636 1027.58 865.631 1026.47 865.631 1025.05V331.834C865.631 331.095 865.917 330.402 866.412 329.923C866.865 329.496 867.438 329.287 868.037 329.308L1018.78 337.261C1020.02 337.334 1020.97 338.438 1020.97 339.787V1025.05C1020.97 1026.47 1019.96 1027.58 1018.67 1027.58Z" fill="black"/>
<path d="M969.188 665.39C968.225 665.39 967.443 664.609 967.443 663.645V383.077C967.443 382.119 968.225 381.338 969.188 381.338C970.146 381.338 970.933 382.119 970.933 383.077V663.645C970.933 664.609 970.146 665.39 969.188 665.39Z" fill="#CADDFF"/>
<path d="M921.5 565.411C920.542 565.411 919.766 564.63 919.766 563.667V480.901C919.766 479.938 920.542 479.156 921.5 479.156C922.469 479.156 923.25 479.938 923.25 480.901V563.667C923.25 564.63 922.469 565.411 921.5 565.411Z" fill="#CADDFF"/>
<path d="M921.5 849.229C920.542 849.229 919.766 848.447 919.766 847.484V704.656C919.766 703.697 920.542 702.916 921.5 702.916C922.469 702.916 923.25 703.697 923.25 704.656V847.484C923.25 848.447 922.469 849.229 921.5 849.229Z" fill="#CADDFF"/>
<path d="M678.359 1025.92H622.4V510.131L678.051 492.553L678.359 1025.92Z" fill="white"/>
<path d="M624.141 1024.18H676.615L676.312 494.927L624.141 511.406V1024.18ZM678.359 1027.66H622.401C621.443 1027.66 620.656 1026.88 620.656 1025.92V510.13C620.656 509.369 621.151 508.692 621.87 508.468L677.526 490.89C678.057 490.724 678.635 490.823 679.083 491.146C679.531 491.474 679.792 491.994 679.792 492.552L680.099 1025.92C680.099 1026.38 679.922 1026.82 679.589 1027.15C679.266 1027.47 678.823 1027.66 678.359 1027.66Z" fill="black"/>
<path d="M829.36 1025.92H678.62C678.308 1025.92 678.053 1025.65 678.053 1025.31V493.176C678.053 492.832 678.318 492.556 678.646 492.577L829.381 498.687C829.678 498.692 829.923 498.957 829.923 499.286V1025.31C829.923 1025.65 829.673 1025.92 829.36 1025.92Z" fill="#99B9FF"/>
<path d="M679.792 1024.18H828.172V500.381L679.792 494.365V1024.18ZM829.349 1027.66H678.615C677.344 1027.66 676.312 1026.6 676.312 1025.31V493.178C676.312 492.537 676.568 491.917 677.031 491.48C677.474 491.042 678.089 490.818 678.708 490.839L829.448 496.943C830.688 496.995 831.661 498.022 831.661 499.287V1025.31C831.661 1026.6 830.625 1027.66 829.349 1027.66Z" fill="black"/>
<path d="M754.016 771.766C753.053 771.766 752.271 770.985 752.271 770.021V533.766C752.271 532.798 753.053 532.021 754.016 532.021C754.98 532.021 755.761 532.798 755.761 533.766V770.021C755.761 770.985 754.98 771.766 754.016 771.766Z" fill="#CADDFF"/>
<path d="M714.223 612.593C713.26 612.593 712.479 611.817 712.479 610.854V570.577C712.479 569.619 713.26 568.838 714.223 568.838C715.182 568.838 715.963 569.619 715.963 570.577V610.854C715.963 611.817 715.182 612.593 714.223 612.593Z" fill="#CADDFF"/>
<path d="M714.223 879.797C713.26 879.797 712.479 879.016 712.479 878.052V677.458C712.479 676.495 713.26 675.719 714.223 675.719C715.182 675.719 715.963 676.495 715.963 677.458V878.052C715.963 879.016 715.182 879.797 714.223 879.797Z" fill="#CADDFF"/>
<path d="M793.812 691.989C792.859 691.989 792.078 691.208 792.078 690.249V649.973C792.078 649.01 792.859 648.229 793.812 648.229C794.776 648.229 795.562 649.01 795.562 649.973V690.249C795.562 691.208 794.776 691.989 793.812 691.989Z" fill="#CADDFF"/>
<path d="M490.12 1025.92H434.469V729.475L490.12 717.271V1025.92Z" fill="white"/>
<path d="M436.209 1024.18H488.381V719.438L436.209 730.875V1024.18ZM490.12 1027.66H434.469C433.501 1027.66 432.725 1026.88 432.725 1025.92V729.474C432.725 728.657 433.292 727.943 434.094 727.771L489.745 715.568C490.261 715.454 490.803 715.584 491.214 715.912C491.62 716.245 491.86 716.74 491.86 717.271V1025.92C491.86 1026.88 491.084 1027.66 490.12 1027.66Z" fill="black"/>
<path d="M641.989 1025.92H490.119V717.917C490.119 717.563 490.416 717.282 490.77 717.297L641.989 722.36V1025.92Z" fill="#99B9FF"/>
<path d="M491.86 1024.18H640.24V724.042L491.86 719.074V1024.18ZM643.73 1027.66H488.381V717.917C488.381 717.282 488.641 716.657 489.094 716.214C489.563 715.771 490.178 715.516 490.829 715.547L643.73 720.672V1027.66Z" fill="black"/>
<path d="M530.489 939.776C529.525 939.776 528.744 938.995 528.744 938.036V754.151C528.744 753.188 529.525 752.406 530.489 752.406C531.447 752.406 532.229 753.188 532.229 754.151V938.036C532.229 938.995 531.447 939.776 530.489 939.776Z" fill="#CADDFF"/>
<path d="M610.083 961.281C609.125 961.281 608.344 960.505 608.344 959.541V775.656C608.344 774.697 609.125 773.916 610.083 773.916C611.042 773.916 611.823 774.697 611.823 775.656V959.541C611.823 960.505 611.042 961.281 610.083 961.281Z" fill="#CADDFF"/>
<path d="M570.286 889.235C569.322 889.235 568.541 888.459 568.541 887.495V849.855C568.541 848.896 569.322 848.115 570.286 848.115C571.244 848.115 572.025 848.896 572.025 849.855V887.495C572.025 888.459 571.244 889.235 570.286 889.235Z" fill="#CADDFF"/>
<path d="M302.958 1025.92H246.775V878.89L302.426 867.916L302.958 1025.92Z" fill="white"/>
<path d="M248.516 1024.18H301.208L300.693 870.036L248.516 880.323V1024.18ZM302.958 1027.66H246.776C245.813 1027.66 245.031 1026.88 245.031 1025.92V878.89C245.031 878.062 245.62 877.344 246.438 877.177L302.089 866.208C302.604 866.109 303.13 866.239 303.531 866.573C303.938 866.901 304.172 867.39 304.172 867.916L304.703 1025.91C304.703 1026.37 304.521 1026.82 304.193 1027.15C303.865 1027.47 303.422 1027.66 302.958 1027.66Z" fill="black"/>
<path d="M453.761 1025.92H302.959C302.667 1025.92 302.428 1025.68 302.428 1025.39V868.459C302.428 868.162 302.673 867.928 302.969 867.928L453.771 870.386C454.063 870.391 454.298 870.631 454.298 870.923V1025.39C454.298 1025.68 454.058 1025.92 453.761 1025.92Z" fill="#99B9FF"/>
<path d="M304.172 1024.18H452.552V872.109L304.172 869.687V1024.18ZM453.76 1027.66H302.958C301.703 1027.66 300.688 1026.65 300.688 1025.39V868.458C300.688 867.843 300.927 867.27 301.365 866.838C301.802 866.411 302.391 866.197 302.995 866.182L453.797 868.645C455.031 868.666 456.036 869.687 456.036 870.921V1025.39C456.036 1026.65 455.021 1027.66 453.76 1027.66Z" fill="black"/>
<path d="M408.396 990.318C407.432 990.318 406.656 989.542 406.656 988.578V895.021C406.656 894.057 407.432 893.281 408.396 893.281C409.365 893.281 410.135 894.057 410.135 895.021V988.578C410.135 989.542 409.365 990.318 408.396 990.318Z" fill="#CADDFF"/>
<path d="M360.714 956.985C359.75 956.985 358.969 956.204 358.969 955.24V927.641C358.969 926.678 359.75 925.896 360.714 925.896C361.677 925.896 362.453 926.678 362.453 927.641V955.24C362.453 956.204 361.677 956.985 360.714 956.985Z" fill="#CADDFF"/>
<path d="M115.714 1025.92H59.5312V948.922L115.188 939.531L115.714 1025.92Z" fill="white"/>
<path d="M61.2754 1024.18H113.963L113.458 941.589L61.2754 950.391V1024.18ZM115.713 1027.66H59.5306C58.5723 1027.66 57.791 1026.88 57.791 1025.92V948.922C57.791 948.073 58.4056 947.344 59.2441 947.204L114.895 937.813C115.4 937.725 115.916 937.865 116.307 938.193C116.702 938.527 116.926 939.006 116.932 939.521L117.458 1025.91C117.463 1026.37 117.281 1026.82 116.952 1027.15C116.624 1027.47 116.182 1027.66 115.713 1027.66Z" fill="black"/>
<path d="M266.521 1025.92H115.714C115.427 1025.92 115.188 1025.79 115.188 1025.63V939.823C115.188 939.667 115.432 939.531 115.724 939.531L266.531 940.88C266.823 940.885 267.052 941.01 267.052 941.167V1025.63C267.052 1025.79 266.812 1025.92 266.521 1025.92Z" fill="#99B9FF"/>
<path d="M116.932 1024.18H265.307V942.614L116.932 941.291V1024.18ZM266.52 1027.66H115.713C114.442 1027.66 113.447 1026.77 113.447 1025.63V939.822C113.447 939.307 113.65 938.817 114.025 938.447C114.452 938.025 115.098 937.812 115.739 937.791L266.546 939.135C267.827 939.145 268.796 940.02 268.796 941.166V1025.63C268.796 1026.77 267.796 1027.66 266.52 1027.66Z" fill="black"/>
<path d="M221.157 1007.24C220.193 1007.24 219.412 1006.46 219.412 1005.5V954.349C219.412 953.385 220.193 952.609 221.157 952.609C222.12 952.609 222.902 953.385 222.902 954.349V1005.5C222.902 1006.46 222.12 1007.24 221.157 1007.24Z" fill="#CADDFF"/>
<path d="M173.468 989.021C172.505 989.021 171.729 988.24 171.729 987.271V972.182C171.729 971.219 172.505 970.438 173.468 970.438C174.432 970.438 175.213 971.219 175.213 972.182V987.271C175.213 988.24 174.432 989.021 173.468 989.021Z" fill="#CADDFF"/>
<path d="M600.251 636.87C597.021 634.573 572.563 588 572.563 588L545.115 615.818L590.141 654.521L600.251 636.87Z" fill="white"/>
<path d="M547.662 615.714L589.677 651.818L598.131 637.073C593.219 630.625 578.339 602.703 572.131 590.922L547.662 615.714ZM590.141 656.261C589.729 656.261 589.323 656.109 589.011 655.839L543.974 617.141C543.61 616.828 543.391 616.37 543.37 615.891C543.354 615.406 543.532 614.938 543.875 614.594L571.323 586.776C571.709 586.38 572.266 586.193 572.818 586.281C573.365 586.359 573.849 586.693 574.104 587.193C583.334 604.761 598.865 633.401 601.287 635.474C602.021 635.995 602.209 636.964 601.766 637.74L591.657 655.386C591.396 655.833 590.948 656.151 590.438 656.234C590.344 656.25 590.245 656.261 590.141 656.261Z" fill="black"/>
<path d="M472.161 663.682L440.499 705.385L420.135 700.87L447.551 649.281L472.161 663.682Z" fill="white"/>
<path d="M422.749 699.661L439.791 703.437L469.588 664.197L448.239 651.703L422.749 699.661ZM440.499 707.125C440.38 707.125 440.255 707.114 440.124 707.083L419.76 702.567C419.223 702.453 418.781 702.093 418.552 701.599C418.322 701.104 418.338 700.536 418.598 700.052L446.015 648.463C446.234 648.041 446.619 647.729 447.078 647.604C447.531 647.474 448.025 647.536 448.437 647.776L473.041 662.182C473.473 662.432 473.775 662.854 473.869 663.348C473.973 663.833 473.854 664.343 473.552 664.739L441.89 706.432C441.557 706.88 441.041 707.125 440.499 707.125Z" fill="black"/>
<path d="M665.771 407.704C665.771 407.704 497.391 388.573 446.74 431.501C389.583 479.954 559.287 634.771 559.287 634.771L588.391 605.782L528.094 499.376L684.156 455.068L665.771 407.704Z" fill="black"/>
<path d="M758.682 493.692C734.161 501.478 690.281 511.541 628.948 510.702C611.531 510.463 593.229 521.447 585.318 536.968C567.146 572.588 531.25 626.421 467.208 678.036L435.406 660.442L513.479 484.744C520.604 468.702 533.932 456.234 550.417 450.187L705.146 393.463C705.146 393.463 753.125 380.062 776.646 422.879C780.844 430.525 788.646 416.853 790.505 423.025C796.87 444.176 779.75 487.015 758.682 493.692Z" fill="black"/>
<path d="M476.245 566.022C476.001 566.022 475.761 565.975 475.532 565.87C474.646 565.469 474.266 564.438 474.662 563.563L510.725 484.022C517.751 468.219 532.365 454.954 549.818 448.553L623.923 421.391C624.824 421.058 625.824 421.522 626.152 422.423C626.485 423.329 626.021 424.329 625.115 424.662L551.021 451.824C534.438 457.907 520.563 470.475 513.907 485.454L477.834 565.001C477.542 565.641 476.912 566.022 476.245 566.022Z" fill="#CADDFF"/>
<path d="M530.371 622.162C529.964 622.162 529.558 622.027 529.225 621.735C528.496 621.11 528.423 620.006 529.053 619.277C539.397 607.376 549.798 593.72 560.855 577.537C561.402 576.746 562.485 576.537 563.277 577.079C564.074 577.626 564.277 578.709 563.735 579.501C552.6 595.798 542.121 609.553 531.683 621.569C531.339 621.965 530.855 622.162 530.371 622.162Z" fill="#CADDFF"/>
<path d="M455.041 694.026C456.489 699.224 459.551 713.88 460.832 722.693C461.64 728.224 458.14 733.458 452.791 734.911C437.661 738.995 401.499 738.823 371.395 740.151C369.327 740.24 365.53 739.234 363.843 734.24C358.114 717.302 389.754 712.057 421.036 694.833C421.645 694.495 422.395 694.526 422.968 694.932C423.322 695.193 423.786 695.505 424.327 695.844C429.765 699.312 438.806 699.312 444.338 695.995L450.577 692.24C452.286 691.208 454.499 692.094 455.041 694.026Z" fill="#0048BB"/>
<path d="M421.958 696.353C412.318 701.624 402.703 705.786 394.219 709.458C373.651 718.364 362.177 723.874 365.489 733.687C367.073 738.359 370.625 738.442 371.318 738.411C379.041 738.067 387.26 737.827 395.213 737.588C417.859 736.916 441.281 736.213 452.333 733.223C456.87 731.999 459.781 727.577 459.109 722.947C457.885 714.504 454.828 699.765 453.364 694.494C453.25 694.098 452.969 693.791 452.599 693.64C452.38 693.551 451.943 693.452 451.474 693.734L445.234 697.484C439.114 701.166 429.318 701.088 423.39 697.317C422.818 696.958 422.333 696.624 421.958 696.353ZM371.135 741.895C368.041 741.895 363.969 740.062 362.193 734.796C357.682 721.478 373.198 714.765 392.838 706.26C401.245 702.614 410.781 698.494 420.193 693.307C421.411 692.64 422.859 692.718 423.979 693.515C424.318 693.754 424.75 694.051 425.26 694.379C430.099 697.458 438.422 697.51 443.437 694.499L449.682 690.744C450.963 689.973 452.495 689.848 453.885 690.4C455.281 690.958 456.312 692.103 456.719 693.562C458.234 698.968 461.281 713.656 462.557 722.447C463.484 728.822 459.479 734.9 453.245 736.593C441.797 739.687 419.213 740.353 395.312 741.067C387.375 741.307 379.166 741.557 371.469 741.89C371.359 741.895 371.245 741.895 371.135 741.895Z" fill="black"/>
<path d="M461.745 726.688C461.776 726.839 461.797 726.943 461.803 727C462.605 732.527 457.349 735.928 452.329 738.287C437.428 745.277 377.235 741.271 374.907 741.11C374.86 741.105 374.829 741.105 374.782 741.105C374.032 741.115 366.391 741.115 364.188 736.37C363.917 735.782 363.745 734.954 363.646 734.172C363.474 732.902 363.563 731.615 363.844 730.365C364.073 729.339 365.073 728.709 366.079 728.959C377.25 731.818 403.344 733.974 429.407 731.058C440.954 729.766 447.214 728.631 458.282 721.808C459.37 721.141 460.782 721.787 461.026 723.047C461.24 724.105 461.485 725.386 461.745 726.688Z" fill="white"/>
<path d="M374.813 739.364C374.891 739.364 374.954 739.364 375.037 739.369C396.443 740.827 440.011 742.14 451.589 736.707C457.975 733.707 460.595 730.791 460.079 727.244L460.037 727.025L459.318 723.384C459.313 723.369 459.303 723.317 459.246 723.291C448.089 730.134 441.647 731.437 429.605 732.791C404.485 735.598 377.907 733.785 365.647 730.645L363.844 730.364L365.542 730.744C365.298 731.848 365.24 732.931 365.371 733.942C365.506 734.957 365.678 735.442 365.772 735.634C367.532 739.426 374.459 739.364 374.756 739.364C374.777 739.364 374.798 739.364 374.813 739.364ZM412.782 744.166C395.131 744.166 378.136 743.077 374.792 742.848C373.209 742.879 365.209 742.707 362.61 737.103C362.292 736.421 362.068 735.541 361.917 734.4C361.73 732.978 361.803 731.489 362.141 729.978C362.355 729.03 362.954 728.187 363.777 727.681C364.6 727.181 365.574 727.035 366.511 727.27C378.469 730.332 404.511 732.088 429.214 729.322C440.975 728.009 446.818 726.822 457.365 720.327C458.355 719.713 459.574 719.629 460.641 720.093C461.725 720.567 462.511 721.546 462.735 722.713L463.454 726.348C463.496 726.551 463.516 726.692 463.527 726.749C464.527 733.629 458.037 737.53 453.068 739.864C445.865 743.244 429.042 744.166 412.782 744.166Z" fill="black"/>
<path d="M418.89 710.265C418.52 710.265 418.15 710.151 417.832 709.911L408.702 702.953C407.937 702.375 407.791 701.281 408.369 700.515C408.957 699.745 410.046 699.599 410.812 700.187L419.942 707.135C420.707 707.719 420.864 708.812 420.275 709.578C419.931 710.026 419.41 710.265 418.89 710.265Z" fill="black"/>
<path d="M406.755 715.239C406.39 715.239 406.025 715.119 405.708 714.89L397.723 708.89C396.953 708.317 396.796 707.224 397.374 706.458C397.953 705.687 399.046 705.526 399.817 706.109L407.807 712.099C408.572 712.682 408.729 713.771 408.156 714.541C407.812 714.994 407.281 715.239 406.755 715.239Z" fill="black"/>
<path d="M576.551 642.276L594.411 626.609L622.098 643.724C626.218 646.312 627.978 651.995 625.947 656.438C623.286 662.229 618.963 670.328 612.833 677.854C601.286 692.042 595.463 714.984 578.598 716.536C561.734 718.078 562.249 717.052 558.671 712.922C555.093 708.797 561.734 691.776 566.333 680.438C570.088 671.167 576.551 642.276 576.551 642.276Z" fill="#0048BB"/>
<path d="M578.13 643.208C577.187 647.38 571.473 672.395 567.947 681.088C565.229 687.807 556.937 708.26 559.984 711.781C560.244 712.077 560.479 712.364 560.708 712.63C563.166 715.546 563.677 716.156 578.442 714.801C589.083 713.822 595.145 703.265 601.572 692.088C604.609 686.807 607.749 681.343 611.484 676.755C617.578 669.275 621.848 661.187 624.354 655.708C626.031 652.067 624.598 647.354 621.177 645.197L594.588 628.765L578.13 643.208ZM567.781 718.958C562.052 718.958 560.484 717.781 558.036 714.874C557.828 714.619 557.598 714.348 557.354 714.067C553.64 709.791 557.421 697.775 564.718 679.781C568.374 670.755 574.791 642.176 574.854 641.89L574.973 641.338L594.229 624.447L623.015 642.239C627.88 645.291 629.901 651.989 627.526 657.166C624.932 662.817 620.51 671.187 614.192 678.952C610.63 683.327 607.567 688.661 604.593 693.827C598.015 705.281 591.203 717.124 578.76 718.27C573.906 718.713 570.406 718.958 567.781 718.958Z" fill="black"/>
<path d="M583.197 668.381H570.551C569.588 668.381 568.807 667.605 568.807 666.641C568.807 665.678 569.588 664.896 570.551 664.896H583.197C584.161 664.896 584.942 665.678 584.942 666.641C584.942 667.605 584.161 668.381 583.197 668.381Z" fill="black"/>
<path d="M581.182 679.115H568.541C567.572 679.115 566.791 678.339 566.791 677.37C566.791 676.412 567.572 675.631 568.541 675.631H581.182C582.15 675.631 582.932 676.412 582.932 677.37C582.932 678.339 582.15 679.115 581.182 679.115Z" fill="black"/>
<path d="M561.734 715.76C561.734 715.76 576.302 716.536 584.729 705.702C593.167 694.874 621.906 643.432 621.906 643.432L627.385 646.906C630.161 648.671 631.115 652.291 629.589 655.218C622.688 668.432 603.792 702.958 589.328 713.822C571.312 727.364 561.734 715.76 561.734 715.76Z" fill="white"/>
<path d="M566.6 717.229C570.548 719.177 577.798 720.312 588.287 712.432C602.339 701.869 620.771 668.338 628.048 654.411C629.146 652.297 628.443 649.651 626.454 648.38L622.532 645.89C617.511 654.838 593.782 696.922 586.11 706.77C580.298 714.239 571.896 716.541 566.6 717.229ZM572.98 722.099C564.855 722.099 560.459 716.953 560.391 716.875C559.954 716.333 559.87 715.593 560.178 714.974C560.49 714.359 561.11 713.974 561.824 714.02C562.037 714.036 575.626 714.562 583.36 704.63C591.61 694.031 620.1 643.093 620.386 642.583C620.626 642.161 621.021 641.859 621.485 641.744C621.949 641.625 622.438 641.703 622.844 641.958L628.318 645.442C631.834 647.672 633.068 652.317 631.136 656.026C623.751 670.161 605.006 704.229 590.381 715.218C583.443 720.432 577.61 722.099 572.98 722.099Z" fill="black"/>
<path d="M449.838 163.057L479.614 179.125C485.922 182.526 490.932 187.891 493.942 194.391C502.974 213.88 525.703 255.849 555.25 259.094C587.354 262.609 619.172 226.266 628.969 213.953C630.39 212.156 633.203 212.49 634.172 214.568L656.885 263.162C657.354 264.162 657.255 265.339 656.614 266.234C650.25 275.245 614.323 322.01 560.364 313.531C506.599 305.089 488.083 231.464 484.953 217.021C484.661 215.682 483.536 214.677 482.161 214.599C477.942 214.349 468.995 212.516 465.005 202.198C461.859 194.063 461.807 188.255 462.062 185.458C462.177 184.281 461.609 183.167 460.609 182.557C456.63 180.146 447.146 173.734 445.364 166.464C444.734 163.885 447.505 161.792 449.838 163.057Z" fill="white"/>
<path d="M448.375 164.422C447.958 164.422 447.651 164.625 447.536 164.713C447.333 164.869 446.88 165.312 447.057 166.052C448.729 172.859 458.541 179.265 461.51 181.062C463.099 182.026 463.974 183.77 463.802 185.619C463.557 188.213 463.599 193.739 466.63 201.567C470.203 210.807 477.958 212.604 482.271 212.854C484.396 212.984 486.198 214.541 486.656 216.651C489.786 231.093 508.057 303.547 560.635 311.807C613.437 320.109 648.666 274.458 655.198 265.229C655.463 264.843 655.515 264.328 655.312 263.89L632.594 215.302C632.302 214.687 631.755 214.562 631.531 214.541C631.312 214.505 630.75 214.505 630.323 215.036C621.068 226.698 588.234 264.458 555.057 260.823C524.385 257.458 500.995 213.755 492.359 195.119C489.515 188.979 484.698 183.838 478.791 180.651L449.015 164.588C448.786 164.463 448.573 164.422 448.375 164.422ZM573.37 316.297C569.078 316.297 564.651 315.968 560.099 315.25C505.271 306.635 486.463 232.224 483.25 217.39C483.125 216.797 482.635 216.369 482.062 216.338C477.922 216.093 467.818 214.297 463.38 202.823C460.094 194.328 460.062 188.192 460.333 185.291C460.375 184.781 460.14 184.307 459.703 184.047C455.526 181.515 445.604 174.77 443.672 166.88C443.213 165.015 443.88 163.135 445.406 161.953C446.948 160.765 448.963 160.599 450.672 161.52L480.443 177.588C487.01 181.13 492.364 186.833 495.526 193.656C503.906 211.75 526.531 254.187 555.443 257.354C556.838 257.505 558.245 257.583 559.64 257.583C589.64 257.583 619.01 223.672 627.599 212.869C628.646 211.552 630.265 210.875 631.943 211.078C633.614 211.265 635.041 212.297 635.75 213.823L658.469 262.422C659.208 263.989 659.036 265.833 658.041 267.239C651.87 275.979 620.76 316.297 573.37 316.297Z" fill="black"/>
<path d="M485.542 208.828C482.834 208.828 477.719 207.214 476.261 200.959C475.448 197.485 474.922 196.99 471.99 194.266C471.417 193.735 470.761 193.12 470.016 192.407C467.584 190.068 466.839 187.49 466.474 185.505C466.146 183.745 466.87 182.016 468.36 181C469.881 179.959 471.792 179.922 473.339 180.896L483.823 187.443C484.641 187.953 484.886 189.026 484.375 189.849C483.865 190.662 482.787 190.907 481.974 190.396L471.495 183.854C470.948 183.505 470.464 183.787 470.323 183.88C470.125 184.016 469.797 184.328 469.896 184.865C470.204 186.505 470.724 188.25 472.427 189.891C473.162 190.589 473.802 191.188 474.365 191.714C477.454 194.584 478.605 195.662 479.657 200.162C480.855 205.292 485.172 205.36 485.657 205.339C486.589 205.344 487.422 206.078 487.448 207.037C487.474 207.99 486.73 208.787 485.776 208.828C485.698 208.828 485.62 208.828 485.542 208.828Z" fill="black"/>
<path d="M769.324 185.698C749.985 181.156 741.907 181.088 671.6 183.635C654.412 184.26 633.975 205.823 631.949 222.901C637.412 239.276 662.62 320.13 618.61 383.307C612.37 392.276 603.881 402.099 592.225 411.526C598.777 416.823 608.949 423.708 622.615 427.765C645.298 434.5 656.709 427.224 674.99 427.765C723.35 429.213 741.079 483.052 772.318 476.291C780.652 474.489 791.704 467.984 802.074 446.166C807.949 428.078 813.178 406.833 816.084 382.828C823.98 317.75 811.063 263.557 799.532 229.557C796.11 218.817 792.131 191.057 769.324 185.698Z" fill="#0048BB"/>
<path d="M597.469 234.52C597.469 234.52 634.401 187.999 666.969 184.291L650.917 307.447L597.469 234.52Z" fill="#0048BB"/>
<path d="M864.792 287.604C864.792 287.604 859.245 245.328 851.224 225.442C833.422 181.317 762.5 183.64 762.5 183.64L775.25 300.198L864.792 287.604Z" fill="#0048BB"/>
<path d="M802.245 287.604C802.245 287.604 814.688 329.365 810.594 346.042C804.839 369.516 728.542 385.578 723.292 386.714C718.037 387.844 693.636 382.552 683.303 391.912C677.11 397.516 672.756 396.818 665.199 397.938C662.797 398.292 661.162 400.766 661.584 403.162C661.959 405.261 664.001 408.313 669.438 408.313C676.074 408.313 676.777 407.693 681.995 406.448C683.641 406.057 684.818 407.958 683.672 409.151C681.006 411.922 675.969 418.292 675.063 421.089C670.87 434.005 676.126 447.255 705.115 425.115C717.1 415.974 720.167 409.474 726.678 407.771C733.188 406.073 815.975 396.005 831.006 389.193C852.631 379.391 860.792 316.307 856.292 284.792C854.396 271.568 802.245 287.604 802.245 287.604Z" fill="white"/>
<path d="M682.428 404.662C683.652 404.662 684.792 405.297 685.417 406.396C686.157 407.688 685.959 409.287 684.923 410.36C682.219 413.167 677.48 419.277 676.714 421.631C674.803 427.521 675.23 432.506 677.808 434.334C679.735 435.693 686.157 437.402 704.053 423.735C709.084 419.902 712.548 416.506 715.334 413.777C719.235 409.948 722.058 407.188 726.235 406.089C728.209 405.579 735.943 404.454 747.657 402.766C774.641 398.87 819.813 392.355 830.282 387.61C850.115 378.615 859.298 318.219 854.558 285.042C854.438 284.162 853.959 283.485 853.068 282.928C845.48 278.11 816.813 285.115 804.402 288.782C806.704 296.86 816.021 331.24 812.287 346.459C806.771 368.922 743.245 384.214 723.907 388.365L723.657 388.422C721.975 388.782 719.115 388.61 715.157 388.365C705.699 387.792 691.407 386.922 684.464 393.209C679.063 398.105 674.824 398.579 669.454 399.167C668.209 399.308 666.891 399.448 665.454 399.662C664.808 399.756 664.23 400.126 663.813 400.704C663.365 401.344 663.167 402.126 663.303 402.865C663.402 403.485 664.219 406.573 669.433 406.573C674.511 406.573 675.87 406.219 678.865 405.443C679.646 405.24 680.527 405.016 681.589 404.756C681.87 404.688 682.152 404.662 682.428 404.662ZM681.214 438.756C679.089 438.756 677.287 438.23 675.792 437.172C671.829 434.365 670.938 428.152 673.402 420.553C674.433 417.381 679.469 411.063 682.188 408.172C681.251 408.422 680.454 408.631 679.74 408.818C676.657 409.62 674.954 410.063 669.433 410.063C663.235 410.063 660.407 406.511 659.865 403.464C659.574 401.813 659.985 400.063 660.985 398.667C661.959 397.323 663.365 396.448 664.943 396.209C666.433 395.995 667.787 395.844 669.074 395.698C674.178 395.136 677.553 394.766 682.131 390.62C690.152 383.355 705.329 384.277 715.37 384.891C718.771 385.1 721.709 385.271 722.917 385.016L723.173 384.959C760.225 377.006 804.896 361.933 808.902 345.631C812.834 329.594 800.693 288.521 800.568 288.105L800.079 286.454L801.735 285.943C806.048 284.615 844.204 273.178 854.938 279.985C856.678 281.089 857.74 282.667 858.016 284.547C862.459 315.662 854.605 380.407 831.725 390.777C820.803 395.73 777.084 402.042 748.157 406.214C737.396 407.771 728.896 408.995 727.115 409.459C723.834 410.323 721.423 412.683 717.771 416.266C714.917 419.063 711.37 422.537 706.162 426.511C695.49 434.662 687.136 438.756 681.214 438.756Z" fill="black"/>
<path d="M704.609 170.084L707.484 152.214C706.374 126.475 745.067 120.798 741.588 120.506L739.52 169.329C739.275 174.959 742.932 180.006 748.348 181.532C754.473 183.266 761.765 185.313 763.979 185.902C758.734 185.657 722.479 201.423 681.354 184.193L696.077 179.808C700.551 178.48 703.864 174.699 704.609 170.084Z" fill="white"/>
<path d="M686.72 184.417C716.98 195.36 744.157 188.813 756.595 185.672C753.813 184.891 750.668 184 747.871 183.214C741.657 181.458 737.501 175.719 737.777 169.255L739.725 123.13C718.933 129.448 708.668 139.208 709.22 152.141C709.23 152.255 709.22 152.375 709.204 152.49L706.329 170.37L704.605 170.094L706.329 170.37C705.491 175.604 701.657 179.969 696.574 181.479L686.72 184.417ZM722.063 193.99C709.688 193.99 695.485 192.005 680.678 185.802C680.001 185.521 679.574 184.839 679.605 184.104C679.652 183.37 680.147 182.735 680.855 182.526L695.584 178.136C699.386 177.011 702.251 173.735 702.886 169.813L705.735 152.11C705.199 137.37 716.459 126.448 739.225 119.641C739.61 119.521 740.001 119.406 740.324 119.307C740.355 119.266 740.397 119.234 740.438 119.198C740.793 118.886 741.256 118.734 741.73 118.766C743.34 118.906 743.527 120.245 743.543 120.396C743.6 120.906 743.506 121.287 743.282 121.589L741.256 169.406C741.058 174.245 744.162 178.547 748.819 179.86C754.694 181.516 762.173 183.625 764.423 184.224C765.282 184.453 765.834 185.292 765.704 186.167C765.563 187.047 764.813 187.672 763.897 187.646C763.157 187.589 760.699 188.229 758.105 188.886C750.767 190.735 737.902 193.99 722.063 193.99Z" fill="black"/>
<path d="M683.489 70.2396C693.572 68.9271 681.624 80.2552 718.223 66.625C732.791 61.1927 726.551 79.1406 730.343 77.7448C744.317 72.5729 743.838 72.7396 750.942 74.0677C755.65 74.9479 759.291 83.2448 758.89 89.6771C758.38 98.1562 751.614 100.823 746.807 119.021C743.421 131.792 745.046 139.292 740.192 141.464C735.275 143.672 731.046 137.156 725.505 139.161C718.328 141.755 720.723 154.344 713.979 160.13C709.729 163.776 699.374 166.073 681.989 159.12C679.166 157.995 677.541 155.005 678.13 152.016C678.869 148.187 679.848 143.354 681.166 138.818C687.432 117.198 694.567 111.896 691.447 106.641C686.666 98.5781 671.223 104.516 668.098 97.8385C664.854 90.9114 669.697 72.0416 683.489 70.2396Z" fill="black"/>
<path d="M721.495 103.942L719.005 109.562C717.833 112.208 716.843 114.926 716.047 117.713C714.547 122.932 711.906 131.89 710.047 136.791C707.307 143.999 684.468 137.093 684.468 137.093L682.812 132.885L680.146 132.015C679.63 131.853 679.146 131.577 678.781 131.171C677.875 130.166 677.765 128.749 678.39 127.661C681.828 121.671 688.922 108.286 690.958 96.5826C690.958 96.5826 707.12 91.1295 721.495 103.942Z" fill="white"/>
<path d="M685.777 135.661C694.371 138.135 706.991 139.926 708.418 136.176C710.267 131.291 712.938 122.208 714.376 117.229C715.188 114.385 716.209 111.572 717.412 108.854L719.381 104.421C708.027 94.9994 695.938 97.0879 692.475 97.9577C690.225 109.395 683.683 121.942 679.907 128.525C679.631 128.999 679.704 129.593 680.079 130.01C680.209 130.15 680.423 130.275 680.688 130.364L683.345 131.229C683.839 131.39 684.241 131.765 684.433 132.249L685.777 135.661ZM701.61 141.828C694.662 141.828 686.397 139.494 683.959 138.76C683.449 138.604 683.037 138.229 682.839 137.734L681.485 134.286L679.605 133.676C678.756 133.395 678.027 132.937 677.485 132.338C676.105 130.801 675.86 128.572 676.886 126.791C679.923 121.484 687.214 107.895 689.241 96.2754C689.345 95.6504 689.793 95.1296 690.402 94.9265C691.095 94.6921 707.694 89.3067 722.657 102.645C723.22 103.145 723.407 103.953 723.089 104.645L720.6 110.265C719.459 112.833 718.496 115.499 717.72 118.192C716.282 123.223 713.574 132.406 711.678 137.411C710.397 140.76 706.308 141.828 701.61 141.828Z" fill="black"/>
<path d="M718.818 123.109C718.818 123.109 724.798 109.593 730.344 113.65C735.886 117.702 728.943 132.411 718.818 123.109Z" fill="white"/>
<path d="M434.865 428.812H672.605C674.876 428.812 676.714 426.974 676.714 424.698V415.609H430.756V424.698C430.756 426.974 432.6 428.812 434.865 428.812Z" fill="#99B9FF"/>
<path d="M432.499 417.354V419.562C432.499 423.702 435.869 427.067 440.005 427.067H667.468C671.604 427.067 674.973 423.702 674.973 419.562V417.354H432.499ZM667.468 430.557H440.005C433.942 430.557 429.01 425.624 429.01 419.562V413.869H678.458V419.562C678.458 425.624 673.525 430.557 667.468 430.557Z" fill="black"/>
<path d="M430.755 415.844H571.489L526.776 284.25C524.099 280.141 519.443 277.641 514.427 277.641H395.458C390.062 277.641 386.583 282.88 388.344 287.5C389.047 289.339 389.802 291.156 390.416 293.021L430.755 415.844Z" fill="#99B9FF"/>
<path d="M432.016 414.105H569.063L525.204 285.021C522.813 281.485 518.803 279.381 514.428 279.381H395.459C393.475 279.381 391.714 280.292 390.62 281.876C389.589 283.365 389.35 285.235 389.975 286.876C390.172 287.396 390.376 287.912 390.573 288.423C391.089 289.735 391.62 291.094 392.073 292.48L432.016 414.105ZM573.922 417.589H429.495L388.761 293.563C388.334 292.271 387.823 290.959 387.329 289.688C387.12 289.167 386.917 288.641 386.719 288.12C385.683 285.407 386.068 282.329 387.751 279.896C389.501 277.355 392.313 275.896 395.459 275.896H514.428C520.068 275.896 525.225 278.662 528.245 283.303L528.433 283.693L573.922 417.589Z" fill="black"/>
<path d="M482.979 344.969C484.661 350.531 482.098 356.229 477.255 357.687C472.416 359.146 467.135 355.823 465.458 350.255C463.786 344.692 466.338 339 471.187 337.536C476.02 336.078 481.307 339.406 482.979 344.969Z" fill="white"/>
<path d="M550.568 417.588H473.027C472.068 417.588 471.287 416.812 471.287 415.843C471.287 414.885 472.068 414.104 473.027 414.104H550.568C551.527 414.104 552.308 414.885 552.308 415.843C552.308 416.812 551.527 417.588 550.568 417.588Z" fill="white"/>
<path d="M447.296 417.588H433.551C432.588 417.588 431.807 416.812 431.807 415.843C431.807 414.885 432.588 414.104 433.551 414.104H447.296C448.255 414.104 449.036 414.885 449.036 415.843C449.036 416.812 448.255 417.588 447.296 417.588Z" fill="white"/>
<path d="M148.448 568.343C162.937 571.515 172.135 585.729 168.989 600.093C165.838 614.447 151.541 623.515 137.052 620.338C122.557 617.161 113.359 602.947 116.505 588.588C119.656 574.234 133.953 565.166 148.448 568.343ZM77.1248 569.572L84.4789 575.65C85.6664 576.635 86.1977 578.202 85.8123 579.682C85.406 581.239 85.0623 582.812 84.7914 584.39C84.531 585.89 83.406 587.098 81.9269 587.505L72.7394 590.036C70.9269 590.531 69.7133 592.208 69.8123 594.067L70.2133 601.645C70.3123 603.51 71.6977 605.057 73.5519 605.38L82.9841 607.01C84.5102 607.281 85.7498 608.39 86.1664 609.864C86.6039 611.395 87.0935 612.906 87.6508 614.395C88.1925 615.833 87.8383 617.447 86.7602 618.546L80.0779 625.312C78.7654 626.64 78.5623 628.697 79.5831 630.26L83.755 636.645C84.7758 638.208 86.755 638.864 88.5206 638.229L97.4737 634.979C98.9217 634.452 100.552 634.791 101.661 635.869C102.802 636.979 104 638.041 105.239 639.067C106.437 640.046 106.948 641.63 106.567 643.114L104.213 652.291C103.75 654.098 104.609 655.984 106.281 656.833L113.099 660.301C114.776 661.156 116.817 660.744 118.015 659.317L124.125 652.051C125.104 650.88 126.687 650.348 128.182 650.744C129.755 651.156 131.344 651.494 132.932 651.77C134.448 652.036 135.666 653.156 136.083 654.624L138.672 663.739C139.182 665.541 140.875 666.749 142.75 666.661L150.39 666.291C152.265 666.197 153.823 664.833 154.14 662.994L155.755 653.656C156.015 652.15 157.114 650.911 158.594 650.505C160.151 650.077 161.687 649.593 163.203 649.036C164.646 648.51 166.271 648.88 167.37 649.952L174.219 656.593C175.567 657.906 177.64 658.114 179.219 657.109L185.635 652.999C187.213 651.989 187.864 650.031 187.213 648.281L183.906 639.385C183.364 637.947 183.708 636.333 184.786 635.234C185.901 634.109 186.969 632.926 187.995 631.697C188.979 630.515 190.573 630.015 192.078 630.4L201.338 632.775C203.161 633.239 205.062 632.395 205.911 630.734L209.385 623.989C210.239 622.333 209.817 620.307 208.37 619.109L201.021 613.025C199.833 612.046 199.297 610.473 199.682 608.999C200.094 607.437 200.432 605.864 200.703 604.296C200.963 602.791 202.088 601.583 203.573 601.176L212.76 598.645C214.567 598.15 215.781 596.473 215.682 594.614L215.281 587.031C215.182 585.171 213.797 583.619 211.942 583.301L202.515 581.671C201 581.406 199.75 580.307 199.333 578.843C198.896 577.296 198.396 575.765 197.833 574.265C197.302 572.827 197.666 571.223 198.739 570.135L205.416 563.369C206.729 562.041 206.937 559.984 205.911 558.416L201.745 552.041C200.719 550.473 198.739 549.812 196.974 550.452L188.021 553.702C186.573 554.229 184.942 553.885 183.838 552.812C182.692 551.702 181.495 550.64 180.255 549.614C179.057 548.635 178.547 547.051 178.927 545.562L181.286 536.385C181.75 534.583 180.885 532.692 179.213 531.843L172.396 528.374C170.724 527.52 168.682 527.932 167.479 529.359L161.375 536.63C160.39 537.807 158.807 538.327 157.317 537.937C155.739 537.525 154.151 537.182 152.567 536.911C151.052 536.645 149.828 535.525 149.411 534.057L146.828 524.937C146.317 523.14 144.625 521.932 142.745 522.02L135.104 522.39C133.229 522.479 131.672 523.848 131.354 525.687L129.739 535.031C129.479 536.541 128.37 537.77 126.88 538.182C125.338 538.604 123.812 539.088 122.312 539.635C120.864 540.161 119.234 539.801 118.125 538.729L111.276 532.083C109.932 530.775 107.854 530.562 106.276 531.572L99.8592 535.682C98.2862 536.692 97.63 538.65 98.281 540.4L101.594 549.291C102.13 550.734 101.791 552.348 100.708 553.442C99.5987 554.572 98.5258 555.755 97.4998 556.979C96.5154 558.166 94.9217 558.666 93.4217 558.281L84.156 555.906C82.3331 555.442 80.4373 556.286 79.5831 557.947L76.1092 564.692C75.2602 566.348 75.6769 568.374 77.1248 569.572Z" fill="#99B9FF"/>
<path d="M142.599 569.448C137.865 569.448 133.229 570.787 129.156 573.365C123.521 576.938 119.636 582.474 118.214 588.964C116.792 595.453 118.005 602.11 121.63 607.714C125.255 613.318 130.865 617.198 137.422 618.636C143.979 620.073 150.698 618.891 156.339 615.318C161.979 611.745 165.865 606.203 167.287 599.719C168.708 593.229 167.495 586.573 163.87 580.969C160.24 575.365 154.63 571.479 148.073 570.047C146.25 569.646 144.417 569.448 142.599 569.448ZM142.906 622.719C140.833 622.719 138.75 622.495 136.677 622.042C129.214 620.406 122.833 615.985 118.703 609.604C114.568 603.214 113.182 595.62 114.807 588.219C116.427 580.818 120.859 574.495 127.292 570.422C133.714 566.349 141.359 565.011 148.818 566.641C156.281 568.271 162.667 572.693 166.797 579.073C170.932 585.469 172.313 593.063 170.693 600.459C169.068 607.865 164.636 614.182 158.208 618.261C153.568 621.203 148.292 622.719 142.906 622.719ZM127.203 648.875C127.672 648.875 128.151 648.932 128.62 649.057C130.146 649.453 131.698 649.787 133.229 650.052C135.38 650.427 137.162 652.037 137.761 654.151L140.349 663.271C140.636 664.292 141.589 664.964 142.667 664.917L150.307 664.552C151.375 664.495 152.245 663.74 152.427 662.698L154.037 653.36C154.412 651.188 156.021 649.406 158.136 648.828C159.641 648.417 161.146 647.938 162.609 647.401C164.656 646.656 167.005 647.167 168.589 648.703L175.438 655.349C176.193 656.084 177.391 656.209 178.276 655.641L184.693 651.531C185.583 650.964 185.948 649.87 185.583 648.886L182.271 639.995C181.5 637.927 182 635.578 183.542 634.016C184.615 632.932 185.662 631.776 186.662 630.589C188.068 628.896 190.359 628.162 192.511 628.714L201.771 631.089C202.813 631.349 203.88 630.88 204.365 629.938L207.839 623.193C208.318 622.255 208.083 621.13 207.261 620.448L199.906 614.375C198.198 612.953 197.448 610.672 198 608.563C198.391 607.047 198.724 605.511 198.99 603.995C199.354 601.854 200.974 600.089 203.109 599.495L212.297 596.969C213.323 596.682 214 595.755 213.943 594.709L213.542 587.13C213.484 586.068 212.708 585.203 211.646 585.016L202.219 583.386C200.037 583.005 198.25 581.406 197.656 579.313C197.234 577.818 196.745 576.328 196.203 574.87C195.438 572.823 195.943 570.485 197.5 568.912L204.177 562.146C204.917 561.396 205.031 560.25 204.453 559.365L200.281 552.99C199.708 552.11 198.568 551.729 197.573 552.094L188.62 555.344C186.547 556.094 184.198 555.589 182.62 554.068C181.526 553 180.354 551.959 179.146 550.964C177.438 549.557 176.688 547.266 177.24 545.13L179.599 535.953C179.859 534.938 179.375 533.88 178.422 533.396L171.604 529.932C170.662 529.448 169.484 529.682 168.813 530.485L162.708 537.75C161.287 539.443 159 540.177 156.875 539.625C155.354 539.229 153.802 538.891 152.266 538.63C150.115 538.255 148.333 536.646 147.734 534.531L145.151 525.412C144.859 524.391 143.912 523.719 142.828 523.761L135.188 524.13C134.12 524.182 133.25 524.943 133.073 525.985L131.458 535.328C131.083 537.495 129.469 539.276 127.339 539.86C125.849 540.271 124.359 540.745 122.912 541.271C120.849 542.021 118.495 541.516 116.912 539.979L110.063 533.334C109.302 532.594 108.104 532.474 107.219 533.042L100.802 537.151C99.9116 537.724 99.547 538.807 99.9168 539.792L103.229 548.688C103.995 550.755 103.495 553.099 101.953 554.667C100.88 555.755 99.8334 556.906 98.8386 558.099C97.4324 559.781 95.1303 560.521 92.9897 559.969L83.7241 557.599C82.6824 557.328 81.6147 557.802 81.1303 558.745L77.6616 565.49C77.1772 566.422 77.4168 567.552 78.2345 568.235L85.5886 574.313C87.3022 575.724 88.0522 578.011 87.5001 580.125C87.1043 581.636 86.7709 583.172 86.5105 584.688C86.1407 586.834 84.5209 588.594 82.3855 589.188L73.2032 591.714C72.1772 591.995 71.4949 592.927 71.5522 593.979L71.9532 601.552C72.0105 602.61 72.7918 603.479 73.8491 603.662L83.2814 605.297C85.4584 605.672 87.2501 607.281 87.8439 609.391C88.2657 610.87 88.7501 612.349 89.2866 613.781C90.0574 615.849 89.5522 618.198 88.0001 619.771L81.3178 626.537C80.5782 627.287 80.4689 628.427 81.047 629.307L85.2136 635.693C85.7918 636.573 86.9324 636.948 87.9272 636.589L96.8803 633.339C98.948 632.589 101.302 633.094 102.875 634.615C103.979 635.693 105.146 636.735 106.349 637.719C108.057 639.125 108.807 641.412 108.255 643.547L105.901 652.724C105.636 653.75 106.12 654.797 107.073 655.281L113.891 658.755C114.839 659.235 116.011 658.995 116.682 658.193L122.787 650.927C123.896 649.615 125.531 648.875 127.203 648.875ZM142.547 668.412C139.964 668.412 137.703 666.724 136.995 664.224L134.406 655.099C134.172 654.266 133.474 653.636 132.636 653.485C131.005 653.203 129.359 652.844 127.74 652.432C126.912 652.214 126.016 652.505 125.458 653.167L119.354 660.438C117.62 662.505 114.724 663.084 112.313 661.854L105.49 658.391C103.073 657.156 101.854 654.474 102.526 651.86L104.88 642.682C105.094 641.849 104.802 640.959 104.136 640.412C102.859 639.36 101.62 638.255 100.448 637.12C99.823 636.516 98.8907 636.318 98.0678 636.62L89.1147 639.87C86.5782 640.787 83.7709 639.86 82.297 637.594L78.1251 631.219C76.6407 628.953 76.9376 626.021 78.8386 624.089L85.5157 617.323C86.1199 616.709 86.3178 615.802 86.0209 615C85.448 613.479 84.9376 611.912 84.4897 610.339C84.2605 609.511 83.547 608.88 82.6824 608.729L73.2553 607.094C70.5782 606.63 68.6147 604.432 68.4741 601.735L68.073 594.162C67.9272 591.464 69.6564 589.073 72.2761 588.349L81.4636 585.828C82.3022 585.594 82.9324 584.912 83.073 584.089C83.3543 582.485 83.7084 580.854 84.1251 579.245C84.3334 578.432 84.0366 577.552 83.3647 576.995L76.0157 570.917C73.922 569.188 73.323 566.297 74.5626 563.896L78.0314 557.146C79.2657 554.75 81.9636 553.552 84.5886 554.219L93.8491 556.594C94.7032 556.813 95.6095 556.521 96.1616 555.865C97.2136 554.604 98.3282 553.375 99.4689 552.219C100.068 551.615 100.261 550.709 99.9584 549.901L96.6511 541.016C95.7032 538.474 96.6355 535.677 98.922 534.214L105.339 530.104C107.609 528.651 110.552 528.953 112.49 530.834L119.339 537.479C119.969 538.089 120.901 538.297 121.719 537.995C123.255 537.438 124.839 536.938 126.417 536.5C127.245 536.271 127.88 535.584 128.026 534.735L129.636 525.386C130.094 522.729 132.313 520.781 135.021 520.651L142.662 520.281C145.349 520.141 147.771 521.87 148.505 524.464L151.089 533.578C151.328 534.417 152.021 535.047 152.865 535.198C154.49 535.474 156.136 535.834 157.755 536.25C158.583 536.469 159.479 536.177 160.037 535.511L166.146 528.245C167.875 526.177 170.771 525.599 173.188 526.823L180.005 530.292C182.422 531.526 183.646 534.209 182.974 536.818L180.615 545.995C180.401 546.828 180.693 547.724 181.359 548.271C182.646 549.323 183.886 550.432 185.052 551.563C185.672 552.167 186.609 552.365 187.432 552.068L196.386 548.813C198.922 547.896 201.724 548.828 203.203 551.084L207.37 557.464C208.854 559.735 208.563 562.662 206.656 564.594L199.979 571.36C199.375 571.969 199.177 572.87 199.469 573.651C200.042 575.193 200.563 576.781 201.011 578.37C201.24 579.182 201.948 579.802 202.813 579.948L212.245 581.584C214.917 582.047 216.88 584.255 217.021 586.943L217.422 594.521C217.568 597.219 215.839 599.604 213.224 600.328L204.037 602.854C203.198 603.089 202.563 603.766 202.422 604.589C202.146 606.198 201.792 607.828 201.37 609.438C201.162 610.25 201.458 611.13 202.13 611.682L209.484 617.766C211.573 619.495 212.172 622.386 210.938 624.787L207.464 631.537C206.229 633.932 203.537 635.13 200.906 634.464L191.646 632.089C190.797 631.87 189.886 632.156 189.333 632.818C188.276 634.084 187.162 635.307 186.026 636.459C185.432 637.068 185.24 637.979 185.537 638.781L188.849 647.672C189.792 650.209 188.859 653.005 186.573 654.464L180.162 658.573C177.886 660.031 174.948 659.729 173.005 657.854L166.156 651.203C165.531 650.589 164.604 650.386 163.802 650.677C162.25 651.245 160.656 651.75 159.057 652.188C158.24 652.412 157.62 653.104 157.474 653.948L155.859 663.297C155.401 665.953 153.188 667.901 150.474 668.031L142.833 668.401C142.74 668.406 142.641 668.412 142.547 668.412Z" fill="black"/>
<path d="M246.88 667.677C262.037 668.344 273.786 681.052 273.13 696.062C272.474 711.078 259.656 722.714 244.505 722.047C229.349 721.38 217.599 708.677 218.255 693.661C218.912 678.651 231.729 667.016 246.88 667.677ZM175.255 681.396L183.724 686.234C185.089 687.016 185.901 688.505 185.771 690.062C185.635 691.703 185.568 693.344 185.573 694.979C185.573 696.536 184.646 697.948 183.229 698.62L174.417 702.776C172.682 703.594 171.75 705.49 172.177 707.354L173.906 714.911C174.333 716.771 176 718.089 177.922 718.089H187.708C189.292 718.089 190.74 718.984 191.417 720.401C192.12 721.859 192.885 723.302 193.703 724.703C194.5 726.057 194.427 727.745 193.531 729.042L187.984 737.021C186.896 738.594 187.052 740.703 188.359 742.104L193.672 747.802C194.974 749.198 197.083 749.516 198.75 748.557L207.198 743.719C208.568 742.937 210.271 742.995 211.573 743.885C212.922 744.797 214.313 745.661 215.745 746.474C217.12 747.255 217.911 748.76 217.786 750.328L217.016 759.979C216.87 761.88 218.063 763.63 219.901 764.198L227.375 766.495C229.208 767.062 231.198 766.292 232.156 764.646L237.031 756.255C237.818 754.896 239.318 754.094 240.891 754.229C242.552 754.365 244.208 754.432 245.854 754.427C247.427 754.427 248.854 755.344 249.531 756.755L253.734 765.49C254.563 767.208 256.479 768.13 258.354 767.714L265.984 766.005C267.859 765.583 269.193 763.932 269.188 762.026L269.177 752.333C269.172 750.771 270.063 749.339 271.484 748.672C272.979 747.969 274.443 747.203 275.875 746.385C277.234 745.599 278.938 745.693 280.229 746.568L288.297 752.073C289.88 753.151 292.005 753 293.417 751.708L299.161 746.448C300.573 745.156 300.891 743.068 299.927 741.417L295.036 733.042C294.24 731.682 294.302 729.995 295.198 728.708C296.12 727.375 296.995 726 297.813 724.578C298.599 723.219 300.115 722.432 301.693 722.557L311.438 723.323C313.354 723.474 315.12 722.292 315.693 720.474L318.01 713.068C318.578 711.25 317.797 709.281 316.13 708.328L307.661 703.495C306.297 702.714 305.484 701.224 305.615 699.667C305.75 698.021 305.818 696.385 305.818 694.75C305.813 693.193 306.74 691.776 308.156 691.109L316.969 686.953C318.703 686.135 319.635 684.234 319.208 682.375L317.479 674.812C317.052 672.958 315.385 671.641 313.464 671.641H303.677C302.104 671.641 300.656 670.755 299.979 669.349C299.271 667.875 298.5 666.422 297.667 665.005C296.875 663.651 296.964 661.969 297.854 660.682L303.401 652.698C304.49 651.13 304.333 649.021 303.026 647.625L297.714 641.927C296.412 640.531 294.297 640.214 292.635 641.167L284.188 646.005C282.818 646.792 281.115 646.729 279.813 645.844C278.464 644.927 277.078 644.057 275.646 643.25C274.266 642.469 273.474 640.964 273.599 639.396L274.365 629.75C274.516 627.849 273.323 626.099 271.484 625.531L264.01 623.229C262.172 622.661 260.188 623.432 259.229 625.083L254.354 633.474C253.568 634.828 252.063 635.63 250.495 635.5C248.833 635.365 247.177 635.297 245.531 635.297C243.958 635.297 242.531 634.375 241.854 632.974L237.651 624.24C236.823 622.516 234.906 621.594 233.031 622.016L225.401 623.724C223.526 624.141 222.193 625.797 222.198 627.698L222.208 637.396C222.208 638.958 221.307 640.396 219.875 641.073C218.401 641.766 216.948 642.521 215.536 643.333C214.167 644.12 212.458 644.047 211.156 643.151L203.089 637.656C201.51 636.578 199.38 636.724 197.969 638.016L192.224 643.281C190.818 644.573 190.495 646.661 191.458 648.312L196.354 656.687C197.146 658.042 197.083 659.729 196.188 661.021C195.266 662.349 194.391 663.729 193.573 665.146C192.786 666.51 191.271 667.297 189.693 667.172L179.948 666.401C178.031 666.245 176.266 667.432 175.693 669.255L173.38 676.661C172.807 678.479 173.589 680.448 175.255 681.396Z" fill="#0048BB"/>
<path d="M928.099 196.094H928.11H928.099ZM934.344 194.578C933.995 194.578 933.646 194.609 933.303 194.667C931.756 194.943 930.417 195.802 929.527 197.089C928.636 198.37 928.292 199.922 928.568 201.458C928.844 203 929.698 204.339 930.985 205.229C932.266 206.125 933.823 206.464 935.36 206.188C936.902 205.917 938.245 205.052 939.131 203.771C940.974 201.125 940.323 197.469 937.672 195.63C936.683 194.938 935.521 194.578 934.344 194.578ZM934.313 209.771C932.417 209.771 930.573 209.198 928.99 208.094C926.948 206.667 925.573 204.531 925.136 202.073C924.698 199.62 925.24 197.136 926.667 195.094C928.089 193.047 930.23 191.682 932.678 191.24C935.136 190.797 937.62 191.344 939.667 192.766C943.891 195.708 944.938 201.537 941.995 205.766C940.568 207.813 938.433 209.182 935.98 209.62C935.417 209.719 934.865 209.771 934.313 209.771Z" fill="black"/>
<path d="M897.12 130.771C896.625 130.771 896.141 130.568 895.792 130.162C895.167 129.428 895.255 128.329 895.985 127.704L901.615 122.907C902.354 122.282 903.448 122.37 904.078 123.105C904.698 123.834 904.61 124.933 903.88 125.563L898.25 130.36C897.917 130.641 897.521 130.771 897.12 130.771Z" fill="black"/>
<path d="M879.329 145.938C878.834 145.938 878.35 145.735 878.001 145.329C877.376 144.599 877.469 143.495 878.199 142.87L883.824 138.073C884.563 137.448 885.657 137.542 886.282 138.266C886.912 138.995 886.818 140.099 886.084 140.724L880.459 145.521C880.131 145.808 879.73 145.938 879.329 145.938Z" fill="black"/>
<path d="M885.849 129.89C885.364 129.89 884.869 129.682 884.52 129.276L879.724 123.645C879.099 122.911 879.187 121.812 879.916 121.192C880.651 120.562 881.75 120.651 882.38 121.385L887.177 127.01C887.802 127.744 887.708 128.849 886.974 129.468C886.651 129.75 886.25 129.89 885.849 129.89Z" fill="black"/>
<path d="M901.025 147.661C900.53 147.661 900.041 147.453 899.697 147.052L894.895 141.427C894.27 140.687 894.359 139.594 895.093 138.963C895.827 138.344 896.931 138.432 897.551 139.161L902.348 144.792C902.973 145.526 902.879 146.62 902.155 147.25C901.822 147.526 901.426 147.661 901.025 147.661Z" fill="black"/>
<path d="M109.391 860.334C108.459 860.334 107.688 859.6 107.652 858.657L107.37 851.272C107.334 850.308 108.084 849.496 109.047 849.459C110.032 849.444 110.818 850.178 110.855 851.136L111.136 858.532C111.167 859.49 110.417 860.298 109.459 860.334C109.433 860.334 109.412 860.334 109.391 860.334Z" fill="black"/>
<path d="M110.27 883.693C109.338 883.693 108.567 882.953 108.531 882.016L108.249 874.625C108.213 873.661 108.963 872.854 109.926 872.818C110.911 872.781 111.697 873.531 111.734 874.495L112.015 881.885C112.051 882.844 111.301 883.656 110.338 883.693C110.317 883.693 110.291 883.693 110.27 883.693Z" fill="black"/>
<path d="M94.3131 868.901C93.3808 868.901 92.61 868.162 92.5735 867.224C92.5371 866.261 93.2871 865.448 94.2506 865.412L101.641 865.141C102.615 865.125 103.417 865.854 103.449 866.813C103.485 867.776 102.735 868.584 101.777 868.62L94.3808 868.901C94.36 868.901 94.3392 868.901 94.3131 868.901Z" fill="black"/>
<path d="M117.672 868.022C116.745 868.022 115.969 867.282 115.933 866.345C115.896 865.381 116.646 864.574 117.61 864.532L125.006 864.256C125.985 864.246 126.771 864.97 126.813 865.933C126.85 866.897 126.094 867.704 125.136 867.74L117.74 868.022C117.719 868.022 117.699 868.022 117.672 868.022Z" fill="black"/>
<path d="M682.974 293.695C688.289 293.695 692.93 290.415 694.912 285.551C699.021 275.485 709.034 268.36 720.713 268.36C732.393 268.36 742.406 275.485 746.515 285.551C748.497 290.401 753.152 293.695 758.453 293.695H761.254C760.162 272.615 742.392 255.791 720.713 255.791C699.021 255.791 681.264 272.615 680.158 293.695H682.974Z" fill="#FEFEFE"/>
<path d="M758.466 297.809C753.151 297.809 748.511 301.089 746.514 305.952C742.405 316.018 732.392 323.144 720.713 323.144C709.033 323.144 699.02 316.018 694.911 305.952C692.929 301.103 688.289 297.809 682.973 297.809H680.172C681.264 318.888 699.034 335.712 720.727 335.712C742.42 335.712 760.176 318.888 761.268 297.809H758.466Z" fill="#FEFEFE"/>
</svg>
