<svg width="213" height="314" viewBox="0 0 213 314" fill="none" xmlns="http://www.w3.org/2000/svg">
<rect x="86" y="78" width="18" height="236" fill="url(#paint0_linear_1772_19492)"/>
<rect x="66" y="13" width="58" height="14" fill="#E0867D"/>
<circle cx="95" cy="20" r="11" fill="#E0867D"/>
<rect x="66" y="8" width="4" height="24" fill="#9F2D22"/>
<rect x="120" y="8" width="4" height="24" fill="#9F2D22"/>
<path fill-rule="evenodd" clip-rule="evenodd" d="M95 38C104.941 38 113 29.9409 113 20C113 10.0591 104.941 2 95 2C85.0591 2 77 10.0591 77 20C77 29.9409 85.0591 38 95 38ZM95 34.8235C98.5213 34.8235 101.756 33.5956 104.299 31.5447L95.1013 22.3472L85.8139 31.6347C88.3394 33.6313 91.5304 34.8235 95 34.8235ZM83.5463 29.4105L92.8555 20.1013L83.4553 10.7012C81.4044 13.2443 80.1765 16.4787 80.1765 20C80.1765 23.573 81.4405 26.8508 83.5463 29.4105ZM95.1013 17.8555L85.7012 8.45531C88.2443 6.40435 91.4787 5.17647 95 5.17647C98.573 5.17647 101.851 6.44054 104.411 8.5463L95.1013 17.8555ZM97.3472 20.1013L106.635 10.8139C108.631 13.3394 109.824 16.5304 109.824 20C109.824 23.5213 108.596 26.7557 106.545 29.2988L97.3472 20.1013Z" fill="#9F2D22"/>
<rect x="66" y="75" width="58" height="14" fill="#E0867D"/>
<circle cx="95" cy="82" r="11" fill="#E0867D"/>
<rect x="66" y="70" width="4" height="24" fill="#9F2D22"/>
<rect x="120" y="70" width="4" height="24" fill="#9F2D22"/>
<path fill-rule="evenodd" clip-rule="evenodd" d="M95 100C104.941 100 113 91.9409 113 82C113 72.0591 104.941 64 95 64C85.0591 64 77 72.0591 77 82C77 91.9409 85.0591 100 95 100ZM95 96.8235C98.5213 96.8235 101.756 95.5956 104.299 93.5447L95.1013 84.3472L85.8139 93.6347C88.3394 95.6313 91.5304 96.8235 95 96.8235ZM83.5463 91.4105L92.8555 82.1013L83.4553 72.7012C81.4044 75.2443 80.1765 78.4787 80.1765 82C80.1765 85.573 81.4405 88.8508 83.5463 91.4105ZM95.1013 79.8555L85.7012 70.4553C88.2443 68.4044 91.4787 67.1765 95 67.1765C98.573 67.1765 101.851 68.4405 104.411 70.5463L95.1013 79.8555ZM97.3472 82.1013L106.635 72.8139C108.631 75.3394 109.824 78.5304 109.824 82C109.824 85.5213 108.596 88.7557 106.545 91.2988L97.3472 82.1013Z" fill="#9F2D22"/>
<rect x="66" y="115" width="58" height="14" fill="#E0867D"/>
<circle cx="95" cy="122" r="11" fill="#E0867D"/>
<rect x="66" y="110" width="4" height="24" fill="#9F2D22"/>
<rect x="120" y="110" width="4" height="24" fill="#9F2D22"/>
<path fill-rule="evenodd" clip-rule="evenodd" d="M95 140C104.941 140 113 131.941 113 122C113 112.059 104.941 104 95 104C85.0591 104 77 112.059 77 122C77 131.941 85.0591 140 95 140ZM95 136.824C98.5213 136.824 101.756 135.596 104.299 133.545L95.1013 124.347L85.8139 133.635C88.3394 135.631 91.5304 136.824 95 136.824ZM83.5463 131.411L92.8555 122.101L83.4553 112.701C81.4044 115.244 80.1765 118.479 80.1765 122C80.1765 125.573 81.4405 128.851 83.5463 131.411ZM95.1013 119.855L85.7012 110.455C88.2443 108.404 91.4787 107.176 95 107.176C98.573 107.176 101.851 108.441 104.411 110.546L95.1013 119.855ZM97.3472 122.101L106.635 112.814C108.631 115.339 109.824 118.53 109.824 122C109.824 125.521 108.596 128.756 106.545 131.299L97.3472 122.101Z" fill="#9F2D22"/>
<g filter="url(#filter0_d_1772_19492)">
<path d="M19 145H63V170L19 158V145Z" fill="#F5F5F5"/>
</g>
<path fill-rule="evenodd" clip-rule="evenodd" d="M19 145H3V159H19V145ZM17.1782 146H4.94294L11.0606 151.375L17.1782 146ZM17.7954 146.872L11.8653 152.082L17.7954 157.293V146.872ZM10.2558 152.082L4.13823 146.707V157.458L10.2558 152.082ZM5.13059 158L11.0606 152.79L16.9906 158H5.13059Z" fill="#3C3B3B"/>
<path fill-rule="evenodd" clip-rule="evenodd" d="M18.9333 189H3V203H18.9333V189ZM17.1782 190H4.94294L11.0606 195.375L17.1782 190ZM17.7954 190.872L11.8653 196.082L17.7954 201.293V190.872ZM10.2558 196.082L4.13823 190.707V201.458L10.2558 196.082ZM5.13059 202L11.0606 196.79L16.9906 202H5.13059Z" fill="#3C3B3B"/>
<path fill-rule="evenodd" clip-rule="evenodd" d="M12.1048 255H3V263H12.1048V255ZM11.1022 255.571H4.10977L7.60601 258.643L11.1022 255.571ZM11.4544 256.07L8.06587 259.047L11.4544 262.025V256.07ZM7.14615 259.047L3.65032 255.976V262.119L7.14615 259.047ZM4.21788 262.428L7.60601 259.451L10.9941 262.428H4.21788Z" fill="#3C3B3B"/>
<path fill-rule="evenodd" clip-rule="evenodd" d="M186.933 189H171V203H186.933V189ZM185.178 190H172.943L179.061 195.375L185.178 190ZM185.795 190.872L179.865 196.082L185.795 201.293V190.872ZM178.256 196.082L172.138 190.707V201.458L178.256 196.082ZM173.131 202L179.061 196.79L184.991 202H173.131Z" fill="#3C3B3B"/>
<g filter="url(#filter1_d_1772_19492)">
<path d="M171 145H127V170L171 158V145Z" fill="#F5F5F5"/>
</g>
<path fill-rule="evenodd" clip-rule="evenodd" d="M171 145H187V159H171V145ZM172.755 146H184.99L178.873 151.375L172.755 146ZM172.138 146.872L178.068 152.082L172.138 157.293V146.872ZM179.678 152.082L185.795 146.707V157.458L179.678 152.082ZM184.803 158L178.873 152.79L172.943 158H184.803Z" fill="#3C3B3B"/>
<path fill-rule="evenodd" clip-rule="evenodd" d="M176 255H187V266H176V255ZM177.211 255.786H185.66L181.435 260.01L177.211 255.786ZM176.786 256.472L180.88 260.566L176.786 264.659V256.472ZM181.991 260.566L186.215 256.342V264.79L181.991 260.566ZM185.528 265.215L181.435 261.121L177.342 265.215H185.528Z" fill="#3C3B3B"/>
<path fill-rule="evenodd" clip-rule="evenodd" d="M124 0H190V39H124V0ZM127 3H187V36H127V3Z" fill="#3C3B3B"/>
<path fill-rule="evenodd" clip-rule="evenodd" d="M66 0H0V39H66V0ZM63 3H3V36H63V3Z" fill="#3C3B3B"/>
<path fill-rule="evenodd" clip-rule="evenodd" d="M0 63H66V145V310V314H63V310V145H3V263L22 308V256H12V255H28V310V314H22V310L3 265V307L4 308L5 309L6 310V314H0V63ZM46 310V234H40L26.9368 213V189H18.5684V213H18.57L40 244V310V314H46V310ZM3 142V66H63V142H3ZM19.4053 190H26.1L26.1001 213L40 235V242.998L19.4053 212.999V190Z" fill="#3C3B3B"/>
<path fill-rule="evenodd" clip-rule="evenodd" d="M190 310V314H184V310L185 309L186 308L187 307V292V236V230V224V220V185V183V167V165V145H127V310V314H124V310V63H190V163V168.5V177.5V183V218V227V233.5V238V290V310ZM144 314V310L144.068 234H150L162.042 213L162 189H171V212.5V213L150 245V310V314H144ZM162 314V310V255H176V284L168 310V314H162ZM187 66V142H127V66H187ZM168 308L175 284V256H168V308ZM170.163 190H163V213L150 235V244L170 213L170.163 190Z" fill="#3C3B3B"/>
<ellipse cx="158.105" cy="51" rx="5" ry="5.69048" transform="rotate(-90 158.105 51)" fill="#E0867D"/>
<rect x="154.69" y="61" width="20" height="6.82857" transform="rotate(-90 154.69 61)" fill="#E0867D"/>
<path fill-rule="evenodd" clip-rule="evenodd" d="M167.21 51C167.21 46.5818 163.133 43 158.105 43C153.076 43 149 46.5818 149 51C149 55.4182 153.076 59 158.105 59C163.133 59 167.21 55.4182 167.21 51ZM165.603 51C165.603 49.435 164.982 47.9975 163.944 46.8672L159.292 50.955L163.99 55.0827C165 53.9602 165.603 52.542 165.603 51ZM162.865 56.0905L158.156 51.9531L153.401 56.131C154.688 57.0425 156.324 57.5882 158.105 57.5882C159.912 57.5882 161.57 57.0264 162.865 56.0905ZM157.02 50.955L152.265 55.1328C151.228 54.0025 150.607 52.565 150.607 51C150.607 49.412 151.246 47.9552 152.311 46.8176L157.02 50.955ZM158.156 49.9568L153.458 45.829C154.736 44.9416 156.35 44.4118 158.105 44.4118C159.886 44.4118 161.522 44.9575 162.808 45.869L158.156 49.9568Z" fill="#9F2D22"/>
<rect x="152.414" y="63" width="2" height="11.381" transform="rotate(-90 152.414 63)" fill="#9F2D22"/>
<rect x="152.414" y="41" width="2" height="11.381" transform="rotate(-90 152.414 41)" fill="#9F2D22"/>
<ellipse cx="33.1048" cy="51" rx="5" ry="5.69048" transform="rotate(-90 33.1048 51)" fill="#E0867D"/>
<rect x="29.6904" y="61" width="20" height="6.82857" transform="rotate(-90 29.6904 61)" fill="#E0867D"/>
<path fill-rule="evenodd" clip-rule="evenodd" d="M42.2095 51C42.2095 46.5818 38.1331 43 33.1048 43C28.0764 43 24 46.5818 24 51C24 55.4182 28.0764 59 33.1048 59C38.1331 59 42.2095 55.4182 42.2095 51ZM40.6028 51C40.6028 49.435 39.9817 47.9975 38.9443 46.8672L34.292 50.955L38.9898 55.0827C39.9998 53.9602 40.6028 52.542 40.6028 51ZM37.8648 56.0905L33.156 51.9531L28.4012 56.131C29.6876 57.0425 31.3236 57.5882 33.1048 57.5882C34.9121 57.5882 36.57 57.0264 37.8648 56.0905ZM32.02 50.955L27.2652 55.1328C26.2278 54.0025 25.6067 52.565 25.6067 51C25.6067 49.412 26.2461 47.9552 27.3113 46.8176L32.02 50.955ZM33.156 49.9568L28.4582 45.829C29.7357 44.9416 31.3498 44.4118 33.1048 44.4118C34.8859 44.4118 36.5219 44.9575 37.8083 45.869L33.156 49.9568Z" fill="#9F2D22"/>
<rect x="27.4143" y="63" width="2" height="11.381" transform="rotate(-90 27.4143 63)" fill="#9F2D22"/>
<rect x="27.4143" y="41" width="2" height="11.381" transform="rotate(-90 27.4143 41)" fill="#9F2D22"/>
<ellipse cx="203.657" cy="286" rx="5.69048" ry="5" transform="rotate(180 203.657 286)" fill="#E0867D"/>
<rect x="203.657" y="289" width="11.381" height="6" transform="rotate(180 203.657 289)" fill="#E0867D"/>
<path fill-rule="evenodd" clip-rule="evenodd" d="M203.657 278C198.629 278 194.552 281.582 194.552 286C194.552 290.418 198.629 294 203.657 294C208.686 294 212.762 290.418 212.762 286C212.762 281.582 208.686 278 203.657 278ZM203.657 279.412C201.876 279.412 200.24 279.957 198.954 280.869L203.606 284.957L208.304 280.829C207.026 279.942 205.412 279.412 203.657 279.412ZM209.451 281.818L204.742 285.955L209.497 290.133C210.534 289.003 211.155 287.565 211.155 286C211.155 284.412 210.516 282.955 209.451 281.818ZM203.606 286.953L208.361 291.131C207.074 292.043 205.438 292.588 203.657 292.588C201.85 292.588 200.192 292.026 198.897 291.091L203.606 286.953ZM202.47 285.955L197.772 290.083C196.762 288.96 196.159 287.542 196.159 286C196.159 284.435 196.78 282.997 197.818 281.867L202.47 285.955Z" fill="#9F2D22"/>
<rect x="192.276" y="291" width="2.27619" height="10" transform="rotate(180 192.276 291)" fill="#9F2D22"/>
<ellipse cx="203.657" cy="230" rx="5.69048" ry="5" transform="rotate(180 203.657 230)" fill="#E0867D"/>
<rect x="203.657" y="233" width="11.381" height="6" transform="rotate(180 203.657 233)" fill="#E0867D"/>
<path fill-rule="evenodd" clip-rule="evenodd" d="M203.657 222C198.629 222 194.552 225.582 194.552 230C194.552 234.418 198.629 238 203.657 238C208.686 238 212.762 234.418 212.762 230C212.762 225.582 208.686 222 203.657 222ZM203.657 223.412C201.876 223.412 200.24 223.957 198.954 224.869L203.606 228.957L208.304 224.829C207.026 223.942 205.412 223.412 203.657 223.412ZM209.451 225.818L204.742 229.955L209.497 234.133C210.534 233.003 211.155 231.565 211.155 230C211.155 228.412 210.516 226.955 209.451 225.818ZM203.606 230.953L208.361 235.131C207.074 236.043 205.438 236.588 203.657 236.588C201.85 236.588 200.192 236.026 198.897 235.091L203.606 230.953ZM202.47 229.955L197.772 234.083C196.762 232.96 196.159 231.542 196.159 230C196.159 228.435 196.78 226.997 197.818 225.867L202.47 229.955Z" fill="#9F2D22"/>
<rect x="192.276" y="235" width="2.27619" height="10" transform="rotate(180 192.276 235)" fill="#9F2D22"/>
<ellipse cx="203.657" cy="174" rx="5.69048" ry="5" transform="rotate(180 203.657 174)" fill="#E0867D"/>
<rect x="203.657" y="177" width="11.381" height="6" transform="rotate(180 203.657 177)" fill="#E0867D"/>
<path fill-rule="evenodd" clip-rule="evenodd" d="M203.657 166C198.629 166 194.552 169.582 194.552 174C194.552 178.418 198.629 182 203.657 182C208.686 182 212.762 178.418 212.762 174C212.762 169.582 208.686 166 203.657 166ZM203.657 167.412C201.876 167.412 200.24 167.957 198.954 168.869L203.606 172.957L208.304 168.829C207.026 167.942 205.412 167.412 203.657 167.412ZM209.451 169.818L204.742 173.955L209.497 178.133C210.534 177.003 211.155 175.565 211.155 174C211.155 172.412 210.516 170.955 209.451 169.818ZM203.606 174.953L208.361 179.131C207.074 180.043 205.438 180.588 203.657 180.588C201.85 180.588 200.192 180.026 198.897 179.091L203.606 174.953ZM202.47 173.955L197.772 178.083C196.762 176.96 196.159 175.542 196.159 174C196.159 172.435 196.78 170.997 197.818 169.867L202.47 173.955Z" fill="#9F2D22"/>
<rect x="192.276" y="179" width="2.27619" height="10" transform="rotate(180 192.276 179)" fill="#9F2D22"/>
<rect x="3" y="66" width="60" height="76" fill="url(#paint1_linear_1772_19492)"/>
<rect x="3" y="3" width="60" height="33" fill="url(#paint2_linear_1772_19492)"/>
<rect x="127" y="3" width="60" height="33" fill="url(#paint3_linear_1772_19492)"/>
<rect x="127" y="66" width="60" height="76" fill="url(#paint4_linear_1772_19492)"/>
<rect x="40" y="234" width="6" height="80" fill="#9F2D22"/>
<rect x="22" y="255" width="6" height="59" fill="#9F2D22"/>
<rect x="162" y="255" width="6" height="59" fill="#9F2D22"/>
<rect x="144" y="234" width="6" height="80" fill="#9F2D22"/>
<defs>
<filter id="filter0_d_1772_19492" x="19" y="145" width="44" height="26" filterUnits="userSpaceOnUse" color-interpolation-filters="sRGB">
<feFlood flood-opacity="0" result="BackgroundImageFix"/>
<feColorMatrix in="SourceAlpha" type="matrix" values="0 0 0 0 0 0 0 0 0 0 0 0 0 0 0 0 0 0 127 0" result="hardAlpha"/>
<feOffset dy="1"/>
<feComposite in2="hardAlpha" operator="out"/>
<feColorMatrix type="matrix" values="0 0 0 0 0.231373 0 0 0 0 0.231373 0 0 0 0 0.231373 0 0 0 1 0"/>
<feBlend mode="normal" in2="BackgroundImageFix" result="effect1_dropShadow_1772_19492"/>
<feBlend mode="normal" in="SourceGraphic" in2="effect1_dropShadow_1772_19492" result="shape"/>
</filter>
<filter id="filter1_d_1772_19492" x="127" y="145" width="44" height="26" filterUnits="userSpaceOnUse" color-interpolation-filters="sRGB">
<feFlood flood-opacity="0" result="BackgroundImageFix"/>
<feColorMatrix in="SourceAlpha" type="matrix" values="0 0 0 0 0 0 0 0 0 0 0 0 0 0 0 0 0 0 127 0" result="hardAlpha"/>
<feOffset dy="1"/>
<feComposite in2="hardAlpha" operator="out"/>
<feColorMatrix type="matrix" values="0 0 0 0 0.231373 0 0 0 0 0.231373 0 0 0 0 0.231373 0 0 0 1 0"/>
<feBlend mode="normal" in2="BackgroundImageFix" result="effect1_dropShadow_1772_19492"/>
<feBlend mode="normal" in="SourceGraphic" in2="effect1_dropShadow_1772_19492" result="shape"/>
</filter>
<linearGradient id="paint0_linear_1772_19492" x1="86" y1="196" x2="104" y2="196" gradientUnits="userSpaceOnUse">
<stop stop-color="#A5B2DC"/>
<stop offset="0.390625" stop-color="#C9D3F1"/>
<stop offset="0.619792" stop-color="#CAD4F2"/>
<stop offset="1" stop-color="#A5B2DC"/>
</linearGradient>
<linearGradient id="paint1_linear_1772_19492" x1="63" y1="66" x2="62.0231" y2="128.857" gradientUnits="userSpaceOnUse">
<stop stop-color="#999494"/>
<stop offset="1" stop-color="#D3D3D3"/>
</linearGradient>
<linearGradient id="paint2_linear_1772_19492" x1="63" y1="3" x2="62.8158" y2="30.2987" gradientUnits="userSpaceOnUse">
<stop stop-color="#999494"/>
<stop offset="1" stop-color="#D3D3D3"/>
</linearGradient>
<linearGradient id="paint3_linear_1772_19492" x1="187" y1="3" x2="186.816" y2="30.2987" gradientUnits="userSpaceOnUse">
<stop stop-color="#999494"/>
<stop offset="1" stop-color="#D3D3D3"/>
</linearGradient>
<linearGradient id="paint4_linear_1772_19492" x1="187" y1="66" x2="186.023" y2="128.857" gradientUnits="userSpaceOnUse">
<stop stop-color="#999494"/>
<stop offset="1" stop-color="#D3D3D3"/>
</linearGradient>
</defs>
</svg>
